<?xml version="1.0" encoding="utf-8" standalone="no"?>
<!DOCTYPE svg PUBLIC "-//W3C//DTD SVG 1.1//EN"
  "http://www.w3.org/Graphics/SVG/1.1/DTD/svg11.dtd">
<svg xmlns:xlink="http://www.w3.org/1999/xlink" width="460.8pt" height="345.6pt" viewBox="0 0 460.8 345.6" xmlns="http://www.w3.org/2000/svg" version="1.1">
 <metadata>
  <rdf:RDF xmlns:dc="http://purl.org/dc/elements/1.1/" xmlns:cc="http://creativecommons.org/ns#" xmlns:rdf="http://www.w3.org/1999/02/22-rdf-syntax-ns#">
   <cc:Work>
    <dc:type rdf:resource="http://purl.org/dc/dcmitype/StillImage"/>
    <dc:date>2025-06-13T17:32:13.531385</dc:date>
    <dc:format>image/svg+xml</dc:format>
    <dc:creator>
     <cc:Agent>
      <dc:title>Matplotlib v3.10.1, https://matplotlib.org/</dc:title>
     </cc:Agent>
    </dc:creator>
   </cc:Work>
  </rdf:RDF>
 </metadata>
 <defs>
  <style type="text/css">*{stroke-linejoin: round; stroke-linecap: butt}</style>
 </defs>
 <g id="figure_1">
  <g id="patch_1">
   <path d="M 0 345.6 
L 460.8 345.6 
L 460.8 0 
L 0 0 
z
" style="fill: #ffffff"/>
  </g>
  <g id="axes_1">
   <g id="patch_2">
    <path d="M 57.6 307.584 
L 414.72 307.584 
L 414.72 41.472 
L 57.6 41.472 
z
" style="fill: #ffffff"/>
   </g>
   <g id="matplotlib.axis_1">
    <g id="xtick_1">
     <g id="line2d_1">
      <path d="M 57.6 307.584 
L 57.6 41.472 
" clip-path="url(#pc3f6e9ea23)" style="fill: none; stroke: #cccccc; stroke-width: 0.8; stroke-linecap: round"/>
     </g>
     <g id="text_1">
      <!-- −10 -->
      <g style="fill: #262626" transform="translate(49.11875 321.741812) scale(0.1 -0.1)">
       <defs>
        <path id="ArialMT-2212" d="M 3381 1997 
L 356 1997 
L 356 2522 
L 3381 2522 
L 3381 1997 
z
" transform="scale(0.015625)"/>
        <path id="ArialMT-31" d="M 2384 0 
L 1822 0 
L 1822 3584 
Q 1619 3391 1289 3197 
Q 959 3003 697 2906 
L 697 3450 
Q 1169 3672 1522 3987 
Q 1875 4303 2022 4600 
L 2384 4600 
L 2384 0 
z
" transform="scale(0.015625)"/>
        <path id="ArialMT-30" d="M 266 2259 
Q 266 3072 433 3567 
Q 600 4063 929 4331 
Q 1259 4600 1759 4600 
Q 2128 4600 2406 4451 
Q 2684 4303 2865 4023 
Q 3047 3744 3150 3342 
Q 3253 2941 3253 2259 
Q 3253 1453 3087 958 
Q 2922 463 2592 192 
Q 2263 -78 1759 -78 
Q 1097 -78 719 397 
Q 266 969 266 2259 
z
M 844 2259 
Q 844 1131 1108 757 
Q 1372 384 1759 384 
Q 2147 384 2411 759 
Q 2675 1134 2675 2259 
Q 2675 3391 2411 3762 
Q 2147 4134 1753 4134 
Q 1366 4134 1134 3806 
Q 844 3388 844 2259 
z
" transform="scale(0.015625)"/>
       </defs>
       <use xlink:href="#ArialMT-2212"/>
       <use xlink:href="#ArialMT-31" transform="translate(58.398438 0)"/>
       <use xlink:href="#ArialMT-30" transform="translate(114.013672 0)"/>
      </g>
     </g>
    </g>
    <g id="xtick_2">
     <g id="line2d_2">
      <path d="M 102.24 307.584 
L 102.24 41.472 
" clip-path="url(#pc3f6e9ea23)" style="fill: none; stroke: #cccccc; stroke-width: 0.8; stroke-linecap: round"/>
     </g>
     <g id="text_2">
      <!-- −5 -->
      <g style="fill: #262626" transform="translate(96.539219 321.741812) scale(0.1 -0.1)">
       <defs>
        <path id="ArialMT-35" d="M 266 1200 
L 856 1250 
Q 922 819 1161 601 
Q 1400 384 1738 384 
Q 2144 384 2425 690 
Q 2706 997 2706 1503 
Q 2706 1984 2436 2262 
Q 2166 2541 1728 2541 
Q 1456 2541 1237 2417 
Q 1019 2294 894 2097 
L 366 2166 
L 809 4519 
L 3088 4519 
L 3088 3981 
L 1259 3981 
L 1013 2750 
Q 1425 3038 1878 3038 
Q 2478 3038 2890 2622 
Q 3303 2206 3303 1553 
Q 3303 931 2941 478 
Q 2500 -78 1738 -78 
Q 1113 -78 717 272 
Q 322 622 266 1200 
z
" transform="scale(0.015625)"/>
       </defs>
       <use xlink:href="#ArialMT-2212"/>
       <use xlink:href="#ArialMT-35" transform="translate(58.398438 0)"/>
      </g>
     </g>
    </g>
    <g id="xtick_3">
     <g id="line2d_3">
      <path d="M 146.88 307.584 
L 146.88 41.472 
" clip-path="url(#pc3f6e9ea23)" style="fill: none; stroke: #cccccc; stroke-width: 0.8; stroke-linecap: round"/>
     </g>
     <g id="text_3">
      <!-- 0 -->
      <g style="fill: #262626" transform="translate(144.099531 321.741812) scale(0.1 -0.1)">
       <use xlink:href="#ArialMT-30"/>
      </g>
     </g>
    </g>
    <g id="xtick_4">
     <g id="line2d_4">
      <path d="M 191.52 307.584 
L 191.52 41.472 
" clip-path="url(#pc3f6e9ea23)" style="fill: none; stroke: #cccccc; stroke-width: 0.8; stroke-linecap: round"/>
     </g>
     <g id="text_4">
      <!-- 5 -->
      <g style="fill: #262626" transform="translate(188.739531 321.741812) scale(0.1 -0.1)">
       <use xlink:href="#ArialMT-35"/>
      </g>
     </g>
    </g>
    <g id="xtick_5">
     <g id="line2d_5">
      <path d="M 236.16 307.584 
L 236.16 41.472 
" clip-path="url(#pc3f6e9ea23)" style="fill: none; stroke: #cccccc; stroke-width: 0.8; stroke-linecap: round"/>
     </g>
     <g id="text_5">
      <!-- 10 -->
      <g style="fill: #262626" transform="translate(230.599063 321.741812) scale(0.1 -0.1)">
       <use xlink:href="#ArialMT-31"/>
       <use xlink:href="#ArialMT-30" transform="translate(55.615234 0)"/>
      </g>
     </g>
    </g>
    <g id="xtick_6">
     <g id="line2d_6">
      <path d="M 280.8 307.584 
L 280.8 41.472 
" clip-path="url(#pc3f6e9ea23)" style="fill: none; stroke: #cccccc; stroke-width: 0.8; stroke-linecap: round"/>
     </g>
     <g id="text_6">
      <!-- 15 -->
      <g style="fill: #262626" transform="translate(275.239062 321.741812) scale(0.1 -0.1)">
       <use xlink:href="#ArialMT-31"/>
       <use xlink:href="#ArialMT-35" transform="translate(55.615234 0)"/>
      </g>
     </g>
    </g>
    <g id="xtick_7">
     <g id="line2d_7">
      <path d="M 325.44 307.584 
L 325.44 41.472 
" clip-path="url(#pc3f6e9ea23)" style="fill: none; stroke: #cccccc; stroke-width: 0.8; stroke-linecap: round"/>
     </g>
     <g id="text_7">
      <!-- 20 -->
      <g style="fill: #262626" transform="translate(319.879062 321.741812) scale(0.1 -0.1)">
       <defs>
        <path id="ArialMT-32" d="M 3222 541 
L 3222 0 
L 194 0 
Q 188 203 259 391 
Q 375 700 629 1000 
Q 884 1300 1366 1694 
Q 2113 2306 2375 2664 
Q 2638 3022 2638 3341 
Q 2638 3675 2398 3904 
Q 2159 4134 1775 4134 
Q 1369 4134 1125 3890 
Q 881 3647 878 3216 
L 300 3275 
Q 359 3922 746 4261 
Q 1134 4600 1788 4600 
Q 2447 4600 2831 4234 
Q 3216 3869 3216 3328 
Q 3216 3053 3103 2787 
Q 2991 2522 2730 2228 
Q 2469 1934 1863 1422 
Q 1356 997 1212 845 
Q 1069 694 975 541 
L 3222 541 
z
" transform="scale(0.015625)"/>
       </defs>
       <use xlink:href="#ArialMT-32"/>
       <use xlink:href="#ArialMT-30" transform="translate(55.615234 0)"/>
      </g>
     </g>
    </g>
    <g id="xtick_8">
     <g id="line2d_8">
      <path d="M 370.08 307.584 
L 370.08 41.472 
" clip-path="url(#pc3f6e9ea23)" style="fill: none; stroke: #cccccc; stroke-width: 0.8; stroke-linecap: round"/>
     </g>
     <g id="text_8">
      <!-- 25 -->
      <g style="fill: #262626" transform="translate(364.519063 321.741812) scale(0.1 -0.1)">
       <use xlink:href="#ArialMT-32"/>
       <use xlink:href="#ArialMT-35" transform="translate(55.615234 0)"/>
      </g>
     </g>
    </g>
    <g id="xtick_9">
     <g id="line2d_9">
      <path d="M 414.72 307.584 
L 414.72 41.472 
" clip-path="url(#pc3f6e9ea23)" style="fill: none; stroke: #cccccc; stroke-width: 0.8; stroke-linecap: round"/>
     </g>
     <g id="text_9">
      <!-- 30 -->
      <g style="fill: #262626" transform="translate(409.159063 321.741812) scale(0.1 -0.1)">
       <defs>
        <path id="ArialMT-33" d="M 269 1209 
L 831 1284 
Q 928 806 1161 595 
Q 1394 384 1728 384 
Q 2125 384 2398 659 
Q 2672 934 2672 1341 
Q 2672 1728 2419 1979 
Q 2166 2231 1775 2231 
Q 1616 2231 1378 2169 
L 1441 2663 
Q 1497 2656 1531 2656 
Q 1891 2656 2178 2843 
Q 2466 3031 2466 3422 
Q 2466 3731 2256 3934 
Q 2047 4138 1716 4138 
Q 1388 4138 1169 3931 
Q 950 3725 888 3313 
L 325 3413 
Q 428 3978 793 4289 
Q 1159 4600 1703 4600 
Q 2078 4600 2393 4439 
Q 2709 4278 2876 4000 
Q 3044 3722 3044 3409 
Q 3044 3113 2884 2869 
Q 2725 2625 2413 2481 
Q 2819 2388 3044 2092 
Q 3269 1797 3269 1353 
Q 3269 753 2831 336 
Q 2394 -81 1725 -81 
Q 1122 -81 723 278 
Q 325 638 269 1209 
z
" transform="scale(0.015625)"/>
       </defs>
       <use xlink:href="#ArialMT-33"/>
       <use xlink:href="#ArialMT-30" transform="translate(55.615234 0)"/>
      </g>
     </g>
    </g>
    <g id="text_10">
     <!-- Relative retention time difference (%) -->
     <g style="fill: #262626" transform="translate(153.994375 335.009) scale(0.1 -0.1)">
      <defs>
       <path id="ArialMT-52" d="M 503 0 
L 503 4581 
L 2534 4581 
Q 3147 4581 3465 4457 
Q 3784 4334 3975 4021 
Q 4166 3709 4166 3331 
Q 4166 2844 3850 2509 
Q 3534 2175 2875 2084 
Q 3116 1969 3241 1856 
Q 3506 1613 3744 1247 
L 4541 0 
L 3778 0 
L 3172 953 
Q 2906 1366 2734 1584 
Q 2563 1803 2427 1890 
Q 2291 1978 2150 2013 
Q 2047 2034 1813 2034 
L 1109 2034 
L 1109 0 
L 503 0 
z
M 1109 2559 
L 2413 2559 
Q 2828 2559 3062 2645 
Q 3297 2731 3419 2920 
Q 3541 3109 3541 3331 
Q 3541 3656 3305 3865 
Q 3069 4075 2559 4075 
L 1109 4075 
L 1109 2559 
z
" transform="scale(0.015625)"/>
       <path id="ArialMT-65" d="M 2694 1069 
L 3275 997 
Q 3138 488 2766 206 
Q 2394 -75 1816 -75 
Q 1088 -75 661 373 
Q 234 822 234 1631 
Q 234 2469 665 2931 
Q 1097 3394 1784 3394 
Q 2450 3394 2872 2941 
Q 3294 2488 3294 1666 
Q 3294 1616 3291 1516 
L 816 1516 
Q 847 969 1125 678 
Q 1403 388 1819 388 
Q 2128 388 2347 550 
Q 2566 713 2694 1069 
z
M 847 1978 
L 2700 1978 
Q 2663 2397 2488 2606 
Q 2219 2931 1791 2931 
Q 1403 2931 1139 2672 
Q 875 2413 847 1978 
z
" transform="scale(0.015625)"/>
       <path id="ArialMT-6c" d="M 409 0 
L 409 4581 
L 972 4581 
L 972 0 
L 409 0 
z
" transform="scale(0.015625)"/>
       <path id="ArialMT-61" d="M 2588 409 
Q 2275 144 1986 34 
Q 1697 -75 1366 -75 
Q 819 -75 525 192 
Q 231 459 231 875 
Q 231 1119 342 1320 
Q 453 1522 633 1644 
Q 813 1766 1038 1828 
Q 1203 1872 1538 1913 
Q 2219 1994 2541 2106 
Q 2544 2222 2544 2253 
Q 2544 2597 2384 2738 
Q 2169 2928 1744 2928 
Q 1347 2928 1158 2789 
Q 969 2650 878 2297 
L 328 2372 
Q 403 2725 575 2942 
Q 747 3159 1072 3276 
Q 1397 3394 1825 3394 
Q 2250 3394 2515 3294 
Q 2781 3194 2906 3042 
Q 3031 2891 3081 2659 
Q 3109 2516 3109 2141 
L 3109 1391 
Q 3109 606 3145 398 
Q 3181 191 3288 0 
L 2700 0 
Q 2613 175 2588 409 
z
M 2541 1666 
Q 2234 1541 1622 1453 
Q 1275 1403 1131 1340 
Q 988 1278 909 1158 
Q 831 1038 831 891 
Q 831 666 1001 516 
Q 1172 366 1500 366 
Q 1825 366 2078 508 
Q 2331 650 2450 897 
Q 2541 1088 2541 1459 
L 2541 1666 
z
" transform="scale(0.015625)"/>
       <path id="ArialMT-74" d="M 1650 503 
L 1731 6 
Q 1494 -44 1306 -44 
Q 1000 -44 831 53 
Q 663 150 594 308 
Q 525 466 525 972 
L 525 2881 
L 113 2881 
L 113 3319 
L 525 3319 
L 525 4141 
L 1084 4478 
L 1084 3319 
L 1650 3319 
L 1650 2881 
L 1084 2881 
L 1084 941 
Q 1084 700 1114 631 
Q 1144 563 1211 522 
Q 1278 481 1403 481 
Q 1497 481 1650 503 
z
" transform="scale(0.015625)"/>
       <path id="ArialMT-69" d="M 425 3934 
L 425 4581 
L 988 4581 
L 988 3934 
L 425 3934 
z
M 425 0 
L 425 3319 
L 988 3319 
L 988 0 
L 425 0 
z
" transform="scale(0.015625)"/>
       <path id="ArialMT-76" d="M 1344 0 
L 81 3319 
L 675 3319 
L 1388 1331 
Q 1503 1009 1600 663 
Q 1675 925 1809 1294 
L 2547 3319 
L 3125 3319 
L 1869 0 
L 1344 0 
z
" transform="scale(0.015625)"/>
       <path id="ArialMT-20" transform="scale(0.015625)"/>
       <path id="ArialMT-72" d="M 416 0 
L 416 3319 
L 922 3319 
L 922 2816 
Q 1116 3169 1280 3281 
Q 1444 3394 1641 3394 
Q 1925 3394 2219 3213 
L 2025 2691 
Q 1819 2813 1613 2813 
Q 1428 2813 1281 2702 
Q 1134 2591 1072 2394 
Q 978 2094 978 1738 
L 978 0 
L 416 0 
z
" transform="scale(0.015625)"/>
       <path id="ArialMT-6e" d="M 422 0 
L 422 3319 
L 928 3319 
L 928 2847 
Q 1294 3394 1984 3394 
Q 2284 3394 2536 3286 
Q 2788 3178 2913 3003 
Q 3038 2828 3088 2588 
Q 3119 2431 3119 2041 
L 3119 0 
L 2556 0 
L 2556 2019 
Q 2556 2363 2490 2533 
Q 2425 2703 2258 2804 
Q 2091 2906 1866 2906 
Q 1506 2906 1245 2678 
Q 984 2450 984 1813 
L 984 0 
L 422 0 
z
" transform="scale(0.015625)"/>
       <path id="ArialMT-6f" d="M 213 1659 
Q 213 2581 725 3025 
Q 1153 3394 1769 3394 
Q 2453 3394 2887 2945 
Q 3322 2497 3322 1706 
Q 3322 1066 3130 698 
Q 2938 331 2570 128 
Q 2203 -75 1769 -75 
Q 1072 -75 642 372 
Q 213 819 213 1659 
z
M 791 1659 
Q 791 1022 1069 705 
Q 1347 388 1769 388 
Q 2188 388 2466 706 
Q 2744 1025 2744 1678 
Q 2744 2294 2464 2611 
Q 2184 2928 1769 2928 
Q 1347 2928 1069 2612 
Q 791 2297 791 1659 
z
" transform="scale(0.015625)"/>
       <path id="ArialMT-6d" d="M 422 0 
L 422 3319 
L 925 3319 
L 925 2853 
Q 1081 3097 1340 3245 
Q 1600 3394 1931 3394 
Q 2300 3394 2536 3241 
Q 2772 3088 2869 2813 
Q 3263 3394 3894 3394 
Q 4388 3394 4653 3120 
Q 4919 2847 4919 2278 
L 4919 0 
L 4359 0 
L 4359 2091 
Q 4359 2428 4304 2576 
Q 4250 2725 4106 2815 
Q 3963 2906 3769 2906 
Q 3419 2906 3187 2673 
Q 2956 2441 2956 1928 
L 2956 0 
L 2394 0 
L 2394 2156 
Q 2394 2531 2256 2718 
Q 2119 2906 1806 2906 
Q 1569 2906 1367 2781 
Q 1166 2656 1075 2415 
Q 984 2175 984 1722 
L 984 0 
L 422 0 
z
" transform="scale(0.015625)"/>
       <path id="ArialMT-64" d="M 2575 0 
L 2575 419 
Q 2259 -75 1647 -75 
Q 1250 -75 917 144 
Q 584 363 401 755 
Q 219 1147 219 1656 
Q 219 2153 384 2558 
Q 550 2963 881 3178 
Q 1213 3394 1622 3394 
Q 1922 3394 2156 3267 
Q 2391 3141 2538 2938 
L 2538 4581 
L 3097 4581 
L 3097 0 
L 2575 0 
z
M 797 1656 
Q 797 1019 1065 703 
Q 1334 388 1700 388 
Q 2069 388 2326 689 
Q 2584 991 2584 1609 
Q 2584 2291 2321 2609 
Q 2059 2928 1675 2928 
Q 1300 2928 1048 2622 
Q 797 2316 797 1656 
z
" transform="scale(0.015625)"/>
       <path id="ArialMT-66" d="M 556 0 
L 556 2881 
L 59 2881 
L 59 3319 
L 556 3319 
L 556 3672 
Q 556 4006 616 4169 
Q 697 4388 901 4523 
Q 1106 4659 1475 4659 
Q 1713 4659 2000 4603 
L 1916 4113 
Q 1741 4144 1584 4144 
Q 1328 4144 1222 4034 
Q 1116 3925 1116 3625 
L 1116 3319 
L 1763 3319 
L 1763 2881 
L 1116 2881 
L 1116 0 
L 556 0 
z
" transform="scale(0.015625)"/>
       <path id="ArialMT-63" d="M 2588 1216 
L 3141 1144 
Q 3050 572 2676 248 
Q 2303 -75 1759 -75 
Q 1078 -75 664 370 
Q 250 816 250 1647 
Q 250 2184 428 2587 
Q 606 2991 970 3192 
Q 1334 3394 1763 3394 
Q 2303 3394 2647 3120 
Q 2991 2847 3088 2344 
L 2541 2259 
Q 2463 2594 2264 2762 
Q 2066 2931 1784 2931 
Q 1359 2931 1093 2626 
Q 828 2322 828 1663 
Q 828 994 1084 691 
Q 1341 388 1753 388 
Q 2084 388 2306 591 
Q 2528 794 2588 1216 
z
" transform="scale(0.015625)"/>
       <path id="ArialMT-28" d="M 1497 -1347 
Q 1031 -759 709 28 
Q 388 816 388 1659 
Q 388 2403 628 3084 
Q 909 3875 1497 4659 
L 1900 4659 
Q 1522 4009 1400 3731 
Q 1209 3300 1100 2831 
Q 966 2247 966 1656 
Q 966 153 1900 -1347 
L 1497 -1347 
z
" transform="scale(0.015625)"/>
       <path id="ArialMT-25" d="M 372 3481 
Q 372 3972 619 4315 
Q 866 4659 1334 4659 
Q 1766 4659 2048 4351 
Q 2331 4044 2331 3447 
Q 2331 2866 2045 2552 
Q 1759 2238 1341 2238 
Q 925 2238 648 2547 
Q 372 2856 372 3481 
z
M 1350 4272 
Q 1141 4272 1002 4090 
Q 863 3909 863 3425 
Q 863 2984 1003 2804 
Q 1144 2625 1350 2625 
Q 1563 2625 1702 2806 
Q 1841 2988 1841 3469 
Q 1841 3913 1700 4092 
Q 1559 4272 1350 4272 
z
M 1353 -169 
L 3859 4659 
L 4316 4659 
L 1819 -169 
L 1353 -169 
z
M 3334 1075 
Q 3334 1569 3581 1911 
Q 3828 2253 4300 2253 
Q 4731 2253 5014 1945 
Q 5297 1638 5297 1041 
Q 5297 459 5011 145 
Q 4725 -169 4303 -169 
Q 3888 -169 3611 142 
Q 3334 453 3334 1075 
z
M 4316 1866 
Q 4103 1866 3964 1684 
Q 3825 1503 3825 1019 
Q 3825 581 3965 400 
Q 4106 219 4313 219 
Q 4528 219 4667 400 
Q 4806 581 4806 1063 
Q 4806 1506 4665 1686 
Q 4525 1866 4316 1866 
z
" transform="scale(0.015625)"/>
       <path id="ArialMT-29" d="M 791 -1347 
L 388 -1347 
Q 1322 153 1322 1656 
Q 1322 2244 1188 2822 
Q 1081 3291 891 3722 
Q 769 4003 388 4659 
L 791 4659 
Q 1378 3875 1659 3084 
Q 1900 2403 1900 1659 
Q 1900 816 1576 28 
Q 1253 -759 791 -1347 
z
" transform="scale(0.015625)"/>
      </defs>
      <use xlink:href="#ArialMT-52"/>
      <use xlink:href="#ArialMT-65" transform="translate(72.216797 0)"/>
      <use xlink:href="#ArialMT-6c" transform="translate(127.832031 0)"/>
      <use xlink:href="#ArialMT-61" transform="translate(150.048828 0)"/>
      <use xlink:href="#ArialMT-74" transform="translate(205.664062 0)"/>
      <use xlink:href="#ArialMT-69" transform="translate(233.447266 0)"/>
      <use xlink:href="#ArialMT-76" transform="translate(255.664062 0)"/>
      <use xlink:href="#ArialMT-65" transform="translate(305.664062 0)"/>
      <use xlink:href="#ArialMT-20" transform="translate(361.279297 0)"/>
      <use xlink:href="#ArialMT-72" transform="translate(389.0625 0)"/>
      <use xlink:href="#ArialMT-65" transform="translate(422.363281 0)"/>
      <use xlink:href="#ArialMT-74" transform="translate(477.978516 0)"/>
      <use xlink:href="#ArialMT-65" transform="translate(505.761719 0)"/>
      <use xlink:href="#ArialMT-6e" transform="translate(561.376953 0)"/>
      <use xlink:href="#ArialMT-74" transform="translate(616.992188 0)"/>
      <use xlink:href="#ArialMT-69" transform="translate(644.775391 0)"/>
      <use xlink:href="#ArialMT-6f" transform="translate(666.992188 0)"/>
      <use xlink:href="#ArialMT-6e" transform="translate(722.607422 0)"/>
      <use xlink:href="#ArialMT-20" transform="translate(778.222656 0)"/>
      <use xlink:href="#ArialMT-74" transform="translate(806.005859 0)"/>
      <use xlink:href="#ArialMT-69" transform="translate(833.789062 0)"/>
      <use xlink:href="#ArialMT-6d" transform="translate(856.005859 0)"/>
      <use xlink:href="#ArialMT-65" transform="translate(939.306641 0)"/>
      <use xlink:href="#ArialMT-20" transform="translate(994.921875 0)"/>
      <use xlink:href="#ArialMT-64" transform="translate(1022.705078 0)"/>
      <use xlink:href="#ArialMT-69" transform="translate(1078.320312 0)"/>
      <use xlink:href="#ArialMT-66" transform="translate(1100.537109 0)"/>
      <use xlink:href="#ArialMT-66" transform="translate(1126.570312 0)"/>
      <use xlink:href="#ArialMT-65" transform="translate(1154.353516 0)"/>
      <use xlink:href="#ArialMT-72" transform="translate(1209.96875 0)"/>
      <use xlink:href="#ArialMT-65" transform="translate(1243.269531 0)"/>
      <use xlink:href="#ArialMT-6e" transform="translate(1298.884766 0)"/>
      <use xlink:href="#ArialMT-63" transform="translate(1354.5 0)"/>
      <use xlink:href="#ArialMT-65" transform="translate(1404.5 0)"/>
      <use xlink:href="#ArialMT-20" transform="translate(1460.115234 0)"/>
      <use xlink:href="#ArialMT-28" transform="translate(1487.898438 0)"/>
      <use xlink:href="#ArialMT-25" transform="translate(1521.199219 0)"/>
      <use xlink:href="#ArialMT-29" transform="translate(1610.115234 0)"/>
     </g>
    </g>
   </g>
   <g id="matplotlib.axis_2">
    <g id="ytick_1">
     <g id="line2d_10">
      <path d="M 57.6 307.584 
L 414.72 307.584 
" clip-path="url(#pc3f6e9ea23)" style="fill: none; stroke: #cccccc; stroke-width: 0.8; stroke-linecap: round"/>
     </g>
     <g id="text_11">
      <!-- 0.00 -->
      <g style="fill: #262626" transform="translate(31.139063 311.162906) scale(0.1 -0.1)">
       <defs>
        <path id="ArialMT-2e" d="M 581 0 
L 581 641 
L 1222 641 
L 1222 0 
L 581 0 
z
" transform="scale(0.015625)"/>
       </defs>
       <use xlink:href="#ArialMT-30"/>
       <use xlink:href="#ArialMT-2e" transform="translate(55.615234 0)"/>
       <use xlink:href="#ArialMT-30" transform="translate(83.398438 0)"/>
       <use xlink:href="#ArialMT-30" transform="translate(139.013672 0)"/>
      </g>
     </g>
    </g>
    <g id="ytick_2">
     <g id="line2d_11">
      <path d="M 57.6 276.897394 
L 414.72 276.897394 
" clip-path="url(#pc3f6e9ea23)" style="fill: none; stroke: #cccccc; stroke-width: 0.8; stroke-linecap: round"/>
     </g>
     <g id="text_12">
      <!-- 0.05 -->
      <g style="fill: #262626" transform="translate(31.139063 280.4763) scale(0.1 -0.1)">
       <use xlink:href="#ArialMT-30"/>
       <use xlink:href="#ArialMT-2e" transform="translate(55.615234 0)"/>
       <use xlink:href="#ArialMT-30" transform="translate(83.398438 0)"/>
       <use xlink:href="#ArialMT-35" transform="translate(139.013672 0)"/>
      </g>
     </g>
    </g>
    <g id="ytick_3">
     <g id="line2d_12">
      <path d="M 57.6 246.210788 
L 414.72 246.210788 
" clip-path="url(#pc3f6e9ea23)" style="fill: none; stroke: #cccccc; stroke-width: 0.8; stroke-linecap: round"/>
     </g>
     <g id="text_13">
      <!-- 0.10 -->
      <g style="fill: #262626" transform="translate(31.139063 249.789694) scale(0.1 -0.1)">
       <use xlink:href="#ArialMT-30"/>
       <use xlink:href="#ArialMT-2e" transform="translate(55.615234 0)"/>
       <use xlink:href="#ArialMT-31" transform="translate(83.398438 0)"/>
       <use xlink:href="#ArialMT-30" transform="translate(139.013672 0)"/>
      </g>
     </g>
    </g>
    <g id="ytick_4">
     <g id="line2d_13">
      <path d="M 57.6 215.524181 
L 414.72 215.524181 
" clip-path="url(#pc3f6e9ea23)" style="fill: none; stroke: #cccccc; stroke-width: 0.8; stroke-linecap: round"/>
     </g>
     <g id="text_14">
      <!-- 0.15 -->
      <g style="fill: #262626" transform="translate(31.139063 219.103088) scale(0.1 -0.1)">
       <use xlink:href="#ArialMT-30"/>
       <use xlink:href="#ArialMT-2e" transform="translate(55.615234 0)"/>
       <use xlink:href="#ArialMT-31" transform="translate(83.398438 0)"/>
       <use xlink:href="#ArialMT-35" transform="translate(139.013672 0)"/>
      </g>
     </g>
    </g>
    <g id="ytick_5">
     <g id="line2d_14">
      <path d="M 57.6 184.837575 
L 414.72 184.837575 
" clip-path="url(#pc3f6e9ea23)" style="fill: none; stroke: #cccccc; stroke-width: 0.8; stroke-linecap: round"/>
     </g>
     <g id="text_15">
      <!-- 0.20 -->
      <g style="fill: #262626" transform="translate(31.139063 188.416481) scale(0.1 -0.1)">
       <use xlink:href="#ArialMT-30"/>
       <use xlink:href="#ArialMT-2e" transform="translate(55.615234 0)"/>
       <use xlink:href="#ArialMT-32" transform="translate(83.398438 0)"/>
       <use xlink:href="#ArialMT-30" transform="translate(139.013672 0)"/>
      </g>
     </g>
    </g>
    <g id="ytick_6">
     <g id="line2d_15">
      <path d="M 57.6 154.150969 
L 414.72 154.150969 
" clip-path="url(#pc3f6e9ea23)" style="fill: none; stroke: #cccccc; stroke-width: 0.8; stroke-linecap: round"/>
     </g>
     <g id="text_16">
      <!-- 0.25 -->
      <g style="fill: #262626" transform="translate(31.139063 157.729875) scale(0.1 -0.1)">
       <use xlink:href="#ArialMT-30"/>
       <use xlink:href="#ArialMT-2e" transform="translate(55.615234 0)"/>
       <use xlink:href="#ArialMT-32" transform="translate(83.398438 0)"/>
       <use xlink:href="#ArialMT-35" transform="translate(139.013672 0)"/>
      </g>
     </g>
    </g>
    <g id="ytick_7">
     <g id="line2d_16">
      <path d="M 57.6 123.464363 
L 414.72 123.464363 
" clip-path="url(#pc3f6e9ea23)" style="fill: none; stroke: #cccccc; stroke-width: 0.8; stroke-linecap: round"/>
     </g>
     <g id="text_17">
      <!-- 0.30 -->
      <g style="fill: #262626" transform="translate(31.139063 127.043269) scale(0.1 -0.1)">
       <use xlink:href="#ArialMT-30"/>
       <use xlink:href="#ArialMT-2e" transform="translate(55.615234 0)"/>
       <use xlink:href="#ArialMT-33" transform="translate(83.398438 0)"/>
       <use xlink:href="#ArialMT-30" transform="translate(139.013672 0)"/>
      </g>
     </g>
    </g>
    <g id="ytick_8">
     <g id="line2d_17">
      <path d="M 57.6 92.777756 
L 414.72 92.777756 
" clip-path="url(#pc3f6e9ea23)" style="fill: none; stroke: #cccccc; stroke-width: 0.8; stroke-linecap: round"/>
     </g>
     <g id="text_18">
      <!-- 0.35 -->
      <g style="fill: #262626" transform="translate(31.139063 96.356663) scale(0.1 -0.1)">
       <use xlink:href="#ArialMT-30"/>
       <use xlink:href="#ArialMT-2e" transform="translate(55.615234 0)"/>
       <use xlink:href="#ArialMT-33" transform="translate(83.398438 0)"/>
       <use xlink:href="#ArialMT-35" transform="translate(139.013672 0)"/>
      </g>
     </g>
    </g>
    <g id="ytick_9">
     <g id="line2d_18">
      <path d="M 57.6 62.09115 
L 414.72 62.09115 
" clip-path="url(#pc3f6e9ea23)" style="fill: none; stroke: #cccccc; stroke-width: 0.8; stroke-linecap: round"/>
     </g>
     <g id="text_19">
      <!-- 0.40 -->
      <g style="fill: #262626" transform="translate(31.139063 65.670056) scale(0.1 -0.1)">
       <defs>
        <path id="ArialMT-34" d="M 2069 0 
L 2069 1097 
L 81 1097 
L 81 1613 
L 2172 4581 
L 2631 4581 
L 2631 1613 
L 3250 1613 
L 3250 1097 
L 2631 1097 
L 2631 0 
L 2069 0 
z
M 2069 1613 
L 2069 3678 
L 634 1613 
L 2069 1613 
z
" transform="scale(0.015625)"/>
       </defs>
       <use xlink:href="#ArialMT-30"/>
       <use xlink:href="#ArialMT-2e" transform="translate(55.615234 0)"/>
       <use xlink:href="#ArialMT-34" transform="translate(83.398438 0)"/>
       <use xlink:href="#ArialMT-30" transform="translate(139.013672 0)"/>
      </g>
     </g>
    </g>
    <g id="text_20">
     <!-- Density -->
     <g style="fill: #262626" transform="translate(25.034375 191.199875) rotate(-90) scale(0.1 -0.1)">
      <defs>
       <path id="ArialMT-44" d="M 494 0 
L 494 4581 
L 2072 4581 
Q 2606 4581 2888 4516 
Q 3281 4425 3559 4188 
Q 3922 3881 4101 3404 
Q 4281 2928 4281 2316 
Q 4281 1794 4159 1391 
Q 4038 988 3847 723 
Q 3656 459 3429 307 
Q 3203 156 2883 78 
Q 2563 0 2147 0 
L 494 0 
z
M 1100 541 
L 2078 541 
Q 2531 541 2789 625 
Q 3047 709 3200 863 
Q 3416 1078 3536 1442 
Q 3656 1806 3656 2325 
Q 3656 3044 3420 3430 
Q 3184 3816 2847 3947 
Q 2603 4041 2063 4041 
L 1100 4041 
L 1100 541 
z
" transform="scale(0.015625)"/>
       <path id="ArialMT-73" d="M 197 991 
L 753 1078 
Q 800 744 1014 566 
Q 1228 388 1613 388 
Q 2000 388 2187 545 
Q 2375 703 2375 916 
Q 2375 1106 2209 1216 
Q 2094 1291 1634 1406 
Q 1016 1563 777 1677 
Q 538 1791 414 1992 
Q 291 2194 291 2438 
Q 291 2659 392 2848 
Q 494 3038 669 3163 
Q 800 3259 1026 3326 
Q 1253 3394 1513 3394 
Q 1903 3394 2198 3281 
Q 2494 3169 2634 2976 
Q 2775 2784 2828 2463 
L 2278 2388 
Q 2241 2644 2061 2787 
Q 1881 2931 1553 2931 
Q 1166 2931 1000 2803 
Q 834 2675 834 2503 
Q 834 2394 903 2306 
Q 972 2216 1119 2156 
Q 1203 2125 1616 2013 
Q 2213 1853 2448 1751 
Q 2684 1650 2818 1456 
Q 2953 1263 2953 975 
Q 2953 694 2789 445 
Q 2625 197 2315 61 
Q 2006 -75 1616 -75 
Q 969 -75 630 194 
Q 291 463 197 991 
z
" transform="scale(0.015625)"/>
       <path id="ArialMT-79" d="M 397 -1278 
L 334 -750 
Q 519 -800 656 -800 
Q 844 -800 956 -737 
Q 1069 -675 1141 -563 
Q 1194 -478 1313 -144 
Q 1328 -97 1363 -6 
L 103 3319 
L 709 3319 
L 1400 1397 
Q 1534 1031 1641 628 
Q 1738 1016 1872 1384 
L 2581 3319 
L 3144 3319 
L 1881 -56 
Q 1678 -603 1566 -809 
Q 1416 -1088 1222 -1217 
Q 1028 -1347 759 -1347 
Q 597 -1347 397 -1278 
z
" transform="scale(0.015625)"/>
      </defs>
      <use xlink:href="#ArialMT-44"/>
      <use xlink:href="#ArialMT-65" transform="translate(72.216797 0)"/>
      <use xlink:href="#ArialMT-6e" transform="translate(127.832031 0)"/>
      <use xlink:href="#ArialMT-73" transform="translate(183.447266 0)"/>
      <use xlink:href="#ArialMT-69" transform="translate(233.447266 0)"/>
      <use xlink:href="#ArialMT-74" transform="translate(255.664062 0)"/>
      <use xlink:href="#ArialMT-79" transform="translate(283.447266 0)"/>
     </g>
    </g>
   </g>
   <g id="FillBetweenPolyCollection_1">
    <path d="M -391.382893 307.572185 
L -391.382893 307.584 
L -387.794276 307.584 
L -384.205659 307.584 
L -380.617043 307.584 
L -377.028426 307.584 
L -373.439809 307.584 
L -369.851192 307.584 
L -366.262576 307.584 
L -362.673959 307.584 
L -359.085342 307.584 
L -355.496726 307.584 
L -351.908109 307.584 
L -348.319492 307.584 
L -344.730876 307.584 
L -341.142259 307.584 
L -337.553642 307.584 
L -333.965026 307.584 
L -330.376409 307.584 
L -326.787792 307.584 
L -323.199176 307.584 
L -319.610559 307.584 
L -316.021942 307.584 
L -312.433326 307.584 
L -308.844709 307.584 
L -305.256092 307.584 
L -301.667476 307.584 
L -298.078859 307.584 
L -294.490242 307.584 
L -290.901626 307.584 
L -287.313009 307.584 
L -283.724392 307.584 
L -280.135776 307.584 
L -276.547159 307.584 
L -272.958542 307.584 
L -269.369926 307.584 
L -265.781309 307.584 
L -262.192692 307.584 
L -258.604076 307.584 
L -255.015459 307.584 
L -251.426842 307.584 
L -247.838226 307.584 
L -244.249609 307.584 
L -240.660992 307.584 
L -237.072376 307.584 
L -233.483759 307.584 
L -229.895142 307.584 
L -226.306526 307.584 
L -222.717909 307.584 
L -219.129292 307.584 
L -215.540676 307.584 
L -211.952059 307.584 
L -208.363442 307.584 
L -204.774826 307.584 
L -201.186209 307.584 
L -197.597592 307.584 
L -194.008976 307.584 
L -190.420359 307.584 
L -186.831742 307.584 
L -183.243125 307.584 
L -179.654509 307.584 
L -176.065892 307.584 
L -172.477275 307.584 
L -168.888659 307.584 
L -165.300042 307.584 
L -161.711425 307.584 
L -158.122809 307.584 
L -154.534192 307.584 
L -150.945575 307.584 
L -147.356959 307.584 
L -143.768342 307.584 
L -140.179725 307.584 
L -136.591109 307.584 
L -133.002492 307.584 
L -129.413875 307.584 
L -125.825259 307.584 
L -122.236642 307.584 
L -118.648025 307.584 
L -115.059409 307.584 
L -111.470792 307.584 
L -107.882175 307.584 
L -104.293559 307.584 
L -100.704942 307.584 
L -97.116325 307.584 
L -93.527709 307.584 
L -89.939092 307.584 
L -86.350475 307.584 
L -82.761859 307.584 
L -79.173242 307.584 
L -75.584625 307.584 
L -71.996009 307.584 
L -68.407392 307.584 
L -64.818775 307.584 
L -61.230159 307.584 
L -57.641542 307.584 
L -54.052925 307.584 
L -50.464309 307.584 
L -46.875692 307.584 
L -43.287075 307.584 
L -39.698459 307.584 
L -36.109842 307.584 
L -32.521225 307.584 
L -28.932609 307.584 
L -25.343992 307.584 
L -21.755375 307.584 
L -18.166759 307.584 
L -14.578142 307.584 
L -10.989525 307.584 
L -7.400909 307.584 
L -3.812292 307.584 
L -0.223675 307.584 
L 3.364941 307.584 
L 6.953558 307.584 
L 10.542175 307.584 
L 14.130792 307.584 
L 17.719408 307.584 
L 21.308025 307.584 
L 24.896642 307.584 
L 28.485258 307.584 
L 32.073875 307.584 
L 35.662492 307.584 
L 39.251108 307.584 
L 42.839725 307.584 
L 46.428342 307.584 
L 50.016958 307.584 
L 53.605575 307.584 
L 57.194192 307.584 
L 60.782808 307.584 
L 64.371425 307.584 
L 67.960042 307.584 
L 71.548658 307.584 
L 75.137275 307.584 
L 78.725892 307.584 
L 82.314508 307.584 
L 85.903125 307.584 
L 89.491742 307.584 
L 93.080358 307.584 
L 96.668975 307.584 
L 100.257592 307.584 
L 103.846208 307.584 
L 107.434825 307.584 
L 111.023442 307.584 
L 114.612058 307.584 
L 118.200675 307.584 
L 121.789292 307.584 
L 125.377908 307.584 
L 128.966525 307.584 
L 132.555142 307.584 
L 136.143758 307.584 
L 139.732375 307.584 
L 143.320992 307.584 
L 146.909608 307.584 
L 150.498225 307.584 
L 154.086842 307.584 
L 157.675458 307.584 
L 161.264075 307.584 
L 164.852692 307.584 
L 168.441308 307.584 
L 172.029925 307.584 
L 175.618542 307.584 
L 179.207158 307.584 
L 182.795775 307.584 
L 186.384392 307.584 
L 189.973008 307.584 
L 193.561625 307.584 
L 197.150242 307.584 
L 200.738859 307.584 
L 204.327475 307.584 
L 207.916092 307.584 
L 211.504709 307.584 
L 215.093325 307.584 
L 218.681942 307.584 
L 222.270559 307.584 
L 225.859175 307.584 
L 229.447792 307.584 
L 233.036409 307.584 
L 236.625025 307.584 
L 240.213642 307.584 
L 243.802259 307.584 
L 247.390875 307.584 
L 250.979492 307.584 
L 254.568109 307.584 
L 258.156725 307.584 
L 261.745342 307.584 
L 265.333959 307.584 
L 268.922575 307.584 
L 272.511192 307.584 
L 276.099809 307.584 
L 279.688425 307.584 
L 283.277042 307.584 
L 286.865659 307.584 
L 290.454275 307.584 
L 294.042892 307.584 
L 297.631509 307.584 
L 301.220125 307.584 
L 304.808742 307.584 
L 308.397359 307.584 
L 311.985975 307.584 
L 315.574592 307.584 
L 319.163209 307.584 
L 322.751825 307.584 
L 322.751825 307.572185 
L 322.751825 307.572185 
L 319.163209 307.484677 
L 315.574592 307.159439 
L 311.985975 306.66119 
L 308.397359 306.56408 
L 304.808742 307.010806 
L 301.220125 307.420198 
L 297.631509 307.560198 
L 294.042892 307.582241 
L 290.454275 307.583934 
L 286.865659 307.583999 
L 283.277042 307.584 
L 279.688425 307.584 
L 276.099809 307.584 
L 272.511192 307.584 
L 268.922575 307.583999 
L 265.333959 307.583966 
L 261.745342 307.582976 
L 258.156725 307.568294 
L 254.568109 307.460707 
L 250.979492 307.080314 
L 247.390875 306.45759 
L 243.802259 306.019825 
L 240.213642 305.928119 
L 236.625025 305.828635 
L 233.036409 305.160132 
L 229.447792 304.473162 
L 225.859175 305.091052 
L 222.270559 306.463432 
L 218.681942 307.293167 
L 215.093325 307.42238 
L 211.504709 307.010005 
L 207.916092 306.127163 
L 204.327475 305.361569 
L 200.738859 305.268155 
L 197.150242 305.538179 
L 193.561625 305.300806 
L 189.973008 303.82127 
L 186.384392 301.814436 
L 182.795775 300.739617 
L 179.207158 300.010684 
L 175.618542 296.550661 
L 172.029925 288.870321 
L 168.441308 275.615078 
L 164.852692 248.034262 
L 161.264075 195.299236 
L 157.675458 123.165958 
L 154.086842 64.546691 
L 150.498225 56.303479 
L 146.909608 102.528715 
L 143.320992 170.47553 
L 139.732375 226.704897 
L 136.143758 262.747786 
L 132.555142 283.17047 
L 128.966525 294.104561 
L 125.377908 299.780851 
L 121.789292 301.382769 
L 118.200675 300.622389 
L 114.612058 300.992864 
L 111.023442 303.274946 
L 107.434825 305.443519 
L 103.846208 306.456507 
L 100.257592 306.209676 
L 96.668975 305.518454 
L 93.080358 305.76264 
L 89.491742 306.648115 
L 85.903125 306.928015 
L 82.314508 306.558355 
L 78.725892 306.29849 
L 75.137275 306.278182 
L 71.548658 306.37392 
L 67.960042 306.813457 
L 64.371425 307.28992 
L 60.782808 307.36634 
L 57.194192 306.99617 
L 53.605575 306.559302 
L 50.016958 306.669068 
L 46.428342 307.168521 
L 42.839725 307.488061 
L 39.251108 307.572735 
L 35.662492 307.583327 
L 32.073875 307.58398 
L 28.485258 307.584 
L 24.896642 307.584 
L 21.308025 307.584 
L 17.719408 307.584 
L 14.130792 307.584 
L 10.542175 307.584 
L 6.953558 307.584 
L 3.364941 307.584 
L -0.223675 307.584 
L -3.812292 307.584 
L -7.400909 307.584 
L -10.989525 307.584 
L -14.578142 307.584 
L -18.166759 307.584 
L -21.755375 307.584 
L -25.343992 307.584 
L -28.932609 307.584 
L -32.521225 307.584 
L -36.109842 307.584 
L -39.698459 307.584 
L -43.287075 307.584 
L -46.875692 307.584 
L -50.464309 307.584 
L -54.052925 307.584 
L -57.641542 307.584 
L -61.230159 307.584 
L -64.818775 307.584 
L -68.407392 307.584 
L -71.996009 307.584 
L -75.584625 307.584 
L -79.173242 307.584 
L -82.761859 307.584 
L -86.350475 307.584 
L -89.939092 307.584 
L -93.527709 307.584 
L -97.116325 307.584 
L -100.704942 307.584 
L -104.293559 307.584 
L -107.882175 307.584 
L -111.470792 307.584 
L -115.059409 307.584 
L -118.648025 307.584 
L -122.236642 307.584 
L -125.825259 307.584 
L -129.413875 307.584 
L -133.002492 307.584 
L -136.591109 307.584 
L -140.179725 307.584 
L -143.768342 307.584 
L -147.356959 307.584 
L -150.945575 307.584 
L -154.534192 307.584 
L -158.122809 307.584 
L -161.711425 307.584 
L -165.300042 307.584 
L -168.888659 307.584 
L -172.477275 307.584 
L -176.065892 307.584 
L -179.654509 307.584 
L -183.243125 307.584 
L -186.831742 307.584 
L -190.420359 307.584 
L -194.008976 307.584 
L -197.597592 307.584 
L -201.186209 307.584 
L -204.774826 307.584 
L -208.363442 307.584 
L -211.952059 307.584 
L -215.540676 307.584 
L -219.129292 307.584 
L -222.717909 307.584 
L -226.306526 307.584 
L -229.895142 307.584 
L -233.483759 307.584 
L -237.072376 307.584 
L -240.660992 307.584 
L -244.249609 307.584 
L -247.838226 307.584 
L -251.426842 307.584 
L -255.015459 307.584 
L -258.604076 307.584 
L -262.192692 307.584 
L -265.781309 307.584 
L -269.369926 307.584 
L -272.958542 307.584 
L -276.547159 307.584 
L -280.135776 307.584 
L -283.724392 307.584 
L -287.313009 307.584 
L -290.901626 307.584 
L -294.490242 307.584 
L -298.078859 307.584 
L -301.667476 307.584 
L -305.256092 307.584 
L -308.844709 307.584 
L -312.433326 307.584 
L -316.021942 307.584 
L -319.610559 307.584 
L -323.199176 307.584 
L -326.787792 307.584 
L -330.376409 307.584 
L -333.965026 307.584 
L -337.553642 307.584 
L -341.142259 307.584 
L -344.730876 307.584 
L -348.319492 307.584 
L -351.908109 307.584 
L -355.496726 307.583999 
L -359.085342 307.583934 
L -362.673959 307.582241 
L -366.262576 307.560198 
L -369.851192 307.420198 
L -373.439809 307.010806 
L -377.028426 306.56408 
L -380.617043 306.66119 
L -384.205659 307.159439 
L -387.794276 307.484677 
L -391.382893 307.572185 
z
" clip-path="url(#pc3f6e9ea23)" style="fill: #1f77b4; fill-opacity: 0.1; stroke: #1f77b4"/>
   </g>
   <g id="FillBetweenPolyCollection_2">
    <defs>
     <path id="mee9fc4ead7" d="M 149.734631 -38.034033 
L 149.734631 -38.016 
L 150.920627 -38.016 
L 152.106622 -38.016 
L 153.292617 -38.016 
L 154.478613 -38.016 
L 155.664608 -38.016 
L 156.850604 -38.016 
L 158.036599 -38.016 
L 159.222594 -38.016 
L 160.40859 -38.016 
L 161.594585 -38.016 
L 162.78058 -38.016 
L 163.966576 -38.016 
L 165.152571 -38.016 
L 166.338567 -38.016 
L 167.524562 -38.016 
L 168.710557 -38.016 
L 169.896553 -38.016 
L 171.082548 -38.016 
L 172.268544 -38.016 
L 173.454539 -38.016 
L 174.640534 -38.016 
L 175.82653 -38.016 
L 177.012525 -38.016 
L 178.19852 -38.016 
L 179.384516 -38.016 
L 180.570511 -38.016 
L 181.756507 -38.016 
L 182.942502 -38.016 
L 184.128497 -38.016 
L 185.314493 -38.016 
L 186.500488 -38.016 
L 187.686484 -38.016 
L 188.872479 -38.016 
L 190.058474 -38.016 
L 191.24447 -38.016 
L 192.430465 -38.016 
L 193.616461 -38.016 
L 194.802456 -38.016 
L 195.988451 -38.016 
L 197.174447 -38.016 
L 198.360442 -38.016 
L 199.546437 -38.016 
L 200.732433 -38.016 
L 201.918428 -38.016 
L 203.104424 -38.016 
L 204.290419 -38.016 
L 205.476414 -38.016 
L 206.66241 -38.016 
L 207.848405 -38.016 
L 209.034401 -38.016 
L 210.220396 -38.016 
L 211.406391 -38.016 
L 212.592387 -38.016 
L 213.778382 -38.016 
L 214.964377 -38.016 
L 216.150373 -38.016 
L 217.336368 -38.016 
L 218.522364 -38.016 
L 219.708359 -38.016 
L 220.894354 -38.016 
L 222.08035 -38.016 
L 223.266345 -38.016 
L 224.452341 -38.016 
L 225.638336 -38.016 
L 226.824331 -38.016 
L 228.010327 -38.016 
L 229.196322 -38.016 
L 230.382317 -38.016 
L 231.568313 -38.016 
L 232.754308 -38.016 
L 233.940304 -38.016 
L 235.126299 -38.016 
L 236.312294 -38.016 
L 237.49829 -38.016 
L 238.684285 -38.016 
L 239.870281 -38.016 
L 241.056276 -38.016 
L 242.242271 -38.016 
L 243.428267 -38.016 
L 244.614262 -38.016 
L 245.800257 -38.016 
L 246.986253 -38.016 
L 248.172248 -38.016 
L 249.358244 -38.016 
L 250.544239 -38.016 
L 251.730234 -38.016 
L 252.91623 -38.016 
L 254.102225 -38.016 
L 255.288221 -38.016 
L 256.474216 -38.016 
L 257.660211 -38.016 
L 258.846207 -38.016 
L 260.032202 -38.016 
L 261.218197 -38.016 
L 262.404193 -38.016 
L 263.590188 -38.016 
L 264.776184 -38.016 
L 265.962179 -38.016 
L 267.148174 -38.016 
L 268.33417 -38.016 
L 269.520165 -38.016 
L 270.706161 -38.016 
L 271.892156 -38.016 
L 273.078151 -38.016 
L 274.264147 -38.016 
L 275.450142 -38.016 
L 276.636137 -38.016 
L 277.822133 -38.016 
L 279.008128 -38.016 
L 280.194124 -38.016 
L 281.380119 -38.016 
L 282.566114 -38.016 
L 283.75211 -38.016 
L 284.938105 -38.016 
L 286.124101 -38.016 
L 287.310096 -38.016 
L 288.496091 -38.016 
L 289.682087 -38.016 
L 290.868082 -38.016 
L 292.054077 -38.016 
L 293.240073 -38.016 
L 294.426068 -38.016 
L 295.612064 -38.016 
L 296.798059 -38.016 
L 297.984054 -38.016 
L 299.17005 -38.016 
L 300.356045 -38.016 
L 301.542041 -38.016 
L 302.728036 -38.016 
L 303.914031 -38.016 
L 305.100027 -38.016 
L 306.286022 -38.016 
L 307.472017 -38.016 
L 308.658013 -38.016 
L 309.844008 -38.016 
L 311.030004 -38.016 
L 312.215999 -38.016 
L 313.401994 -38.016 
L 314.58799 -38.016 
L 315.773985 -38.016 
L 316.959981 -38.016 
L 318.145976 -38.016 
L 319.331971 -38.016 
L 320.517967 -38.016 
L 321.703962 -38.016 
L 322.889958 -38.016 
L 324.075953 -38.016 
L 325.261948 -38.016 
L 326.447944 -38.016 
L 327.633939 -38.016 
L 328.819934 -38.016 
L 330.00593 -38.016 
L 331.191925 -38.016 
L 332.377921 -38.016 
L 333.563916 -38.016 
L 334.749911 -38.016 
L 335.935907 -38.016 
L 337.121902 -38.016 
L 338.307898 -38.016 
L 339.493893 -38.016 
L 340.679888 -38.016 
L 341.865884 -38.016 
L 343.051879 -38.016 
L 344.237874 -38.016 
L 345.42387 -38.016 
L 346.609865 -38.016 
L 347.795861 -38.016 
L 348.981856 -38.016 
L 350.167851 -38.016 
L 351.353847 -38.016 
L 352.539842 -38.016 
L 353.725838 -38.016 
L 354.911833 -38.016 
L 356.097828 -38.016 
L 357.283824 -38.016 
L 358.469819 -38.016 
L 359.655814 -38.016 
L 360.84181 -38.016 
L 362.027805 -38.016 
L 363.213801 -38.016 
L 364.399796 -38.016 
L 365.585791 -38.016 
L 366.771787 -38.016 
L 367.957782 -38.016 
L 369.143778 -38.016 
L 370.329773 -38.016 
L 371.515768 -38.016 
L 372.701764 -38.016 
L 373.887759 -38.016 
L 375.073754 -38.016 
L 376.25975 -38.016 
L 377.445745 -38.016 
L 378.631741 -38.016 
L 379.817736 -38.016 
L 381.003731 -38.016 
L 382.189727 -38.016 
L 383.375722 -38.016 
L 384.561718 -38.016 
L 385.747713 -38.016 
L 385.747713 -38.036153 
L 385.747713 -38.036153 
L 384.561718 -38.05378 
L 383.375722 -38.083869 
L 382.189727 -38.132862 
L 381.003731 -38.20894 
L 379.817736 -38.321555 
L 378.631741 -38.48039 
L 377.445745 -38.693725 
L 376.25975 -38.966418 
L 375.073754 -39.297917 
L 373.887759 -39.680925 
L 372.701764 -40.101331 
L 371.515768 -40.53982 
L 370.329773 -40.975142 
L 369.143778 -41.38845 
L 367.957782 -41.767701 
L 366.771787 -42.110849 
L 365.585791 -42.426822 
L 364.399796 -42.733787 
L 363.213801 -43.05502 
L 362.027805 -43.413371 
L 360.84181 -43.825783 
L 359.655814 -44.299304 
L 358.469819 -44.829592 
L 357.283824 -45.40228 
L 356.097828 -45.996714 
L 354.911833 -46.591027 
L 353.725838 -47.167123 
L 352.539842 -47.714211 
L 351.353847 -48.229978 
L 350.167851 -48.719228 
L 348.981856 -49.190664 
L 347.795861 -49.653206 
L 346.609865 -50.113475 
L 345.42387 -50.575727 
L 344.237874 -51.044567 
L 343.051879 -51.529517 
L 341.865884 -52.049411 
L 340.679888 -52.63418 
L 339.493893 -53.322153 
L 338.307898 -54.152521 
L 337.121902 -55.154529 
L 335.935907 -56.336575 
L 334.749911 -57.679023 
L 333.563916 -59.13377 
L 332.377921 -60.631761 
L 331.191925 -62.097232 
L 330.00593 -63.465362 
L 328.819934 -64.69883 
L 327.633939 -65.798851 
L 326.447944 -66.807503 
L 325.261948 -67.800309 
L 324.075953 -68.870544 
L 322.889958 -70.108968 
L 321.703962 -71.584103 
L 320.517967 -73.328083 
L 319.331971 -75.331558 
L 318.145976 -77.548349 
L 316.959981 -79.907691 
L 315.773985 -82.329872 
L 314.58799 -84.74081 
L 313.401994 -87.082449 
L 312.215999 -89.318069 
L 311.030004 -91.433415 
L 309.844008 -93.43514 
L 308.658013 -95.347363 
L 307.472017 -97.205924 
L 306.286022 -99.04935 
L 305.100027 -100.906319 
L 303.914031 -102.781453 
L 302.728036 -104.643486 
L 301.542041 -106.420847 
L 300.356045 -108.008474 
L 299.17005 -109.286324 
L 297.984054 -110.145641 
L 296.798059 -110.515593 
L 295.612064 -110.381908 
L 294.426068 -109.79131 
L 293.240073 -108.840161 
L 292.054077 -107.650947 
L 290.868082 -106.344072 
L 289.682087 -105.01349 
L 288.496091 -103.712784 
L 287.310096 -102.454413 
L 286.124101 -101.220493 
L 284.938105 -99.980287 
L 283.75211 -98.708245 
L 282.566114 -97.397126 
L 281.380119 -96.062844 
L 280.194124 -94.740384 
L 279.008128 -93.472702 
L 277.822133 -92.296342 
L 276.636137 -91.22827 
L 275.450142 -90.258041 
L 274.264147 -89.348021 
L 273.078151 -88.442289 
L 271.892156 -87.482518 
L 270.706161 -86.427111 
L 269.520165 -85.26861 
L 268.33417 -84.044302 
L 267.148174 -82.836106 
L 265.962179 -81.758226 
L 264.776184 -80.934242 
L 263.590188 -80.468457 
L 262.404193 -80.41852 
L 261.218197 -80.776719 
L 260.032202 -81.465379 
L 258.846207 -82.348083 
L 257.660211 -83.253946 
L 256.474216 -84.008536 
L 255.288221 -84.463546 
L 254.102225 -84.518385 
L 252.91623 -84.129996 
L 251.730234 -83.310924 
L 250.544239 -82.118628 
L 249.358244 -80.640168 
L 248.172248 -78.975902 
L 246.986253 -77.224334 
L 245.800257 -75.469087 
L 244.614262 -73.768597 
L 243.428267 -72.149623 
L 242.242271 -70.606217 
L 241.056276 -69.105571 
L 239.870281 -67.600695 
L 238.684285 -66.047607 
L 237.49829 -64.422611 
L 236.312294 -62.734456 
L 235.126299 -61.027219 
L 233.940304 -59.372551 
L 232.754308 -57.853245 
L 231.568313 -56.542844 
L 230.382317 -55.487139 
L 229.196322 -54.692555 
L 228.010327 -54.124177 
L 226.824331 -53.713285 
L 225.638336 -53.371744 
L 224.452341 -53.009179 
L 223.266345 -52.548687 
L 222.08035 -51.937833 
L 220.894354 -51.153365 
L 219.708359 -50.199866 
L 218.522364 -49.104013 
L 217.336368 -47.906737 
L 216.150373 -46.655507 
L 214.964377 -45.398139 
L 213.778382 -44.178618 
L 212.592387 -43.034585 
L 211.406391 -41.995887 
L 210.220396 -41.083631 
L 209.034401 -40.309607 
L 207.848405 -39.676248 
L 206.66241 -39.177361 
L 205.476414 -38.799745 
L 204.290419 -38.525511 
L 203.104424 -38.334679 
L 201.918428 -38.207568 
L 200.732433 -38.126605 
L 199.546437 -38.077356 
L 198.360442 -38.048845 
L 197.174447 -38.03334 
L 195.988451 -38.025851 
L 194.802456 -38.023585 
L 193.616461 -38.025488 
L 192.430465 -38.031972 
L 191.24447 -38.044798 
L 190.058474 -38.067067 
L 188.872479 -38.103178 
L 187.686484 -38.158601 
L 186.500488 -38.239331 
L 185.314493 -38.350927 
L 184.128497 -38.497206 
L 182.942502 -38.678823 
L 181.756507 -38.89213 
L 180.570511 -39.128755 
L 179.384516 -39.37624 
L 178.19852 -39.619764 
L 177.012525 -39.844565 
L 175.82653 -40.038366 
L 174.640534 -40.19301 
L 173.454539 -40.304752 
L 172.268544 -40.37319 
L 171.082548 -40.399381 
L 169.896553 -40.384051 
L 168.710557 -40.326752 
L 167.524562 -40.226365 
L 166.338567 -40.082718 
L 165.152571 -39.898533 
L 163.966576 -39.680785 
L 162.78058 -39.440784 
L 161.594585 -39.19286 
L 160.40859 -38.952067 
L 159.222594 -38.731682 
L 158.036599 -38.541252 
L 156.850604 -38.385656 
L 155.664608 -38.265273 
L 154.478613 -38.176971 
L 153.292617 -38.115504 
L 152.106622 -38.074859 
L 150.920627 -38.04931 
L 149.734631 -38.034033 
z
" style="stroke: #ff7f0e"/>
    </defs>
    <g clip-path="url(#pc3f6e9ea23)">
     <use xlink:href="#mee9fc4ead7" x="0" y="345.6" style="fill: #ff7f0e; fill-opacity: 0.1; stroke: #ff7f0e"/>
    </g>
   </g>
   <g id="FillBetweenPolyCollection_3">
    <defs>
     <path id="mc4dc4b319a" d="M 37.445131 -38.039618 
L 37.445131 -38.016 
L 38.785703 -38.016 
L 40.126276 -38.016 
L 41.466849 -38.016 
L 42.807422 -38.016 
L 44.147994 -38.016 
L 45.488567 -38.016 
L 46.82914 -38.016 
L 48.169712 -38.016 
L 49.510285 -38.016 
L 50.850858 -38.016 
L 52.19143 -38.016 
L 53.532003 -38.016 
L 54.872576 -38.016 
L 56.213149 -38.016 
L 57.553721 -38.016 
L 58.894294 -38.016 
L 60.234867 -38.016 
L 61.575439 -38.016 
L 62.916012 -38.016 
L 64.256585 -38.016 
L 65.597157 -38.016 
L 66.93773 -38.016 
L 68.278303 -38.016 
L 69.618876 -38.016 
L 70.959448 -38.016 
L 72.300021 -38.016 
L 73.640594 -38.016 
L 74.981166 -38.016 
L 76.321739 -38.016 
L 77.662312 -38.016 
L 79.002884 -38.016 
L 80.343457 -38.016 
L 81.68403 -38.016 
L 83.024602 -38.016 
L 84.365175 -38.016 
L 85.705748 -38.016 
L 87.046321 -38.016 
L 88.386893 -38.016 
L 89.727466 -38.016 
L 91.068039 -38.016 
L 92.408611 -38.016 
L 93.749184 -38.016 
L 95.089757 -38.016 
L 96.430329 -38.016 
L 97.770902 -38.016 
L 99.111475 -38.016 
L 100.452048 -38.016 
L 101.79262 -38.016 
L 103.133193 -38.016 
L 104.473766 -38.016 
L 105.814338 -38.016 
L 107.154911 -38.016 
L 108.495484 -38.016 
L 109.836056 -38.016 
L 111.176629 -38.016 
L 112.517202 -38.016 
L 113.857775 -38.016 
L 115.198347 -38.016 
L 116.53892 -38.016 
L 117.879493 -38.016 
L 119.220065 -38.016 
L 120.560638 -38.016 
L 121.901211 -38.016 
L 123.241783 -38.016 
L 124.582356 -38.016 
L 125.922929 -38.016 
L 127.263502 -38.016 
L 128.604074 -38.016 
L 129.944647 -38.016 
L 131.28522 -38.016 
L 132.625792 -38.016 
L 133.966365 -38.016 
L 135.306938 -38.016 
L 136.64751 -38.016 
L 137.988083 -38.016 
L 139.328656 -38.016 
L 140.669229 -38.016 
L 142.009801 -38.016 
L 143.350374 -38.016 
L 144.690947 -38.016 
L 146.031519 -38.016 
L 147.372092 -38.016 
L 148.712665 -38.016 
L 150.053237 -38.016 
L 151.39381 -38.016 
L 152.734383 -38.016 
L 154.074955 -38.016 
L 155.415528 -38.016 
L 156.756101 -38.016 
L 158.096674 -38.016 
L 159.437246 -38.016 
L 160.777819 -38.016 
L 162.118392 -38.016 
L 163.458964 -38.016 
L 164.799537 -38.016 
L 166.14011 -38.016 
L 167.480682 -38.016 
L 168.821255 -38.016 
L 170.161828 -38.016 
L 171.502401 -38.016 
L 172.842973 -38.016 
L 174.183546 -38.016 
L 175.524119 -38.016 
L 176.864691 -38.016 
L 178.205264 -38.016 
L 179.545837 -38.016 
L 180.886409 -38.016 
L 182.226982 -38.016 
L 183.567555 -38.016 
L 184.908128 -38.016 
L 186.2487 -38.016 
L 187.589273 -38.016 
L 188.929846 -38.016 
L 190.270418 -38.016 
L 191.610991 -38.016 
L 192.951564 -38.016 
L 194.292136 -38.016 
L 195.632709 -38.016 
L 196.973282 -38.016 
L 198.313855 -38.016 
L 199.654427 -38.016 
L 200.995 -38.016 
L 202.335573 -38.016 
L 203.676145 -38.016 
L 205.016718 -38.016 
L 206.357291 -38.016 
L 207.697863 -38.016 
L 209.038436 -38.016 
L 210.379009 -38.016 
L 211.719582 -38.016 
L 213.060154 -38.016 
L 214.400727 -38.016 
L 215.7413 -38.016 
L 217.081872 -38.016 
L 218.422445 -38.016 
L 219.763018 -38.016 
L 221.10359 -38.016 
L 222.444163 -38.016 
L 223.784736 -38.016 
L 225.125309 -38.016 
L 226.465881 -38.016 
L 227.806454 -38.016 
L 229.147027 -38.016 
L 230.487599 -38.016 
L 231.828172 -38.016 
L 233.168745 -38.016 
L 234.509317 -38.016 
L 235.84989 -38.016 
L 237.190463 -38.016 
L 238.531035 -38.016 
L 239.871608 -38.016 
L 241.212181 -38.016 
L 242.552754 -38.016 
L 243.893326 -38.016 
L 245.233899 -38.016 
L 246.574472 -38.016 
L 247.915044 -38.016 
L 249.255617 -38.016 
L 250.59619 -38.016 
L 251.936762 -38.016 
L 253.277335 -38.016 
L 254.617908 -38.016 
L 255.958481 -38.016 
L 257.299053 -38.016 
L 258.639626 -38.016 
L 259.980199 -38.016 
L 261.320771 -38.016 
L 262.661344 -38.016 
L 264.001917 -38.016 
L 265.342489 -38.016 
L 266.683062 -38.016 
L 268.023635 -38.016 
L 269.364208 -38.016 
L 270.70478 -38.016 
L 272.045353 -38.016 
L 273.385926 -38.016 
L 274.726498 -38.016 
L 276.067071 -38.016 
L 277.407644 -38.016 
L 278.748216 -38.016 
L 280.088789 -38.016 
L 281.429362 -38.016 
L 282.769935 -38.016 
L 284.110507 -38.016 
L 285.45108 -38.016 
L 286.791653 -38.016 
L 288.132225 -38.016 
L 289.472798 -38.016 
L 290.813371 -38.016 
L 292.153943 -38.016 
L 293.494516 -38.016 
L 294.835089 -38.016 
L 296.175662 -38.016 
L 297.516234 -38.016 
L 298.856807 -38.016 
L 300.19738 -38.016 
L 301.537952 -38.016 
L 302.878525 -38.016 
L 304.219098 -38.016 
L 304.219098 -38.039618 
L 304.219098 -38.039618 
L 302.878525 -38.122786 
L 301.537952 -38.371173 
L 300.19738 -38.884998 
L 298.856807 -39.580049 
L 297.516234 -40.086783 
L 296.175662 -40.032839 
L 294.835089 -39.460975 
L 293.494516 -38.777557 
L 292.153943 -38.311254 
L 290.813371 -38.100206 
L 289.472798 -38.033666 
L 288.132225 -38.018726 
L 286.791653 -38.01631 
L 285.45108 -38.016026 
L 284.110507 -38.016002 
L 282.769935 -38.016 
L 281.429362 -38.016 
L 280.088789 -38.016 
L 278.748216 -38.016 
L 277.407644 -38.016 
L 276.067071 -38.016 
L 274.726498 -38.016 
L 273.385926 -38.016 
L 272.045353 -38.016 
L 270.70478 -38.016 
L 269.364208 -38.016 
L 268.023635 -38.016 
L 266.683062 -38.016 
L 265.342489 -38.016 
L 264.001917 -38.016 
L 262.661344 -38.016 
L 261.320771 -38.016 
L 259.980199 -38.016 
L 258.639626 -38.016 
L 257.299053 -38.016 
L 255.958481 -38.016 
L 254.617908 -38.016 
L 253.277335 -38.016 
L 251.936762 -38.016 
L 250.59619 -38.016 
L 249.255617 -38.016 
L 247.915044 -38.016 
L 246.574472 -38.016 
L 245.233899 -38.016 
L 243.893326 -38.016 
L 242.552754 -38.016 
L 241.212181 -38.016 
L 239.871608 -38.016 
L 238.531035 -38.016 
L 237.190463 -38.016 
L 235.84989 -38.016 
L 234.509317 -38.016 
L 233.168745 -38.016 
L 231.828172 -38.016 
L 230.487599 -38.016 
L 229.147027 -38.016 
L 227.806454 -38.016 
L 226.465881 -38.016 
L 225.125309 -38.016 
L 223.784736 -38.016 
L 222.444163 -38.016 
L 221.10359 -38.016005 
L 219.763018 -38.016069 
L 218.422445 -38.016735 
L 217.081872 -38.021758 
L 215.7413 -38.049196 
L 214.400727 -38.156774 
L 213.060154 -38.455186 
L 211.719582 -39.024303 
L 210.379009 -39.721945 
L 209.038436 -40.157293 
L 207.697863 -40.071768 
L 206.357291 -39.717648 
L 205.016718 -39.617968 
L 203.676145 -39.955327 
L 202.335573 -40.434782 
L 200.995 -40.849878 
L 199.654427 -41.56192 
L 198.313855 -43.102857 
L 196.973282 -45.36748 
L 195.632709 -47.535939 
L 194.292136 -48.843615 
L 192.951564 -49.183879 
L 191.610991 -48.877372 
L 190.270418 -48.103357 
L 188.929846 -46.842094 
L 187.589273 -45.308603 
L 186.2487 -44.047464 
L 184.908128 -43.452595 
L 183.567555 -43.515735 
L 182.226982 -44.148972 
L 180.886409 -45.446769 
L 179.545837 -47.63758 
L 178.205264 -51.065761 
L 176.864691 -56.060027 
L 175.524119 -62.413848 
L 174.183546 -69.176029 
L 172.842973 -75.816226 
L 171.502401 -84.049756 
L 170.161828 -97.55476 
L 168.821255 -118.656656 
L 167.480682 -145.00707 
L 166.14011 -169.985863 
L 164.799537 -187.824236 
L 163.458964 -199.275971 
L 162.118392 -210.940102 
L 160.777819 -228.221492 
L 159.437246 -250.170021 
L 158.096674 -271.226079 
L 156.756101 -285.987311 
L 155.415528 -291.456 
L 154.074955 -286.363834 
L 152.734383 -270.557047 
L 151.39381 -245.830797 
L 150.053237 -216.089343 
L 148.712665 -185.483301 
L 147.372092 -156.769312 
L 146.031519 -131.294358 
L 144.690947 -109.628093 
L 143.350374 -92.185069 
L 142.009801 -79.578754 
L 140.669229 -72.152652 
L 139.328656 -69.019909 
L 137.988083 -68.22121 
L 136.64751 -68.060619 
L 135.306938 -67.72951 
L 133.966365 -66.917423 
L 132.625792 -65.378557 
L 131.28522 -62.705906 
L 129.944647 -58.728558 
L 128.604074 -54.169186 
L 127.263502 -50.049688 
L 125.922929 -46.572731 
L 124.582356 -43.462862 
L 123.241783 -40.877241 
L 121.901211 -39.199775 
L 120.560638 -38.446407 
L 119.220065 -38.348566 
L 117.879493 -38.702331 
L 116.53892 -39.354065 
L 115.198347 -39.971091 
L 113.857775 -40.11994 
L 112.517202 -39.681678 
L 111.176629 -38.986309 
L 109.836056 -38.433934 
L 108.495484 -38.162571 
L 107.154911 -38.122397 
L 105.814338 -38.293735 
L 104.473766 -38.735363 
L 103.133193 -39.410233 
L 101.79262 -40.005843 
L 100.452048 -40.108774 
L 99.111475 -39.659121 
L 97.770902 -39.082045 
L 96.430329 -38.93849 
L 95.089757 -39.560858 
L 93.749184 -40.818499 
L 92.408611 -41.992039 
L 91.068039 -42.196659 
L 89.727466 -41.253043 
L 88.386893 -39.864869 
L 87.046321 -38.823273 
L 85.705748 -38.415042 
L 84.365175 -38.621046 
L 83.024602 -39.431718 
L 81.68403 -40.699873 
L 80.343457 -41.84328 
L 79.002884 -42.103063 
L 77.662312 -41.283676 
L 76.321739 -39.971061 
L 74.981166 -38.89045 
L 73.640594 -38.307972 
L 72.300021 -38.088652 
L 70.959448 -38.029448 
L 69.618876 -38.017849 
L 68.278303 -38.016188 
L 66.93773 -38.016014 
L 65.597157 -38.016001 
L 64.256585 -38.016 
L 62.916012 -38.016 
L 61.575439 -38.016 
L 60.234867 -38.016 
L 58.894294 -38.016 
L 57.553721 -38.016002 
L 56.213149 -38.016026 
L 54.872576 -38.01631 
L 53.532003 -38.018726 
L 52.19143 -38.033666 
L 50.850858 -38.100206 
L 49.510285 -38.311254 
L 48.169712 -38.777557 
L 46.82914 -39.460975 
L 45.488567 -40.032839 
L 44.147994 -40.086783 
L 42.807422 -39.580049 
L 41.466849 -38.884998 
L 40.126276 -38.371173 
L 38.785703 -38.122786 
L 37.445131 -38.039618 
z
" style="stroke: #2ca02c"/>
    </defs>
    <g clip-path="url(#pc3f6e9ea23)">
     <use xlink:href="#mc4dc4b319a" x="0" y="345.6" style="fill: #2ca02c; fill-opacity: 0.1; stroke: #2ca02c"/>
    </g>
   </g>
   <g id="FillBetweenPolyCollection_4">
    <defs>
     <path id="mef94a143ce" d="M 179.751697 -38.032674 
L 179.751697 -38.016 
L 180.920377 -38.016 
L 182.089057 -38.016 
L 183.257737 -38.016 
L 184.426417 -38.016 
L 185.595097 -38.016 
L 186.763777 -38.016 
L 187.932457 -38.016 
L 189.101137 -38.016 
L 190.269817 -38.016 
L 191.438497 -38.016 
L 192.607177 -38.016 
L 193.775857 -38.016 
L 194.944537 -38.016 
L 196.113217 -38.016 
L 197.281897 -38.016 
L 198.450577 -38.016 
L 199.619257 -38.016 
L 200.787937 -38.016 
L 201.956617 -38.016 
L 203.125297 -38.016 
L 204.293977 -38.016 
L 205.462657 -38.016 
L 206.631337 -38.016 
L 207.800017 -38.016 
L 208.968697 -38.016 
L 210.137377 -38.016 
L 211.306057 -38.016 
L 212.474737 -38.016 
L 213.643417 -38.016 
L 214.812097 -38.016 
L 215.980777 -38.016 
L 217.149457 -38.016 
L 218.318136 -38.016 
L 219.486816 -38.016 
L 220.655496 -38.016 
L 221.824176 -38.016 
L 222.992856 -38.016 
L 224.161536 -38.016 
L 225.330216 -38.016 
L 226.498896 -38.016 
L 227.667576 -38.016 
L 228.836256 -38.016 
L 230.004936 -38.016 
L 231.173616 -38.016 
L 232.342296 -38.016 
L 233.510976 -38.016 
L 234.679656 -38.016 
L 235.848336 -38.016 
L 237.017016 -38.016 
L 238.185696 -38.016 
L 239.354376 -38.016 
L 240.523056 -38.016 
L 241.691736 -38.016 
L 242.860416 -38.016 
L 244.029096 -38.016 
L 245.197776 -38.016 
L 246.366456 -38.016 
L 247.535136 -38.016 
L 248.703816 -38.016 
L 249.872496 -38.016 
L 251.041176 -38.016 
L 252.209856 -38.016 
L 253.378536 -38.016 
L 254.547216 -38.016 
L 255.715896 -38.016 
L 256.884576 -38.016 
L 258.053256 -38.016 
L 259.221936 -38.016 
L 260.390616 -38.016 
L 261.559295 -38.016 
L 262.727975 -38.016 
L 263.896655 -38.016 
L 265.065335 -38.016 
L 266.234015 -38.016 
L 267.402695 -38.016 
L 268.571375 -38.016 
L 269.740055 -38.016 
L 270.908735 -38.016 
L 272.077415 -38.016 
L 273.246095 -38.016 
L 274.414775 -38.016 
L 275.583455 -38.016 
L 276.752135 -38.016 
L 277.920815 -38.016 
L 279.089495 -38.016 
L 280.258175 -38.016 
L 281.426855 -38.016 
L 282.595535 -38.016 
L 283.764215 -38.016 
L 284.932895 -38.016 
L 286.101575 -38.016 
L 287.270255 -38.016 
L 288.438935 -38.016 
L 289.607615 -38.016 
L 290.776295 -38.016 
L 291.944975 -38.016 
L 293.113655 -38.016 
L 294.282335 -38.016 
L 295.451015 -38.016 
L 296.619695 -38.016 
L 297.788375 -38.016 
L 298.957055 -38.016 
L 300.125735 -38.016 
L 301.294415 -38.016 
L 302.463095 -38.016 
L 303.631775 -38.016 
L 304.800455 -38.016 
L 305.969134 -38.016 
L 307.137814 -38.016 
L 308.306494 -38.016 
L 309.475174 -38.016 
L 310.643854 -38.016 
L 311.812534 -38.016 
L 312.981214 -38.016 
L 314.149894 -38.016 
L 315.318574 -38.016 
L 316.487254 -38.016 
L 317.655934 -38.016 
L 318.824614 -38.016 
L 319.993294 -38.016 
L 321.161974 -38.016 
L 322.330654 -38.016 
L 323.499334 -38.016 
L 324.668014 -38.016 
L 325.836694 -38.016 
L 327.005374 -38.016 
L 328.174054 -38.016 
L 329.342734 -38.016 
L 330.511414 -38.016 
L 331.680094 -38.016 
L 332.848774 -38.016 
L 334.017454 -38.016 
L 335.186134 -38.016 
L 336.354814 -38.016 
L 337.523494 -38.016 
L 338.692174 -38.016 
L 339.860854 -38.016 
L 341.029534 -38.016 
L 342.198214 -38.016 
L 343.366894 -38.016 
L 344.535574 -38.016 
L 345.704254 -38.016 
L 346.872934 -38.016 
L 348.041614 -38.016 
L 349.210293 -38.016 
L 350.378973 -38.016 
L 351.547653 -38.016 
L 352.716333 -38.016 
L 353.885013 -38.016 
L 355.053693 -38.016 
L 356.222373 -38.016 
L 357.391053 -38.016 
L 358.559733 -38.016 
L 359.728413 -38.016 
L 360.897093 -38.016 
L 362.065773 -38.016 
L 363.234453 -38.016 
L 364.403133 -38.016 
L 365.571813 -38.016 
L 366.740493 -38.016 
L 367.909173 -38.016 
L 369.077853 -38.016 
L 370.246533 -38.016 
L 371.415213 -38.016 
L 372.583893 -38.016 
L 373.752573 -38.016 
L 374.921253 -38.016 
L 376.089933 -38.016 
L 377.258613 -38.016 
L 378.427293 -38.016 
L 379.595973 -38.016 
L 380.764653 -38.016 
L 381.933333 -38.016 
L 383.102013 -38.016 
L 384.270693 -38.016 
L 385.439373 -38.016 
L 386.608053 -38.016 
L 387.776733 -38.016 
L 388.945413 -38.016 
L 390.114093 -38.016 
L 391.282773 -38.016 
L 392.451453 -38.016 
L 393.620132 -38.016 
L 394.788812 -38.016 
L 395.957492 -38.016 
L 397.126172 -38.016 
L 398.294852 -38.016 
L 399.463532 -38.016 
L 400.632212 -38.016 
L 401.800892 -38.016 
L 402.969572 -38.016 
L 404.138252 -38.016 
L 405.306932 -38.016 
L 406.475612 -38.016 
L 407.644292 -38.016 
L 408.812972 -38.016 
L 409.981652 -38.016 
L 411.150332 -38.016 
L 412.319012 -38.016 
L 412.319012 -38.03614 
L 412.319012 -38.03614 
L 411.150332 -38.05042 
L 409.981652 -38.073211 
L 408.812972 -38.108522 
L 407.644292 -38.161649 
L 406.475612 -38.239292 
L 405.306932 -38.349568 
L 404.138252 -38.501857 
L 402.969572 -38.706466 
L 401.800892 -38.974101 
L 400.632212 -39.315182 
L 399.463532 -39.739065 
L 398.294852 -40.253233 
L 397.126172 -40.862572 
L 395.957492 -41.568761 
L 394.788812 -42.369838 
L 393.620132 -43.259935 
L 392.451453 -44.229147 
L 391.282773 -45.263537 
L 390.114093 -46.345261 
L 388.945413 -47.452879 
L 387.776733 -48.561932 
L 386.608053 -49.645877 
L 385.439373 -50.677437 
L 384.270693 -51.630324 
L 383.102013 -52.481192 
L 381.933333 -53.211572 
L 380.764653 -53.809481 
L 379.595973 -54.27045 
L 378.427293 -54.597778 
L 377.258613 -54.802001 
L 376.089933 -54.899687 
L 374.921253 -54.911809 
L 373.752573 -54.86196 
L 372.583893 -54.774675 
L 371.415213 -54.674073 
L 370.246533 -54.582896 
L 369.077853 -54.522001 
L 367.909173 -54.51023 
L 366.740493 -54.56456 
L 365.571813 -54.700352 
L 364.403133 -54.931543 
L 363.234453 -55.270579 
L 362.065773 -55.728025 
L 360.897093 -56.311849 
L 359.728413 -57.026557 
L 358.559733 -57.872427 
L 357.391053 -58.845161 
L 356.222373 -59.936153 
L 355.053693 -61.133478 
L 353.885013 -62.423444 
L 352.716333 -63.792419 
L 351.547653 -65.228552 
L 350.378973 -66.723034 
L 349.210293 -68.270655 
L 348.041614 -69.869588 
L 346.872934 -71.520481 
L 345.704254 -73.225039 
L 344.535574 -74.984297 
L 343.366894 -76.796804 
L 342.198214 -78.656896 
L 341.029534 -80.553251 
L 339.860854 -82.467916 
L 338.692174 -84.376015 
L 337.523494 -86.246352 
L 336.354814 -88.043018 
L 335.186134 -89.728027 
L 334.017454 -91.264789 
L 332.848774 -92.622038 
L 331.680094 -93.777673 
L 330.511414 -94.721848 
L 329.342734 -95.458664 
L 328.174054 -96.005965 
L 327.005374 -96.392981 
L 325.836694 -96.655955 
L 324.668014 -96.832287 
L 323.499334 -96.954067 
L 322.330654 -97.04215 
L 321.161974 -97.101917 
L 319.993294 -97.121681 
L 318.824614 -97.074242 
L 317.655934 -96.921533 
L 316.487254 -96.621642 
L 315.318574 -96.137002 
L 314.149894 -95.442259 
L 312.981214 -94.530318 
L 311.812534 -93.415436 
L 310.643854 -92.132749 
L 309.475174 -90.734329 
L 308.306494 -89.282483 
L 307.137814 -87.84153 
L 305.969134 -86.469483 
L 304.800455 -85.211076 
L 303.631775 -84.093218 
L 302.463095 -83.123483 
L 301.294415 -82.291636 
L 300.125735 -81.573621 
L 298.957055 -80.937041 
L 297.788375 -80.346974 
L 296.619695 -79.771097 
L 295.451015 -79.183437 
L 294.282335 -78.566524 
L 293.113655 -77.912223 
L 291.944975 -77.221728 
L 290.776295 -76.505287 
L 289.607615 -75.78196 
L 288.438935 -75.079329 
L 287.270255 -74.432725 
L 286.101575 -73.883334 
L 284.932895 -73.474651 
L 283.764215 -73.247142 
L 282.595535 -73.231589 
L 281.426855 -73.442169 
L 280.258175 -73.870779 
L 279.089495 -74.484129 
L 277.920815 -75.22477 
L 276.752135 -76.016471 
L 275.583455 -76.773361 
L 274.414775 -77.411398 
L 273.246095 -77.860011 
L 272.077415 -78.07169 
L 270.908735 -78.027609 
L 269.740055 -77.738251 
L 268.571375 -77.23907 
L 267.402695 -76.582272 
L 266.234015 -75.826529 
L 265.065335 -75.026745 
L 263.896655 -74.225695 
L 262.727975 -73.448795 
L 261.559295 -72.7024 
L 260.390616 -71.97532 
L 259.221936 -71.242729 
L 258.053256 -70.471444 
L 256.884576 -69.625647 
L 255.715896 -68.67231 
L 254.547216 -67.585858 
L 253.378536 -66.35174 
L 252.209856 -64.968688 
L 251.041176 -63.449449 
L 249.872496 -61.819882 
L 248.703816 -60.116425 
L 247.535136 -58.382192 
L 246.366456 -56.662203 
L 245.197776 -54.998471 
L 244.029096 -53.425717 
L 242.860416 -51.968414 
L 241.691736 -50.639585 
L 240.523056 -49.441413 
L 239.354376 -48.367409 
L 238.185696 -47.405571 
L 237.017016 -46.541897 
L 235.848336 -45.763622 
L 234.679656 -45.061706 
L 233.510976 -44.432335 
L 232.342296 -43.877343 
L 231.173616 -43.403616 
L 230.004936 -43.021618 
L 228.836256 -42.743176 
L 227.667576 -42.578724 
L 226.498896 -42.534259 
L 225.330216 -42.608404 
L 224.161536 -42.790055 
L 222.992856 -43.057178 
L 221.824176 -43.377239 
L 220.655496 -43.709544 
L 219.486816 -44.009379 
L 218.318136 -44.233446 
L 217.149457 -44.345702 
L 215.980777 -44.322511 
L 214.812097 -44.156062 
L 213.643417 -43.855344 
L 212.474737 -43.444418 
L 211.306057 -42.958326 
L 210.137377 -42.437447 
L 208.968697 -41.92139 
L 207.800017 -41.443537 
L 206.631337 -41.027154 
L 205.462657 -40.683566 
L 204.293977 -40.412486 
L 203.125297 -40.204142 
L 201.956617 -40.042585 
L 200.787937 -39.909434 
L 199.619257 -39.787336 
L 198.450577 -39.662613 
L 197.281897 -39.526767 
L 196.113217 -39.376817 
L 194.944537 -39.214616 
L 193.775857 -39.045495 
L 192.607177 -38.876592 
L 191.438497 -38.71526 
L 190.269817 -38.567793 
L 189.101137 -38.438633 
L 187.932457 -38.330081 
L 186.763777 -38.242415 
L 185.595097 -38.174302 
L 184.426417 -38.123334 
L 183.257737 -38.086573 
L 182.089057 -38.060995 
L 180.920377 -38.043816 
L 179.751697 -38.032674 
z
" style="stroke: #d62728"/>
    </defs>
    <g clip-path="url(#pc3f6e9ea23)">
     <use xlink:href="#mef94a143ce" x="0" y="345.6" style="fill: #d62728; fill-opacity: 0.1; stroke: #d62728"/>
    </g>
   </g>
   <g id="FillBetweenPolyCollection_5">
    <defs>
     <path id="m1d6ec3ff08" d="M 73.954216 -38.016685 
L 73.954216 -38.016 
L 74.712262 -38.016 
L 75.470309 -38.016 
L 76.228355 -38.016 
L 76.986401 -38.016 
L 77.744448 -38.016 
L 78.502494 -38.016 
L 79.260541 -38.016 
L 80.018587 -38.016 
L 80.776634 -38.016 
L 81.53468 -38.016 
L 82.292727 -38.016 
L 83.050773 -38.016 
L 83.80882 -38.016 
L 84.566866 -38.016 
L 85.324913 -38.016 
L 86.082959 -38.016 
L 86.841006 -38.016 
L 87.599052 -38.016 
L 88.357099 -38.016 
L 89.115145 -38.016 
L 89.873192 -38.016 
L 90.631238 -38.016 
L 91.389285 -38.016 
L 92.147331 -38.016 
L 92.905377 -38.016 
L 93.663424 -38.016 
L 94.42147 -38.016 
L 95.179517 -38.016 
L 95.937563 -38.016 
L 96.69561 -38.016 
L 97.453656 -38.016 
L 98.211703 -38.016 
L 98.969749 -38.016 
L 99.727796 -38.016 
L 100.485842 -38.016 
L 101.243889 -38.016 
L 102.001935 -38.016 
L 102.759982 -38.016 
L 103.518028 -38.016 
L 104.276075 -38.016 
L 105.034121 -38.016 
L 105.792168 -38.016 
L 106.550214 -38.016 
L 107.308261 -38.016 
L 108.066307 -38.016 
L 108.824353 -38.016 
L 109.5824 -38.016 
L 110.340446 -38.016 
L 111.098493 -38.016 
L 111.856539 -38.016 
L 112.614586 -38.016 
L 113.372632 -38.016 
L 114.130679 -38.016 
L 114.888725 -38.016 
L 115.646772 -38.016 
L 116.404818 -38.016 
L 117.162865 -38.016 
L 117.920911 -38.016 
L 118.678958 -38.016 
L 119.437004 -38.016 
L 120.195051 -38.016 
L 120.953097 -38.016 
L 121.711144 -38.016 
L 122.46919 -38.016 
L 123.227237 -38.016 
L 123.985283 -38.016 
L 124.74333 -38.016 
L 125.501376 -38.016 
L 126.259422 -38.016 
L 127.017469 -38.016 
L 127.775515 -38.016 
L 128.533562 -38.016 
L 129.291608 -38.016 
L 130.049655 -38.016 
L 130.807701 -38.016 
L 131.565748 -38.016 
L 132.323794 -38.016 
L 133.081841 -38.016 
L 133.839887 -38.016 
L 134.597934 -38.016 
L 135.35598 -38.016 
L 136.114027 -38.016 
L 136.872073 -38.016 
L 137.63012 -38.016 
L 138.388166 -38.016 
L 139.146213 -38.016 
L 139.904259 -38.016 
L 140.662306 -38.016 
L 141.420352 -38.016 
L 142.178398 -38.016 
L 142.936445 -38.016 
L 143.694491 -38.016 
L 144.452538 -38.016 
L 145.210584 -38.016 
L 145.968631 -38.016 
L 146.726677 -38.016 
L 147.484724 -38.016 
L 148.24277 -38.016 
L 149.000817 -38.016 
L 149.758863 -38.016 
L 150.51691 -38.016 
L 151.274956 -38.016 
L 152.033003 -38.016 
L 152.791049 -38.016 
L 153.549096 -38.016 
L 154.307142 -38.016 
L 155.065189 -38.016 
L 155.823235 -38.016 
L 156.581282 -38.016 
L 157.339328 -38.016 
L 158.097374 -38.016 
L 158.855421 -38.016 
L 159.613467 -38.016 
L 160.371514 -38.016 
L 161.12956 -38.016 
L 161.887607 -38.016 
L 162.645653 -38.016 
L 163.4037 -38.016 
L 164.161746 -38.016 
L 164.919793 -38.016 
L 165.677839 -38.016 
L 166.435886 -38.016 
L 167.193932 -38.016 
L 167.951979 -38.016 
L 168.710025 -38.016 
L 169.468072 -38.016 
L 170.226118 -38.016 
L 170.984165 -38.016 
L 171.742211 -38.016 
L 172.500258 -38.016 
L 173.258304 -38.016 
L 174.01635 -38.016 
L 174.774397 -38.016 
L 175.532443 -38.016 
L 176.29049 -38.016 
L 177.048536 -38.016 
L 177.806583 -38.016 
L 178.564629 -38.016 
L 179.322676 -38.016 
L 180.080722 -38.016 
L 180.838769 -38.016 
L 181.596815 -38.016 
L 182.354862 -38.016 
L 183.112908 -38.016 
L 183.870955 -38.016 
L 184.629001 -38.016 
L 185.387048 -38.016 
L 186.145094 -38.016 
L 186.903141 -38.016 
L 187.661187 -38.016 
L 188.419234 -38.016 
L 189.17728 -38.016 
L 189.935327 -38.016 
L 190.693373 -38.016 
L 191.451419 -38.016 
L 192.209466 -38.016 
L 192.967512 -38.016 
L 193.725559 -38.016 
L 194.483605 -38.016 
L 195.241652 -38.016 
L 195.999698 -38.016 
L 196.757745 -38.016 
L 197.515791 -38.016 
L 198.273838 -38.016 
L 199.031884 -38.016 
L 199.789931 -38.016 
L 200.547977 -38.016 
L 201.306024 -38.016 
L 202.06407 -38.016 
L 202.822117 -38.016 
L 203.580163 -38.016 
L 204.33821 -38.016 
L 205.096256 -38.016 
L 205.854303 -38.016 
L 206.612349 -38.016 
L 207.370395 -38.016 
L 208.128442 -38.016 
L 208.886488 -38.016 
L 209.644535 -38.016 
L 210.402581 -38.016 
L 211.160628 -38.016 
L 211.918674 -38.016 
L 212.676721 -38.016 
L 213.434767 -38.016 
L 214.192814 -38.016 
L 214.95086 -38.016 
L 215.708907 -38.016 
L 216.466953 -38.016 
L 217.225 -38.016 
L 217.983046 -38.016 
L 218.741093 -38.016 
L 219.499139 -38.016 
L 220.257186 -38.016 
L 221.015232 -38.016 
L 221.773279 -38.016 
L 222.531325 -38.016 
L 223.289371 -38.016 
L 224.047418 -38.016 
L 224.805464 -38.016 
L 224.805464 -38.016342 
L 224.805464 -38.016342 
L 224.047418 -38.018852 
L 223.289371 -38.028167 
L 222.531325 -38.042559 
L 221.773279 -38.04567 
L 221.015232 -38.032967 
L 220.257186 -38.021078 
L 219.499139 -38.018016 
L 218.741093 -38.023254 
L 217.983046 -38.036916 
L 217.225 -38.048158 
L 216.466953 -38.047021 
L 215.708907 -38.046622 
L 214.95086 -38.048593 
L 214.192814 -38.038866 
L 213.434767 -38.026717 
L 212.676721 -38.030466 
L 211.918674 -38.057333 
L 211.160628 -38.102839 
L 210.402581 -38.163562 
L 209.644535 -38.249174 
L 208.886488 -38.360074 
L 208.128442 -38.493113 
L 207.370395 -38.633524 
L 206.612349 -38.73872 
L 205.854303 -38.850879 
L 205.096256 -39.089491 
L 204.33821 -39.404836 
L 203.580163 -39.597824 
L 202.822117 -39.692977 
L 202.06407 -39.90776 
L 201.306024 -40.083993 
L 200.547977 -40.026372 
L 199.789931 -40.113765 
L 199.031884 -40.513654 
L 198.273838 -40.918347 
L 197.515791 -41.290444 
L 196.757745 -41.767721 
L 195.999698 -42.222494 
L 195.241652 -42.528593 
L 194.483605 -42.79414 
L 193.725559 -43.087074 
L 192.967512 -43.363013 
L 192.209466 -43.591663 
L 191.451419 -43.85138 
L 190.693373 -44.254152 
L 189.935327 -44.808151 
L 189.17728 -45.474589 
L 188.419234 -46.145414 
L 187.661187 -46.675121 
L 186.903141 -47.123116 
L 186.145094 -47.600302 
L 185.387048 -48.202907 
L 184.629001 -49.084001 
L 183.870955 -50.078479 
L 183.112908 -50.938855 
L 182.354862 -52.149104 
L 181.596815 -53.902278 
L 180.838769 -55.463054 
L 180.080722 -56.364568 
L 179.322676 -57.087966 
L 178.564629 -58.316777 
L 177.806583 -60.344824 
L 177.048536 -62.767031 
L 176.29049 -64.743621 
L 175.532443 -66.179601 
L 174.774397 -67.720766 
L 174.01635 -69.852803 
L 173.258304 -72.393596 
L 172.500258 -74.787755 
L 171.742211 -77.085176 
L 170.984165 -79.983401 
L 170.226118 -83.308332 
L 169.468072 -85.941851 
L 168.710025 -87.612343 
L 167.951979 -89.933979 
L 167.193932 -93.897798 
L 166.435886 -98.873594 
L 165.677839 -104.271728 
L 164.919793 -109.037547 
L 164.161746 -112.711656 
L 163.4037 -115.774797 
L 162.645653 -118.340538 
L 161.887607 -121.167205 
L 161.12956 -125.356507 
L 160.371514 -130.697093 
L 159.613467 -136.126741 
L 158.855421 -141.087178 
L 158.097374 -146.269484 
L 157.339328 -151.916384 
L 156.581282 -156.246998 
L 155.823235 -158.35164 
L 155.065189 -160.210453 
L 154.307142 -163.622346 
L 153.549096 -168.297694 
L 152.791049 -172.788729 
L 152.033003 -175.546447 
L 151.274956 -176.712695 
L 150.51691 -177.021279 
L 149.758863 -176.980909 
L 149.000817 -176.970281 
L 148.24277 -177.963406 
L 147.484724 -180.574142 
L 146.726677 -182.183674 
L 145.968631 -179.788614 
L 145.210584 -174.774009 
L 144.452538 -170.413798 
L 143.694491 -167.954543 
L 142.936445 -166.151925 
L 142.178398 -164.01246 
L 141.420352 -161.877736 
L 140.662306 -159.087219 
L 139.904259 -155.109479 
L 139.146213 -151.060464 
L 138.388166 -147.6774 
L 137.63012 -144.124108 
L 136.872073 -140.217601 
L 136.114027 -136.328127 
L 135.35598 -132.166787 
L 134.597934 -127.688097 
L 133.839887 -123.231259 
L 133.081841 -119.264759 
L 132.323794 -116.01503 
L 131.565748 -113.408536 
L 130.807701 -110.868518 
L 130.049655 -107.739135 
L 129.291608 -103.975068 
L 128.533562 -99.74114 
L 127.775515 -95.186135 
L 127.017469 -90.7707 
L 126.259422 -87.318562 
L 125.501376 -85.155853 
L 124.74333 -83.584287 
L 123.985283 -82.160238 
L 123.227237 -80.720332 
L 122.46919 -78.77641 
L 121.711144 -75.932665 
L 120.953097 -72.458677 
L 120.195051 -69.571431 
L 119.437004 -67.783945 
L 118.678958 -66.10755 
L 117.920911 -64.182601 
L 117.162865 -62.845999 
L 116.404818 -62.182526 
L 115.646772 -61.242631 
L 114.888725 -59.434738 
L 114.130679 -57.304143 
L 113.372632 -55.647868 
L 112.614586 -54.561994 
L 111.856539 -53.534816 
L 111.098493 -52.401995 
L 110.340446 -51.605209 
L 109.5824 -51.1041 
L 108.824353 -50.357576 
L 108.066307 -49.243181 
L 107.308261 -48.219665 
L 106.550214 -47.726197 
L 105.792168 -47.512207 
L 105.034121 -47.035993 
L 104.276075 -46.177073 
L 103.518028 -45.28528 
L 102.759982 -44.697926 
L 102.001935 -44.369923 
L 101.243889 -44.120351 
L 100.485842 -43.979137 
L 99.727796 -43.929424 
L 98.969749 -43.727509 
L 98.211703 -43.35147 
L 97.453656 -42.946641 
L 96.69561 -42.545173 
L 95.937563 -42.213066 
L 95.179517 -41.939643 
L 94.42147 -41.639156 
L 93.663424 -41.34855 
L 92.905377 -41.109482 
L 92.147331 -40.880315 
L 91.389285 -40.657824 
L 90.631238 -40.418074 
L 89.873192 -40.134992 
L 89.115145 -39.866027 
L 88.357099 -39.632087 
L 87.599052 -39.441419 
L 86.841006 -39.296918 
L 86.082959 -39.108047 
L 85.324913 -38.847225 
L 84.566866 -38.630039 
L 83.80882 -38.540124 
L 83.050773 -38.536847 
L 82.292727 -38.525085 
L 81.53468 -38.448943 
L 80.776634 -38.343401 
L 80.018587 -38.283367 
L 79.260541 -38.237317 
L 78.502494 -38.166136 
L 77.744448 -38.123071 
L 76.986401 -38.115412 
L 76.228355 -38.087179 
L 75.470309 -38.044764 
L 74.712262 -38.022145 
L 73.954216 -38.016685 
z
" style="stroke: #0000ff"/>
    </defs>
    <g clip-path="url(#pc3f6e9ea23)">
     <use xlink:href="#m1d6ec3ff08" x="0" y="345.6" style="fill: #0000ff; fill-opacity: 0.8; stroke: #0000ff"/>
    </g>
   </g>
   <g id="patch_3">
    <path d="M 57.6 307.584 
L 57.6 41.472 
" style="fill: none; stroke: #cccccc; stroke-width: 0.8; stroke-linejoin: miter; stroke-linecap: square"/>
   </g>
   <g id="patch_4">
    <path d="M 414.72 307.584 
L 414.72 41.472 
" style="fill: none; stroke: #cccccc; stroke-width: 0.8; stroke-linejoin: miter; stroke-linecap: square"/>
   </g>
   <g id="patch_5">
    <path d="M 57.6 307.584 
L 414.72 307.584 
" style="fill: none; stroke: #cccccc; stroke-width: 0.8; stroke-linejoin: miter; stroke-linecap: square"/>
   </g>
   <g id="patch_6">
    <path d="M 57.6 41.472 
L 414.72 41.472 
" style="fill: none; stroke: #cccccc; stroke-width: 0.8; stroke-linejoin: miter; stroke-linecap: square"/>
   </g>
   <g id="legend_1">
    <g id="patch_7">
     <path d="M 255.780937 135.173563 
L 407.72 135.173563 
Q 409.72 135.173563 409.72 133.173563 
L 409.72 48.472 
Q 409.72 46.472 407.72 46.472 
L 255.780937 46.472 
Q 253.780937 46.472 253.780937 48.472 
L 253.780937 133.173563 
Q 253.780937 135.173563 255.780937 135.173563 
z
" style="fill: #ffffff; opacity: 0.8; stroke: #cccccc; stroke-linejoin: miter"/>
    </g>
    <g id="text_21">
     <!-- Modification Types -->
     <g style="fill: #262626" transform="translate(290.430937 57.751688) scale(0.1 -0.1)">
      <defs>
       <path id="ArialMT-4d" d="M 475 0 
L 475 4581 
L 1388 4581 
L 2472 1338 
Q 2622 884 2691 659 
Q 2769 909 2934 1394 
L 4031 4581 
L 4847 4581 
L 4847 0 
L 4263 0 
L 4263 3834 
L 2931 0 
L 2384 0 
L 1059 3900 
L 1059 0 
L 475 0 
z
" transform="scale(0.015625)"/>
       <path id="ArialMT-54" d="M 1659 0 
L 1659 4041 
L 150 4041 
L 150 4581 
L 3781 4581 
L 3781 4041 
L 2266 4041 
L 2266 0 
L 1659 0 
z
" transform="scale(0.015625)"/>
       <path id="ArialMT-70" d="M 422 -1272 
L 422 3319 
L 934 3319 
L 934 2888 
Q 1116 3141 1344 3267 
Q 1572 3394 1897 3394 
Q 2322 3394 2647 3175 
Q 2972 2956 3137 2557 
Q 3303 2159 3303 1684 
Q 3303 1175 3120 767 
Q 2938 359 2589 142 
Q 2241 -75 1856 -75 
Q 1575 -75 1351 44 
Q 1128 163 984 344 
L 984 -1272 
L 422 -1272 
z
M 931 1641 
Q 931 1000 1190 694 
Q 1450 388 1819 388 
Q 2194 388 2461 705 
Q 2728 1022 2728 1688 
Q 2728 2322 2467 2637 
Q 2206 2953 1844 2953 
Q 1484 2953 1207 2617 
Q 931 2281 931 1641 
z
" transform="scale(0.015625)"/>
      </defs>
      <use xlink:href="#ArialMT-4d"/>
      <use xlink:href="#ArialMT-6f" transform="translate(83.300781 0)"/>
      <use xlink:href="#ArialMT-64" transform="translate(138.916016 0)"/>
      <use xlink:href="#ArialMT-69" transform="translate(194.53125 0)"/>
      <use xlink:href="#ArialMT-66" transform="translate(216.748047 0)"/>
      <use xlink:href="#ArialMT-69" transform="translate(244.53125 0)"/>
      <use xlink:href="#ArialMT-63" transform="translate(266.748047 0)"/>
      <use xlink:href="#ArialMT-61" transform="translate(316.748047 0)"/>
      <use xlink:href="#ArialMT-74" transform="translate(372.363281 0)"/>
      <use xlink:href="#ArialMT-69" transform="translate(400.146484 0)"/>
      <use xlink:href="#ArialMT-6f" transform="translate(422.363281 0)"/>
      <use xlink:href="#ArialMT-6e" transform="translate(477.978516 0)"/>
      <use xlink:href="#ArialMT-20" transform="translate(533.59375 0)"/>
      <use xlink:href="#ArialMT-54" transform="translate(559.626953 0)"/>
      <use xlink:href="#ArialMT-79" transform="translate(615.210938 0)"/>
      <use xlink:href="#ArialMT-70" transform="translate(665.210938 0)"/>
      <use xlink:href="#ArialMT-65" transform="translate(720.826172 0)"/>
      <use xlink:href="#ArialMT-73" transform="translate(776.441406 0)"/>
     </g>
    </g>
    <g id="patch_8">
     <path d="M 257.780937 72.014187 
L 277.780937 72.014187 
L 277.780937 65.014187 
L 257.780937 65.014187 
z
" style="fill: #1f77b4; fill-opacity: 0.1; stroke: #1f77b4; stroke-linejoin: miter"/>
    </g>
    <g id="text_22">
     <!-- Methyl -->
     <g style="fill: #262626" transform="translate(285.780937 72.014187) scale(0.1 -0.1)">
      <defs>
       <path id="ArialMT-68" d="M 422 0 
L 422 4581 
L 984 4581 
L 984 2938 
Q 1378 3394 1978 3394 
Q 2347 3394 2619 3248 
Q 2891 3103 3008 2847 
Q 3125 2591 3125 2103 
L 3125 0 
L 2563 0 
L 2563 2103 
Q 2563 2525 2380 2717 
Q 2197 2909 1863 2909 
Q 1613 2909 1392 2779 
Q 1172 2650 1078 2428 
Q 984 2206 984 1816 
L 984 0 
L 422 0 
z
" transform="scale(0.015625)"/>
      </defs>
      <use xlink:href="#ArialMT-4d"/>
      <use xlink:href="#ArialMT-65" transform="translate(83.300781 0)"/>
      <use xlink:href="#ArialMT-74" transform="translate(138.916016 0)"/>
      <use xlink:href="#ArialMT-68" transform="translate(166.699219 0)"/>
      <use xlink:href="#ArialMT-79" transform="translate(222.314453 0)"/>
      <use xlink:href="#ArialMT-6c" transform="translate(272.314453 0)"/>
     </g>
    </g>
    <g id="patch_9">
     <path d="M 257.780937 86.276687 
L 277.780937 86.276687 
L 277.780937 79.276687 
L 257.780937 79.276687 
z
" style="fill: #ff7f0e; fill-opacity: 0.1; stroke: #ff7f0e; stroke-linejoin: miter"/>
    </g>
    <g id="text_23">
     <!-- Propionyl -->
     <g style="fill: #262626" transform="translate(285.780937 86.276687) scale(0.1 -0.1)">
      <defs>
       <path id="ArialMT-50" d="M 494 0 
L 494 4581 
L 2222 4581 
Q 2678 4581 2919 4538 
Q 3256 4481 3484 4323 
Q 3713 4166 3852 3881 
Q 3991 3597 3991 3256 
Q 3991 2672 3619 2267 
Q 3247 1863 2275 1863 
L 1100 1863 
L 1100 0 
L 494 0 
z
M 1100 2403 
L 2284 2403 
Q 2872 2403 3119 2622 
Q 3366 2841 3366 3238 
Q 3366 3525 3220 3729 
Q 3075 3934 2838 4000 
Q 2684 4041 2272 4041 
L 1100 4041 
L 1100 2403 
z
" transform="scale(0.015625)"/>
      </defs>
      <use xlink:href="#ArialMT-50"/>
      <use xlink:href="#ArialMT-72" transform="translate(66.699219 0)"/>
      <use xlink:href="#ArialMT-6f" transform="translate(100 0)"/>
      <use xlink:href="#ArialMT-70" transform="translate(155.615234 0)"/>
      <use xlink:href="#ArialMT-69" transform="translate(211.230469 0)"/>
      <use xlink:href="#ArialMT-6f" transform="translate(233.447266 0)"/>
      <use xlink:href="#ArialMT-6e" transform="translate(289.0625 0)"/>
      <use xlink:href="#ArialMT-79" transform="translate(344.677734 0)"/>
      <use xlink:href="#ArialMT-6c" transform="translate(394.677734 0)"/>
     </g>
    </g>
    <g id="patch_10">
     <path d="M 257.780937 100.539187 
L 277.780937 100.539187 
L 277.780937 93.539187 
L 257.780937 93.539187 
z
" style="fill: #2ca02c; fill-opacity: 0.1; stroke: #2ca02c; stroke-linejoin: miter"/>
    </g>
    <g id="text_24">
     <!-- Dimethyl -->
     <g style="fill: #262626" transform="translate(285.780937 100.539187) scale(0.1 -0.1)">
      <use xlink:href="#ArialMT-44"/>
      <use xlink:href="#ArialMT-69" transform="translate(72.216797 0)"/>
      <use xlink:href="#ArialMT-6d" transform="translate(94.433594 0)"/>
      <use xlink:href="#ArialMT-65" transform="translate(177.734375 0)"/>
      <use xlink:href="#ArialMT-74" transform="translate(233.349609 0)"/>
      <use xlink:href="#ArialMT-68" transform="translate(261.132812 0)"/>
      <use xlink:href="#ArialMT-79" transform="translate(316.748047 0)"/>
      <use xlink:href="#ArialMT-6c" transform="translate(366.748047 0)"/>
     </g>
    </g>
    <g id="patch_11">
     <path d="M 257.780937 114.923563 
L 277.780937 114.923563 
L 277.780937 107.923563 
L 257.780937 107.923563 
z
" style="fill: #d62728; fill-opacity: 0.1; stroke: #d62728; stroke-linejoin: miter"/>
    </g>
    <g id="text_25">
     <!-- Crotonyl -->
     <g style="fill: #262626" transform="translate(285.780937 114.923563) scale(0.1 -0.1)">
      <defs>
       <path id="ArialMT-43" d="M 3763 1606 
L 4369 1453 
Q 4178 706 3683 314 
Q 3188 -78 2472 -78 
Q 1731 -78 1267 223 
Q 803 525 561 1097 
Q 319 1669 319 2325 
Q 319 3041 592 3573 
Q 866 4106 1370 4382 
Q 1875 4659 2481 4659 
Q 3169 4659 3637 4309 
Q 4106 3959 4291 3325 
L 3694 3184 
Q 3534 3684 3231 3912 
Q 2928 4141 2469 4141 
Q 1941 4141 1586 3887 
Q 1231 3634 1087 3207 
Q 944 2781 944 2328 
Q 944 1744 1114 1308 
Q 1284 872 1643 656 
Q 2003 441 2422 441 
Q 2931 441 3284 734 
Q 3638 1028 3763 1606 
z
" transform="scale(0.015625)"/>
      </defs>
      <use xlink:href="#ArialMT-43"/>
      <use xlink:href="#ArialMT-72" transform="translate(72.216797 0)"/>
      <use xlink:href="#ArialMT-6f" transform="translate(105.517578 0)"/>
      <use xlink:href="#ArialMT-74" transform="translate(161.132812 0)"/>
      <use xlink:href="#ArialMT-6f" transform="translate(188.916016 0)"/>
      <use xlink:href="#ArialMT-6e" transform="translate(244.53125 0)"/>
      <use xlink:href="#ArialMT-79" transform="translate(300.146484 0)"/>
      <use xlink:href="#ArialMT-6c" transform="translate(350.146484 0)"/>
     </g>
    </g>
    <g id="patch_12">
     <path d="M 257.780937 129.186062 
L 277.780937 129.186062 
L 277.780937 122.186062 
L 257.780937 122.186062 
z
" style="fill: #0000ff; fill-opacity: 0.8; stroke: #0000ff; stroke-linejoin: miter"/>
    </g>
    <g id="text_26">
     <!-- Identifications "unmodified" -->
     <g style="fill: #262626" transform="translate(285.780937 129.186062) scale(0.1 -0.1)">
      <defs>
       <path id="ArialMT-49" d="M 597 0 
L 597 4581 
L 1203 4581 
L 1203 0 
L 597 0 
z
" transform="scale(0.015625)"/>
       <path id="ArialMT-22" d="M 450 2959 
L 294 3831 
L 294 4581 
L 934 4581 
L 934 3831 
L 794 2959 
L 450 2959 
z
M 1484 2959 
L 1331 3831 
L 1331 4581 
L 1972 4581 
L 1972 3831 
L 1822 2959 
L 1484 2959 
z
" transform="scale(0.015625)"/>
       <path id="ArialMT-75" d="M 2597 0 
L 2597 488 
Q 2209 -75 1544 -75 
Q 1250 -75 995 37 
Q 741 150 617 320 
Q 494 491 444 738 
Q 409 903 409 1263 
L 409 3319 
L 972 3319 
L 972 1478 
Q 972 1038 1006 884 
Q 1059 663 1231 536 
Q 1403 409 1656 409 
Q 1909 409 2131 539 
Q 2353 669 2445 892 
Q 2538 1116 2538 1541 
L 2538 3319 
L 3100 3319 
L 3100 0 
L 2597 0 
z
" transform="scale(0.015625)"/>
      </defs>
      <use xlink:href="#ArialMT-49"/>
      <use xlink:href="#ArialMT-64" transform="translate(27.783203 0)"/>
      <use xlink:href="#ArialMT-65" transform="translate(83.398438 0)"/>
      <use xlink:href="#ArialMT-6e" transform="translate(139.013672 0)"/>
      <use xlink:href="#ArialMT-74" transform="translate(194.628906 0)"/>
      <use xlink:href="#ArialMT-69" transform="translate(222.412109 0)"/>
      <use xlink:href="#ArialMT-66" transform="translate(244.628906 0)"/>
      <use xlink:href="#ArialMT-69" transform="translate(272.412109 0)"/>
      <use xlink:href="#ArialMT-63" transform="translate(294.628906 0)"/>
      <use xlink:href="#ArialMT-61" transform="translate(344.628906 0)"/>
      <use xlink:href="#ArialMT-74" transform="translate(400.244141 0)"/>
      <use xlink:href="#ArialMT-69" transform="translate(428.027344 0)"/>
      <use xlink:href="#ArialMT-6f" transform="translate(450.244141 0)"/>
      <use xlink:href="#ArialMT-6e" transform="translate(505.859375 0)"/>
      <use xlink:href="#ArialMT-73" transform="translate(561.474609 0)"/>
      <use xlink:href="#ArialMT-20" transform="translate(611.474609 0)"/>
      <use xlink:href="#ArialMT-22" transform="translate(639.257812 0)"/>
      <use xlink:href="#ArialMT-75" transform="translate(674.755859 0)"/>
      <use xlink:href="#ArialMT-6e" transform="translate(730.371094 0)"/>
      <use xlink:href="#ArialMT-6d" transform="translate(785.986328 0)"/>
      <use xlink:href="#ArialMT-6f" transform="translate(869.287109 0)"/>
      <use xlink:href="#ArialMT-64" transform="translate(924.902344 0)"/>
      <use xlink:href="#ArialMT-69" transform="translate(980.517578 0)"/>
      <use xlink:href="#ArialMT-66" transform="translate(1002.734375 0)"/>
      <use xlink:href="#ArialMT-69" transform="translate(1030.517578 0)"/>
      <use xlink:href="#ArialMT-65" transform="translate(1052.734375 0)"/>
      <use xlink:href="#ArialMT-64" transform="translate(1108.349609 0)"/>
      <use xlink:href="#ArialMT-22" transform="translate(1163.964844 0)"/>
     </g>
    </g>
   </g>
  </g>
 </g>
 <defs>
  <clipPath id="pc3f6e9ea23">
   <rect x="57.6" y="41.472" width="357.12" height="266.112"/>
  </clipPath>
 </defs>
</svg>
