<?xml version="1.0" encoding="utf-8" standalone="no"?>
<!DOCTYPE svg PUBLIC "-//W3C//DTD SVG 1.1//EN"
  "http://www.w3.org/Graphics/SVG/1.1/DTD/svg11.dtd">
<svg xmlns:xlink="http://www.w3.org/1999/xlink" width="648pt" height="360pt" viewBox="0 0 648 360" xmlns="http://www.w3.org/2000/svg" version="1.1">
 <metadata>
  <rdf:RDF xmlns:dc="http://purl.org/dc/elements/1.1/" xmlns:cc="http://creativecommons.org/ns#" xmlns:rdf="http://www.w3.org/1999/02/22-rdf-syntax-ns#">
   <cc:Work>
    <dc:type rdf:resource="http://purl.org/dc/dcmitype/StillImage"/>
    <dc:date>2025-06-13T17:39:58.508019</dc:date>
    <dc:format>image/svg+xml</dc:format>
    <dc:creator>
     <cc:Agent>
      <dc:title>Matplotlib v3.10.1, https://matplotlib.org/</dc:title>
     </cc:Agent>
    </dc:creator>
   </cc:Work>
  </rdf:RDF>
 </metadata>
 <defs>
  <style type="text/css">*{stroke-linejoin: round; stroke-linecap: butt}</style>
 </defs>
 <g id="figure_1">
  <g id="patch_1">
   <path d="M 0 360 
L 648 360 
L 648 0 
L 0 0 
z
" style="fill: #ffffff"/>
  </g>
  <g id="axes_1">
   <g id="patch_2">
    <path d="M 48.89 291.018107 
L 637.2 291.018107 
L 637.2 10.8 
L 48.89 10.8 
z
" style="fill: #ffffff"/>
   </g>
   <g id="matplotlib.axis_1">
    <g id="xtick_1">
     <g id="text_1">
      <!-- Crotonyl -->
      <g style="fill: #262626" transform="translate(66.970799 329.494303) rotate(-45) scale(0.1 -0.1)">
       <defs>
        <path id="ArialMT-43" d="M 3763 1606 
L 4369 1453 
Q 4178 706 3683 314 
Q 3188 -78 2472 -78 
Q 1731 -78 1267 223 
Q 803 525 561 1097 
Q 319 1669 319 2325 
Q 319 3041 592 3573 
Q 866 4106 1370 4382 
Q 1875 4659 2481 4659 
Q 3169 4659 3637 4309 
Q 4106 3959 4291 3325 
L 3694 3184 
Q 3534 3684 3231 3912 
Q 2928 4141 2469 4141 
Q 1941 4141 1586 3887 
Q 1231 3634 1087 3207 
Q 944 2781 944 2328 
Q 944 1744 1114 1308 
Q 1284 872 1643 656 
Q 2003 441 2422 441 
Q 2931 441 3284 734 
Q 3638 1028 3763 1606 
z
" transform="scale(0.015625)"/>
        <path id="ArialMT-72" d="M 416 0 
L 416 3319 
L 922 3319 
L 922 2816 
Q 1116 3169 1280 3281 
Q 1444 3394 1641 3394 
Q 1925 3394 2219 3213 
L 2025 2691 
Q 1819 2813 1613 2813 
Q 1428 2813 1281 2702 
Q 1134 2591 1072 2394 
Q 978 2094 978 1738 
L 978 0 
L 416 0 
z
" transform="scale(0.015625)"/>
        <path id="ArialMT-6f" d="M 213 1659 
Q 213 2581 725 3025 
Q 1153 3394 1769 3394 
Q 2453 3394 2887 2945 
Q 3322 2497 3322 1706 
Q 3322 1066 3130 698 
Q 2938 331 2570 128 
Q 2203 -75 1769 -75 
Q 1072 -75 642 372 
Q 213 819 213 1659 
z
M 791 1659 
Q 791 1022 1069 705 
Q 1347 388 1769 388 
Q 2188 388 2466 706 
Q 2744 1025 2744 1678 
Q 2744 2294 2464 2611 
Q 2184 2928 1769 2928 
Q 1347 2928 1069 2612 
Q 791 2297 791 1659 
z
" transform="scale(0.015625)"/>
        <path id="ArialMT-74" d="M 1650 503 
L 1731 6 
Q 1494 -44 1306 -44 
Q 1000 -44 831 53 
Q 663 150 594 308 
Q 525 466 525 972 
L 525 2881 
L 113 2881 
L 113 3319 
L 525 3319 
L 525 4141 
L 1084 4478 
L 1084 3319 
L 1650 3319 
L 1650 2881 
L 1084 2881 
L 1084 941 
Q 1084 700 1114 631 
Q 1144 563 1211 522 
Q 1278 481 1403 481 
Q 1497 481 1650 503 
z
" transform="scale(0.015625)"/>
        <path id="ArialMT-6e" d="M 422 0 
L 422 3319 
L 928 3319 
L 928 2847 
Q 1294 3394 1984 3394 
Q 2284 3394 2536 3286 
Q 2788 3178 2913 3003 
Q 3038 2828 3088 2588 
Q 3119 2431 3119 2041 
L 3119 0 
L 2556 0 
L 2556 2019 
Q 2556 2363 2490 2533 
Q 2425 2703 2258 2804 
Q 2091 2906 1866 2906 
Q 1506 2906 1245 2678 
Q 984 2450 984 1813 
L 984 0 
L 422 0 
z
" transform="scale(0.015625)"/>
        <path id="ArialMT-79" d="M 397 -1278 
L 334 -750 
Q 519 -800 656 -800 
Q 844 -800 956 -737 
Q 1069 -675 1141 -563 
Q 1194 -478 1313 -144 
Q 1328 -97 1363 -6 
L 103 3319 
L 709 3319 
L 1400 1397 
Q 1534 1031 1641 628 
Q 1738 1016 1872 1384 
L 2581 3319 
L 3144 3319 
L 1881 -56 
Q 1678 -603 1566 -809 
Q 1416 -1088 1222 -1217 
Q 1028 -1347 759 -1347 
Q 597 -1347 397 -1278 
z
" transform="scale(0.015625)"/>
        <path id="ArialMT-6c" d="M 409 0 
L 409 4581 
L 972 4581 
L 972 0 
L 409 0 
z
" transform="scale(0.015625)"/>
       </defs>
       <use xlink:href="#ArialMT-43"/>
       <use xlink:href="#ArialMT-72" transform="translate(72.216797 0)"/>
       <use xlink:href="#ArialMT-6f" transform="translate(105.517578 0)"/>
       <use xlink:href="#ArialMT-74" transform="translate(161.132812 0)"/>
       <use xlink:href="#ArialMT-6f" transform="translate(188.916016 0)"/>
       <use xlink:href="#ArialMT-6e" transform="translate(244.53125 0)"/>
       <use xlink:href="#ArialMT-79" transform="translate(300.146484 0)"/>
       <use xlink:href="#ArialMT-6c" transform="translate(350.146484 0)"/>
      </g>
     </g>
    </g>
    <g id="xtick_2">
     <g id="text_2">
      <!-- Propionyl -->
      <g style="fill: #262626" transform="translate(124.184293 332.556959) rotate(-45) scale(0.1 -0.1)">
       <defs>
        <path id="ArialMT-50" d="M 494 0 
L 494 4581 
L 2222 4581 
Q 2678 4581 2919 4538 
Q 3256 4481 3484 4323 
Q 3713 4166 3852 3881 
Q 3991 3597 3991 3256 
Q 3991 2672 3619 2267 
Q 3247 1863 2275 1863 
L 1100 1863 
L 1100 0 
L 494 0 
z
M 1100 2403 
L 2284 2403 
Q 2872 2403 3119 2622 
Q 3366 2841 3366 3238 
Q 3366 3525 3220 3729 
Q 3075 3934 2838 4000 
Q 2684 4041 2272 4041 
L 1100 4041 
L 1100 2403 
z
" transform="scale(0.015625)"/>
        <path id="ArialMT-70" d="M 422 -1272 
L 422 3319 
L 934 3319 
L 934 2888 
Q 1116 3141 1344 3267 
Q 1572 3394 1897 3394 
Q 2322 3394 2647 3175 
Q 2972 2956 3137 2557 
Q 3303 2159 3303 1684 
Q 3303 1175 3120 767 
Q 2938 359 2589 142 
Q 2241 -75 1856 -75 
Q 1575 -75 1351 44 
Q 1128 163 984 344 
L 984 -1272 
L 422 -1272 
z
M 931 1641 
Q 931 1000 1190 694 
Q 1450 388 1819 388 
Q 2194 388 2461 705 
Q 2728 1022 2728 1688 
Q 2728 2322 2467 2637 
Q 2206 2953 1844 2953 
Q 1484 2953 1207 2617 
Q 931 2281 931 1641 
z
" transform="scale(0.015625)"/>
        <path id="ArialMT-69" d="M 425 3934 
L 425 4581 
L 988 4581 
L 988 3934 
L 425 3934 
z
M 425 0 
L 425 3319 
L 988 3319 
L 988 0 
L 425 0 
z
" transform="scale(0.015625)"/>
       </defs>
       <use xlink:href="#ArialMT-50"/>
       <use xlink:href="#ArialMT-72" transform="translate(66.699219 0)"/>
       <use xlink:href="#ArialMT-6f" transform="translate(100 0)"/>
       <use xlink:href="#ArialMT-70" transform="translate(155.615234 0)"/>
       <use xlink:href="#ArialMT-69" transform="translate(211.230469 0)"/>
       <use xlink:href="#ArialMT-6f" transform="translate(233.447266 0)"/>
       <use xlink:href="#ArialMT-6e" transform="translate(289.0625 0)"/>
       <use xlink:href="#ArialMT-79" transform="translate(344.677734 0)"/>
       <use xlink:href="#ArialMT-6c" transform="translate(394.677734 0)"/>
      </g>
     </g>
    </g>
    <g id="xtick_3">
     <g id="text_3">
      <!-- Acetyl -->
      <g style="fill: #262626" transform="translate(188.126349 322.334846) rotate(-45) scale(0.1 -0.1)">
       <defs>
        <path id="ArialMT-41" d="M -9 0 
L 1750 4581 
L 2403 4581 
L 4278 0 
L 3588 0 
L 3053 1388 
L 1138 1388 
L 634 0 
L -9 0 
z
M 1313 1881 
L 2866 1881 
L 2388 3150 
Q 2169 3728 2063 4100 
Q 1975 3659 1816 3225 
L 1313 1881 
z
" transform="scale(0.015625)"/>
        <path id="ArialMT-63" d="M 2588 1216 
L 3141 1144 
Q 3050 572 2676 248 
Q 2303 -75 1759 -75 
Q 1078 -75 664 370 
Q 250 816 250 1647 
Q 250 2184 428 2587 
Q 606 2991 970 3192 
Q 1334 3394 1763 3394 
Q 2303 3394 2647 3120 
Q 2991 2847 3088 2344 
L 2541 2259 
Q 2463 2594 2264 2762 
Q 2066 2931 1784 2931 
Q 1359 2931 1093 2626 
Q 828 2322 828 1663 
Q 828 994 1084 691 
Q 1341 388 1753 388 
Q 2084 388 2306 591 
Q 2528 794 2588 1216 
z
" transform="scale(0.015625)"/>
        <path id="ArialMT-65" d="M 2694 1069 
L 3275 997 
Q 3138 488 2766 206 
Q 2394 -75 1816 -75 
Q 1088 -75 661 373 
Q 234 822 234 1631 
Q 234 2469 665 2931 
Q 1097 3394 1784 3394 
Q 2450 3394 2872 2941 
Q 3294 2488 3294 1666 
Q 3294 1616 3291 1516 
L 816 1516 
Q 847 969 1125 678 
Q 1403 388 1819 388 
Q 2128 388 2347 550 
Q 2566 713 2694 1069 
z
M 847 1978 
L 2700 1978 
Q 2663 2397 2488 2606 
Q 2219 2931 1791 2931 
Q 1403 2931 1139 2672 
Q 875 2413 847 1978 
z
" transform="scale(0.015625)"/>
       </defs>
       <use xlink:href="#ArialMT-41"/>
       <use xlink:href="#ArialMT-63" transform="translate(66.699219 0)"/>
       <use xlink:href="#ArialMT-65" transform="translate(116.699219 0)"/>
       <use xlink:href="#ArialMT-74" transform="translate(172.314453 0)"/>
       <use xlink:href="#ArialMT-79" transform="translate(200.097656 0)"/>
       <use xlink:href="#ArialMT-6c" transform="translate(250.097656 0)"/>
      </g>
     </g>
    </g>
    <g id="xtick_4">
     <g id="text_4">
      <!-- Succinyl -->
      <g style="fill: #262626" transform="translate(243.463247 329.495407) rotate(-45) scale(0.1 -0.1)">
       <defs>
        <path id="ArialMT-53" d="M 288 1472 
L 859 1522 
Q 900 1178 1048 958 
Q 1197 738 1509 602 
Q 1822 466 2213 466 
Q 2559 466 2825 569 
Q 3091 672 3220 851 
Q 3350 1031 3350 1244 
Q 3350 1459 3225 1620 
Q 3100 1781 2813 1891 
Q 2628 1963 1997 2114 
Q 1366 2266 1113 2400 
Q 784 2572 623 2826 
Q 463 3081 463 3397 
Q 463 3744 659 4045 
Q 856 4347 1234 4503 
Q 1613 4659 2075 4659 
Q 2584 4659 2973 4495 
Q 3363 4331 3572 4012 
Q 3781 3694 3797 3291 
L 3216 3247 
Q 3169 3681 2898 3903 
Q 2628 4125 2100 4125 
Q 1550 4125 1298 3923 
Q 1047 3722 1047 3438 
Q 1047 3191 1225 3031 
Q 1400 2872 2139 2705 
Q 2878 2538 3153 2413 
Q 3553 2228 3743 1945 
Q 3934 1663 3934 1294 
Q 3934 928 3725 604 
Q 3516 281 3123 101 
Q 2731 -78 2241 -78 
Q 1619 -78 1198 103 
Q 778 284 539 648 
Q 300 1013 288 1472 
z
" transform="scale(0.015625)"/>
        <path id="ArialMT-75" d="M 2597 0 
L 2597 488 
Q 2209 -75 1544 -75 
Q 1250 -75 995 37 
Q 741 150 617 320 
Q 494 491 444 738 
Q 409 903 409 1263 
L 409 3319 
L 972 3319 
L 972 1478 
Q 972 1038 1006 884 
Q 1059 663 1231 536 
Q 1403 409 1656 409 
Q 1909 409 2131 539 
Q 2353 669 2445 892 
Q 2538 1116 2538 1541 
L 2538 3319 
L 3100 3319 
L 3100 0 
L 2597 0 
z
" transform="scale(0.015625)"/>
       </defs>
       <use xlink:href="#ArialMT-53"/>
       <use xlink:href="#ArialMT-75" transform="translate(66.699219 0)"/>
       <use xlink:href="#ArialMT-63" transform="translate(122.314453 0)"/>
       <use xlink:href="#ArialMT-63" transform="translate(172.314453 0)"/>
       <use xlink:href="#ArialMT-69" transform="translate(222.314453 0)"/>
       <use xlink:href="#ArialMT-6e" transform="translate(244.53125 0)"/>
       <use xlink:href="#ArialMT-79" transform="translate(300.146484 0)"/>
       <use xlink:href="#ArialMT-6c" transform="translate(350.146484 0)"/>
      </g>
     </g>
    </g>
    <g id="xtick_5">
     <g id="text_5">
      <!-- Formyl -->
      <g style="fill: #262626" transform="translate(304.614993 324.681557) rotate(-45) scale(0.1 -0.1)">
       <defs>
        <path id="ArialMT-46" d="M 525 0 
L 525 4581 
L 3616 4581 
L 3616 4041 
L 1131 4041 
L 1131 2622 
L 3281 2622 
L 3281 2081 
L 1131 2081 
L 1131 0 
L 525 0 
z
" transform="scale(0.015625)"/>
        <path id="ArialMT-6d" d="M 422 0 
L 422 3319 
L 925 3319 
L 925 2853 
Q 1081 3097 1340 3245 
Q 1600 3394 1931 3394 
Q 2300 3394 2536 3241 
Q 2772 3088 2869 2813 
Q 3263 3394 3894 3394 
Q 4388 3394 4653 3120 
Q 4919 2847 4919 2278 
L 4919 0 
L 4359 0 
L 4359 2091 
Q 4359 2428 4304 2576 
Q 4250 2725 4106 2815 
Q 3963 2906 3769 2906 
Q 3419 2906 3187 2673 
Q 2956 2441 2956 1928 
L 2956 0 
L 2394 0 
L 2394 2156 
Q 2394 2531 2256 2718 
Q 2119 2906 1806 2906 
Q 1569 2906 1367 2781 
Q 1166 2656 1075 2415 
Q 984 2175 984 1722 
L 984 0 
L 422 0 
z
" transform="scale(0.015625)"/>
       </defs>
       <use xlink:href="#ArialMT-46"/>
       <use xlink:href="#ArialMT-6f" transform="translate(61.083984 0)"/>
       <use xlink:href="#ArialMT-72" transform="translate(116.699219 0)"/>
       <use xlink:href="#ArialMT-6d" transform="translate(150 0)"/>
       <use xlink:href="#ArialMT-79" transform="translate(233.300781 0)"/>
       <use xlink:href="#ArialMT-6c" transform="translate(283.300781 0)"/>
      </g>
     </g>
    </g>
    <g id="xtick_6">
     <g id="text_6">
      <!-- Malonyl -->
      <g style="fill: #262626" transform="translate(362.064925 327.443693) rotate(-45) scale(0.1 -0.1)">
       <defs>
        <path id="ArialMT-4d" d="M 475 0 
L 475 4581 
L 1388 4581 
L 2472 1338 
Q 2622 884 2691 659 
Q 2769 909 2934 1394 
L 4031 4581 
L 4847 4581 
L 4847 0 
L 4263 0 
L 4263 3834 
L 2931 0 
L 2384 0 
L 1059 3900 
L 1059 0 
L 475 0 
z
" transform="scale(0.015625)"/>
        <path id="ArialMT-61" d="M 2588 409 
Q 2275 144 1986 34 
Q 1697 -75 1366 -75 
Q 819 -75 525 192 
Q 231 459 231 875 
Q 231 1119 342 1320 
Q 453 1522 633 1644 
Q 813 1766 1038 1828 
Q 1203 1872 1538 1913 
Q 2219 1994 2541 2106 
Q 2544 2222 2544 2253 
Q 2544 2597 2384 2738 
Q 2169 2928 1744 2928 
Q 1347 2928 1158 2789 
Q 969 2650 878 2297 
L 328 2372 
Q 403 2725 575 2942 
Q 747 3159 1072 3276 
Q 1397 3394 1825 3394 
Q 2250 3394 2515 3294 
Q 2781 3194 2906 3042 
Q 3031 2891 3081 2659 
Q 3109 2516 3109 2141 
L 3109 1391 
Q 3109 606 3145 398 
Q 3181 191 3288 0 
L 2700 0 
Q 2613 175 2588 409 
z
M 2541 1666 
Q 2234 1541 1622 1453 
Q 1275 1403 1131 1340 
Q 988 1278 909 1158 
Q 831 1038 831 891 
Q 831 666 1001 516 
Q 1172 366 1500 366 
Q 1825 366 2078 508 
Q 2331 650 2450 897 
Q 2541 1088 2541 1459 
L 2541 1666 
z
" transform="scale(0.015625)"/>
       </defs>
       <use xlink:href="#ArialMT-4d"/>
       <use xlink:href="#ArialMT-61" transform="translate(83.300781 0)"/>
       <use xlink:href="#ArialMT-6c" transform="translate(138.916016 0)"/>
       <use xlink:href="#ArialMT-6f" transform="translate(161.132812 0)"/>
       <use xlink:href="#ArialMT-6e" transform="translate(216.748047 0)"/>
       <use xlink:href="#ArialMT-79" transform="translate(272.363281 0)"/>
       <use xlink:href="#ArialMT-6c" transform="translate(322.363281 0)"/>
      </g>
     </g>
    </g>
    <g id="xtick_7">
     <g id="text_7">
      <!-- Dimethyl -->
      <g style="fill: #262626" transform="translate(419.32648 330.582584) rotate(-45) scale(0.1 -0.1)">
       <defs>
        <path id="ArialMT-44" d="M 494 0 
L 494 4581 
L 2072 4581 
Q 2606 4581 2888 4516 
Q 3281 4425 3559 4188 
Q 3922 3881 4101 3404 
Q 4281 2928 4281 2316 
Q 4281 1794 4159 1391 
Q 4038 988 3847 723 
Q 3656 459 3429 307 
Q 3203 156 2883 78 
Q 2563 0 2147 0 
L 494 0 
z
M 1100 541 
L 2078 541 
Q 2531 541 2789 625 
Q 3047 709 3200 863 
Q 3416 1078 3536 1442 
Q 3656 1806 3656 2325 
Q 3656 3044 3420 3430 
Q 3184 3816 2847 3947 
Q 2603 4041 2063 4041 
L 1100 4041 
L 1100 541 
z
" transform="scale(0.015625)"/>
        <path id="ArialMT-68" d="M 422 0 
L 422 4581 
L 984 4581 
L 984 2938 
Q 1378 3394 1978 3394 
Q 2347 3394 2619 3248 
Q 2891 3103 3008 2847 
Q 3125 2591 3125 2103 
L 3125 0 
L 2563 0 
L 2563 2103 
Q 2563 2525 2380 2717 
Q 2197 2909 1863 2909 
Q 1613 2909 1392 2779 
Q 1172 2650 1078 2428 
Q 984 2206 984 1816 
L 984 0 
L 422 0 
z
" transform="scale(0.015625)"/>
       </defs>
       <use xlink:href="#ArialMT-44"/>
       <use xlink:href="#ArialMT-69" transform="translate(72.216797 0)"/>
       <use xlink:href="#ArialMT-6d" transform="translate(94.433594 0)"/>
       <use xlink:href="#ArialMT-65" transform="translate(177.734375 0)"/>
       <use xlink:href="#ArialMT-74" transform="translate(233.349609 0)"/>
       <use xlink:href="#ArialMT-68" transform="translate(261.132812 0)"/>
       <use xlink:href="#ArialMT-79" transform="translate(316.748047 0)"/>
       <use xlink:href="#ArialMT-6c" transform="translate(366.748047 0)"/>
      </g>
     </g>
    </g>
    <g id="xtick_8">
     <g id="text_8">
      <!-- Trimethyl -->
      <g style="fill: #262626" transform="translate(477.506721 331.884103) rotate(-45) scale(0.1 -0.1)">
       <defs>
        <path id="ArialMT-54" d="M 1659 0 
L 1659 4041 
L 150 4041 
L 150 4581 
L 3781 4581 
L 3781 4041 
L 2266 4041 
L 2266 0 
L 1659 0 
z
" transform="scale(0.015625)"/>
       </defs>
       <use xlink:href="#ArialMT-54"/>
       <use xlink:href="#ArialMT-72" transform="translate(57.333984 0)"/>
       <use xlink:href="#ArialMT-69" transform="translate(90.634766 0)"/>
       <use xlink:href="#ArialMT-6d" transform="translate(112.851562 0)"/>
       <use xlink:href="#ArialMT-65" transform="translate(196.152344 0)"/>
       <use xlink:href="#ArialMT-74" transform="translate(251.767578 0)"/>
       <use xlink:href="#ArialMT-68" transform="translate(279.550781 0)"/>
       <use xlink:href="#ArialMT-79" transform="translate(335.166016 0)"/>
       <use xlink:href="#ArialMT-6c" transform="translate(385.166016 0)"/>
      </g>
     </g>
    </g>
    <g id="xtick_9">
     <g id="text_9">
      <!-- Methyl -->
      <g style="fill: #262626" transform="translate(540.32735 323.904845) rotate(-45) scale(0.1 -0.1)">
       <use xlink:href="#ArialMT-4d"/>
       <use xlink:href="#ArialMT-65" transform="translate(83.300781 0)"/>
       <use xlink:href="#ArialMT-74" transform="translate(138.916016 0)"/>
       <use xlink:href="#ArialMT-68" transform="translate(166.699219 0)"/>
       <use xlink:href="#ArialMT-79" transform="translate(222.314453 0)"/>
       <use xlink:href="#ArialMT-6c" transform="translate(272.314453 0)"/>
      </g>
     </g>
    </g>
    <g id="xtick_10">
     <g id="text_10">
      <!-- Oxidation -->
      <g style="fill: #262626" transform="translate(594.67706 332.950287) rotate(-45) scale(0.1 -0.1)">
       <defs>
        <path id="ArialMT-4f" d="M 309 2231 
Q 309 3372 921 4017 
Q 1534 4663 2503 4663 
Q 3138 4663 3647 4359 
Q 4156 4056 4423 3514 
Q 4691 2972 4691 2284 
Q 4691 1588 4409 1038 
Q 4128 488 3612 205 
Q 3097 -78 2500 -78 
Q 1853 -78 1343 234 
Q 834 547 571 1087 
Q 309 1628 309 2231 
z
M 934 2222 
Q 934 1394 1379 917 
Q 1825 441 2497 441 
Q 3181 441 3623 922 
Q 4066 1403 4066 2288 
Q 4066 2847 3877 3264 
Q 3688 3681 3323 3911 
Q 2959 4141 2506 4141 
Q 1863 4141 1398 3698 
Q 934 3256 934 2222 
z
" transform="scale(0.015625)"/>
        <path id="ArialMT-78" d="M 47 0 
L 1259 1725 
L 138 3319 
L 841 3319 
L 1350 2541 
Q 1494 2319 1581 2169 
Q 1719 2375 1834 2534 
L 2394 3319 
L 3066 3319 
L 1919 1756 
L 3153 0 
L 2463 0 
L 1781 1031 
L 1600 1309 
L 728 0 
L 47 0 
z
" transform="scale(0.015625)"/>
        <path id="ArialMT-64" d="M 2575 0 
L 2575 419 
Q 2259 -75 1647 -75 
Q 1250 -75 917 144 
Q 584 363 401 755 
Q 219 1147 219 1656 
Q 219 2153 384 2558 
Q 550 2963 881 3178 
Q 1213 3394 1622 3394 
Q 1922 3394 2156 3267 
Q 2391 3141 2538 2938 
L 2538 4581 
L 3097 4581 
L 3097 0 
L 2575 0 
z
M 797 1656 
Q 797 1019 1065 703 
Q 1334 388 1700 388 
Q 2069 388 2326 689 
Q 2584 991 2584 1609 
Q 2584 2291 2321 2609 
Q 2059 2928 1675 2928 
Q 1300 2928 1048 2622 
Q 797 2316 797 1656 
z
" transform="scale(0.015625)"/>
       </defs>
       <use xlink:href="#ArialMT-4f"/>
       <use xlink:href="#ArialMT-78" transform="translate(77.783203 0)"/>
       <use xlink:href="#ArialMT-69" transform="translate(127.783203 0)"/>
       <use xlink:href="#ArialMT-64" transform="translate(150 0)"/>
       <use xlink:href="#ArialMT-61" transform="translate(205.615234 0)"/>
       <use xlink:href="#ArialMT-74" transform="translate(261.230469 0)"/>
       <use xlink:href="#ArialMT-69" transform="translate(289.013672 0)"/>
       <use xlink:href="#ArialMT-6f" transform="translate(311.230469 0)"/>
       <use xlink:href="#ArialMT-6e" transform="translate(366.845703 0)"/>
      </g>
     </g>
    </g>
    <g id="text_11">
     <!-- Modification Type -->
     <g style="fill: #262626" transform="translate(304.225469 345.635349) scale(0.1 -0.1)">
      <defs>
       <path id="ArialMT-66" d="M 556 0 
L 556 2881 
L 59 2881 
L 59 3319 
L 556 3319 
L 556 3672 
Q 556 4006 616 4169 
Q 697 4388 901 4523 
Q 1106 4659 1475 4659 
Q 1713 4659 2000 4603 
L 1916 4113 
Q 1741 4144 1584 4144 
Q 1328 4144 1222 4034 
Q 1116 3925 1116 3625 
L 1116 3319 
L 1763 3319 
L 1763 2881 
L 1116 2881 
L 1116 0 
L 556 0 
z
" transform="scale(0.015625)"/>
       <path id="ArialMT-20" transform="scale(0.015625)"/>
      </defs>
      <use xlink:href="#ArialMT-4d"/>
      <use xlink:href="#ArialMT-6f" transform="translate(83.300781 0)"/>
      <use xlink:href="#ArialMT-64" transform="translate(138.916016 0)"/>
      <use xlink:href="#ArialMT-69" transform="translate(194.53125 0)"/>
      <use xlink:href="#ArialMT-66" transform="translate(216.748047 0)"/>
      <use xlink:href="#ArialMT-69" transform="translate(244.53125 0)"/>
      <use xlink:href="#ArialMT-63" transform="translate(266.748047 0)"/>
      <use xlink:href="#ArialMT-61" transform="translate(316.748047 0)"/>
      <use xlink:href="#ArialMT-74" transform="translate(372.363281 0)"/>
      <use xlink:href="#ArialMT-69" transform="translate(400.146484 0)"/>
      <use xlink:href="#ArialMT-6f" transform="translate(422.363281 0)"/>
      <use xlink:href="#ArialMT-6e" transform="translate(477.978516 0)"/>
      <use xlink:href="#ArialMT-20" transform="translate(533.59375 0)"/>
      <use xlink:href="#ArialMT-54" transform="translate(559.626953 0)"/>
      <use xlink:href="#ArialMT-79" transform="translate(615.210938 0)"/>
      <use xlink:href="#ArialMT-70" transform="translate(665.210938 0)"/>
      <use xlink:href="#ArialMT-65" transform="translate(720.826172 0)"/>
     </g>
    </g>
   </g>
   <g id="matplotlib.axis_2">
    <g id="ytick_1">
     <g id="line2d_1">
      <path d="M 48.89 249.649774 
L 637.2 249.649774 
" clip-path="url(#p462c1843cf)" style="fill: none; stroke: #cccccc; stroke-width: 0.8; stroke-linecap: round"/>
     </g>
     <g id="text_12">
      <!-- −10 -->
      <g style="fill: #262626" transform="translate(24.9275 253.228681) scale(0.1 -0.1)">
       <defs>
        <path id="ArialMT-2212" d="M 3381 1997 
L 356 1997 
L 356 2522 
L 3381 2522 
L 3381 1997 
z
" transform="scale(0.015625)"/>
        <path id="ArialMT-31" d="M 2384 0 
L 1822 0 
L 1822 3584 
Q 1619 3391 1289 3197 
Q 959 3003 697 2906 
L 697 3450 
Q 1169 3672 1522 3987 
Q 1875 4303 2022 4600 
L 2384 4600 
L 2384 0 
z
" transform="scale(0.015625)"/>
        <path id="ArialMT-30" d="M 266 2259 
Q 266 3072 433 3567 
Q 600 4063 929 4331 
Q 1259 4600 1759 4600 
Q 2128 4600 2406 4451 
Q 2684 4303 2865 4023 
Q 3047 3744 3150 3342 
Q 3253 2941 3253 2259 
Q 3253 1453 3087 958 
Q 2922 463 2592 192 
Q 2263 -78 1759 -78 
Q 1097 -78 719 397 
Q 266 969 266 2259 
z
M 844 2259 
Q 844 1131 1108 757 
Q 1372 384 1759 384 
Q 2147 384 2411 759 
Q 2675 1134 2675 2259 
Q 2675 3391 2411 3762 
Q 2147 4134 1753 4134 
Q 1366 4134 1134 3806 
Q 844 3388 844 2259 
z
" transform="scale(0.015625)"/>
       </defs>
       <use xlink:href="#ArialMT-2212"/>
       <use xlink:href="#ArialMT-31" transform="translate(58.398438 0)"/>
       <use xlink:href="#ArialMT-30" transform="translate(114.013672 0)"/>
      </g>
     </g>
    </g>
    <g id="ytick_2">
     <g id="line2d_2">
      <path d="M 48.89 206.868309 
L 637.2 206.868309 
" clip-path="url(#p462c1843cf)" style="fill: none; stroke: #cccccc; stroke-width: 0.8; stroke-linecap: round"/>
     </g>
     <g id="text_13">
      <!-- −5 -->
      <g style="fill: #262626" transform="translate(30.488437 210.447215) scale(0.1 -0.1)">
       <defs>
        <path id="ArialMT-35" d="M 266 1200 
L 856 1250 
Q 922 819 1161 601 
Q 1400 384 1738 384 
Q 2144 384 2425 690 
Q 2706 997 2706 1503 
Q 2706 1984 2436 2262 
Q 2166 2541 1728 2541 
Q 1456 2541 1237 2417 
Q 1019 2294 894 2097 
L 366 2166 
L 809 4519 
L 3088 4519 
L 3088 3981 
L 1259 3981 
L 1013 2750 
Q 1425 3038 1878 3038 
Q 2478 3038 2890 2622 
Q 3303 2206 3303 1553 
Q 3303 931 2941 478 
Q 2500 -78 1738 -78 
Q 1113 -78 717 272 
Q 322 622 266 1200 
z
" transform="scale(0.015625)"/>
       </defs>
       <use xlink:href="#ArialMT-2212"/>
       <use xlink:href="#ArialMT-35" transform="translate(58.398438 0)"/>
      </g>
     </g>
    </g>
    <g id="ytick_3">
     <g id="line2d_3">
      <path d="M 48.89 164.086843 
L 637.2 164.086843 
" clip-path="url(#p462c1843cf)" style="fill: none; stroke: #cccccc; stroke-width: 0.8; stroke-linecap: round"/>
     </g>
     <g id="text_14">
      <!-- 0 -->
      <g style="fill: #262626" transform="translate(36.329062 167.665749) scale(0.1 -0.1)">
       <use xlink:href="#ArialMT-30"/>
      </g>
     </g>
    </g>
    <g id="ytick_4">
     <g id="line2d_4">
      <path d="M 48.89 121.305377 
L 637.2 121.305377 
" clip-path="url(#p462c1843cf)" style="fill: none; stroke: #cccccc; stroke-width: 0.8; stroke-linecap: round"/>
     </g>
     <g id="text_15">
      <!-- 5 -->
      <g style="fill: #262626" transform="translate(36.329062 124.884283) scale(0.1 -0.1)">
       <use xlink:href="#ArialMT-35"/>
      </g>
     </g>
    </g>
    <g id="ytick_5">
     <g id="line2d_5">
      <path d="M 48.89 78.523911 
L 637.2 78.523911 
" clip-path="url(#p462c1843cf)" style="fill: none; stroke: #cccccc; stroke-width: 0.8; stroke-linecap: round"/>
     </g>
     <g id="text_16">
      <!-- 10 -->
      <g style="fill: #262626" transform="translate(30.768125 82.102817) scale(0.1 -0.1)">
       <use xlink:href="#ArialMT-31"/>
       <use xlink:href="#ArialMT-30" transform="translate(55.615234 0)"/>
      </g>
     </g>
    </g>
    <g id="ytick_6">
     <g id="line2d_6">
      <path d="M 48.89 35.742445 
L 637.2 35.742445 
" clip-path="url(#p462c1843cf)" style="fill: none; stroke: #cccccc; stroke-width: 0.8; stroke-linecap: round"/>
     </g>
     <g id="text_17">
      <!-- 15 -->
      <g style="fill: #262626" transform="translate(30.768125 39.321351) scale(0.1 -0.1)">
       <use xlink:href="#ArialMT-31"/>
       <use xlink:href="#ArialMT-35" transform="translate(55.615234 0)"/>
      </g>
     </g>
    </g>
    <g id="text_18">
     <!-- ΔRT (min) -->
     <g style="fill: #262626" transform="translate(18.822812 173.513741) rotate(-90) scale(0.1 -0.1)">
      <defs>
       <path id="ArialMT-394" d="M -6 0 
L 1753 4581 
L 2406 4581 
L 4281 0 
L -6 0 
z
M 834 541 
L 3381 541 
L 2391 3150 
Q 2169 3738 2066 4100 
Q 1981 3675 1819 3225 
L 834 541 
z
" transform="scale(0.015625)"/>
       <path id="ArialMT-52" d="M 503 0 
L 503 4581 
L 2534 4581 
Q 3147 4581 3465 4457 
Q 3784 4334 3975 4021 
Q 4166 3709 4166 3331 
Q 4166 2844 3850 2509 
Q 3534 2175 2875 2084 
Q 3116 1969 3241 1856 
Q 3506 1613 3744 1247 
L 4541 0 
L 3778 0 
L 3172 953 
Q 2906 1366 2734 1584 
Q 2563 1803 2427 1890 
Q 2291 1978 2150 2013 
Q 2047 2034 1813 2034 
L 1109 2034 
L 1109 0 
L 503 0 
z
M 1109 2559 
L 2413 2559 
Q 2828 2559 3062 2645 
Q 3297 2731 3419 2920 
Q 3541 3109 3541 3331 
Q 3541 3656 3305 3865 
Q 3069 4075 2559 4075 
L 1109 4075 
L 1109 2559 
z
" transform="scale(0.015625)"/>
       <path id="ArialMT-28" d="M 1497 -1347 
Q 1031 -759 709 28 
Q 388 816 388 1659 
Q 388 2403 628 3084 
Q 909 3875 1497 4659 
L 1900 4659 
Q 1522 4009 1400 3731 
Q 1209 3300 1100 2831 
Q 966 2247 966 1656 
Q 966 153 1900 -1347 
L 1497 -1347 
z
" transform="scale(0.015625)"/>
       <path id="ArialMT-29" d="M 791 -1347 
L 388 -1347 
Q 1322 153 1322 1656 
Q 1322 2244 1188 2822 
Q 1081 3291 891 3722 
Q 769 4003 388 4659 
L 791 4659 
Q 1378 3875 1659 3084 
Q 1900 2403 1900 1659 
Q 1900 816 1576 28 
Q 1253 -759 791 -1347 
z
" transform="scale(0.015625)"/>
      </defs>
      <use xlink:href="#ArialMT-394"/>
      <use xlink:href="#ArialMT-52" transform="translate(66.796875 0)"/>
      <use xlink:href="#ArialMT-54" transform="translate(137.263672 0)"/>
      <use xlink:href="#ArialMT-20" transform="translate(196.597656 0)"/>
      <use xlink:href="#ArialMT-28" transform="translate(224.380859 0)"/>
      <use xlink:href="#ArialMT-6d" transform="translate(257.681641 0)"/>
      <use xlink:href="#ArialMT-69" transform="translate(340.982422 0)"/>
      <use xlink:href="#ArialMT-6e" transform="translate(363.199219 0)"/>
      <use xlink:href="#ArialMT-29" transform="translate(418.814453 0)"/>
     </g>
    </g>
   </g>
   <g id="FillBetweenPolyCollection_1">
    <defs>
     <path id="m4a5b969f1c" d="M 78.315971 -203.633367 
L 78.295029 -203.633367 
L 78.289883 -204.975079 
L 78.2829 -206.31679 
L 78.273741 -207.658502 
L 78.262119 -209.000213 
L 78.247832 -210.341925 
L 78.23078 -211.683636 
L 78.210965 -213.025348 
L 78.188457 -214.36706 
L 78.163338 -215.708771 
L 78.135646 -217.050483 
L 78.105324 -218.392194 
L 78.07221 -219.733906 
L 78.036082 -221.075617 
L 77.996763 -222.417329 
L 77.954246 -223.759041 
L 77.908829 -225.100752 
L 77.86117 -226.442464 
L 77.812248 -227.784175 
L 77.763187 -229.125887 
L 77.714975 -230.467599 
L 77.668122 -231.80931 
L 77.622359 -233.151022 
L 77.576447 -234.492733 
L 77.528189 -235.834445 
L 77.474646 -237.176156 
L 77.412545 -238.517868 
L 77.338796 -239.85958 
L 77.251012 -241.201291 
L 77.147935 -242.543003 
L 77.029681 -243.884714 
L 76.897783 -245.226426 
L 76.755023 -246.568137 
L 76.605117 -247.909849 
L 76.452323 -249.251561 
L 76.301028 -250.593272 
L 76.155385 -251.934984 
L 76.019012 -253.276695 
L 75.894779 -254.618407 
L 75.784645 -255.960119 
L 75.689559 -257.30183 
L 75.609409 -258.643542 
L 75.543033 -259.985253 
L 75.488302 -261.326965 
L 75.442301 -262.668676 
L 75.401588 -264.010388 
L 75.36252 -265.3521 
L 75.321593 -266.693811 
L 75.275751 -268.035523 
L 75.222631 -269.377234 
L 75.160723 -270.718946 
L 75.089454 -272.060657 
L 75.009221 -273.402369 
L 74.921389 -274.744081 
L 74.828272 -276.085792 
L 74.733091 -277.427504 
L 74.63989 -278.769215 
L 74.553389 -280.110927 
L 74.478758 -281.452639 
L 74.421314 -282.79435 
L 74.386157 -284.136062 
L 74.377769 -285.477773 
L 74.399625 -286.819485 
L 74.453859 -288.161196 
L 74.541014 -289.502908 
L 74.659924 -290.84462 
L 74.807737 -292.186331 
L 74.980093 -293.528043 
L 75.171431 -294.869754 
L 75.3754 -296.211466 
L 75.585328 -297.553178 
L 75.794699 -298.894889 
L 75.997588 -300.236601 
L 76.189037 -301.578312 
L 76.365328 -302.920024 
L 76.524163 -304.261735 
L 76.664724 -305.603447 
L 76.787632 -306.945159 
L 76.894783 -308.28687 
L 76.989083 -309.628582 
L 77.074084 -310.970293 
L 77.153559 -312.312005 
L 77.23106 -313.653716 
L 77.309505 -314.995428 
L 77.390862 -316.33714 
L 77.475962 -317.678851 
L 77.564483 -319.020563 
L 77.655087 -320.362274 
L 77.745697 -321.703986 
L 77.833847 -323.045698 
L 77.917054 -324.387409 
L 77.993153 -325.729121 
L 78.060534 -327.070832 
L 78.118275 -328.412544 
L 78.166154 -329.754255 
L 78.204571 -331.095967 
L 78.234397 -332.437679 
L 78.256804 -333.77939 
L 78.273094 -335.121102 
L 78.284553 -336.462813 
L 78.326447 -336.462813 
L 78.326447 -336.462813 
L 78.337906 -335.121102 
L 78.354196 -333.77939 
L 78.376603 -332.437679 
L 78.406429 -331.095967 
L 78.444846 -329.754255 
L 78.492725 -328.412544 
L 78.550466 -327.070832 
L 78.617847 -325.729121 
L 78.693946 -324.387409 
L 78.777153 -323.045698 
L 78.865303 -321.703986 
L 78.955913 -320.362274 
L 79.046517 -319.020563 
L 79.135038 -317.678851 
L 79.220138 -316.33714 
L 79.301495 -314.995428 
L 79.37994 -313.653716 
L 79.457441 -312.312005 
L 79.536916 -310.970293 
L 79.621917 -309.628582 
L 79.716217 -308.28687 
L 79.823368 -306.945159 
L 79.946276 -305.603447 
L 80.086837 -304.261735 
L 80.245672 -302.920024 
L 80.421963 -301.578312 
L 80.613412 -300.236601 
L 80.816301 -298.894889 
L 81.025672 -297.553178 
L 81.2356 -296.211466 
L 81.439569 -294.869754 
L 81.630907 -293.528043 
L 81.803263 -292.186331 
L 81.951076 -290.84462 
L 82.069986 -289.502908 
L 82.157141 -288.161196 
L 82.211375 -286.819485 
L 82.233231 -285.477773 
L 82.224843 -284.136062 
L 82.189686 -282.79435 
L 82.132242 -281.452639 
L 82.057611 -280.110927 
L 81.97111 -278.769215 
L 81.877909 -277.427504 
L 81.782728 -276.085792 
L 81.689611 -274.744081 
L 81.601779 -273.402369 
L 81.521546 -272.060657 
L 81.450277 -270.718946 
L 81.388369 -269.377234 
L 81.335249 -268.035523 
L 81.289407 -266.693811 
L 81.24848 -265.3521 
L 81.209412 -264.010388 
L 81.168699 -262.668676 
L 81.122698 -261.326965 
L 81.067967 -259.985253 
L 81.001591 -258.643542 
L 80.921441 -257.30183 
L 80.826355 -255.960119 
L 80.716221 -254.618407 
L 80.591988 -253.276695 
L 80.455615 -251.934984 
L 80.309972 -250.593272 
L 80.158677 -249.251561 
L 80.005883 -247.909849 
L 79.855977 -246.568137 
L 79.713217 -245.226426 
L 79.581319 -243.884714 
L 79.463065 -242.543003 
L 79.359988 -241.201291 
L 79.272204 -239.85958 
L 79.198455 -238.517868 
L 79.136354 -237.176156 
L 79.082811 -235.834445 
L 79.034553 -234.492733 
L 78.988641 -233.151022 
L 78.942878 -231.80931 
L 78.896025 -230.467599 
L 78.847813 -229.125887 
L 78.798752 -227.784175 
L 78.74983 -226.442464 
L 78.702171 -225.100752 
L 78.656754 -223.759041 
L 78.614237 -222.417329 
L 78.574918 -221.075617 
L 78.53879 -219.733906 
L 78.505676 -218.392194 
L 78.475354 -217.050483 
L 78.447662 -215.708771 
L 78.422543 -214.36706 
L 78.400035 -213.025348 
L 78.38022 -211.683636 
L 78.363168 -210.341925 
L 78.348881 -209.000213 
L 78.337259 -207.658502 
L 78.3281 -206.31679 
L 78.321117 -204.975079 
L 78.315971 -203.633367 
z
" style="stroke: #3f3f3f; stroke-width: 1.25"/>
    </defs>
    <g clip-path="url(#p462c1843cf)">
     <use xlink:href="#m4a5b969f1c" x="0" y="360" style="fill: #3274a1; stroke: #3f3f3f; stroke-width: 1.25"/>
    </g>
   </g>
   <g id="FillBetweenPolyCollection_2">
    <defs>
     <path id="m70196172eb" d="M 137.158828 -206.414305 
L 137.114172 -206.414305 
L 137.102999 -207.581571 
L 137.088048 -208.748837 
L 137.068925 -209.916104 
L 137.045563 -211.08337 
L 137.018328 -212.250636 
L 136.988049 -213.417902 
L 136.955941 -214.585168 
L 136.923411 -215.752434 
L 136.891764 -216.919701 
L 136.861847 -218.086967 
L 136.833727 -219.254233 
L 136.806475 -220.421499 
L 136.778129 -221.588765 
L 136.745871 -222.756032 
L 136.706401 -223.923298 
L 136.656449 -225.090564 
L 136.593312 -226.25783 
L 136.515333 -227.425096 
L 136.422188 -228.592363 
L 136.314944 -229.759629 
L 136.195851 -230.926895 
L 136.067917 -232.094161 
L 135.934345 -233.261427 
L 135.797957 -234.428693 
L 135.660724 -235.59596 
L 135.523522 -236.763226 
L 135.386152 -237.930492 
L 135.24764 -239.097758 
L 135.106734 -240.265024 
L 134.962499 -241.432291 
L 134.814865 -242.599557 
L 134.664998 -243.766823 
L 134.515399 -244.934089 
L 134.369674 -246.101355 
L 134.232015 -247.268622 
L 134.106467 -248.435888 
L 133.996128 -249.603154 
L 133.902474 -250.77042 
L 133.82495 -251.937686 
L 133.760937 -253.104952 
L 133.706118 -254.272219 
L 133.655137 -255.439485 
L 133.602431 -256.606751 
L 133.543034 -257.774017 
L 133.473222 -258.941283 
L 133.390914 -260.10855 
L 133.295811 -261.275816 
L 133.189346 -262.443082 
L 133.074496 -263.610348 
L 132.95555 -264.777614 
L 132.837847 -265.944881 
L 132.727495 -267.112147 
L 132.631042 -268.279413 
L 132.555077 -269.446679 
L 132.505761 -270.613945 
L 132.488323 -271.781212 
L 132.506579 -272.948478 
L 132.562563 -274.115744 
L 132.656323 -275.28301 
L 132.785928 -276.450276 
L 132.947674 -277.617542 
L 133.136467 -278.784809 
L 133.346295 -279.952075 
L 133.570747 -281.119341 
L 133.803507 -282.286607 
L 134.038765 -283.453873 
L 134.271535 -284.62114 
L 134.497829 -285.788406 
L 134.714702 -286.955672 
L 134.920177 -288.122938 
L 135.113085 -289.290204 
L 135.292861 -290.457471 
L 135.459365 -291.624737 
L 135.612745 -292.792003 
L 135.753373 -293.959269 
L 135.881824 -295.126535 
L 135.998889 -296.293801 
L 136.105561 -297.461068 
L 136.202993 -298.628334 
L 136.29242 -299.7956 
L 136.375054 -300.962866 
L 136.451978 -302.130132 
L 136.524076 -303.297399 
L 136.591988 -304.464665 
L 136.656114 -305.631931 
L 136.716637 -306.799197 
L 136.773564 -307.966463 
L 136.826768 -309.13373 
L 136.876029 -310.300996 
L 136.921075 -311.468262 
L 136.961629 -312.635528 
L 136.997462 -313.802794 
L 137.028435 -314.97006 
L 137.054552 -316.137327 
L 137.075977 -317.304593 
L 137.093035 -318.471859 
L 137.106192 -319.639125 
L 137.116006 -320.806391 
L 137.123076 -321.973658 
L 137.149924 -321.973658 
L 137.149924 -321.973658 
L 137.156994 -320.806391 
L 137.166808 -319.639125 
L 137.179965 -318.471859 
L 137.197023 -317.304593 
L 137.218448 -316.137327 
L 137.244565 -314.97006 
L 137.275538 -313.802794 
L 137.311371 -312.635528 
L 137.351925 -311.468262 
L 137.396971 -310.300996 
L 137.446232 -309.13373 
L 137.499436 -307.966463 
L 137.556363 -306.799197 
L 137.616886 -305.631931 
L 137.681012 -304.464665 
L 137.748924 -303.297399 
L 137.821022 -302.130132 
L 137.897946 -300.962866 
L 137.98058 -299.7956 
L 138.070007 -298.628334 
L 138.167439 -297.461068 
L 138.274111 -296.293801 
L 138.391176 -295.126535 
L 138.519627 -293.959269 
L 138.660255 -292.792003 
L 138.813635 -291.624737 
L 138.980139 -290.457471 
L 139.159915 -289.290204 
L 139.352823 -288.122938 
L 139.558298 -286.955672 
L 139.775171 -285.788406 
L 140.001465 -284.62114 
L 140.234235 -283.453873 
L 140.469493 -282.286607 
L 140.702253 -281.119341 
L 140.926705 -279.952075 
L 141.136533 -278.784809 
L 141.325326 -277.617542 
L 141.487072 -276.450276 
L 141.616677 -275.28301 
L 141.710437 -274.115744 
L 141.766421 -272.948478 
L 141.784677 -271.781212 
L 141.767239 -270.613945 
L 141.717923 -269.446679 
L 141.641958 -268.279413 
L 141.545505 -267.112147 
L 141.435153 -265.944881 
L 141.31745 -264.777614 
L 141.198504 -263.610348 
L 141.083654 -262.443082 
L 140.977189 -261.275816 
L 140.882086 -260.10855 
L 140.799778 -258.941283 
L 140.729966 -257.774017 
L 140.670569 -256.606751 
L 140.617863 -255.439485 
L 140.566882 -254.272219 
L 140.512063 -253.104952 
L 140.44805 -251.937686 
L 140.370526 -250.77042 
L 140.276872 -249.603154 
L 140.166533 -248.435888 
L 140.040985 -247.268622 
L 139.903326 -246.101355 
L 139.757601 -244.934089 
L 139.608002 -243.766823 
L 139.458135 -242.599557 
L 139.310501 -241.432291 
L 139.166266 -240.265024 
L 139.02536 -239.097758 
L 138.886848 -237.930492 
L 138.749478 -236.763226 
L 138.612276 -235.59596 
L 138.475043 -234.428693 
L 138.338655 -233.261427 
L 138.205083 -232.094161 
L 138.077149 -230.926895 
L 137.958056 -229.759629 
L 137.850812 -228.592363 
L 137.757667 -227.425096 
L 137.679688 -226.25783 
L 137.616551 -225.090564 
L 137.566599 -223.923298 
L 137.527129 -222.756032 
L 137.494871 -221.588765 
L 137.466525 -220.421499 
L 137.439273 -219.254233 
L 137.411153 -218.086967 
L 137.381236 -216.919701 
L 137.349589 -215.752434 
L 137.317059 -214.585168 
L 137.284951 -213.417902 
L 137.254672 -212.250636 
L 137.227437 -211.08337 
L 137.204075 -209.916104 
L 137.184952 -208.748837 
L 137.170001 -207.581571 
L 137.158828 -206.414305 
z
" style="stroke: #3f3f3f; stroke-width: 1.25"/>
    </defs>
    <g clip-path="url(#p462c1843cf)">
     <use xlink:href="#m70196172eb" x="0" y="360" style="fill: #3274a1; stroke: #3f3f3f; stroke-width: 1.25"/>
    </g>
   </g>
   <g id="FillBetweenPolyCollection_3">
    <defs>
     <path id="mc81a51bfa0" d="M 195.98881 -198.161395 
L 195.94619 -198.161395 
L 195.935878 -199.144384 
L 195.922041 -200.127374 
L 195.904163 -201.110363 
L 195.881926 -202.093352 
L 195.855312 -203.076341 
L 195.824664 -204.05933 
L 195.790707 -205.042319 
L 195.754476 -206.025309 
L 195.717175 -207.008298 
L 195.679948 -207.991287 
L 195.643611 -208.974276 
L 195.608384 -209.957265 
L 195.573686 -210.940254 
L 195.538048 -211.923243 
L 195.499192 -212.906233 
L 195.45428 -213.889222 
L 195.40033 -214.872211 
L 195.334711 -215.8552 
L 195.255645 -216.838189 
L 195.162594 -217.821178 
L 195.056434 -218.804168 
L 194.939367 -219.787157 
L 194.81455 -220.770146 
L 194.68553 -221.753135 
L 194.555582 -222.736124 
L 194.427113 -223.719113 
L 194.301248 -224.702102 
L 194.177704 -225.685092 
L 194.054947 -226.668081 
L 193.930589 -227.65107 
L 193.801911 -228.634059 
L 193.666394 -229.617048 
L 193.522152 -230.600037 
L 193.368198 -231.583027 
L 193.204554 -232.566016 
L 193.032212 -233.549005 
L 192.853012 -234.531994 
L 192.669469 -235.514983 
L 192.484556 -236.497972 
L 192.301438 -237.480961 
L 192.123122 -238.463951 
L 191.952017 -239.44694 
L 191.789458 -240.429929 
L 191.635275 -241.412918 
L 191.487576 -242.395907 
L 191.342884 -243.378896 
L 191.196726 -244.361886 
L 191.044665 -245.344875 
L 190.883603 -246.327864 
L 190.713099 -247.310853 
L 190.536349 -248.293842 
L 190.360538 -249.276831 
L 190.196394 -250.25982 
L 190.056974 -251.24281 
L 189.955893 -252.225799 
L 189.905362 -253.208788 
L 189.91443 -254.191777 
L 189.987762 -255.174766 
L 190.125164 -256.157755 
L 190.321839 -257.140745 
L 190.569247 -258.123734 
L 190.856315 -259.106723 
L 191.170737 -260.089712 
L 191.500153 -261.072701 
L 191.833079 -262.05569 
L 192.159566 -263.038679 
L 192.471604 -264.021669 
L 192.763334 -265.004658 
L 193.031101 -265.987647 
L 193.273365 -266.970636 
L 193.490486 -267.953625 
L 193.684363 -268.936614 
L 193.857967 -269.919604 
L 194.014822 -270.902593 
L 194.158499 -271.885582 
L 194.29221 -272.868571 
L 194.418545 -273.85156 
L 194.539372 -274.834549 
L 194.655871 -275.817538 
L 194.768662 -276.800528 
L 194.877958 -277.783517 
L 194.98371 -278.766506 
L 195.085715 -279.749495 
L 195.183678 -280.732484 
L 195.277238 -281.715473 
L 195.365985 -282.698463 
L 195.449468 -283.681452 
L 195.527208 -284.664441 
L 195.598733 -285.64743 
L 195.663611 -286.630419 
L 195.721497 -287.613408 
L 195.772188 -288.596398 
L 195.815656 -289.579387 
L 195.852079 -290.562376 
L 195.881843 -291.545365 
L 195.905519 -292.528354 
L 195.923825 -293.511343 
L 195.937563 -294.494332 
L 195.947558 -295.477322 
L 195.987442 -295.477322 
L 195.987442 -295.477322 
L 195.997437 -294.494332 
L 196.011175 -293.511343 
L 196.029481 -292.528354 
L 196.053157 -291.545365 
L 196.082921 -290.562376 
L 196.119344 -289.579387 
L 196.162812 -288.596398 
L 196.213503 -287.613408 
L 196.271389 -286.630419 
L 196.336267 -285.64743 
L 196.407792 -284.664441 
L 196.485532 -283.681452 
L 196.569015 -282.698463 
L 196.657762 -281.715473 
L 196.751322 -280.732484 
L 196.849285 -279.749495 
L 196.95129 -278.766506 
L 197.057042 -277.783517 
L 197.166338 -276.800528 
L 197.279129 -275.817538 
L 197.395628 -274.834549 
L 197.516455 -273.85156 
L 197.64279 -272.868571 
L 197.776501 -271.885582 
L 197.920178 -270.902593 
L 198.077033 -269.919604 
L 198.250637 -268.936614 
L 198.444514 -267.953625 
L 198.661635 -266.970636 
L 198.903899 -265.987647 
L 199.171666 -265.004658 
L 199.463396 -264.021669 
L 199.775434 -263.038679 
L 200.101921 -262.05569 
L 200.434847 -261.072701 
L 200.764263 -260.089712 
L 201.078685 -259.106723 
L 201.365753 -258.123734 
L 201.613161 -257.140745 
L 201.809836 -256.157755 
L 201.947238 -255.174766 
L 202.02057 -254.191777 
L 202.029638 -253.208788 
L 201.979107 -252.225799 
L 201.878026 -251.24281 
L 201.738606 -250.25982 
L 201.574462 -249.276831 
L 201.398651 -248.293842 
L 201.221901 -247.310853 
L 201.051397 -246.327864 
L 200.890335 -245.344875 
L 200.738274 -244.361886 
L 200.592116 -243.378896 
L 200.447424 -242.395907 
L 200.299725 -241.412918 
L 200.145542 -240.429929 
L 199.982983 -239.44694 
L 199.811878 -238.463951 
L 199.633562 -237.480961 
L 199.450444 -236.497972 
L 199.265531 -235.514983 
L 199.081988 -234.531994 
L 198.902788 -233.549005 
L 198.730446 -232.566016 
L 198.566802 -231.583027 
L 198.412848 -230.600037 
L 198.268606 -229.617048 
L 198.133089 -228.634059 
L 198.004411 -227.65107 
L 197.880053 -226.668081 
L 197.757296 -225.685092 
L 197.633752 -224.702102 
L 197.507887 -223.719113 
L 197.379418 -222.736124 
L 197.24947 -221.753135 
L 197.12045 -220.770146 
L 196.995633 -219.787157 
L 196.878566 -218.804168 
L 196.772406 -217.821178 
L 196.679355 -216.838189 
L 196.600289 -215.8552 
L 196.53467 -214.872211 
L 196.48072 -213.889222 
L 196.435808 -212.906233 
L 196.396952 -211.923243 
L 196.361314 -210.940254 
L 196.326616 -209.957265 
L 196.291389 -208.974276 
L 196.255052 -207.991287 
L 196.217825 -207.008298 
L 196.180524 -206.025309 
L 196.144293 -205.042319 
L 196.110336 -204.05933 
L 196.079688 -203.076341 
L 196.053074 -202.093352 
L 196.030837 -201.110363 
L 196.012959 -200.127374 
L 195.999122 -199.144384 
L 195.98881 -198.161395 
z
" style="stroke: #3f3f3f; stroke-width: 1.25"/>
    </defs>
    <g clip-path="url(#p462c1843cf)">
     <use xlink:href="#mc81a51bfa0" x="0" y="360" style="fill: #3274a1; stroke: #3f3f3f; stroke-width: 1.25"/>
    </g>
   </g>
   <g id="FillBetweenPolyCollection_4">
    <defs>
     <path id="m80b9a3ad86" d="M 254.828676 -196.124321 
L 254.768324 -196.124321 
L 254.751173 -197.268186 
L 254.727142 -198.412052 
L 254.695011 -199.555917 
L 254.654047 -200.699783 
L 254.604293 -201.843648 
L 254.546777 -202.987513 
L 254.483573 -204.131379 
L 254.417646 -205.275244 
L 254.352481 -206.41911 
L 254.291552 -207.562975 
L 254.237749 -208.706841 
L 254.192876 -209.850706 
L 254.15735 -210.994572 
L 254.130126 -212.138437 
L 254.108857 -213.282303 
L 254.090183 -214.426168 
L 254.070087 -215.570034 
L 254.044215 -216.713899 
L 254.008154 -217.857764 
L 253.95766 -219.00163 
L 253.888889 -220.145495 
L 253.79864 -221.289361 
L 253.684621 -222.433226 
L 253.545702 -223.577092 
L 253.382112 -224.720957 
L 253.195541 -225.864823 
L 252.989131 -227.008688 
L 252.767362 -228.152554 
L 252.535852 -229.296419 
L 252.301068 -230.440285 
L 252.069962 -231.58415 
L 251.849492 -232.728015 
L 251.646047 -233.871881 
L 251.464775 -235.015746 
L 251.308904 -236.159612 
L 251.179171 -237.303477 
L 251.073512 -238.447343 
L 250.98716 -239.591208 
L 250.913229 -240.735074 
L 250.843759 -241.878939 
L 250.771072 -243.022805 
L 250.68918 -244.16667 
L 250.594926 -245.310536 
L 250.48859 -246.454401 
L 250.373793 -247.598266 
L 250.256752 -248.742132 
L 250.14506 -249.885997 
L 250.046323 -251.029863 
L 249.966983 -252.173728 
L 249.911557 -253.317594 
L 249.8824 -254.461459 
L 249.87995 -255.605325 
L 249.903287 -256.74919 
L 249.950837 -257.893056 
L 250.021031 -259.036921 
L 250.112792 -260.180786 
L 250.225779 -261.324652 
L 250.360349 -262.468517 
L 250.517262 -263.612383 
L 250.697194 -264.756248 
L 250.900175 -265.900114 
L 251.125092 -267.043979 
L 251.369388 -268.187845 
L 251.62904 -269.33171 
L 251.898832 -270.475576 
L 252.172834 -271.619441 
L 252.444969 -272.763307 
L 252.709536 -273.907172 
L 252.961588 -275.051037 
L 253.197132 -276.194903 
L 253.413192 -277.338768 
L 253.607793 -278.482634 
L 253.779934 -279.626499 
L 253.929556 -280.770365 
L 254.057511 -281.91423 
L 254.165468 -283.058096 
L 254.25573 -284.201961 
L 254.330961 -285.345827 
L 254.393871 -286.489692 
L 254.446916 -287.633558 
L 254.492102 -288.777423 
L 254.530914 -289.921288 
L 254.564384 -291.065154 
L 254.593233 -292.209019 
L 254.618046 -293.352885 
L 254.639408 -294.49675 
L 254.657966 -295.640616 
L 254.674407 -296.784481 
L 254.689385 -297.928347 
L 254.703428 -299.072212 
L 254.716858 -300.216078 
L 254.729765 -301.359943 
L 254.742037 -302.503809 
L 254.753426 -303.647674 
L 254.763648 -304.791539 
L 254.772466 -305.935405 
L 254.779752 -307.07927 
L 254.785503 -308.223136 
L 254.789838 -309.367001 
L 254.807162 -309.367001 
L 254.807162 -309.367001 
L 254.811497 -308.223136 
L 254.817248 -307.07927 
L 254.824534 -305.935405 
L 254.833352 -304.791539 
L 254.843574 -303.647674 
L 254.854963 -302.503809 
L 254.867235 -301.359943 
L 254.880142 -300.216078 
L 254.893572 -299.072212 
L 254.907615 -297.928347 
L 254.922593 -296.784481 
L 254.939034 -295.640616 
L 254.957592 -294.49675 
L 254.978954 -293.352885 
L 255.003767 -292.209019 
L 255.032616 -291.065154 
L 255.066086 -289.921288 
L 255.104898 -288.777423 
L 255.150084 -287.633558 
L 255.203129 -286.489692 
L 255.266039 -285.345827 
L 255.34127 -284.201961 
L 255.431532 -283.058096 
L 255.539489 -281.91423 
L 255.667444 -280.770365 
L 255.817066 -279.626499 
L 255.989207 -278.482634 
L 256.183808 -277.338768 
L 256.399868 -276.194903 
L 256.635412 -275.051037 
L 256.887464 -273.907172 
L 257.152031 -272.763307 
L 257.424166 -271.619441 
L 257.698168 -270.475576 
L 257.96796 -269.33171 
L 258.227612 -268.187845 
L 258.471908 -267.043979 
L 258.696825 -265.900114 
L 258.899806 -264.756248 
L 259.079738 -263.612383 
L 259.236651 -262.468517 
L 259.371221 -261.324652 
L 259.484208 -260.180786 
L 259.575969 -259.036921 
L 259.646163 -257.893056 
L 259.693713 -256.74919 
L 259.71705 -255.605325 
L 259.7146 -254.461459 
L 259.685443 -253.317594 
L 259.630017 -252.173728 
L 259.550677 -251.029863 
L 259.45194 -249.885997 
L 259.340248 -248.742132 
L 259.223207 -247.598266 
L 259.10841 -246.454401 
L 259.002074 -245.310536 
L 258.90782 -244.16667 
L 258.825928 -243.022805 
L 258.753241 -241.878939 
L 258.683771 -240.735074 
L 258.60984 -239.591208 
L 258.523488 -238.447343 
L 258.417829 -237.303477 
L 258.288096 -236.159612 
L 258.132225 -235.015746 
L 257.950953 -233.871881 
L 257.747508 -232.728015 
L 257.527038 -231.58415 
L 257.295932 -230.440285 
L 257.061148 -229.296419 
L 256.829638 -228.152554 
L 256.607869 -227.008688 
L 256.401459 -225.864823 
L 256.214888 -224.720957 
L 256.051298 -223.577092 
L 255.912379 -222.433226 
L 255.79836 -221.289361 
L 255.708111 -220.145495 
L 255.63934 -219.00163 
L 255.588846 -217.857764 
L 255.552785 -216.713899 
L 255.526913 -215.570034 
L 255.506817 -214.426168 
L 255.488143 -213.282303 
L 255.466874 -212.138437 
L 255.43965 -210.994572 
L 255.404124 -209.850706 
L 255.359251 -208.706841 
L 255.305448 -207.562975 
L 255.244519 -206.41911 
L 255.179354 -205.275244 
L 255.113427 -204.131379 
L 255.050223 -202.987513 
L 254.992707 -201.843648 
L 254.942953 -200.699783 
L 254.901989 -199.555917 
L 254.869858 -198.412052 
L 254.845827 -197.268186 
L 254.828676 -196.124321 
z
" style="stroke: #3f3f3f; stroke-width: 1.25"/>
    </defs>
    <g clip-path="url(#p462c1843cf)">
     <use xlink:href="#m80b9a3ad86" x="0" y="360" style="fill: #3274a1; stroke: #3f3f3f; stroke-width: 1.25"/>
    </g>
   </g>
   <g id="FillBetweenPolyCollection_5">
    <defs>
     <path id="md5a397f4b4" d="M 313.650338 -184.890273 
L 313.608662 -184.890273 
L 313.597422 -185.999539 
L 313.581565 -187.108804 
L 313.559891 -188.21807 
L 313.531154 -189.327336 
L 313.49416 -190.436601 
L 313.447867 -191.545867 
L 313.391513 -192.655132 
L 313.324727 -193.764398 
L 313.247647 -194.873663 
L 313.161006 -195.982929 
L 313.066191 -197.092195 
L 312.965253 -198.20146 
L 312.860851 -199.310726 
L 312.756111 -200.419991 
L 312.654419 -201.529257 
L 312.559122 -202.638523 
L 312.473204 -203.747788 
L 312.398949 -204.857054 
L 312.337671 -205.966319 
L 312.289547 -207.075585 
L 312.253613 -208.184851 
L 312.22791 -209.294116 
L 312.20978 -210.403382 
L 312.196221 -211.512647 
L 312.184239 -212.621913 
L 312.171093 -213.731179 
L 312.15439 -214.840444 
L 312.132021 -215.94971 
L 312.101988 -217.058975 
L 312.062216 -218.168241 
L 312.010465 -219.277506 
L 311.944414 -220.386772 
L 311.86194 -221.496038 
L 311.761547 -222.605303 
L 311.642809 -223.714569 
L 311.506707 -224.823834 
L 311.355719 -225.9331 
L 311.193609 -227.042366 
L 311.024933 -228.151631 
L 310.854372 -229.260897 
L 310.686023 -230.370162 
L 310.522815 -231.479428 
L 310.366154 -232.588694 
L 310.215824 -233.697959 
L 310.070144 -234.807225 
L 309.926288 -235.91649 
L 309.780717 -237.025756 
L 309.629672 -238.135021 
L 309.469728 -239.244287 
L 309.298433 -240.353553 
L 309.115026 -241.462818 
L 308.921193 -242.572084 
L 308.721709 -243.681349 
L 308.524776 -244.790615 
L 308.341812 -245.899881 
L 308.186586 -247.009146 
L 308.073679 -248.118412 
L 308.016505 -249.227677 
L 308.025264 -250.336943 
L 308.105273 -251.446209 
L 308.256071 -252.555474 
L 308.471504 -253.66474 
L 308.740751 -254.774005 
L 309.050031 -255.883271 
L 309.384568 -256.992537 
L 309.730394 -258.101802 
L 310.07566 -259.211068 
L 310.411302 -260.320333 
L 310.731091 -261.429599 
L 311.031238 -262.538864 
L 311.309785 -263.64813 
L 311.565993 -264.757396 
L 311.799878 -265.866661 
L 312.011938 -266.975927 
L 312.203054 -268.085192 
L 312.374465 -269.194458 
L 312.527757 -270.303724 
L 312.664779 -271.412989 
L 312.787492 -272.522255 
L 312.897765 -273.63152 
L 312.997186 -274.740786 
L 313.086941 -275.850052 
L 313.16779 -276.959317 
L 313.240151 -278.068583 
L 313.304253 -279.177848 
L 313.3603 -280.287114 
L 313.408615 -281.39638 
L 313.449705 -282.505645 
L 313.484256 -283.614911 
L 313.513072 -284.724176 
L 313.536982 -285.833442 
L 313.556759 -286.942707 
L 313.573064 -288.051973 
L 313.586429 -289.161239 
L 313.597275 -290.270504 
L 313.60594 -291.37977 
L 313.612718 -292.489035 
L 313.617884 -293.598301 
L 313.621703 -294.707567 
L 313.637297 -294.707567 
L 313.637297 -294.707567 
L 313.641116 -293.598301 
L 313.646282 -292.489035 
L 313.65306 -291.37977 
L 313.661725 -290.270504 
L 313.672571 -289.161239 
L 313.685936 -288.051973 
L 313.702241 -286.942707 
L 313.722018 -285.833442 
L 313.745928 -284.724176 
L 313.774744 -283.614911 
L 313.809295 -282.505645 
L 313.850385 -281.39638 
L 313.8987 -280.287114 
L 313.954747 -279.177848 
L 314.018849 -278.068583 
L 314.09121 -276.959317 
L 314.172059 -275.850052 
L 314.261814 -274.740786 
L 314.361235 -273.63152 
L 314.471508 -272.522255 
L 314.594221 -271.412989 
L 314.731243 -270.303724 
L 314.884535 -269.194458 
L 315.055946 -268.085192 
L 315.247062 -266.975927 
L 315.459122 -265.866661 
L 315.693007 -264.757396 
L 315.949215 -263.64813 
L 316.227762 -262.538864 
L 316.527909 -261.429599 
L 316.847698 -260.320333 
L 317.18334 -259.211068 
L 317.528606 -258.101802 
L 317.874432 -256.992537 
L 318.208969 -255.883271 
L 318.518249 -254.774005 
L 318.787496 -253.66474 
L 319.002929 -252.555474 
L 319.153727 -251.446209 
L 319.233736 -250.336943 
L 319.242495 -249.227677 
L 319.185321 -248.118412 
L 319.072414 -247.009146 
L 318.917188 -245.899881 
L 318.734224 -244.790615 
L 318.537291 -243.681349 
L 318.337807 -242.572084 
L 318.143974 -241.462818 
L 317.960567 -240.353553 
L 317.789272 -239.244287 
L 317.629328 -238.135021 
L 317.478283 -237.025756 
L 317.332712 -235.91649 
L 317.188856 -234.807225 
L 317.043176 -233.697959 
L 316.892846 -232.588694 
L 316.736185 -231.479428 
L 316.572977 -230.370162 
L 316.404628 -229.260897 
L 316.234067 -228.151631 
L 316.065391 -227.042366 
L 315.903281 -225.9331 
L 315.752293 -224.823834 
L 315.616191 -223.714569 
L 315.497453 -222.605303 
L 315.39706 -221.496038 
L 315.314586 -220.386772 
L 315.248535 -219.277506 
L 315.196784 -218.168241 
L 315.157012 -217.058975 
L 315.126979 -215.94971 
L 315.10461 -214.840444 
L 315.087907 -213.731179 
L 315.074761 -212.621913 
L 315.062779 -211.512647 
L 315.04922 -210.403382 
L 315.03109 -209.294116 
L 315.005387 -208.184851 
L 314.969453 -207.075585 
L 314.921329 -205.966319 
L 314.860051 -204.857054 
L 314.785796 -203.747788 
L 314.699878 -202.638523 
L 314.604581 -201.529257 
L 314.502889 -200.419991 
L 314.398149 -199.310726 
L 314.293747 -198.20146 
L 314.192809 -197.092195 
L 314.097994 -195.982929 
L 314.011353 -194.873663 
L 313.934273 -193.764398 
L 313.867487 -192.655132 
L 313.811133 -191.545867 
L 313.76484 -190.436601 
L 313.727846 -189.327336 
L 313.699109 -188.21807 
L 313.677435 -187.108804 
L 313.661578 -185.999539 
L 313.650338 -184.890273 
z
" style="stroke: #3f3f3f; stroke-width: 1.25"/>
    </defs>
    <g clip-path="url(#p462c1843cf)">
     <use xlink:href="#md5a397f4b4" x="0" y="360" style="fill: #3274a1; stroke: #3f3f3f; stroke-width: 1.25"/>
    </g>
   </g>
   <g id="FillBetweenPolyCollection_6">
    <defs>
     <path id="md3ce4aff3a" d="M 372.489471 -193.733645 
L 372.431529 -193.733645 
L 372.416166 -194.685766 
L 372.394935 -195.637887 
L 372.366764 -196.590008 
L 372.330892 -197.542129 
L 372.28709 -198.494251 
L 372.235838 -199.446372 
L 372.178415 -200.398493 
L 372.11684 -201.350614 
L 372.053653 -202.302735 
L 371.991539 -203.254857 
L 371.932855 -204.206978 
L 371.879163 -205.159099 
L 371.830867 -206.11122 
L 371.787049 -207.063341 
L 371.745551 -208.015462 
L 371.703282 -208.967584 
L 371.656696 -209.919705 
L 371.602311 -210.871826 
L 371.537187 -211.823947 
L 371.459255 -212.776068 
L 371.367471 -213.72819 
L 371.261801 -214.680311 
L 371.143072 -215.632432 
L 371.012748 -216.584553 
L 370.872683 -217.536674 
L 370.724857 -218.488796 
L 370.57113 -219.440917 
L 370.412997 -220.393038 
L 370.251383 -221.345159 
L 370.086488 -222.29728 
L 369.917756 -223.249402 
L 369.74397 -224.201523 
L 369.563518 -225.153644 
L 369.374767 -226.105765 
L 369.176486 -227.057886 
L 368.96821 -228.010008 
L 368.750465 -228.962129 
L 368.524803 -229.91425 
L 368.293661 -230.866371 
L 368.060099 -231.818492 
L 367.827522 -232.770613 
L 367.599447 -233.722735 
L 367.379378 -234.674856 
L 367.170767 -235.626977 
L 366.977017 -236.579098 
L 366.801485 -237.531219 
L 366.647418 -238.483341 
L 366.517843 -239.435462 
L 366.415406 -240.387583 
L 366.342228 -241.339704 
L 366.299815 -242.291825 
L 366.28905 -243.243947 
L 366.310301 -244.196068 
L 366.363631 -245.148189 
L 366.449069 -246.10031 
L 366.566892 -247.052431 
L 366.717792 -248.004553 
L 366.90285 -248.956674 
L 367.123207 -249.908795 
L 367.379435 -250.860916 
L 367.6707 -251.813037 
L 367.993919 -252.765159 
L 368.343159 -253.71728 
L 368.709509 -254.669401 
L 369.08156 -255.621522 
L 369.446465 -256.573643 
L 369.791378 -257.525764 
L 370.104995 -258.477886 
L 370.378874 -259.430007 
L 370.608288 -260.382128 
L 370.792494 -261.334249 
L 370.93442 -262.28637 
L 371.039907 -263.238492 
L 371.116697 -264.190613 
L 371.173349 -265.142734 
L 371.218251 -266.094855 
L 371.258839 -267.046976 
L 371.301065 -267.999098 
L 371.34913 -268.951219 
L 371.405454 -269.90334 
L 371.47082 -270.855461 
L 371.544658 -271.807582 
L 371.625386 -272.759704 
L 371.710768 -273.711825 
L 371.798255 -274.663946 
L 371.885262 -275.616067 
L 371.969398 -276.568188 
L 372.048625 -277.52031 
L 372.121353 -278.472431 
L 372.186489 -279.424552 
L 372.243431 -280.376673 
L 372.292027 -281.328794 
L 372.33251 -282.280915 
L 372.365417 -283.233037 
L 372.391502 -284.185158 
L 372.411648 -285.137279 
L 372.426792 -286.0894 
L 372.437861 -287.041521 
L 372.445717 -287.993643 
L 372.475283 -287.993643 
L 372.475283 -287.993643 
L 372.483139 -287.041521 
L 372.494208 -286.0894 
L 372.509352 -285.137279 
L 372.529498 -284.185158 
L 372.555583 -283.233037 
L 372.58849 -282.280915 
L 372.628973 -281.328794 
L 372.677569 -280.376673 
L 372.734511 -279.424552 
L 372.799647 -278.472431 
L 372.872375 -277.52031 
L 372.951602 -276.568188 
L 373.035738 -275.616067 
L 373.122745 -274.663946 
L 373.210232 -273.711825 
L 373.295614 -272.759704 
L 373.376342 -271.807582 
L 373.45018 -270.855461 
L 373.515546 -269.90334 
L 373.57187 -268.951219 
L 373.619935 -267.999098 
L 373.662161 -267.046976 
L 373.702749 -266.094855 
L 373.747651 -265.142734 
L 373.804303 -264.190613 
L 373.881093 -263.238492 
L 373.98658 -262.28637 
L 374.128506 -261.334249 
L 374.312712 -260.382128 
L 374.542126 -259.430007 
L 374.816005 -258.477886 
L 375.129622 -257.525764 
L 375.474535 -256.573643 
L 375.83944 -255.621522 
L 376.211491 -254.669401 
L 376.577841 -253.71728 
L 376.927081 -252.765159 
L 377.2503 -251.813037 
L 377.541565 -250.860916 
L 377.797793 -249.908795 
L 378.01815 -248.956674 
L 378.203208 -248.004553 
L 378.354108 -247.052431 
L 378.471931 -246.10031 
L 378.557369 -245.148189 
L 378.610699 -244.196068 
L 378.63195 -243.243947 
L 378.621185 -242.291825 
L 378.578772 -241.339704 
L 378.505594 -240.387583 
L 378.403157 -239.435462 
L 378.273582 -238.483341 
L 378.119515 -237.531219 
L 377.943983 -236.579098 
L 377.750233 -235.626977 
L 377.541622 -234.674856 
L 377.321553 -233.722735 
L 377.093478 -232.770613 
L 376.860901 -231.818492 
L 376.627339 -230.866371 
L 376.396197 -229.91425 
L 376.170535 -228.962129 
L 375.95279 -228.010008 
L 375.744514 -227.057886 
L 375.546233 -226.105765 
L 375.357482 -225.153644 
L 375.17703 -224.201523 
L 375.003244 -223.249402 
L 374.834512 -222.29728 
L 374.669617 -221.345159 
L 374.508003 -220.393038 
L 374.34987 -219.440917 
L 374.196143 -218.488796 
L 374.048317 -217.536674 
L 373.908252 -216.584553 
L 373.777928 -215.632432 
L 373.659199 -214.680311 
L 373.553529 -213.72819 
L 373.461745 -212.776068 
L 373.383813 -211.823947 
L 373.318689 -210.871826 
L 373.264304 -209.919705 
L 373.217718 -208.967584 
L 373.175449 -208.015462 
L 373.133951 -207.063341 
L 373.090133 -206.11122 
L 373.041837 -205.159099 
L 372.988145 -204.206978 
L 372.929461 -203.254857 
L 372.867347 -202.302735 
L 372.80416 -201.350614 
L 372.742585 -200.398493 
L 372.685162 -199.446372 
L 372.63391 -198.494251 
L 372.590108 -197.542129 
L 372.554236 -196.590008 
L 372.526065 -195.637887 
L 372.504834 -194.685766 
L 372.489471 -193.733645 
z
" style="stroke: #3f3f3f; stroke-width: 1.25"/>
    </defs>
    <g clip-path="url(#p462c1843cf)">
     <use xlink:href="#md3ce4aff3a" x="0" y="360" style="fill: #3274a1; stroke: #3f3f3f; stroke-width: 1.25"/>
    </g>
   </g>
   <g id="FillBetweenPolyCollection_7">
    <defs>
     <path id="m087a8e26c2" d="M 431.337222 -182.20196 
L 431.245778 -182.20196 
L 431.217286 -182.556695 
L 431.176658 -182.91143 
L 431.121658 -183.266165 
L 431.050689 -183.620901 
L 430.962906 -183.975636 
L 430.858059 -184.330371 
L 430.736121 -184.685106 
L 430.596951 -185.039841 
L 430.440253 -185.394576 
L 430.266042 -185.749312 
L 430.075525 -186.104047 
L 429.87199 -186.458782 
L 429.661194 -186.813517 
L 429.45087 -187.168252 
L 429.249393 -187.522987 
L 429.064095 -187.877722 
L 428.899921 -188.232458 
L 428.758989 -188.587193 
L 428.641132 -188.941928 
L 428.545013 -189.296663 
L 428.469117 -189.651398 
L 428.412011 -190.006133 
L 428.371646 -190.360869 
L 428.343949 -190.715604 
L 428.321325 -191.070339 
L 428.291777 -191.425074 
L 428.239164 -191.779809 
L 428.1447 -192.134544 
L 427.98938 -192.48928 
L 427.756663 -192.844015 
L 427.434658 -193.19875 
L 427.017273 -193.553485 
L 426.504122 -193.90822 
L 425.899401 -194.262955 
L 425.210189 -194.61769 
L 424.44468 -194.972426 
L 423.610792 -195.327161 
L 422.71543 -195.681896 
L 421.764553 -196.036631 
L 420.764087 -196.391366 
L 419.721556 -196.746101 
L 418.648123 -197.100837 
L 417.560521 -197.455572 
L 416.482233 -197.810307 
L 415.443368 -198.165042 
L 414.478967 -198.519777 
L 413.625956 -198.874512 
L 412.919376 -199.229248 
L 412.388727 -199.583983 
L 412.055144 -199.938718 
L 411.929689 -200.293453 
L 412.012647 -200.648188 
L 412.293423 -201.002923 
L 412.750762 -201.357658 
L 413.353362 -201.712394 
L 414.061357 -202.067129 
L 414.829348 -202.421864 
L 415.611359 -202.776599 
L 416.367414 -203.131334 
L 417.070492 -203.486069 
L 417.711928 -203.840805 
L 418.303246 -204.19554 
L 418.873154 -204.550275 
L 419.459885 -204.90501 
L 420.100656 -205.259745 
L 420.821147 -205.61448 
L 421.628059 -205.969215 
L 422.506837 -206.323951 
L 423.425045 -206.678686 
L 424.340085 -207.033421 
L 425.208836 -207.388156 
L 425.996455 -207.742891 
L 426.682205 -208.097626 
L 427.261244 -208.452362 
L 427.742559 -208.807097 
L 428.144199 -209.161832 
L 428.487461 -209.516567 
L 428.791695 -209.871302 
L 429.070906 -210.226037 
L 429.332615 -210.580773 
L 429.5787 -210.935508 
L 429.807459 -211.290243 
L 430.015941 -211.644978 
L 430.201826 -211.999713 
L 430.364445 -212.354448 
L 430.504948 -212.709183 
L 430.625858 -213.063919 
L 430.730353 -213.418654 
L 430.821566 -213.773389 
L 430.902072 -214.128124 
L 430.973638 -214.482859 
L 431.037214 -214.837594 
L 431.0931 -215.19233 
L 431.141232 -215.547065 
L 431.181487 -215.9018 
L 431.213942 -216.256535 
L 431.239023 -216.61127 
L 431.257516 -216.966005 
L 431.270486 -217.320741 
L 431.312514 -217.320741 
L 431.312514 -217.320741 
L 431.325484 -216.966005 
L 431.343977 -216.61127 
L 431.369058 -216.256535 
L 431.401513 -215.9018 
L 431.441768 -215.547065 
L 431.4899 -215.19233 
L 431.545786 -214.837594 
L 431.609362 -214.482859 
L 431.680928 -214.128124 
L 431.761434 -213.773389 
L 431.852647 -213.418654 
L 431.957142 -213.063919 
L 432.078052 -212.709183 
L 432.218555 -212.354448 
L 432.381174 -211.999713 
L 432.567059 -211.644978 
L 432.775541 -211.290243 
L 433.0043 -210.935508 
L 433.250385 -210.580773 
L 433.512094 -210.226037 
L 433.791305 -209.871302 
L 434.095539 -209.516567 
L 434.438801 -209.161832 
L 434.840441 -208.807097 
L 435.321756 -208.452362 
L 435.900795 -208.097626 
L 436.586545 -207.742891 
L 437.374164 -207.388156 
L 438.242915 -207.033421 
L 439.157955 -206.678686 
L 440.076163 -206.323951 
L 440.954941 -205.969215 
L 441.761853 -205.61448 
L 442.482344 -205.259745 
L 443.123115 -204.90501 
L 443.709846 -204.550275 
L 444.279754 -204.19554 
L 444.871072 -203.840805 
L 445.512508 -203.486069 
L 446.215586 -203.131334 
L 446.971641 -202.776599 
L 447.753652 -202.421864 
L 448.521643 -202.067129 
L 449.229638 -201.712394 
L 449.832238 -201.357658 
L 450.289577 -201.002923 
L 450.570353 -200.648188 
L 450.653311 -200.293453 
L 450.527856 -199.938718 
L 450.194273 -199.583983 
L 449.663624 -199.229248 
L 448.957044 -198.874512 
L 448.104033 -198.519777 
L 447.139632 -198.165042 
L 446.100767 -197.810307 
L 445.022479 -197.455572 
L 443.934877 -197.100837 
L 442.861444 -196.746101 
L 441.818913 -196.391366 
L 440.818447 -196.036631 
L 439.86757 -195.681896 
L 438.972208 -195.327161 
L 438.13832 -194.972426 
L 437.372811 -194.61769 
L 436.683599 -194.262955 
L 436.078878 -193.90822 
L 435.565727 -193.553485 
L 435.148342 -193.19875 
L 434.826337 -192.844015 
L 434.59362 -192.48928 
L 434.4383 -192.134544 
L 434.343836 -191.779809 
L 434.291223 -191.425074 
L 434.261675 -191.070339 
L 434.239051 -190.715604 
L 434.211354 -190.360869 
L 434.170989 -190.006133 
L 434.113883 -189.651398 
L 434.037987 -189.296663 
L 433.941868 -188.941928 
L 433.824011 -188.587193 
L 433.683079 -188.232458 
L 433.518905 -187.877722 
L 433.333607 -187.522987 
L 433.13213 -187.168252 
L 432.921806 -186.813517 
L 432.71101 -186.458782 
L 432.507475 -186.104047 
L 432.316958 -185.749312 
L 432.142747 -185.394576 
L 431.986049 -185.039841 
L 431.846879 -184.685106 
L 431.724941 -184.330371 
L 431.620094 -183.975636 
L 431.532311 -183.620901 
L 431.461342 -183.266165 
L 431.406342 -182.91143 
L 431.365714 -182.556695 
L 431.337222 -182.20196 
z
" style="stroke: #3f3f3f; stroke-width: 1.25"/>
    </defs>
    <g clip-path="url(#p462c1843cf)">
     <use xlink:href="#m087a8e26c2" x="0" y="360" style="fill: #3274a1; stroke: #3f3f3f; stroke-width: 1.25"/>
    </g>
   </g>
   <g id="FillBetweenPolyCollection_8">
    <defs>
     <path id="mdabed281ea" d="M 490.200933 -180.732424 
L 490.044067 -180.732424 
L 490.003076 -181.085733 
L 489.946335 -181.439042 
L 489.870627 -181.792351 
L 489.773297 -182.14566 
L 489.652801 -182.498969 
L 489.50926 -182.852278 
L 489.344901 -183.205587 
L 489.164267 -183.558896 
L 488.974087 -183.912205 
L 488.782738 -184.265514 
L 488.599327 -184.618823 
L 488.432469 -184.972132 
L 488.288979 -185.325441 
L 488.172671 -185.678749 
L 488.083551 -186.032058 
L 488.017562 -186.385367 
L 487.966994 -186.738676 
L 487.921528 -187.091985 
L 487.869725 -187.445294 
L 487.800722 -187.798603 
L 487.705816 -188.151912 
L 487.57964 -188.505221 
L 487.420725 -188.85853 
L 487.231335 -189.211839 
L 487.016605 -189.565148 
L 486.783134 -189.918457 
L 486.537251 -190.271766 
L 486.283299 -190.625075 
L 486.022212 -190.978384 
L 485.750698 -191.331693 
L 485.461191 -191.685002 
L 485.142611 -192.038311 
L 484.781827 -192.39162 
L 484.365554 -192.744929 
L 483.882347 -193.098238 
L 483.324361 -193.451547 
L 482.688621 -193.804856 
L 481.977659 -194.158164 
L 481.199546 -194.511473 
L 480.3674 -194.864782 
L 479.498514 -195.218091 
L 478.613246 -195.5714 
L 477.733758 -195.924709 
L 476.882698 -196.278018 
L 476.081903 -196.631327 
L 475.351227 -196.984636 
L 474.70762 -197.337945 
L 474.164544 -197.691254 
L 473.731758 -198.044563 
L 473.415443 -198.397872 
L 473.218519 -198.751181 
L 473.140989 -199.10449 
L 473.180187 -199.457799 
L 473.330842 -199.811108 
L 473.585031 -200.164417 
L 473.932136 -200.517726 
L 474.359028 -200.871035 
L 474.850614 -201.224344 
L 475.390848 -201.577653 
L 475.964107 -201.930962 
L 476.556734 -202.28427 
L 477.158404 -202.637579 
L 477.76297 -202.990888 
L 478.368527 -203.344197 
L 478.976587 -203.697506 
L 479.590514 -204.050815 
L 480.213525 -204.404124 
L 480.846743 -204.757433 
L 481.487767 -205.110742 
L 482.130101 -205.464051 
L 482.763607 -205.81736 
L 483.375884 -206.170669 
L 483.954246 -206.523978 
L 484.487875 -206.877287 
L 484.96966 -207.230596 
L 485.397343 -207.583905 
L 485.773761 -207.937214 
L 486.10617 -208.290523 
L 486.404842 -208.643832 
L 486.681252 -208.997141 
L 486.946225 -209.35045 
L 487.208388 -209.703759 
L 487.473168 -210.057068 
L 487.742426 -210.410376 
L 488.014717 -210.763685 
L 488.286019 -211.116994 
L 488.550736 -211.470303 
L 488.802763 -211.823612 
L 489.036439 -212.176921 
L 489.247249 -212.53023 
L 489.432236 -212.883539 
L 489.590125 -213.236848 
L 489.721211 -213.590157 
L 489.827079 -213.943466 
L 489.910243 -214.296775 
L 489.973773 -214.650084 
L 490.020953 -215.003393 
L 490.054995 -215.356702 
L 490.078846 -215.710011 
L 490.166154 -215.710011 
L 490.166154 -215.710011 
L 490.190005 -215.356702 
L 490.224047 -215.003393 
L 490.271227 -214.650084 
L 490.334757 -214.296775 
L 490.417921 -213.943466 
L 490.523789 -213.590157 
L 490.654875 -213.236848 
L 490.812764 -212.883539 
L 490.997751 -212.53023 
L 491.208561 -212.176921 
L 491.442237 -211.823612 
L 491.694264 -211.470303 
L 491.958981 -211.116994 
L 492.230283 -210.763685 
L 492.502574 -210.410376 
L 492.771832 -210.057068 
L 493.036612 -209.703759 
L 493.298775 -209.35045 
L 493.563748 -208.997141 
L 493.840158 -208.643832 
L 494.13883 -208.290523 
L 494.471239 -207.937214 
L 494.847657 -207.583905 
L 495.27534 -207.230596 
L 495.757125 -206.877287 
L 496.290754 -206.523978 
L 496.869116 -206.170669 
L 497.481393 -205.81736 
L 498.114899 -205.464051 
L 498.757233 -205.110742 
L 499.398257 -204.757433 
L 500.031475 -204.404124 
L 500.654486 -204.050815 
L 501.268413 -203.697506 
L 501.876473 -203.344197 
L 502.48203 -202.990888 
L 503.086596 -202.637579 
L 503.688266 -202.28427 
L 504.280893 -201.930962 
L 504.854152 -201.577653 
L 505.394386 -201.224344 
L 505.885972 -200.871035 
L 506.312864 -200.517726 
L 506.659969 -200.164417 
L 506.914158 -199.811108 
L 507.064813 -199.457799 
L 507.104011 -199.10449 
L 507.026481 -198.751181 
L 506.829557 -198.397872 
L 506.513242 -198.044563 
L 506.080456 -197.691254 
L 505.53738 -197.337945 
L 504.893773 -196.984636 
L 504.163097 -196.631327 
L 503.362302 -196.278018 
L 502.511242 -195.924709 
L 501.631754 -195.5714 
L 500.746486 -195.218091 
L 499.8776 -194.864782 
L 499.045454 -194.511473 
L 498.267341 -194.158164 
L 497.556379 -193.804856 
L 496.920639 -193.451547 
L 496.362653 -193.098238 
L 495.879446 -192.744929 
L 495.463173 -192.39162 
L 495.102389 -192.038311 
L 494.783809 -191.685002 
L 494.494302 -191.331693 
L 494.222788 -190.978384 
L 493.961701 -190.625075 
L 493.707749 -190.271766 
L 493.461866 -189.918457 
L 493.228395 -189.565148 
L 493.013665 -189.211839 
L 492.824275 -188.85853 
L 492.66536 -188.505221 
L 492.539184 -188.151912 
L 492.444278 -187.798603 
L 492.375275 -187.445294 
L 492.323472 -187.091985 
L 492.278006 -186.738676 
L 492.227438 -186.385367 
L 492.161449 -186.032058 
L 492.072329 -185.678749 
L 491.956021 -185.325441 
L 491.812531 -184.972132 
L 491.645673 -184.618823 
L 491.462262 -184.265514 
L 491.270913 -183.912205 
L 491.080733 -183.558896 
L 490.900099 -183.205587 
L 490.73574 -182.852278 
L 490.592199 -182.498969 
L 490.471703 -182.14566 
L 490.374373 -181.792351 
L 490.298665 -181.439042 
L 490.241924 -181.085733 
L 490.200933 -180.732424 
z
" style="stroke: #3f3f3f; stroke-width: 1.25"/>
    </defs>
    <g clip-path="url(#p462c1843cf)">
     <use xlink:href="#mdabed281ea" x="0" y="360" style="fill: #3274a1; stroke: #3f3f3f; stroke-width: 1.25"/>
    </g>
   </g>
   <g id="FillBetweenPolyCollection_9">
    <defs>
     <path id="mac69551387" d="M 549.004936 -182.027403 
L 548.902064 -182.027403 
L 548.868948 -182.325738 
L 548.821619 -182.624073 
L 548.757998 -182.922408 
L 548.677486 -183.220743 
L 548.581408 -183.519078 
L 548.472998 -183.817413 
L 548.356855 -184.115748 
L 548.237998 -184.414084 
L 548.120849 -184.712419 
L 548.008466 -185.010754 
L 547.902256 -185.309089 
L 547.802144 -185.607424 
L 547.707024 -185.905759 
L 547.615283 -186.204094 
L 547.525255 -186.502429 
L 547.435531 -186.800764 
L 547.345092 -187.099099 
L 547.253185 -187.397435 
L 547.158912 -187.69577 
L 547.060583 -187.994105 
L 546.95508 -188.29244 
L 546.837526 -188.590775 
L 546.701532 -188.88911 
L 546.540051 -189.187445 
L 546.346633 -189.48578 
L 546.116708 -189.784115 
L 545.848489 -190.08245 
L 545.543187 -190.380786 
L 545.204419 -190.679121 
L 544.836942 -190.977456 
L 544.445096 -191.275791 
L 544.031487 -191.574126 
L 543.596349 -191.872461 
L 543.137665 -192.170796 
L 542.651647 -192.469131 
L 542.132892 -192.767466 
L 541.573674 -193.065802 
L 540.962527 -193.364137 
L 540.283051 -193.662472 
L 539.514328 -193.960807 
L 538.633994 -194.259142 
L 537.623921 -194.557477 
L 536.477164 -194.855812 
L 535.203893 -195.154147 
L 533.834138 -195.452482 
L 532.416083 -195.750817 
L 531.010136 -196.049153 
L 529.680252 -196.347488 
L 528.48466 -196.645823 
L 527.468091 -196.944158 
L 526.657093 -197.242493 
L 526.059234 -197.540828 
L 525.666218 -197.839163 
L 525.460105 -198.137498 
L 525.4211 -198.435833 
L 525.534795 -198.734169 
L 525.796721 -199.032504 
L 526.212661 -199.330839 
L 526.794524 -199.629174 
L 527.553155 -199.927509 
L 528.490634 -200.225844 
L 529.594855 -200.524179 
L 530.838197 -200.822514 
L 532.18051 -201.120849 
L 533.575053 -201.419184 
L 534.975267 -201.71752 
L 536.340432 -202.015855 
L 537.639139 -202.31419 
L 538.850434 -202.612525 
L 539.963114 -202.91086 
L 540.973886 -203.209195 
L 541.885044 -203.50753 
L 542.702133 -203.805865 
L 543.43193 -204.1042 
L 544.080889 -204.402536 
L 544.654099 -204.700871 
L 545.154752 -204.999206 
L 545.584235 -205.297541 
L 545.942896 -205.595876 
L 546.231516 -205.894211 
L 546.453151 -206.192546 
L 546.614817 -206.490881 
L 546.728327 -206.789216 
L 546.809839 -207.087551 
L 546.878074 -207.385887 
L 546.951631 -207.684222 
L 547.04608 -207.982557 
L 547.171545 -208.280892 
L 547.331298 -208.579227 
L 547.521646 -208.877562 
L 547.733069 -209.175897 
L 547.952375 -209.474232 
L 548.165381 -209.772567 
L 548.359524 -210.070902 
L 548.52583 -210.369238 
L 548.659851 -210.667573 
L 548.761522 -210.965908 
L 548.834155 -211.264243 
L 548.883031 -211.562578 
L 549.023969 -211.562578 
L 549.023969 -211.562578 
L 549.072845 -211.264243 
L 549.145478 -210.965908 
L 549.247149 -210.667573 
L 549.38117 -210.369238 
L 549.547476 -210.070902 
L 549.741619 -209.772567 
L 549.954625 -209.474232 
L 550.173931 -209.175897 
L 550.385354 -208.877562 
L 550.575702 -208.579227 
L 550.735455 -208.280892 
L 550.86092 -207.982557 
L 550.955369 -207.684222 
L 551.028926 -207.385887 
L 551.097161 -207.087551 
L 551.178673 -206.789216 
L 551.292183 -206.490881 
L 551.453849 -206.192546 
L 551.675484 -205.894211 
L 551.964104 -205.595876 
L 552.322765 -205.297541 
L 552.752248 -204.999206 
L 553.252901 -204.700871 
L 553.826111 -204.402536 
L 554.47507 -204.1042 
L 555.204867 -203.805865 
L 556.021956 -203.50753 
L 556.933114 -203.209195 
L 557.943886 -202.91086 
L 559.056566 -202.612525 
L 560.267861 -202.31419 
L 561.566568 -202.015855 
L 562.931733 -201.71752 
L 564.331947 -201.419184 
L 565.72649 -201.120849 
L 567.068803 -200.822514 
L 568.312145 -200.524179 
L 569.416366 -200.225844 
L 570.353845 -199.927509 
L 571.112476 -199.629174 
L 571.694339 -199.330839 
L 572.110279 -199.032504 
L 572.372205 -198.734169 
L 572.4859 -198.435833 
L 572.446895 -198.137498 
L 572.240782 -197.839163 
L 571.847766 -197.540828 
L 571.249907 -197.242493 
L 570.438909 -196.944158 
L 569.42234 -196.645823 
L 568.226748 -196.347488 
L 566.896864 -196.049153 
L 565.490917 -195.750817 
L 564.072862 -195.452482 
L 562.703107 -195.154147 
L 561.429836 -194.855812 
L 560.283079 -194.557477 
L 559.273006 -194.259142 
L 558.392672 -193.960807 
L 557.623949 -193.662472 
L 556.944473 -193.364137 
L 556.333326 -193.065802 
L 555.774108 -192.767466 
L 555.255353 -192.469131 
L 554.769335 -192.170796 
L 554.310651 -191.872461 
L 553.875513 -191.574126 
L 553.461904 -191.275791 
L 553.070058 -190.977456 
L 552.702581 -190.679121 
L 552.363813 -190.380786 
L 552.058511 -190.08245 
L 551.790292 -189.784115 
L 551.560367 -189.48578 
L 551.366949 -189.187445 
L 551.205468 -188.88911 
L 551.069474 -188.590775 
L 550.95192 -188.29244 
L 550.846417 -187.994105 
L 550.748088 -187.69577 
L 550.653815 -187.397435 
L 550.561908 -187.099099 
L 550.471469 -186.800764 
L 550.381745 -186.502429 
L 550.291717 -186.204094 
L 550.199976 -185.905759 
L 550.104856 -185.607424 
L 550.004744 -185.309089 
L 549.898534 -185.010754 
L 549.786151 -184.712419 
L 549.669002 -184.414084 
L 549.550145 -184.115748 
L 549.434002 -183.817413 
L 549.325592 -183.519078 
L 549.229514 -183.220743 
L 549.149002 -182.922408 
L 549.085381 -182.624073 
L 549.038052 -182.325738 
L 549.004936 -182.027403 
z
" style="stroke: #3f3f3f; stroke-width: 1.25"/>
    </defs>
    <g clip-path="url(#p462c1843cf)">
     <use xlink:href="#mac69551387" x="0" y="360" style="fill: #3274a1; stroke: #3f3f3f; stroke-width: 1.25"/>
    </g>
   </g>
   <g id="FillBetweenPolyCollection_10">
    <defs>
     <path id="m58036a827b" d="M 607.806845 -81.719079 
L 607.762155 -81.719079 
L 607.748278 -83.610921 
L 607.728373 -85.502762 
L 607.701315 -87.394603 
L 607.666494 -89.286444 
L 607.624126 -91.178286 
L 607.575476 -93.070127 
L 607.522891 -94.961968 
L 607.469577 -96.853809 
L 607.419121 -98.74565 
L 607.374835 -100.637492 
L 607.339068 -102.529333 
L 607.312654 -104.421174 
L 607.294663 -106.313015 
L 607.282532 -108.204856 
L 607.272587 -110.096698 
L 607.260825 -111.988539 
L 607.243796 -113.88038 
L 607.21932 -115.772221 
L 607.186863 -117.664062 
L 607.147463 -119.555904 
L 607.103227 -121.447745 
L 607.056587 -123.339586 
L 607.009545 -125.231427 
L 606.963162 -127.123268 
L 606.917409 -129.01511 
L 606.871391 -130.906951 
L 606.823769 -132.798792 
L 606.773192 -134.690633 
L 606.718548 -136.582475 
L 606.65895 -138.474316 
L 606.593496 -140.366157 
L 606.520954 -142.257998 
L 606.439525 -144.149839 
L 606.346847 -146.041681 
L 606.240263 -147.933522 
L 606.117344 -149.825363 
L 605.976539 -151.717204 
L 605.817821 -153.609045 
L 605.643188 -155.500887 
L 605.456923 -157.392728 
L 605.265548 -159.284569 
L 605.077437 -161.17641 
L 604.90212 -163.068251 
L 604.749322 -164.960093 
L 604.62788 -166.851934 
L 604.544705 -168.743775 
L 604.503977 -170.635616 
L 604.50674 -172.527457 
L 604.550956 -174.419299 
L 604.631982 -176.31114 
L 604.743338 -178.202981 
L 604.877575 -180.094822 
L 605.027076 -181.986664 
L 605.184686 -183.878505 
L 605.344109 -185.770346 
L 605.500112 -187.662187 
L 605.648569 -189.554028 
L 605.786428 -191.44587 
L 605.911655 -193.337711 
L 606.023194 -195.229552 
L 606.120951 -197.121393 
L 606.205767 -199.013234 
L 606.279319 -200.905076 
L 606.34392 -202.796917 
L 606.402188 -204.688758 
L 606.456648 -206.580599 
L 606.509366 -208.47244 
L 606.561714 -210.364282 
L 606.614326 -212.256123 
L 606.667227 -214.147964 
L 606.720059 -216.039805 
L 606.7723 -217.931646 
L 606.823415 -219.823488 
L 606.872926 -221.715329 
L 606.920447 -223.60717 
L 606.96573 -225.499011 
L 607.008752 -227.390853 
L 607.049805 -229.282694 
L 607.089537 -231.174535 
L 607.128897 -233.066376 
L 607.168973 -234.958217 
L 607.210762 -236.850059 
L 607.254944 -238.7419 
L 607.301726 -240.633741 
L 607.350794 -242.525582 
L 607.401367 -244.417423 
L 607.452328 -246.309265 
L 607.502378 -248.201106 
L 607.550196 -250.092947 
L 607.594573 -251.984788 
L 607.634522 -253.876629 
L 607.669351 -255.768471 
L 607.698709 -257.660312 
L 607.722593 -259.552153 
L 607.741312 -261.443994 
L 607.755422 -263.335835 
L 607.765635 -265.227677 
L 607.772723 -267.119518 
L 607.777435 -269.011359 
L 607.791565 -269.011359 
L 607.791565 -269.011359 
L 607.796277 -267.119518 
L 607.803365 -265.227677 
L 607.813578 -263.335835 
L 607.827688 -261.443994 
L 607.846407 -259.552153 
L 607.870291 -257.660312 
L 607.899649 -255.768471 
L 607.934478 -253.876629 
L 607.974427 -251.984788 
L 608.018804 -250.092947 
L 608.066622 -248.201106 
L 608.116672 -246.309265 
L 608.167633 -244.417423 
L 608.218206 -242.525582 
L 608.267274 -240.633741 
L 608.314056 -238.7419 
L 608.358238 -236.850059 
L 608.400027 -234.958217 
L 608.440103 -233.066376 
L 608.479463 -231.174535 
L 608.519195 -229.282694 
L 608.560248 -227.390853 
L 608.60327 -225.499011 
L 608.648553 -223.60717 
L 608.696074 -221.715329 
L 608.745585 -219.823488 
L 608.7967 -217.931646 
L 608.848941 -216.039805 
L 608.901773 -214.147964 
L 608.954674 -212.256123 
L 609.007286 -210.364282 
L 609.059634 -208.47244 
L 609.112352 -206.580599 
L 609.166812 -204.688758 
L 609.22508 -202.796917 
L 609.289681 -200.905076 
L 609.363233 -199.013234 
L 609.448049 -197.121393 
L 609.545806 -195.229552 
L 609.657345 -193.337711 
L 609.782572 -191.44587 
L 609.920431 -189.554028 
L 610.068888 -187.662187 
L 610.224891 -185.770346 
L 610.384314 -183.878505 
L 610.541924 -181.986664 
L 610.691425 -180.094822 
L 610.825662 -178.202981 
L 610.937018 -176.31114 
L 611.018044 -174.419299 
L 611.06226 -172.527457 
L 611.065023 -170.635616 
L 611.024295 -168.743775 
L 610.94112 -166.851934 
L 610.819678 -164.960093 
L 610.66688 -163.068251 
L 610.491563 -161.17641 
L 610.303452 -159.284569 
L 610.112077 -157.392728 
L 609.925812 -155.500887 
L 609.751179 -153.609045 
L 609.592461 -151.717204 
L 609.451656 -149.825363 
L 609.328737 -147.933522 
L 609.222153 -146.041681 
L 609.129475 -144.149839 
L 609.048046 -142.257998 
L 608.975504 -140.366157 
L 608.91005 -138.474316 
L 608.850452 -136.582475 
L 608.795808 -134.690633 
L 608.745231 -132.798792 
L 608.697609 -130.906951 
L 608.651591 -129.01511 
L 608.605838 -127.123268 
L 608.559455 -125.231427 
L 608.512413 -123.339586 
L 608.465773 -121.447745 
L 608.421537 -119.555904 
L 608.382137 -117.664062 
L 608.34968 -115.772221 
L 608.325204 -113.88038 
L 608.308175 -111.988539 
L 608.296413 -110.096698 
L 608.286468 -108.204856 
L 608.274337 -106.313015 
L 608.256346 -104.421174 
L 608.229932 -102.529333 
L 608.194165 -100.637492 
L 608.149879 -98.74565 
L 608.099423 -96.853809 
L 608.046109 -94.961968 
L 607.993524 -93.070127 
L 607.944874 -91.178286 
L 607.902506 -89.286444 
L 607.867685 -87.394603 
L 607.840627 -85.502762 
L 607.820722 -83.610921 
L 607.806845 -81.719079 
z
" style="stroke: #3f3f3f; stroke-width: 1.25"/>
    </defs>
    <g clip-path="url(#p462c1843cf)">
     <use xlink:href="#m58036a827b" x="0" y="360" style="fill: #3274a1; stroke: #3f3f3f; stroke-width: 1.25"/>
    </g>
   </g>
   <g id="line2d_7">
    <path d="M 78.3055 142.013745 
L 78.3055 37.890074 
" clip-path="url(#p462c1843cf)" style="fill: none; stroke: #3f3f3f; stroke-width: 1.875; stroke-linecap: round"/>
   </g>
   <g id="line2d_8">
    <path d="M 78.3055 99.126449 
L 78.3055 68.570803 
" clip-path="url(#p462c1843cf)" style="fill: none; stroke: #3f3f3f; stroke-width: 5.625; stroke-linecap: round"/>
   </g>
   <g id="line2d_9">
    <path d="M 78.3055 81.090799 
" clip-path="url(#p462c1843cf)" style="fill: none; stroke: #3f3f3f; stroke-width: 1.5; stroke-linecap: round"/>
    <defs>
     <path id="ma452f8f7ec" d="M 2.34375 0 
L -2.34375 -0 
" style="stroke: #ffffff; stroke-width: 1.125"/>
    </defs>
    <g clip-path="url(#p462c1843cf)">
     <use xlink:href="#ma452f8f7ec" x="78.3055" y="81.090799" style="fill: #ffffff; stroke: #ffffff; stroke-width: 1.125"/>
    </g>
   </g>
   <g id="line2d_10">
    <path d="M 137.1365 141.67898 
L 137.1365 49.933057 
" clip-path="url(#p462c1843cf)" style="fill: none; stroke: #3f3f3f; stroke-width: 1.875; stroke-linecap: round"/>
   </g>
   <g id="line2d_11">
    <path d="M 137.1365 107.732048 
L 137.1365 82.568898 
" clip-path="url(#p462c1843cf)" style="fill: none; stroke: #3f3f3f; stroke-width: 5.625; stroke-linecap: round"/>
   </g>
   <g id="line2d_12">
    <path d="M 137.1365 93.096882 
" clip-path="url(#p462c1843cf)" style="fill: none; stroke: #3f3f3f; stroke-width: 1.5; stroke-linecap: round"/>
    <g clip-path="url(#p462c1843cf)">
     <use xlink:href="#ma452f8f7ec" x="137.1365" y="93.096882" style="fill: #ffffff; stroke: #ffffff; stroke-width: 1.125"/>
    </g>
   </g>
   <g id="line2d_13">
    <path d="M 195.9675 144.679031 
L 195.9675 75.015831 
" clip-path="url(#p462c1843cf)" style="fill: none; stroke: #3f3f3f; stroke-width: 1.875; stroke-linecap: round"/>
   </g>
   <g id="line2d_14">
    <path d="M 195.9675 119.845727 
L 195.9675 101.78152 
" clip-path="url(#p462c1843cf)" style="fill: none; stroke: #3f3f3f; stroke-width: 5.625; stroke-linecap: round"/>
   </g>
   <g id="line2d_15">
    <path d="M 195.9675 108.458102 
" clip-path="url(#p462c1843cf)" style="fill: none; stroke: #3f3f3f; stroke-width: 1.5; stroke-linecap: round"/>
    <g clip-path="url(#p462c1843cf)">
     <use xlink:href="#ma452f8f7ec" x="195.9675" y="108.458102" style="fill: #ffffff; stroke: #ffffff; stroke-width: 1.125"/>
    </g>
   </g>
   <g id="line2d_16">
    <path d="M 254.7985 152.85136 
L 254.7985 68.488448 
" clip-path="url(#p462c1843cf)" style="fill: none; stroke: #3f3f3f; stroke-width: 1.875; stroke-linecap: round"/>
   </g>
   <g id="line2d_17">
    <path d="M 254.7985 121.280777 
L 254.7985 97.661665 
" clip-path="url(#p462c1843cf)" style="fill: none; stroke: #3f3f3f; stroke-width: 5.625; stroke-linecap: round"/>
   </g>
   <g id="line2d_18">
    <path d="M 254.7985 108.642384 
" clip-path="url(#p462c1843cf)" style="fill: none; stroke: #3f3f3f; stroke-width: 1.5; stroke-linecap: round"/>
    <g clip-path="url(#p462c1843cf)">
     <use xlink:href="#ma452f8f7ec" x="254.7985" y="108.642384" style="fill: #ffffff; stroke: #ffffff; stroke-width: 1.125"/>
    </g>
   </g>
   <g id="line2d_19">
    <path d="M 313.6295 160.529564 
L 313.6295 76.598745 
" clip-path="url(#p462c1843cf)" style="fill: none; stroke: #3f3f3f; stroke-width: 1.875; stroke-linecap: round"/>
   </g>
   <g id="line2d_20">
    <path d="M 313.6295 129.378774 
L 313.6295 107.767182 
" clip-path="url(#p462c1843cf)" style="fill: none; stroke: #3f3f3f; stroke-width: 5.625; stroke-linecap: round"/>
   </g>
   <g id="line2d_21">
    <path d="M 313.6295 115.591912 
" clip-path="url(#p462c1843cf)" style="fill: none; stroke: #3f3f3f; stroke-width: 1.5; stroke-linecap: round"/>
    <g clip-path="url(#p462c1843cf)">
     <use xlink:href="#ma452f8f7ec" x="313.6295" y="115.591912" style="fill: #ffffff; stroke: #ffffff; stroke-width: 1.125"/>
    </g>
   </g>
   <g id="line2d_22">
    <path d="M 372.4605 155.334824 
L 372.4605 86.006389 
" clip-path="url(#p462c1843cf)" style="fill: none; stroke: #3f3f3f; stroke-width: 1.875; stroke-linecap: round"/>
   </g>
   <g id="line2d_23">
    <path d="M 372.4605 127.899872 
L 372.4605 109.585929 
" clip-path="url(#p462c1843cf)" style="fill: none; stroke: #3f3f3f; stroke-width: 5.625; stroke-linecap: round"/>
   </g>
   <g id="line2d_24">
    <path d="M 372.4605 118.922449 
" clip-path="url(#p462c1843cf)" style="fill: none; stroke: #3f3f3f; stroke-width: 1.5; stroke-linecap: round"/>
    <g clip-path="url(#p462c1843cf)">
     <use xlink:href="#ma452f8f7ec" x="372.4605" y="118.922449" style="fill: #ffffff; stroke: #ffffff; stroke-width: 1.125"/>
    </g>
   </g>
   <g id="line2d_25">
    <path d="M 431.2915 171.074126 
L 431.2915 148.592465 
" clip-path="url(#p462c1843cf)" style="fill: none; stroke: #3f3f3f; stroke-width: 1.875; stroke-linecap: round"/>
   </g>
   <g id="line2d_26">
    <path d="M 431.2915 162.331733 
L 431.2915 156.375483 
" clip-path="url(#p462c1843cf)" style="fill: none; stroke: #3f3f3f; stroke-width: 5.625; stroke-linecap: round"/>
   </g>
   <g id="line2d_27">
    <path d="M 431.2915 159.442914 
" clip-path="url(#p462c1843cf)" style="fill: none; stroke: #3f3f3f; stroke-width: 1.5; stroke-linecap: round"/>
    <g clip-path="url(#p462c1843cf)">
     <use xlink:href="#ma452f8f7ec" x="431.2915" y="159.442914" style="fill: #ffffff; stroke: #ffffff; stroke-width: 1.125"/>
    </g>
   </g>
   <g id="line2d_28">
    <path d="M 490.1225 172.647414 
L 490.1225 147.962508 
" clip-path="url(#p462c1843cf)" style="fill: none; stroke: #3f3f3f; stroke-width: 1.875; stroke-linecap: round"/>
   </g>
   <g id="line2d_29">
    <path d="M 490.1225 163.755286 
L 490.1225 157.386196 
" clip-path="url(#p462c1843cf)" style="fill: none; stroke: #3f3f3f; stroke-width: 5.625; stroke-linecap: round"/>
   </g>
   <g id="line2d_30">
    <path d="M 490.1225 160.655234 
" clip-path="url(#p462c1843cf)" style="fill: none; stroke: #3f3f3f; stroke-width: 1.5; stroke-linecap: round"/>
    <g clip-path="url(#p462c1843cf)">
     <use xlink:href="#ma452f8f7ec" x="490.1225" y="160.655234" style="fill: #ffffff; stroke: #ffffff; stroke-width: 1.125"/>
    </g>
   </g>
   <g id="line2d_31">
    <path d="M 548.9535 170.731874 
L 548.9535 153.008582 
" clip-path="url(#p462c1843cf)" style="fill: none; stroke: #3f3f3f; stroke-width: 1.875; stroke-linecap: round"/>
   </g>
   <g id="line2d_32">
    <path d="M 548.9535 164.074008 
L 548.9535 159.581954 
" clip-path="url(#p462c1843cf)" style="fill: none; stroke: #3f3f3f; stroke-width: 5.625; stroke-linecap: round"/>
   </g>
   <g id="line2d_33">
    <path d="M 548.9535 161.746696 
" clip-path="url(#p462c1843cf)" style="fill: none; stroke: #3f3f3f; stroke-width: 1.5; stroke-linecap: round"/>
    <g clip-path="url(#p462c1843cf)">
     <use xlink:href="#ma452f8f7ec" x="548.9535" y="161.746696" style="fill: #ffffff; stroke: #ffffff; stroke-width: 1.125"/>
    </g>
   </g>
   <g id="line2d_34">
    <path d="M 607.7845 258.9387 
L 607.7845 114.351249 
" clip-path="url(#p462c1843cf)" style="fill: none; stroke: #3f3f3f; stroke-width: 1.875; stroke-linecap: round"/>
   </g>
   <g id="line2d_35">
    <path d="M 607.7845 203.752748 
L 607.7845 166.645709 
" clip-path="url(#p462c1843cf)" style="fill: none; stroke: #3f3f3f; stroke-width: 5.625; stroke-linecap: round"/>
   </g>
   <g id="line2d_36">
    <path d="M 607.7845 187.259424 
" clip-path="url(#p462c1843cf)" style="fill: none; stroke: #3f3f3f; stroke-width: 1.5; stroke-linecap: round"/>
    <g clip-path="url(#p462c1843cf)">
     <use xlink:href="#ma452f8f7ec" x="607.7845" y="187.259424" style="fill: #ffffff; stroke: #ffffff; stroke-width: 1.125"/>
    </g>
   </g>
   <g id="line2d_37">
    <path d="M 48.89 164.086843 
L 637.2 164.086843 
" clip-path="url(#p462c1843cf)" style="fill: none; stroke-dasharray: 3.7,1.6; stroke-dashoffset: 0; stroke: #808080"/>
   </g>
   <g id="patch_3">
    <path d="M 48.89 291.018107 
L 48.89 10.8 
" style="fill: none; stroke: #cccccc; stroke-width: 0.8; stroke-linejoin: miter; stroke-linecap: square"/>
   </g>
   <g id="patch_4">
    <path d="M 637.2 291.018107 
L 637.2 10.8 
" style="fill: none; stroke: #cccccc; stroke-width: 0.8; stroke-linejoin: miter; stroke-linecap: square"/>
   </g>
   <g id="patch_5">
    <path d="M 48.89 291.018107 
L 637.2 291.018107 
" style="fill: none; stroke: #cccccc; stroke-width: 0.8; stroke-linejoin: miter; stroke-linecap: square"/>
   </g>
   <g id="patch_6">
    <path d="M 48.89 10.8 
L 637.2 10.8 
" style="fill: none; stroke: #cccccc; stroke-width: 0.8; stroke-linejoin: miter; stroke-linecap: square"/>
   </g>
  </g>
 </g>
 <defs>
  <clipPath id="p462c1843cf">
   <rect x="48.89" y="10.8" width="588.31" height="280.218107"/>
  </clipPath>
 </defs>
</svg>
