<?xml version="1.0" encoding="utf-8" standalone="no"?>
<!DOCTYPE svg PUBLIC "-//W3C//DTD SVG 1.1//EN"
  "http://www.w3.org/Graphics/SVG/1.1/DTD/svg11.dtd">
<svg xmlns:xlink="http://www.w3.org/1999/xlink" width="504pt" height="162pt" viewBox="0 0 504 162" xmlns="http://www.w3.org/2000/svg" version="1.1">
 <metadata>
  <rdf:RDF xmlns:dc="http://purl.org/dc/elements/1.1/" xmlns:cc="http://creativecommons.org/ns#" xmlns:rdf="http://www.w3.org/1999/02/22-rdf-syntax-ns#">
   <cc:Work>
    <dc:type rdf:resource="http://purl.org/dc/dcmitype/StillImage"/>
    <dc:date>2025-06-06T14:19:22.430401</dc:date>
    <dc:format>image/svg+xml</dc:format>
    <dc:creator>
     <cc:Agent>
      <dc:title>Matplotlib v3.10.1, https://matplotlib.org/</dc:title>
     </cc:Agent>
    </dc:creator>
   </cc:Work>
  </rdf:RDF>
 </metadata>
 <defs>
  <style type="text/css">*{stroke-linejoin: round; stroke-linecap: butt}</style>
 </defs>
 <g id="figure_1">
  <g id="patch_1">
   <path d="M 0 162 
L 504 162 
L 504 0 
L 0 0 
z
" style="fill: #ffffff"/>
  </g>
  <g id="axes_1">
   <g id="patch_2">
    <path d="M 50.29625 93.018107 
L 493.2 93.018107 
L 493.2 10.8 
L 50.29625 10.8 
z
" style="fill: #ffffff"/>
   </g>
   <g id="matplotlib.axis_1">
    <g id="xtick_1">
     <g id="text_1">
      <!-- Trimethyl -->
      <g style="fill: #262626" transform="translate(59.825658 133.884103) rotate(-45) scale(0.1 -0.1)">
       <defs>
        <path id="ArialMT-54" d="M 1659 0 
L 1659 4041 
L 150 4041 
L 150 4581 
L 3781 4581 
L 3781 4041 
L 2266 4041 
L 2266 0 
L 1659 0 
z
" transform="scale(0.015625)"/>
        <path id="ArialMT-72" d="M 416 0 
L 416 3319 
L 922 3319 
L 922 2816 
Q 1116 3169 1280 3281 
Q 1444 3394 1641 3394 
Q 1925 3394 2219 3213 
L 2025 2691 
Q 1819 2813 1613 2813 
Q 1428 2813 1281 2702 
Q 1134 2591 1072 2394 
Q 978 2094 978 1738 
L 978 0 
L 416 0 
z
" transform="scale(0.015625)"/>
        <path id="ArialMT-69" d="M 425 3934 
L 425 4581 
L 988 4581 
L 988 3934 
L 425 3934 
z
M 425 0 
L 425 3319 
L 988 3319 
L 988 0 
L 425 0 
z
" transform="scale(0.015625)"/>
        <path id="ArialMT-6d" d="M 422 0 
L 422 3319 
L 925 3319 
L 925 2853 
Q 1081 3097 1340 3245 
Q 1600 3394 1931 3394 
Q 2300 3394 2536 3241 
Q 2772 3088 2869 2813 
Q 3263 3394 3894 3394 
Q 4388 3394 4653 3120 
Q 4919 2847 4919 2278 
L 4919 0 
L 4359 0 
L 4359 2091 
Q 4359 2428 4304 2576 
Q 4250 2725 4106 2815 
Q 3963 2906 3769 2906 
Q 3419 2906 3187 2673 
Q 2956 2441 2956 1928 
L 2956 0 
L 2394 0 
L 2394 2156 
Q 2394 2531 2256 2718 
Q 2119 2906 1806 2906 
Q 1569 2906 1367 2781 
Q 1166 2656 1075 2415 
Q 984 2175 984 1722 
L 984 0 
L 422 0 
z
" transform="scale(0.015625)"/>
        <path id="ArialMT-65" d="M 2694 1069 
L 3275 997 
Q 3138 488 2766 206 
Q 2394 -75 1816 -75 
Q 1088 -75 661 373 
Q 234 822 234 1631 
Q 234 2469 665 2931 
Q 1097 3394 1784 3394 
Q 2450 3394 2872 2941 
Q 3294 2488 3294 1666 
Q 3294 1616 3291 1516 
L 816 1516 
Q 847 969 1125 678 
Q 1403 388 1819 388 
Q 2128 388 2347 550 
Q 2566 713 2694 1069 
z
M 847 1978 
L 2700 1978 
Q 2663 2397 2488 2606 
Q 2219 2931 1791 2931 
Q 1403 2931 1139 2672 
Q 875 2413 847 1978 
z
" transform="scale(0.015625)"/>
        <path id="ArialMT-74" d="M 1650 503 
L 1731 6 
Q 1494 -44 1306 -44 
Q 1000 -44 831 53 
Q 663 150 594 308 
Q 525 466 525 972 
L 525 2881 
L 113 2881 
L 113 3319 
L 525 3319 
L 525 4141 
L 1084 4478 
L 1084 3319 
L 1650 3319 
L 1650 2881 
L 1084 2881 
L 1084 941 
Q 1084 700 1114 631 
Q 1144 563 1211 522 
Q 1278 481 1403 481 
Q 1497 481 1650 503 
z
" transform="scale(0.015625)"/>
        <path id="ArialMT-68" d="M 422 0 
L 422 4581 
L 984 4581 
L 984 2938 
Q 1378 3394 1978 3394 
Q 2347 3394 2619 3248 
Q 2891 3103 3008 2847 
Q 3125 2591 3125 2103 
L 3125 0 
L 2563 0 
L 2563 2103 
Q 2563 2525 2380 2717 
Q 2197 2909 1863 2909 
Q 1613 2909 1392 2779 
Q 1172 2650 1078 2428 
Q 984 2206 984 1816 
L 984 0 
L 422 0 
z
" transform="scale(0.015625)"/>
        <path id="ArialMT-79" d="M 397 -1278 
L 334 -750 
Q 519 -800 656 -800 
Q 844 -800 956 -737 
Q 1069 -675 1141 -563 
Q 1194 -478 1313 -144 
Q 1328 -97 1363 -6 
L 103 3319 
L 709 3319 
L 1400 1397 
Q 1534 1031 1641 628 
Q 1738 1016 1872 1384 
L 2581 3319 
L 3144 3319 
L 1881 -56 
Q 1678 -603 1566 -809 
Q 1416 -1088 1222 -1217 
Q 1028 -1347 759 -1347 
Q 597 -1347 397 -1278 
z
" transform="scale(0.015625)"/>
        <path id="ArialMT-6c" d="M 409 0 
L 409 4581 
L 972 4581 
L 972 0 
L 409 0 
z
" transform="scale(0.015625)"/>
       </defs>
       <use xlink:href="#ArialMT-54"/>
       <use xlink:href="#ArialMT-72" transform="translate(57.333984 0)"/>
       <use xlink:href="#ArialMT-69" transform="translate(90.634766 0)"/>
       <use xlink:href="#ArialMT-6d" transform="translate(112.851562 0)"/>
       <use xlink:href="#ArialMT-65" transform="translate(196.152344 0)"/>
       <use xlink:href="#ArialMT-74" transform="translate(251.767578 0)"/>
       <use xlink:href="#ArialMT-68" transform="translate(279.550781 0)"/>
       <use xlink:href="#ArialMT-79" transform="translate(335.166016 0)"/>
       <use xlink:href="#ArialMT-6c" transform="translate(385.166016 0)"/>
      </g>
     </g>
    </g>
    <g id="xtick_2">
     <g id="text_2">
      <!-- Crotonyl -->
      <g style="fill: #262626" transform="translate(105.397112 131.494303) rotate(-45) scale(0.1 -0.1)">
       <defs>
        <path id="ArialMT-43" d="M 3763 1606 
L 4369 1453 
Q 4178 706 3683 314 
Q 3188 -78 2472 -78 
Q 1731 -78 1267 223 
Q 803 525 561 1097 
Q 319 1669 319 2325 
Q 319 3041 592 3573 
Q 866 4106 1370 4382 
Q 1875 4659 2481 4659 
Q 3169 4659 3637 4309 
Q 4106 3959 4291 3325 
L 3694 3184 
Q 3534 3684 3231 3912 
Q 2928 4141 2469 4141 
Q 1941 4141 1586 3887 
Q 1231 3634 1087 3207 
Q 944 2781 944 2328 
Q 944 1744 1114 1308 
Q 1284 872 1643 656 
Q 2003 441 2422 441 
Q 2931 441 3284 734 
Q 3638 1028 3763 1606 
z
" transform="scale(0.015625)"/>
        <path id="ArialMT-6f" d="M 213 1659 
Q 213 2581 725 3025 
Q 1153 3394 1769 3394 
Q 2453 3394 2887 2945 
Q 3322 2497 3322 1706 
Q 3322 1066 3130 698 
Q 2938 331 2570 128 
Q 2203 -75 1769 -75 
Q 1072 -75 642 372 
Q 213 819 213 1659 
z
M 791 1659 
Q 791 1022 1069 705 
Q 1347 388 1769 388 
Q 2188 388 2466 706 
Q 2744 1025 2744 1678 
Q 2744 2294 2464 2611 
Q 2184 2928 1769 2928 
Q 1347 2928 1069 2612 
Q 791 2297 791 1659 
z
" transform="scale(0.015625)"/>
        <path id="ArialMT-6e" d="M 422 0 
L 422 3319 
L 928 3319 
L 928 2847 
Q 1294 3394 1984 3394 
Q 2284 3394 2536 3286 
Q 2788 3178 2913 3003 
Q 3038 2828 3088 2588 
Q 3119 2431 3119 2041 
L 3119 0 
L 2556 0 
L 2556 2019 
Q 2556 2363 2490 2533 
Q 2425 2703 2258 2804 
Q 2091 2906 1866 2906 
Q 1506 2906 1245 2678 
Q 984 2450 984 1813 
L 984 0 
L 422 0 
z
" transform="scale(0.015625)"/>
       </defs>
       <use xlink:href="#ArialMT-43"/>
       <use xlink:href="#ArialMT-72" transform="translate(72.216797 0)"/>
       <use xlink:href="#ArialMT-6f" transform="translate(105.517578 0)"/>
       <use xlink:href="#ArialMT-74" transform="translate(161.132812 0)"/>
       <use xlink:href="#ArialMT-6f" transform="translate(188.916016 0)"/>
       <use xlink:href="#ArialMT-6e" transform="translate(244.53125 0)"/>
       <use xlink:href="#ArialMT-79" transform="translate(300.146484 0)"/>
       <use xlink:href="#ArialMT-6c" transform="translate(350.146484 0)"/>
      </g>
     </g>
    </g>
    <g id="xtick_3">
     <g id="text_3">
      <!-- Dimethyl -->
      <g style="fill: #262626" transform="translate(149.057167 132.582584) rotate(-45) scale(0.1 -0.1)">
       <defs>
        <path id="ArialMT-44" d="M 494 0 
L 494 4581 
L 2072 4581 
Q 2606 4581 2888 4516 
Q 3281 4425 3559 4188 
Q 3922 3881 4101 3404 
Q 4281 2928 4281 2316 
Q 4281 1794 4159 1391 
Q 4038 988 3847 723 
Q 3656 459 3429 307 
Q 3203 156 2883 78 
Q 2563 0 2147 0 
L 494 0 
z
M 1100 541 
L 2078 541 
Q 2531 541 2789 625 
Q 3047 709 3200 863 
Q 3416 1078 3536 1442 
Q 3656 1806 3656 2325 
Q 3656 3044 3420 3430 
Q 3184 3816 2847 3947 
Q 2603 4041 2063 4041 
L 1100 4041 
L 1100 541 
z
" transform="scale(0.015625)"/>
       </defs>
       <use xlink:href="#ArialMT-44"/>
       <use xlink:href="#ArialMT-69" transform="translate(72.216797 0)"/>
       <use xlink:href="#ArialMT-6d" transform="translate(94.433594 0)"/>
       <use xlink:href="#ArialMT-65" transform="translate(177.734375 0)"/>
       <use xlink:href="#ArialMT-74" transform="translate(233.349609 0)"/>
       <use xlink:href="#ArialMT-68" transform="translate(261.132812 0)"/>
       <use xlink:href="#ArialMT-79" transform="translate(316.748047 0)"/>
       <use xlink:href="#ArialMT-6c" transform="translate(366.748047 0)"/>
      </g>
     </g>
    </g>
    <g id="xtick_4">
     <g id="text_4">
      <!-- Acetyl -->
      <g style="fill: #262626" transform="translate(197.471411 124.334846) rotate(-45) scale(0.1 -0.1)">
       <defs>
        <path id="ArialMT-41" d="M -9 0 
L 1750 4581 
L 2403 4581 
L 4278 0 
L 3588 0 
L 3053 1388 
L 1138 1388 
L 634 0 
L -9 0 
z
M 1313 1881 
L 2866 1881 
L 2388 3150 
Q 2169 3728 2063 4100 
Q 1975 3659 1816 3225 
L 1313 1881 
z
" transform="scale(0.015625)"/>
        <path id="ArialMT-63" d="M 2588 1216 
L 3141 1144 
Q 3050 572 2676 248 
Q 2303 -75 1759 -75 
Q 1078 -75 664 370 
Q 250 816 250 1647 
Q 250 2184 428 2587 
Q 606 2991 970 3192 
Q 1334 3394 1763 3394 
Q 2303 3394 2647 3120 
Q 2991 2847 3088 2344 
L 2541 2259 
Q 2463 2594 2264 2762 
Q 2066 2931 1784 2931 
Q 1359 2931 1093 2626 
Q 828 2322 828 1663 
Q 828 994 1084 691 
Q 1341 388 1753 388 
Q 2084 388 2306 591 
Q 2528 794 2588 1216 
z
" transform="scale(0.015625)"/>
       </defs>
       <use xlink:href="#ArialMT-41"/>
       <use xlink:href="#ArialMT-63" transform="translate(66.699219 0)"/>
       <use xlink:href="#ArialMT-65" transform="translate(116.699219 0)"/>
       <use xlink:href="#ArialMT-74" transform="translate(172.314453 0)"/>
       <use xlink:href="#ArialMT-79" transform="translate(200.097656 0)"/>
       <use xlink:href="#ArialMT-6c" transform="translate(250.097656 0)"/>
      </g>
     </g>
    </g>
    <g id="xtick_5">
     <g id="text_5">
      <!-- Succinyl -->
      <g style="fill: #262626" transform="translate(238.267684 131.495407) rotate(-45) scale(0.1 -0.1)">
       <defs>
        <path id="ArialMT-53" d="M 288 1472 
L 859 1522 
Q 900 1178 1048 958 
Q 1197 738 1509 602 
Q 1822 466 2213 466 
Q 2559 466 2825 569 
Q 3091 672 3220 851 
Q 3350 1031 3350 1244 
Q 3350 1459 3225 1620 
Q 3100 1781 2813 1891 
Q 2628 1963 1997 2114 
Q 1366 2266 1113 2400 
Q 784 2572 623 2826 
Q 463 3081 463 3397 
Q 463 3744 659 4045 
Q 856 4347 1234 4503 
Q 1613 4659 2075 4659 
Q 2584 4659 2973 4495 
Q 3363 4331 3572 4012 
Q 3781 3694 3797 3291 
L 3216 3247 
Q 3169 3681 2898 3903 
Q 2628 4125 2100 4125 
Q 1550 4125 1298 3923 
Q 1047 3722 1047 3438 
Q 1047 3191 1225 3031 
Q 1400 2872 2139 2705 
Q 2878 2538 3153 2413 
Q 3553 2228 3743 1945 
Q 3934 1663 3934 1294 
Q 3934 928 3725 604 
Q 3516 281 3123 101 
Q 2731 -78 2241 -78 
Q 1619 -78 1198 103 
Q 778 284 539 648 
Q 300 1013 288 1472 
z
" transform="scale(0.015625)"/>
        <path id="ArialMT-75" d="M 2597 0 
L 2597 488 
Q 2209 -75 1544 -75 
Q 1250 -75 995 37 
Q 741 150 617 320 
Q 494 491 444 738 
Q 409 903 409 1263 
L 409 3319 
L 972 3319 
L 972 1478 
Q 972 1038 1006 884 
Q 1059 663 1231 536 
Q 1403 409 1656 409 
Q 1909 409 2131 539 
Q 2353 669 2445 892 
Q 2538 1116 2538 1541 
L 2538 3319 
L 3100 3319 
L 3100 0 
L 2597 0 
z
" transform="scale(0.015625)"/>
       </defs>
       <use xlink:href="#ArialMT-53"/>
       <use xlink:href="#ArialMT-75" transform="translate(66.699219 0)"/>
       <use xlink:href="#ArialMT-63" transform="translate(122.314453 0)"/>
       <use xlink:href="#ArialMT-63" transform="translate(172.314453 0)"/>
       <use xlink:href="#ArialMT-69" transform="translate(222.314453 0)"/>
       <use xlink:href="#ArialMT-6e" transform="translate(244.53125 0)"/>
       <use xlink:href="#ArialMT-79" transform="translate(300.146484 0)"/>
       <use xlink:href="#ArialMT-6c" transform="translate(350.146484 0)"/>
      </g>
     </g>
    </g>
    <g id="xtick_6">
     <g id="text_6">
      <!-- Malonyl -->
      <g style="fill: #262626" transform="translate(283.497738 129.443693) rotate(-45) scale(0.1 -0.1)">
       <defs>
        <path id="ArialMT-4d" d="M 475 0 
L 475 4581 
L 1388 4581 
L 2472 1338 
Q 2622 884 2691 659 
Q 2769 909 2934 1394 
L 4031 4581 
L 4847 4581 
L 4847 0 
L 4263 0 
L 4263 3834 
L 2931 0 
L 2384 0 
L 1059 3900 
L 1059 0 
L 475 0 
z
" transform="scale(0.015625)"/>
        <path id="ArialMT-61" d="M 2588 409 
Q 2275 144 1986 34 
Q 1697 -75 1366 -75 
Q 819 -75 525 192 
Q 231 459 231 875 
Q 231 1119 342 1320 
Q 453 1522 633 1644 
Q 813 1766 1038 1828 
Q 1203 1872 1538 1913 
Q 2219 1994 2541 2106 
Q 2544 2222 2544 2253 
Q 2544 2597 2384 2738 
Q 2169 2928 1744 2928 
Q 1347 2928 1158 2789 
Q 969 2650 878 2297 
L 328 2372 
Q 403 2725 575 2942 
Q 747 3159 1072 3276 
Q 1397 3394 1825 3394 
Q 2250 3394 2515 3294 
Q 2781 3194 2906 3042 
Q 3031 2891 3081 2659 
Q 3109 2516 3109 2141 
L 3109 1391 
Q 3109 606 3145 398 
Q 3181 191 3288 0 
L 2700 0 
Q 2613 175 2588 409 
z
M 2541 1666 
Q 2234 1541 1622 1453 
Q 1275 1403 1131 1340 
Q 988 1278 909 1158 
Q 831 1038 831 891 
Q 831 666 1001 516 
Q 1172 366 1500 366 
Q 1825 366 2078 508 
Q 2331 650 2450 897 
Q 2541 1088 2541 1459 
L 2541 1666 
z
" transform="scale(0.015625)"/>
       </defs>
       <use xlink:href="#ArialMT-4d"/>
       <use xlink:href="#ArialMT-61" transform="translate(83.300781 0)"/>
       <use xlink:href="#ArialMT-6c" transform="translate(138.916016 0)"/>
       <use xlink:href="#ArialMT-6f" transform="translate(161.132812 0)"/>
       <use xlink:href="#ArialMT-6e" transform="translate(216.748047 0)"/>
       <use xlink:href="#ArialMT-79" transform="translate(272.363281 0)"/>
       <use xlink:href="#ArialMT-6c" transform="translate(322.363281 0)"/>
      </g>
     </g>
    </g>
    <g id="xtick_7">
     <g id="text_7">
      <!-- Methyl -->
      <g style="fill: #262626" transform="translate(329.557537 125.904845) rotate(-45) scale(0.1 -0.1)">
       <use xlink:href="#ArialMT-4d"/>
       <use xlink:href="#ArialMT-65" transform="translate(83.300781 0)"/>
       <use xlink:href="#ArialMT-74" transform="translate(138.916016 0)"/>
       <use xlink:href="#ArialMT-68" transform="translate(166.699219 0)"/>
       <use xlink:href="#ArialMT-79" transform="translate(222.314453 0)"/>
       <use xlink:href="#ArialMT-6c" transform="translate(272.314453 0)"/>
      </g>
     </g>
    </g>
    <g id="xtick_8">
     <g id="text_8">
      <!-- Formyl -->
      <g style="fill: #262626" transform="translate(373.459556 126.681557) rotate(-45) scale(0.1 -0.1)">
       <defs>
        <path id="ArialMT-46" d="M 525 0 
L 525 4581 
L 3616 4581 
L 3616 4041 
L 1131 4041 
L 1131 2622 
L 3281 2622 
L 3281 2081 
L 1131 2081 
L 1131 0 
L 525 0 
z
" transform="scale(0.015625)"/>
       </defs>
       <use xlink:href="#ArialMT-46"/>
       <use xlink:href="#ArialMT-6f" transform="translate(61.083984 0)"/>
       <use xlink:href="#ArialMT-72" transform="translate(116.699219 0)"/>
       <use xlink:href="#ArialMT-6d" transform="translate(150 0)"/>
       <use xlink:href="#ArialMT-79" transform="translate(233.300781 0)"/>
       <use xlink:href="#ArialMT-6c" transform="translate(283.300781 0)"/>
      </g>
     </g>
    </g>
    <g id="xtick_9">
     <g id="text_9">
      <!-- Oxidation -->
      <g style="fill: #262626" transform="translate(413.656998 134.950287) rotate(-45) scale(0.1 -0.1)">
       <defs>
        <path id="ArialMT-4f" d="M 309 2231 
Q 309 3372 921 4017 
Q 1534 4663 2503 4663 
Q 3138 4663 3647 4359 
Q 4156 4056 4423 3514 
Q 4691 2972 4691 2284 
Q 4691 1588 4409 1038 
Q 4128 488 3612 205 
Q 3097 -78 2500 -78 
Q 1853 -78 1343 234 
Q 834 547 571 1087 
Q 309 1628 309 2231 
z
M 934 2222 
Q 934 1394 1379 917 
Q 1825 441 2497 441 
Q 3181 441 3623 922 
Q 4066 1403 4066 2288 
Q 4066 2847 3877 3264 
Q 3688 3681 3323 3911 
Q 2959 4141 2506 4141 
Q 1863 4141 1398 3698 
Q 934 3256 934 2222 
z
" transform="scale(0.015625)"/>
        <path id="ArialMT-78" d="M 47 0 
L 1259 1725 
L 138 3319 
L 841 3319 
L 1350 2541 
Q 1494 2319 1581 2169 
Q 1719 2375 1834 2534 
L 2394 3319 
L 3066 3319 
L 1919 1756 
L 3153 0 
L 2463 0 
L 1781 1031 
L 1600 1309 
L 728 0 
L 47 0 
z
" transform="scale(0.015625)"/>
        <path id="ArialMT-64" d="M 2575 0 
L 2575 419 
Q 2259 -75 1647 -75 
Q 1250 -75 917 144 
Q 584 363 401 755 
Q 219 1147 219 1656 
Q 219 2153 384 2558 
Q 550 2963 881 3178 
Q 1213 3394 1622 3394 
Q 1922 3394 2156 3267 
Q 2391 3141 2538 2938 
L 2538 4581 
L 3097 4581 
L 3097 0 
L 2575 0 
z
M 797 1656 
Q 797 1019 1065 703 
Q 1334 388 1700 388 
Q 2069 388 2326 689 
Q 2584 991 2584 1609 
Q 2584 2291 2321 2609 
Q 2059 2928 1675 2928 
Q 1300 2928 1048 2622 
Q 797 2316 797 1656 
z
" transform="scale(0.015625)"/>
       </defs>
       <use xlink:href="#ArialMT-4f"/>
       <use xlink:href="#ArialMT-78" transform="translate(77.783203 0)"/>
       <use xlink:href="#ArialMT-69" transform="translate(127.783203 0)"/>
       <use xlink:href="#ArialMT-64" transform="translate(150 0)"/>
       <use xlink:href="#ArialMT-61" transform="translate(205.615234 0)"/>
       <use xlink:href="#ArialMT-74" transform="translate(261.230469 0)"/>
       <use xlink:href="#ArialMT-69" transform="translate(289.013672 0)"/>
       <use xlink:href="#ArialMT-6f" transform="translate(311.230469 0)"/>
       <use xlink:href="#ArialMT-6e" transform="translate(366.845703 0)"/>
      </g>
     </g>
    </g>
    <g id="xtick_10">
     <g id="text_10">
      <!-- Propionyl -->
      <g style="fill: #262626" transform="translate(458.102605 134.556959) rotate(-45) scale(0.1 -0.1)">
       <defs>
        <path id="ArialMT-50" d="M 494 0 
L 494 4581 
L 2222 4581 
Q 2678 4581 2919 4538 
Q 3256 4481 3484 4323 
Q 3713 4166 3852 3881 
Q 3991 3597 3991 3256 
Q 3991 2672 3619 2267 
Q 3247 1863 2275 1863 
L 1100 1863 
L 1100 0 
L 494 0 
z
M 1100 2403 
L 2284 2403 
Q 2872 2403 3119 2622 
Q 3366 2841 3366 3238 
Q 3366 3525 3220 3729 
Q 3075 3934 2838 4000 
Q 2684 4041 2272 4041 
L 1100 4041 
L 1100 2403 
z
" transform="scale(0.015625)"/>
        <path id="ArialMT-70" d="M 422 -1272 
L 422 3319 
L 934 3319 
L 934 2888 
Q 1116 3141 1344 3267 
Q 1572 3394 1897 3394 
Q 2322 3394 2647 3175 
Q 2972 2956 3137 2557 
Q 3303 2159 3303 1684 
Q 3303 1175 3120 767 
Q 2938 359 2589 142 
Q 2241 -75 1856 -75 
Q 1575 -75 1351 44 
Q 1128 163 984 344 
L 984 -1272 
L 422 -1272 
z
M 931 1641 
Q 931 1000 1190 694 
Q 1450 388 1819 388 
Q 2194 388 2461 705 
Q 2728 1022 2728 1688 
Q 2728 2322 2467 2637 
Q 2206 2953 1844 2953 
Q 1484 2953 1207 2617 
Q 931 2281 931 1641 
z
" transform="scale(0.015625)"/>
       </defs>
       <use xlink:href="#ArialMT-50"/>
       <use xlink:href="#ArialMT-72" transform="translate(66.699219 0)"/>
       <use xlink:href="#ArialMT-6f" transform="translate(100 0)"/>
       <use xlink:href="#ArialMT-70" transform="translate(155.615234 0)"/>
       <use xlink:href="#ArialMT-69" transform="translate(211.230469 0)"/>
       <use xlink:href="#ArialMT-6f" transform="translate(233.447266 0)"/>
       <use xlink:href="#ArialMT-6e" transform="translate(289.0625 0)"/>
       <use xlink:href="#ArialMT-79" transform="translate(344.677734 0)"/>
       <use xlink:href="#ArialMT-6c" transform="translate(394.677734 0)"/>
      </g>
     </g>
    </g>
    <g id="text_11">
     <!-- Modification Type -->
     <g style="fill: #262626" transform="translate(232.928594 147.635349) scale(0.1 -0.1)">
      <defs>
       <path id="ArialMT-66" d="M 556 0 
L 556 2881 
L 59 2881 
L 59 3319 
L 556 3319 
L 556 3672 
Q 556 4006 616 4169 
Q 697 4388 901 4523 
Q 1106 4659 1475 4659 
Q 1713 4659 2000 4603 
L 1916 4113 
Q 1741 4144 1584 4144 
Q 1328 4144 1222 4034 
Q 1116 3925 1116 3625 
L 1116 3319 
L 1763 3319 
L 1763 2881 
L 1116 2881 
L 1116 0 
L 556 0 
z
" transform="scale(0.015625)"/>
       <path id="ArialMT-20" transform="scale(0.015625)"/>
      </defs>
      <use xlink:href="#ArialMT-4d"/>
      <use xlink:href="#ArialMT-6f" transform="translate(83.300781 0)"/>
      <use xlink:href="#ArialMT-64" transform="translate(138.916016 0)"/>
      <use xlink:href="#ArialMT-69" transform="translate(194.53125 0)"/>
      <use xlink:href="#ArialMT-66" transform="translate(216.748047 0)"/>
      <use xlink:href="#ArialMT-69" transform="translate(244.53125 0)"/>
      <use xlink:href="#ArialMT-63" transform="translate(266.748047 0)"/>
      <use xlink:href="#ArialMT-61" transform="translate(316.748047 0)"/>
      <use xlink:href="#ArialMT-74" transform="translate(372.363281 0)"/>
      <use xlink:href="#ArialMT-69" transform="translate(400.146484 0)"/>
      <use xlink:href="#ArialMT-6f" transform="translate(422.363281 0)"/>
      <use xlink:href="#ArialMT-6e" transform="translate(477.978516 0)"/>
      <use xlink:href="#ArialMT-20" transform="translate(533.59375 0)"/>
      <use xlink:href="#ArialMT-54" transform="translate(559.626953 0)"/>
      <use xlink:href="#ArialMT-79" transform="translate(615.210938 0)"/>
      <use xlink:href="#ArialMT-70" transform="translate(665.210938 0)"/>
      <use xlink:href="#ArialMT-65" transform="translate(720.826172 0)"/>
     </g>
    </g>
   </g>
   <g id="matplotlib.axis_2">
    <g id="ytick_1">
     <g id="line2d_1">
      <path d="M 50.29625 78.937724 
L 493.2 78.937724 
" clip-path="url(#p946a256148)" style="fill: none; stroke: #cccccc; stroke-width: 0.8; stroke-linecap: round"/>
     </g>
     <g id="text_12">
      <!-- −20 -->
      <g style="fill: #262626" transform="translate(26.33375 82.516631) scale(0.1 -0.1)">
       <defs>
        <path id="ArialMT-2212" d="M 3381 1997 
L 356 1997 
L 356 2522 
L 3381 2522 
L 3381 1997 
z
" transform="scale(0.015625)"/>
        <path id="ArialMT-32" d="M 3222 541 
L 3222 0 
L 194 0 
Q 188 203 259 391 
Q 375 700 629 1000 
Q 884 1300 1366 1694 
Q 2113 2306 2375 2664 
Q 2638 3022 2638 3341 
Q 2638 3675 2398 3904 
Q 2159 4134 1775 4134 
Q 1369 4134 1125 3890 
Q 881 3647 878 3216 
L 300 3275 
Q 359 3922 746 4261 
Q 1134 4600 1788 4600 
Q 2447 4600 2831 4234 
Q 3216 3869 3216 3328 
Q 3216 3053 3103 2787 
Q 2991 2522 2730 2228 
Q 2469 1934 1863 1422 
Q 1356 997 1212 845 
Q 1069 694 975 541 
L 3222 541 
z
" transform="scale(0.015625)"/>
        <path id="ArialMT-30" d="M 266 2259 
Q 266 3072 433 3567 
Q 600 4063 929 4331 
Q 1259 4600 1759 4600 
Q 2128 4600 2406 4451 
Q 2684 4303 2865 4023 
Q 3047 3744 3150 3342 
Q 3253 2941 3253 2259 
Q 3253 1453 3087 958 
Q 2922 463 2592 192 
Q 2263 -78 1759 -78 
Q 1097 -78 719 397 
Q 266 969 266 2259 
z
M 844 2259 
Q 844 1131 1108 757 
Q 1372 384 1759 384 
Q 2147 384 2411 759 
Q 2675 1134 2675 2259 
Q 2675 3391 2411 3762 
Q 2147 4134 1753 4134 
Q 1366 4134 1134 3806 
Q 844 3388 844 2259 
z
" transform="scale(0.015625)"/>
       </defs>
       <use xlink:href="#ArialMT-2212"/>
       <use xlink:href="#ArialMT-32" transform="translate(58.398438 0)"/>
       <use xlink:href="#ArialMT-30" transform="translate(114.013672 0)"/>
      </g>
     </g>
    </g>
    <g id="ytick_2">
     <g id="line2d_2">
      <path d="M 50.29625 58.262303 
L 493.2 58.262303 
" clip-path="url(#p946a256148)" style="fill: none; stroke: #cccccc; stroke-width: 0.8; stroke-linecap: round"/>
     </g>
     <g id="text_13">
      <!-- 0 -->
      <g style="fill: #262626" transform="translate(37.735313 61.841209) scale(0.1 -0.1)">
       <use xlink:href="#ArialMT-30"/>
      </g>
     </g>
    </g>
    <g id="ytick_3">
     <g id="line2d_3">
      <path d="M 50.29625 37.586882 
L 493.2 37.586882 
" clip-path="url(#p946a256148)" style="fill: none; stroke: #cccccc; stroke-width: 0.8; stroke-linecap: round"/>
     </g>
     <g id="text_14">
      <!-- 20 -->
      <g style="fill: #262626" transform="translate(32.174375 41.165788) scale(0.1 -0.1)">
       <use xlink:href="#ArialMT-32"/>
       <use xlink:href="#ArialMT-30" transform="translate(55.615234 0)"/>
      </g>
     </g>
    </g>
    <g id="ytick_4">
     <g id="line2d_4">
      <path d="M 50.29625 16.91146 
L 493.2 16.91146 
" clip-path="url(#p946a256148)" style="fill: none; stroke: #cccccc; stroke-width: 0.8; stroke-linecap: round"/>
     </g>
     <g id="text_15">
      <!-- 40 -->
      <g style="fill: #262626" transform="translate(32.174375 20.490367) scale(0.1 -0.1)">
       <defs>
        <path id="ArialMT-34" d="M 2069 0 
L 2069 1097 
L 81 1097 
L 81 1613 
L 2172 4581 
L 2631 4581 
L 2631 1613 
L 3250 1613 
L 3250 1097 
L 2631 1097 
L 2631 0 
L 2069 0 
z
M 2069 1613 
L 2069 3678 
L 634 1613 
L 2069 1613 
z
" transform="scale(0.015625)"/>
       </defs>
       <use xlink:href="#ArialMT-34"/>
       <use xlink:href="#ArialMT-30" transform="translate(55.615234 0)"/>
      </g>
     </g>
    </g>
    <g id="text_16">
     <!-- ΔCCS (Å²) -->
     <g style="fill: #262626" transform="translate(20.229063 75.524679) rotate(-90) scale(0.1 -0.1)">
      <defs>
       <path id="ArialMT-394" d="M -6 0 
L 1753 4581 
L 2406 4581 
L 4281 0 
L -6 0 
z
M 834 541 
L 3381 541 
L 2391 3150 
Q 2169 3738 2066 4100 
Q 1981 3675 1819 3225 
L 834 541 
z
" transform="scale(0.015625)"/>
       <path id="ArialMT-28" d="M 1497 -1347 
Q 1031 -759 709 28 
Q 388 816 388 1659 
Q 388 2403 628 3084 
Q 909 3875 1497 4659 
L 1900 4659 
Q 1522 4009 1400 3731 
Q 1209 3300 1100 2831 
Q 966 2247 966 1656 
Q 966 153 1900 -1347 
L 1497 -1347 
z
" transform="scale(0.015625)"/>
       <path id="ArialMT-c5" d="M -9 0 
L 1750 4581 
L 2403 4581 
L 4278 0 
L 3588 0 
L 3053 1388 
L 1138 1388 
L 634 0 
L -9 0 
z
M 1313 1881 
L 2866 1881 
L 2388 3150 
Q 2169 3728 2063 4100 
Q 1975 3659 1816 3225 
L 1313 1881 
z
M 1506 5013 
Q 1506 5241 1673 5407 
Q 1841 5573 2069 5573 
Q 2300 5573 2465 5405 
Q 2631 5238 2631 5001 
Q 2631 4760 2465 4594 
Q 2300 4429 2072 4429 
Q 1838 4429 1672 4596 
Q 1506 4763 1506 5013 
z
M 1744 5010 
Q 1744 4863 1842 4763 
Q 1941 4663 2075 4663 
Q 2209 4663 2307 4763 
Q 2406 4863 2406 5004 
Q 2406 5145 2309 5245 
Q 2213 5345 2075 5345 
Q 1941 5345 1842 5246 
Q 1744 5148 1744 5010 
z
" transform="scale(0.015625)"/>
       <path id="ArialMT-b2" d="M 78 2291 
Q 97 2469 225 2647 
Q 422 2916 872 3242 
Q 1322 3569 1406 3663 
Q 1522 3791 1522 3925 
Q 1522 4075 1412 4172 
Q 1303 4269 1091 4269 
Q 884 4269 782 4195 
Q 681 4122 616 3913 
L 144 3963 
Q 234 4309 457 4473 
Q 681 4638 1100 4638 
Q 1572 4638 1792 4453 
Q 2013 4269 2013 4003 
Q 2013 3741 1828 3506 
Q 1688 3331 1188 2972 
Q 928 2781 819 2669 
L 2025 2669 
L 2025 2291 
L 78 2291 
z
" transform="scale(0.015625)"/>
       <path id="ArialMT-29" d="M 791 -1347 
L 388 -1347 
Q 1322 153 1322 1656 
Q 1322 2244 1188 2822 
Q 1081 3291 891 3722 
Q 769 4003 388 4659 
L 791 4659 
Q 1378 3875 1659 3084 
Q 1900 2403 1900 1659 
Q 1900 816 1576 28 
Q 1253 -759 791 -1347 
z
" transform="scale(0.015625)"/>
      </defs>
      <use xlink:href="#ArialMT-394"/>
      <use xlink:href="#ArialMT-43" transform="translate(66.796875 0)"/>
      <use xlink:href="#ArialMT-43" transform="translate(139.013672 0)"/>
      <use xlink:href="#ArialMT-53" transform="translate(211.230469 0)"/>
      <use xlink:href="#ArialMT-20" transform="translate(277.929688 0)"/>
      <use xlink:href="#ArialMT-28" transform="translate(305.712891 0)"/>
      <use xlink:href="#ArialMT-c5" transform="translate(339.013672 0)"/>
      <use xlink:href="#ArialMT-b2" transform="translate(405.712891 0)"/>
      <use xlink:href="#ArialMT-29" transform="translate(439.013672 0)"/>
     </g>
    </g>
   </g>
   <g id="FillBetweenPolyCollection_1">
    <defs>
     <path id="m079c14e03a" d="M 72.519608 -99.15013 
L 72.363267 -99.15013 
L 72.330672 -99.535988 
L 72.28801 -99.921847 
L 72.233576 -100.307705 
L 72.165831 -100.693564 
L 72.083529 -101.079423 
L 71.985819 -101.465281 
L 71.872302 -101.85114 
L 71.743013 -102.236998 
L 71.598334 -102.622857 
L 71.438837 -103.008715 
L 71.265091 -103.394574 
L 71.077466 -103.780432 
L 70.875977 -104.166291 
L 70.66022 -104.55215 
L 70.429408 -104.938008 
L 70.182518 -105.323867 
L 69.91851 -105.709725 
L 69.636591 -106.095584 
L 69.336437 -106.481442 
L 69.01836 -106.867301 
L 68.683365 -107.253159 
L 68.333112 -107.639018 
L 67.969819 -108.024877 
L 67.596161 -108.410735 
L 67.215224 -108.796594 
L 66.830547 -109.182452 
L 66.44627 -109.568311 
L 66.067327 -109.954169 
L 65.6996 -110.340028 
L 65.349936 -110.725886 
L 65.025909 -111.111745 
L 64.735288 -111.497604 
L 64.485211 -111.883462 
L 64.281175 -112.269321 
L 64.126004 -112.655179 
L 64.019018 -113.041038 
L 63.955605 -113.426896 
L 63.927367 -113.812755 
L 63.922872 -114.198613 
L 63.92897 -114.584472 
L 63.93246 -114.970331 
L 63.921853 -115.356189 
L 63.888912 -115.742048 
L 63.829704 -116.127906 
L 63.744979 -116.513765 
L 63.639831 -116.899623 
L 63.522727 -117.285482 
L 63.404114 -117.671341 
L 63.294882 -118.057199 
L 63.204968 -118.443058 
L 63.142346 -118.828916 
L 63.112538 -119.214775 
L 63.118675 -119.600633 
L 63.162011 -119.986492 
L 63.242724 -120.37235 
L 63.360766 -120.758209 
L 63.516561 -121.144068 
L 63.711372 -121.529926 
L 63.947269 -121.915785 
L 64.226688 -122.301643 
L 64.551699 -122.687502 
L 64.923131 -123.07336 
L 65.339759 -123.459219 
L 65.797704 -123.845077 
L 66.29021 -124.230936 
L 66.80783 -124.616795 
L 67.33901 -125.002653 
L 67.870979 -125.388512 
L 68.390803 -125.77437 
L 68.886436 -126.160229 
L 69.34762 -126.546087 
L 69.766528 -126.931946 
L 70.138089 -127.317804 
L 70.46 -127.703663 
L 70.732476 -128.089522 
L 70.957832 -128.47538 
L 71.139978 -128.861239 
L 71.283925 -129.247097 
L 71.395338 -129.632956 
L 71.480187 -130.018814 
L 71.544464 -130.404673 
L 71.593959 -130.790531 
L 71.63407 -131.17639 
L 71.66961 -131.562249 
L 71.704626 -131.948107 
L 71.74223 -132.333966 
L 71.784483 -132.719824 
L 71.832338 -133.105683 
L 71.885694 -133.491541 
L 71.943541 -133.8774 
L 72.004186 -134.263258 
L 72.065549 -134.649117 
L 72.125455 -135.034976 
L 72.181909 -135.420834 
L 72.233302 -135.806693 
L 72.278534 -136.192551 
L 72.317052 -136.57841 
L 72.348811 -136.964268 
L 72.374182 -137.350127 
L 72.508693 -137.350127 
L 72.508693 -137.350127 
L 72.534064 -136.964268 
L 72.565823 -136.57841 
L 72.604341 -136.192551 
L 72.649573 -135.806693 
L 72.700966 -135.420834 
L 72.75742 -135.034976 
L 72.817326 -134.649117 
L 72.878689 -134.263258 
L 72.939334 -133.8774 
L 72.997181 -133.491541 
L 73.050537 -133.105683 
L 73.098392 -132.719824 
L 73.140645 -132.333966 
L 73.178249 -131.948107 
L 73.213265 -131.562249 
L 73.248805 -131.17639 
L 73.288916 -130.790531 
L 73.338411 -130.404673 
L 73.402688 -130.018814 
L 73.487537 -129.632956 
L 73.59895 -129.247097 
L 73.742897 -128.861239 
L 73.925043 -128.47538 
L 74.150399 -128.089522 
L 74.422875 -127.703663 
L 74.744786 -127.317804 
L 75.116347 -126.931946 
L 75.535255 -126.546087 
L 75.996439 -126.160229 
L 76.492072 -125.77437 
L 77.011896 -125.388512 
L 77.543865 -125.002653 
L 78.075045 -124.616795 
L 78.592665 -124.230936 
L 79.085171 -123.845077 
L 79.543116 -123.459219 
L 79.959744 -123.07336 
L 80.331176 -122.687502 
L 80.656187 -122.301643 
L 80.935606 -121.915785 
L 81.171503 -121.529926 
L 81.366314 -121.144068 
L 81.522109 -120.758209 
L 81.640151 -120.37235 
L 81.720864 -119.986492 
L 81.7642 -119.600633 
L 81.770337 -119.214775 
L 81.740529 -118.828916 
L 81.677907 -118.443058 
L 81.587993 -118.057199 
L 81.478761 -117.671341 
L 81.360148 -117.285482 
L 81.243044 -116.899623 
L 81.137896 -116.513765 
L 81.053171 -116.127906 
L 80.993963 -115.742048 
L 80.961022 -115.356189 
L 80.950415 -114.970331 
L 80.953905 -114.584472 
L 80.960003 -114.198613 
L 80.955508 -113.812755 
L 80.92727 -113.426896 
L 80.863857 -113.041038 
L 80.756871 -112.655179 
L 80.6017 -112.269321 
L 80.397664 -111.883462 
L 80.147587 -111.497604 
L 79.856966 -111.111745 
L 79.532939 -110.725886 
L 79.183275 -110.340028 
L 78.815548 -109.954169 
L 78.436605 -109.568311 
L 78.052328 -109.182452 
L 77.667651 -108.796594 
L 77.286714 -108.410735 
L 76.913056 -108.024877 
L 76.549763 -107.639018 
L 76.19951 -107.253159 
L 75.864515 -106.867301 
L 75.546438 -106.481442 
L 75.246284 -106.095584 
L 74.964365 -105.709725 
L 74.700357 -105.323867 
L 74.453467 -104.938008 
L 74.222655 -104.55215 
L 74.006898 -104.166291 
L 73.805409 -103.780432 
L 73.617784 -103.394574 
L 73.444038 -103.008715 
L 73.284541 -102.622857 
L 73.139862 -102.236998 
L 73.010573 -101.85114 
L 72.897056 -101.465281 
L 72.799346 -101.079423 
L 72.717044 -100.693564 
L 72.649299 -100.307705 
L 72.594865 -99.921847 
L 72.552203 -99.535988 
L 72.519608 -99.15013 
z
" style="stroke: #3f3f3f; stroke-width: 1.25"/>
    </defs>
    <g clip-path="url(#p946a256148)">
     <use xlink:href="#m079c14e03a" x="0" y="162" style="fill: #3274a1; stroke: #3f3f3f; stroke-width: 1.25"/>
    </g>
   </g>
   <g id="FillBetweenPolyCollection_2">
    <defs>
     <path id="m8a9a092321" d="M 116.788556 -85.981794 
L 116.675069 -85.981794 
L 116.649087 -86.562566 
L 116.613989 -87.143337 
L 116.567834 -87.724108 
L 116.508746 -88.304879 
L 116.43512 -88.88565 
L 116.345833 -89.466421 
L 116.240465 -90.047192 
L 116.119475 -90.627963 
L 115.984315 -91.208735 
L 115.837437 -91.789506 
L 115.682193 -92.370277 
L 115.522623 -92.951048 
L 115.363145 -93.531819 
L 115.208201 -94.11259 
L 115.06189 -94.693361 
L 114.927645 -95.274133 
L 114.807976 -95.854904 
L 114.70432 -96.435675 
L 114.61698 -97.016446 
L 114.545153 -97.597217 
L 114.487019 -98.177988 
L 114.439875 -98.758759 
L 114.400285 -99.33953 
L 114.364251 -99.920302 
L 114.327397 -100.501073 
L 114.285173 -101.081844 
L 114.233076 -101.662615 
L 114.166893 -102.243386 
L 114.082946 -102.824157 
L 113.978321 -103.404928 
L 113.851051 -103.9857 
L 113.700234 -104.566471 
L 113.526051 -105.147242 
L 113.329679 -105.728013 
L 113.113106 -106.308784 
L 112.878859 -106.889555 
L 112.629705 -107.470326 
L 112.368362 -108.051098 
L 112.097303 -108.631869 
L 111.818705 -109.21264 
L 111.534576 -109.793411 
L 111.247063 -110.374182 
L 110.958885 -110.954953 
L 110.673804 -111.535724 
L 110.397006 -112.116495 
L 110.135271 -112.697267 
L 109.896833 -113.278038 
L 109.690893 -113.858809 
L 109.526821 -114.43958 
L 109.413154 -115.020351 
L 109.356548 -115.601122 
L 109.360868 -116.181893 
L 109.426585 -116.762665 
L 109.550591 -117.343436 
L 109.726469 -117.924207 
L 109.945191 -118.504978 
L 110.196119 -119.085749 
L 110.468166 -119.66652 
L 110.750929 -120.247291 
L 111.035652 -120.828062 
L 111.315877 -121.408834 
L 111.587739 -121.989605 
L 111.849879 -122.570376 
L 112.103041 -123.151147 
L 112.349434 -123.731918 
L 112.591986 -124.312689 
L 112.833595 -124.89346 
L 113.076499 -125.474232 
L 113.321842 -126.055003 
L 113.569469 -126.635774 
L 113.817959 -127.216545 
L 114.064861 -127.797316 
L 114.307071 -128.378087 
L 114.541268 -128.958858 
L 114.76434 -129.53963 
L 114.973728 -130.120401 
L 115.167644 -130.701172 
L 115.34516 -131.281943 
L 115.506164 -131.862714 
L 115.65122 -132.443485 
L 115.781379 -133.024256 
L 115.897971 -133.605027 
L 116.002427 -134.185799 
L 116.096128 -134.76657 
L 116.180321 -135.347341 
L 116.256063 -135.928112 
L 116.324212 -136.508883 
L 116.385442 -137.089654 
L 116.44027 -137.670425 
L 116.489093 -138.251197 
L 116.532227 -138.831968 
L 116.569946 -139.412739 
L 116.602516 -139.99351 
L 116.630226 -140.574281 
L 116.653404 -141.155052 
L 116.67243 -141.735823 
L 116.687732 -142.316594 
L 116.69977 -142.897366 
L 116.709023 -143.478137 
L 116.754602 -143.478137 
L 116.754602 -143.478137 
L 116.763855 -142.897366 
L 116.775893 -142.316594 
L 116.791195 -141.735823 
L 116.810221 -141.155052 
L 116.833399 -140.574281 
L 116.861109 -139.99351 
L 116.893679 -139.412739 
L 116.931398 -138.831968 
L 116.974532 -138.251197 
L 117.023355 -137.670425 
L 117.078183 -137.089654 
L 117.139413 -136.508883 
L 117.207562 -135.928112 
L 117.283304 -135.347341 
L 117.367497 -134.76657 
L 117.461198 -134.185799 
L 117.565654 -133.605027 
L 117.682246 -133.024256 
L 117.812405 -132.443485 
L 117.957461 -131.862714 
L 118.118465 -131.281943 
L 118.295981 -130.701172 
L 118.489897 -130.120401 
L 118.699285 -129.53963 
L 118.922357 -128.958858 
L 119.156554 -128.378087 
L 119.398764 -127.797316 
L 119.645666 -127.216545 
L 119.894156 -126.635774 
L 120.141783 -126.055003 
L 120.387126 -125.474232 
L 120.63003 -124.89346 
L 120.871639 -124.312689 
L 121.114191 -123.731918 
L 121.360584 -123.151147 
L 121.613746 -122.570376 
L 121.875886 -121.989605 
L 122.147748 -121.408834 
L 122.427973 -120.828062 
L 122.712696 -120.247291 
L 122.995459 -119.66652 
L 123.267506 -119.085749 
L 123.518434 -118.504978 
L 123.737156 -117.924207 
L 123.913034 -117.343436 
L 124.03704 -116.762665 
L 124.102757 -116.181893 
L 124.107077 -115.601122 
L 124.050471 -115.020351 
L 123.936804 -114.43958 
L 123.772732 -113.858809 
L 123.566792 -113.278038 
L 123.328354 -112.697267 
L 123.066619 -112.116495 
L 122.789821 -111.535724 
L 122.50474 -110.954953 
L 122.216562 -110.374182 
L 121.929049 -109.793411 
L 121.64492 -109.21264 
L 121.366322 -108.631869 
L 121.095263 -108.051098 
L 120.83392 -107.470326 
L 120.584766 -106.889555 
L 120.350519 -106.308784 
L 120.133946 -105.728013 
L 119.937574 -105.147242 
L 119.763391 -104.566471 
L 119.612574 -103.9857 
L 119.485304 -103.404928 
L 119.380679 -102.824157 
L 119.296732 -102.243386 
L 119.230549 -101.662615 
L 119.178452 -101.081844 
L 119.136228 -100.501073 
L 119.099374 -99.920302 
L 119.06334 -99.33953 
L 119.02375 -98.758759 
L 118.976606 -98.177988 
L 118.918472 -97.597217 
L 118.846645 -97.016446 
L 118.759305 -96.435675 
L 118.655649 -95.854904 
L 118.53598 -95.274133 
L 118.401735 -94.693361 
L 118.255424 -94.11259 
L 118.10048 -93.531819 
L 117.941002 -92.951048 
L 117.781432 -92.370277 
L 117.626188 -91.789506 
L 117.47931 -91.208735 
L 117.34415 -90.627963 
L 117.22316 -90.047192 
L 117.117792 -89.466421 
L 117.028505 -88.88565 
L 116.954879 -88.304879 
L 116.895791 -87.724108 
L 116.849636 -87.143337 
L 116.814538 -86.562566 
L 116.788556 -85.981794 
z
" style="stroke: #3f3f3f; stroke-width: 1.25"/>
    </defs>
    <g clip-path="url(#p946a256148)">
     <use xlink:href="#m8a9a092321" x="0" y="162" style="fill: #3274a1; stroke: #3f3f3f; stroke-width: 1.25"/>
    </g>
   </g>
   <g id="FillBetweenPolyCollection_3">
    <defs>
     <path id="m38e0ab62a3" d="M 161.047205 -89.127293 
L 160.99717 -89.127293 
L 160.984924 -89.633529 
L 160.968425 -90.139765 
L 160.946988 -90.646001 
L 160.920116 -91.152237 
L 160.887584 -91.658473 
L 160.849498 -92.164709 
L 160.806307 -92.670945 
L 160.758746 -93.177181 
L 160.707742 -93.683417 
L 160.654272 -94.189652 
L 160.599224 -94.695888 
L 160.543268 -95.202124 
L 160.486761 -95.70836 
L 160.429673 -96.214596 
L 160.371534 -96.720832 
L 160.311372 -97.227068 
L 160.247654 -97.733304 
L 160.178227 -98.23954 
L 160.100294 -98.745775 
L 160.010471 -99.252011 
L 159.904945 -99.758247 
L 159.779745 -100.264483 
L 159.631109 -100.770719 
L 159.455893 -101.276955 
L 159.251955 -101.783191 
L 159.018449 -102.289427 
L 158.755965 -102.795663 
L 158.466479 -103.301899 
L 158.153116 -103.808134 
L 157.819755 -104.31437 
L 157.470553 -104.820606 
L 157.10947 -105.326842 
L 156.739931 -105.833078 
L 156.364697 -106.339314 
L 155.98602 -106.84555 
L 155.606062 -107.351786 
L 155.22751 -107.858022 
L 154.854224 -108.364257 
L 154.491746 -108.870493 
L 154.147477 -109.376729 
L 153.830403 -109.882965 
L 153.550332 -110.389201 
L 153.316725 -110.895437 
L 153.137301 -111.401673 
L 153.016706 -111.907909 
L 152.955531 -112.414145 
L 152.949919 -112.920381 
L 152.991897 -113.426616 
L 153.070413 -113.932852 
L 153.172888 -114.439088 
L 153.287006 -114.945324 
L 153.402402 -115.45156 
L 153.511937 -115.957796 
L 153.612366 -116.464032 
L 153.704299 -116.970268 
L 153.791519 -117.476504 
L 153.879851 -117.982739 
L 153.975823 -118.488975 
L 154.08542 -118.995211 
L 154.213184 -119.501447 
L 154.361802 -120.007683 
L 154.532197 -120.513919 
L 154.72401 -121.020155 
L 154.936246 -121.526391 
L 155.167846 -122.032627 
L 155.417986 -122.538862 
L 155.686027 -123.045098 
L 155.971165 -123.551334 
L 156.271929 -124.05757 
L 156.585763 -124.563806 
L 156.908834 -125.070042 
L 157.236202 -125.576278 
L 157.562292 -126.082514 
L 157.88156 -126.58875 
L 158.189141 -127.094986 
L 158.481313 -127.601221 
L 158.755662 -128.107457 
L 159.010938 -128.613693 
L 159.246716 -129.119929 
L 159.462997 -129.626165 
L 159.659911 -130.132401 
L 159.837613 -130.638637 
L 159.996353 -131.144873 
L 160.136677 -131.651109 
L 160.2596 -132.157344 
L 160.366685 -132.66358 
L 160.459946 -133.169816 
L 160.541613 -133.676052 
L 160.61382 -134.182288 
L 160.678328 -134.688524 
L 160.736349 -135.19476 
L 160.788521 -135.700996 
L 160.835021 -136.207232 
L 160.87576 -136.713468 
L 160.910604 -137.219703 
L 160.939543 -137.725939 
L 160.962799 -138.232175 
L 160.980837 -138.738411 
L 160.99432 -139.244647 
L 161.050055 -139.244647 
L 161.050055 -139.244647 
L 161.063538 -138.738411 
L 161.081576 -138.232175 
L 161.104832 -137.725939 
L 161.133771 -137.219703 
L 161.168615 -136.713468 
L 161.209354 -136.207232 
L 161.255854 -135.700996 
L 161.308026 -135.19476 
L 161.366047 -134.688524 
L 161.430555 -134.182288 
L 161.502762 -133.676052 
L 161.584429 -133.169816 
L 161.67769 -132.66358 
L 161.784775 -132.157344 
L 161.907698 -131.651109 
L 162.048022 -131.144873 
L 162.206762 -130.638637 
L 162.384464 -130.132401 
L 162.581378 -129.626165 
L 162.797659 -129.119929 
L 163.033437 -128.613693 
L 163.288713 -128.107457 
L 163.563062 -127.601221 
L 163.855234 -127.094986 
L 164.162815 -126.58875 
L 164.482083 -126.082514 
L 164.808173 -125.576278 
L 165.135541 -125.070042 
L 165.458612 -124.563806 
L 165.772446 -124.05757 
L 166.07321 -123.551334 
L 166.358348 -123.045098 
L 166.626389 -122.538862 
L 166.876529 -122.032627 
L 167.108129 -121.526391 
L 167.320365 -121.020155 
L 167.512178 -120.513919 
L 167.682573 -120.007683 
L 167.831191 -119.501447 
L 167.958955 -118.995211 
L 168.068552 -118.488975 
L 168.164524 -117.982739 
L 168.252856 -117.476504 
L 168.340076 -116.970268 
L 168.432009 -116.464032 
L 168.532438 -115.957796 
L 168.641973 -115.45156 
L 168.757369 -114.945324 
L 168.871487 -114.439088 
L 168.973962 -113.932852 
L 169.052478 -113.426616 
L 169.094456 -112.920381 
L 169.088844 -112.414145 
L 169.027669 -111.907909 
L 168.907074 -111.401673 
L 168.72765 -110.895437 
L 168.494043 -110.389201 
L 168.213972 -109.882965 
L 167.896898 -109.376729 
L 167.552629 -108.870493 
L 167.190151 -108.364257 
L 166.816865 -107.858022 
L 166.438313 -107.351786 
L 166.058355 -106.84555 
L 165.679678 -106.339314 
L 165.304444 -105.833078 
L 164.934905 -105.326842 
L 164.573822 -104.820606 
L 164.22462 -104.31437 
L 163.891259 -103.808134 
L 163.577896 -103.301899 
L 163.28841 -102.795663 
L 163.025926 -102.289427 
L 162.79242 -101.783191 
L 162.588482 -101.276955 
L 162.413266 -100.770719 
L 162.26463 -100.264483 
L 162.13943 -99.758247 
L 162.033904 -99.252011 
L 161.944081 -98.745775 
L 161.866148 -98.23954 
L 161.796721 -97.733304 
L 161.733003 -97.227068 
L 161.672841 -96.720832 
L 161.614702 -96.214596 
L 161.557614 -95.70836 
L 161.501107 -95.202124 
L 161.445151 -94.695888 
L 161.390103 -94.189652 
L 161.336633 -93.683417 
L 161.285629 -93.177181 
L 161.238068 -92.670945 
L 161.194877 -92.164709 
L 161.156791 -91.658473 
L 161.124259 -91.152237 
L 161.097387 -90.646001 
L 161.07595 -90.139765 
L 161.059451 -89.633529 
L 161.047205 -89.127293 
z
" style="stroke: #3f3f3f; stroke-width: 1.25"/>
    </defs>
    <g clip-path="url(#p946a256148)">
     <use xlink:href="#m38e0ab62a3" x="0" y="162" style="fill: #3274a1; stroke: #3f3f3f; stroke-width: 1.25"/>
    </g>
   </g>
   <g id="FillBetweenPolyCollection_4">
    <defs>
     <path id="m147a508b12" d="M 205.325951 -85.196745 
L 205.299174 -85.196745 
L 205.289081 -85.825695 
L 205.273619 -86.454645 
L 205.251356 -87.083595 
L 205.221181 -87.712545 
L 205.18261 -88.341496 
L 205.135998 -88.970446 
L 205.082577 -89.599396 
L 205.024252 -90.228346 
L 204.963186 -90.857296 
L 204.901291 -91.486246 
L 204.839796 -92.115197 
L 204.779089 -92.744147 
L 204.718894 -93.373097 
L 204.658704 -94.002047 
L 204.598165 -94.630997 
L 204.537127 -95.259948 
L 204.475178 -95.888898 
L 204.410853 -96.517848 
L 204.340958 -97.146798 
L 204.260484 -97.775748 
L 204.163324 -98.404699 
L 204.043601 -99.033649 
L 203.897066 -99.662599 
L 203.722023 -100.291549 
L 203.519431 -100.920499 
L 203.292197 -101.549449 
L 203.04388 -102.1784 
L 202.777149 -102.80735 
L 202.492329 -103.4363 
L 202.186354 -104.06525 
L 201.85254 -104.6942 
L 201.481586 -105.323151 
L 201.064049 -105.952101 
L 200.594052 -106.581051 
L 200.073398 -107.210001 
L 199.514758 -107.838951 
L 198.942573 -108.467902 
L 198.39089 -109.096852 
L 197.898352 -109.725802 
L 197.501527 -110.354752 
L 197.228354 -110.983702 
L 197.093356 -111.612653 
L 197.095657 -112.241603 
L 197.220071 -112.870553 
L 197.440824 -113.499503 
L 197.726967 -114.128453 
L 198.048345 -114.757403 
L 198.380812 -115.386354 
L 198.70959 -116.015304 
L 199.030034 -116.644254 
L 199.34571 -117.273204 
L 199.664431 -117.902154 
L 199.993488 -118.531105 
L 200.335533 -119.160055 
L 200.686358 -119.789005 
L 201.035139 -120.417955 
L 201.366898 -121.046905 
L 201.666199 -121.675856 
L 201.920801 -122.304806 
L 202.124182 -122.933756 
L 202.276397 -123.562706 
L 202.383354 -124.191656 
L 202.455069 -124.820606 
L 202.503545 -125.449557 
L 202.540793 -126.078507 
L 202.577279 -126.707457 
L 202.620871 -127.336407 
L 202.676336 -127.965357 
L 202.745407 -128.594308 
L 202.827399 -129.223258 
L 202.920209 -129.852208 
L 203.021375 -130.481158 
L 203.128824 -131.110108 
L 203.241091 -131.739059 
L 203.357083 -132.368009 
L 203.475672 -132.996959 
L 203.595442 -133.625909 
L 203.714746 -134.254859 
L 203.831945 -134.88381 
L 203.945646 -135.51276 
L 204.054797 -136.14171 
L 204.15868 -136.77066 
L 204.256948 -137.39961 
L 204.349753 -138.02856 
L 204.43788 -138.657511 
L 204.522712 -139.286461 
L 204.60591 -139.915411 
L 204.688867 -140.544361 
L 204.772157 -141.173311 
L 204.855209 -141.802262 
L 204.936335 -142.431212 
L 205.013098 -143.060162 
L 205.082882 -143.689112 
L 205.143468 -144.318062 
L 205.193484 -144.947013 
L 205.23261 -145.575963 
L 205.261529 -146.204913 
L 205.281678 -146.833863 
L 205.294883 -147.462813 
L 205.330242 -147.462813 
L 205.330242 -147.462813 
L 205.343447 -146.833863 
L 205.363596 -146.204913 
L 205.392515 -145.575963 
L 205.431641 -144.947013 
L 205.481657 -144.318062 
L 205.542243 -143.689112 
L 205.612027 -143.060162 
L 205.68879 -142.431212 
L 205.769916 -141.802262 
L 205.852968 -141.173311 
L 205.936258 -140.544361 
L 206.019215 -139.915411 
L 206.102413 -139.286461 
L 206.187245 -138.657511 
L 206.275372 -138.02856 
L 206.368177 -137.39961 
L 206.466445 -136.77066 
L 206.570328 -136.14171 
L 206.679479 -135.51276 
L 206.79318 -134.88381 
L 206.910379 -134.254859 
L 207.029683 -133.625909 
L 207.149453 -132.996959 
L 207.268042 -132.368009 
L 207.384034 -131.739059 
L 207.496301 -131.110108 
L 207.60375 -130.481158 
L 207.704916 -129.852208 
L 207.797726 -129.223258 
L 207.879718 -128.594308 
L 207.948789 -127.965357 
L 208.004254 -127.336407 
L 208.047846 -126.707457 
L 208.084332 -126.078507 
L 208.12158 -125.449557 
L 208.170056 -124.820606 
L 208.241771 -124.191656 
L 208.348728 -123.562706 
L 208.500943 -122.933756 
L 208.704324 -122.304806 
L 208.958926 -121.675856 
L 209.258227 -121.046905 
L 209.589986 -120.417955 
L 209.938767 -119.789005 
L 210.289592 -119.160055 
L 210.631637 -118.531105 
L 210.960694 -117.902154 
L 211.279415 -117.273204 
L 211.595091 -116.644254 
L 211.915535 -116.015304 
L 212.244313 -115.386354 
L 212.57678 -114.757403 
L 212.898158 -114.128453 
L 213.184301 -113.499503 
L 213.405054 -112.870553 
L 213.529468 -112.241603 
L 213.531769 -111.612653 
L 213.396771 -110.983702 
L 213.123598 -110.354752 
L 212.726773 -109.725802 
L 212.234235 -109.096852 
L 211.682552 -108.467902 
L 211.110367 -107.838951 
L 210.551727 -107.210001 
L 210.031073 -106.581051 
L 209.561076 -105.952101 
L 209.143539 -105.323151 
L 208.772585 -104.6942 
L 208.438771 -104.06525 
L 208.132796 -103.4363 
L 207.847976 -102.80735 
L 207.581245 -102.1784 
L 207.332928 -101.549449 
L 207.105694 -100.920499 
L 206.903102 -100.291549 
L 206.728059 -99.662599 
L 206.581524 -99.033649 
L 206.461801 -98.404699 
L 206.364641 -97.775748 
L 206.284167 -97.146798 
L 206.214272 -96.517848 
L 206.149947 -95.888898 
L 206.087998 -95.259948 
L 206.02696 -94.630997 
L 205.966421 -94.002047 
L 205.906231 -93.373097 
L 205.846036 -92.744147 
L 205.785329 -92.115197 
L 205.723834 -91.486246 
L 205.661939 -90.857296 
L 205.600873 -90.228346 
L 205.542548 -89.599396 
L 205.489127 -88.970446 
L 205.442515 -88.341496 
L 205.403944 -87.712545 
L 205.373769 -87.083595 
L 205.351506 -86.454645 
L 205.336044 -85.825695 
L 205.325951 -85.196745 
z
" style="stroke: #3f3f3f; stroke-width: 1.25"/>
    </defs>
    <g clip-path="url(#p946a256148)">
     <use xlink:href="#m147a508b12" x="0" y="162" style="fill: #3274a1; stroke: #3f3f3f; stroke-width: 1.25"/>
    </g>
   </g>
   <g id="FillBetweenPolyCollection_5">
    <defs>
     <path id="md65b8cfae2" d="M 249.659119 -82.288393 
L 249.546756 -82.288393 
L 249.5218 -82.858392 
L 249.488424 -83.42839 
L 249.444925 -83.998389 
L 249.389668 -84.568388 
L 249.321236 -85.138387 
L 249.238594 -85.708386 
L 249.141247 -86.278384 
L 249.029377 -86.848383 
L 248.903935 -87.418382 
L 248.766666 -87.988381 
L 248.620078 -88.558379 
L 248.467335 -89.128378 
L 248.312092 -89.698377 
L 248.158285 -90.268376 
L 248.009894 -90.838375 
L 247.870698 -91.408373 
L 247.744042 -91.978372 
L 247.632642 -92.548371 
L 247.538421 -93.11837 
L 247.462404 -93.688368 
L 247.404672 -94.258367 
L 247.364354 -94.828366 
L 247.339674 -95.398365 
L 247.328028 -95.968363 
L 247.326084 -96.538362 
L 247.329897 -97.108361 
L 247.335041 -97.67836 
L 247.336743 -98.248359 
L 247.330041 -98.818357 
L 247.309954 -99.388356 
L 247.271667 -99.958355 
L 247.210726 -100.528354 
L 247.123222 -101.098352 
L 247.005966 -101.668351 
L 246.856624 -102.23835 
L 246.673824 -102.808349 
L 246.457229 -103.378348 
L 246.207584 -103.948346 
L 245.926751 -104.518345 
L 245.617731 -105.088344 
L 245.284676 -105.658343 
L 244.932863 -106.228341 
L 244.568611 -106.79834 
L 244.199123 -107.368339 
L 243.832227 -107.938338 
L 243.476034 -108.508337 
L 243.138542 -109.078335 
L 242.827237 -109.648334 
L 242.548767 -110.218333 
L 242.308723 -110.788332 
L 242.111587 -111.35833 
L 241.960823 -111.928329 
L 241.85907 -112.498328 
L 241.808363 -113.068327 
L 241.810276 -113.638326 
L 241.865931 -114.208324 
L 241.975807 -114.778323 
L 242.139387 -115.348322 
L 242.354716 -115.918321 
L 242.617986 -116.488319 
L 242.923282 -117.058318 
L 243.262608 -117.628317 
L 243.62625 -118.198316 
L 244.003449 -118.768314 
L 244.383308 -119.338313 
L 244.755772 -119.908312 
L 245.112526 -120.478311 
L 245.447659 -121.04831 
L 245.757981 -121.618308 
L 246.042975 -122.188307 
L 246.304403 -122.758306 
L 246.54567 -123.328305 
L 246.771053 -123.898303 
L 246.984938 -124.468302 
L 247.19116 -125.038301 
L 247.392528 -125.6083 
L 247.590582 -126.178299 
L 247.785558 -126.748297 
L 247.976555 -127.318296 
L 248.161828 -127.888295 
L 248.339164 -128.458294 
L 248.506266 -129.028292 
L 248.661089 -129.598291 
L 248.802092 -130.16829 
L 248.928384 -130.738289 
L 249.039752 -131.308288 
L 249.136602 -131.878286 
L 249.219826 -132.448285 
L 249.290635 -133.018284 
L 249.350399 -133.588283 
L 249.400502 -134.158281 
L 249.442247 -134.72828 
L 249.476803 -135.298279 
L 249.505186 -135.868278 
L 249.528272 -136.438276 
L 249.546822 -137.008275 
L 249.561509 -137.578274 
L 249.572936 -138.148273 
L 249.581656 -138.718272 
L 249.624219 -138.718272 
L 249.624219 -138.718272 
L 249.632939 -138.148273 
L 249.644366 -137.578274 
L 249.659053 -137.008275 
L 249.677603 -136.438276 
L 249.700689 -135.868278 
L 249.729072 -135.298279 
L 249.763628 -134.72828 
L 249.805373 -134.158281 
L 249.855476 -133.588283 
L 249.91524 -133.018284 
L 249.986049 -132.448285 
L 250.069273 -131.878286 
L 250.166123 -131.308288 
L 250.277491 -130.738289 
L 250.403783 -130.16829 
L 250.544786 -129.598291 
L 250.699609 -129.028292 
L 250.866711 -128.458294 
L 251.044047 -127.888295 
L 251.22932 -127.318296 
L 251.420317 -126.748297 
L 251.615293 -126.178299 
L 251.813347 -125.6083 
L 252.014715 -125.038301 
L 252.220937 -124.468302 
L 252.434822 -123.898303 
L 252.660205 -123.328305 
L 252.901472 -122.758306 
L 253.1629 -122.188307 
L 253.447894 -121.618308 
L 253.758216 -121.04831 
L 254.093349 -120.478311 
L 254.450103 -119.908312 
L 254.822567 -119.338313 
L 255.202426 -118.768314 
L 255.579625 -118.198316 
L 255.943267 -117.628317 
L 256.282593 -117.058318 
L 256.587889 -116.488319 
L 256.851159 -115.918321 
L 257.066488 -115.348322 
L 257.230068 -114.778323 
L 257.339944 -114.208324 
L 257.395599 -113.638326 
L 257.397512 -113.068327 
L 257.346805 -112.498328 
L 257.245052 -111.928329 
L 257.094288 -111.35833 
L 256.897152 -110.788332 
L 256.657108 -110.218333 
L 256.378638 -109.648334 
L 256.067333 -109.078335 
L 255.729841 -108.508337 
L 255.373648 -107.938338 
L 255.006752 -107.368339 
L 254.637264 -106.79834 
L 254.273012 -106.228341 
L 253.921199 -105.658343 
L 253.588144 -105.088344 
L 253.279124 -104.518345 
L 252.998291 -103.948346 
L 252.748646 -103.378348 
L 252.532051 -102.808349 
L 252.349251 -102.23835 
L 252.199909 -101.668351 
L 252.082653 -101.098352 
L 251.995149 -100.528354 
L 251.934208 -99.958355 
L 251.895921 -99.388356 
L 251.875834 -98.818357 
L 251.869132 -98.248359 
L 251.870834 -97.67836 
L 251.875978 -97.108361 
L 251.879791 -96.538362 
L 251.877847 -95.968363 
L 251.866201 -95.398365 
L 251.841521 -94.828366 
L 251.801203 -94.258367 
L 251.743471 -93.688368 
L 251.667454 -93.11837 
L 251.573233 -92.548371 
L 251.461833 -91.978372 
L 251.335177 -91.408373 
L 251.195981 -90.838375 
L 251.04759 -90.268376 
L 250.893783 -89.698377 
L 250.73854 -89.128378 
L 250.585797 -88.558379 
L 250.439209 -87.988381 
L 250.30194 -87.418382 
L 250.176498 -86.848383 
L 250.064628 -86.278384 
L 249.967281 -85.708386 
L 249.884639 -85.138387 
L 249.816207 -84.568388 
L 249.76095 -83.998389 
L 249.717451 -83.42839 
L 249.684075 -82.858392 
L 249.659119 -82.288393 
z
" style="stroke: #3f3f3f; stroke-width: 1.25"/>
    </defs>
    <g clip-path="url(#p946a256148)">
     <use xlink:href="#md65b8cfae2" x="0" y="162" style="fill: #3274a1; stroke: #3f3f3f; stroke-width: 1.25"/>
    </g>
   </g>
   <g id="FillBetweenPolyCollection_6">
    <defs>
     <path id="m75e0f2bf2d" d="M 293.929325 -81.22916 
L 293.8573 -81.22916 
L 293.841659 -81.791713 
L 293.820704 -82.354266 
L 293.793215 -82.916819 
L 293.757876 -83.479372 
L 293.71331 -84.041924 
L 293.658115 -84.604477 
L 293.590907 -85.16703 
L 293.510359 -85.729583 
L 293.415247 -86.292136 
L 293.304518 -86.854688 
L 293.177367 -87.417241 
L 293.033359 -87.979794 
L 292.872591 -88.542347 
L 292.69588 -89.1049 
L 292.504968 -89.667452 
L 292.30271 -90.230005 
L 292.093186 -90.792558 
L 291.881697 -91.355111 
L 291.674594 -91.917663 
L 291.478928 -92.480216 
L 291.301917 -93.042769 
L 291.15028 -93.605322 
L 291.029522 -94.167875 
L 290.943261 -94.730427 
L 290.892698 -95.29298 
L 290.876322 -95.855533 
L 290.889892 -96.418086 
L 290.926698 -96.980639 
L 290.978063 -97.543191 
L 291.033998 -98.105744 
L 291.083935 -98.668297 
L 291.117423 -99.23085 
L 291.124748 -99.793403 
L 291.097418 -100.355955 
L 291.028541 -100.918508 
L 290.913085 -101.481061 
L 290.748093 -102.043614 
L 290.532844 -102.606167 
L 290.268979 -103.168719 
L 289.96058 -103.731272 
L 289.614142 -104.293825 
L 289.238417 -104.856378 
L 288.844078 -105.41893 
L 288.443192 -105.981483 
L 288.04854 -106.544036 
L 287.672824 -107.106589 
L 287.327858 -107.669142 
L 287.02383 -108.231694 
L 286.76872 -108.794247 
L 286.567941 -109.3568 
L 286.424231 -109.919353 
L 286.337781 -110.481906 
L 286.306572 -111.044458 
L 286.326853 -111.607011 
L 286.393702 -112.169564 
L 286.501608 -112.732117 
L 286.645006 -113.29467 
L 286.818736 -113.857222 
L 287.018372 -114.419775 
L 287.240417 -114.982328 
L 287.482319 -115.544881 
L 287.74234 -116.107434 
L 288.019269 -116.669986 
L 288.312035 -117.232539 
L 288.619279 -117.795092 
L 288.938951 -118.357645 
L 289.268029 -118.920198 
L 289.602407 -119.48275 
L 289.937007 -120.045303 
L 290.266098 -120.607856 
L 290.583793 -121.170409 
L 290.884636 -121.732961 
L 291.164177 -122.295514 
L 291.419437 -122.858067 
L 291.649178 -123.42062 
L 291.853932 -123.983173 
L 292.035785 -124.545725 
L 292.197975 -125.108278 
L 292.344357 -125.670831 
L 292.478853 -126.233384 
L 292.604956 -126.795937 
L 292.725379 -127.358489 
L 292.841857 -127.921042 
L 292.955133 -128.483595 
L 293.065084 -129.046148 
L 293.170943 -129.608701 
L 293.271569 -130.171253 
L 293.365705 -130.733806 
L 293.452205 -131.296359 
L 293.530184 -131.858912 
L 293.599113 -132.421465 
L 293.658838 -132.984017 
L 293.709561 -133.54657 
L 293.751779 -134.109123 
L 293.786215 -134.671676 
L 293.813738 -135.234228 
L 293.835285 -135.796781 
L 293.851806 -136.359334 
L 293.864206 -136.921887 
L 293.922419 -136.921887 
L 293.922419 -136.921887 
L 293.934819 -136.359334 
L 293.95134 -135.796781 
L 293.972887 -135.234228 
L 294.00041 -134.671676 
L 294.034846 -134.109123 
L 294.077064 -133.54657 
L 294.127787 -132.984017 
L 294.187512 -132.421465 
L 294.256441 -131.858912 
L 294.33442 -131.296359 
L 294.42092 -130.733806 
L 294.515056 -130.171253 
L 294.615682 -129.608701 
L 294.721541 -129.046148 
L 294.831492 -128.483595 
L 294.944768 -127.921042 
L 295.061246 -127.358489 
L 295.181669 -126.795937 
L 295.307772 -126.233384 
L 295.442268 -125.670831 
L 295.58865 -125.108278 
L 295.75084 -124.545725 
L 295.932693 -123.983173 
L 296.137447 -123.42062 
L 296.367188 -122.858067 
L 296.622448 -122.295514 
L 296.901989 -121.732961 
L 297.202832 -121.170409 
L 297.520527 -120.607856 
L 297.849618 -120.045303 
L 298.184218 -119.48275 
L 298.518596 -118.920198 
L 298.847674 -118.357645 
L 299.167346 -117.795092 
L 299.47459 -117.232539 
L 299.767356 -116.669986 
L 300.044285 -116.107434 
L 300.304306 -115.544881 
L 300.546208 -114.982328 
L 300.768253 -114.419775 
L 300.967889 -113.857222 
L 301.141619 -113.29467 
L 301.285017 -112.732117 
L 301.392923 -112.169564 
L 301.459772 -111.607011 
L 301.480053 -111.044458 
L 301.448844 -110.481906 
L 301.362394 -109.919353 
L 301.218684 -109.3568 
L 301.017905 -108.794247 
L 300.762795 -108.231694 
L 300.458767 -107.669142 
L 300.113801 -107.106589 
L 299.738085 -106.544036 
L 299.343433 -105.981483 
L 298.942547 -105.41893 
L 298.548208 -104.856378 
L 298.172483 -104.293825 
L 297.826045 -103.731272 
L 297.517646 -103.168719 
L 297.253781 -102.606167 
L 297.038532 -102.043614 
L 296.87354 -101.481061 
L 296.758084 -100.918508 
L 296.689207 -100.355955 
L 296.661877 -99.793403 
L 296.669202 -99.23085 
L 296.70269 -98.668297 
L 296.752627 -98.105744 
L 296.808562 -97.543191 
L 296.859927 -96.980639 
L 296.896733 -96.418086 
L 296.910303 -95.855533 
L 296.893927 -95.29298 
L 296.843364 -94.730427 
L 296.757103 -94.167875 
L 296.636345 -93.605322 
L 296.484708 -93.042769 
L 296.307697 -92.480216 
L 296.112031 -91.917663 
L 295.904928 -91.355111 
L 295.693439 -90.792558 
L 295.483915 -90.230005 
L 295.281657 -89.667452 
L 295.090745 -89.1049 
L 294.914034 -88.542347 
L 294.753266 -87.979794 
L 294.609258 -87.417241 
L 294.482107 -86.854688 
L 294.371378 -86.292136 
L 294.276266 -85.729583 
L 294.195718 -85.16703 
L 294.12851 -84.604477 
L 294.073315 -84.041924 
L 294.028749 -83.479372 
L 293.99341 -82.916819 
L 293.965921 -82.354266 
L 293.944966 -81.791713 
L 293.929325 -81.22916 
z
" style="stroke: #3f3f3f; stroke-width: 1.25"/>
    </defs>
    <g clip-path="url(#p946a256148)">
     <use xlink:href="#m75e0f2bf2d" x="0" y="162" style="fill: #3274a1; stroke: #3f3f3f; stroke-width: 1.25"/>
    </g>
   </g>
   <g id="FillBetweenPolyCollection_7">
    <defs>
     <path id="mdaf8cb765f" d="M 338.246608 -88.625035 
L 338.120767 -88.625035 
L 338.088235 -89.02732 
L 338.042919 -89.429605 
L 337.98178 -89.831891 
L 337.901863 -90.234176 
L 337.800623 -90.636461 
L 337.676261 -91.038746 
L 337.528015 -91.441031 
L 337.356342 -91.843316 
L 337.162912 -92.245602 
L 336.950402 -92.647887 
L 336.722102 -93.050172 
L 336.481383 -93.452457 
L 336.231164 -93.854742 
L 335.973475 -94.257027 
L 335.709245 -94.659313 
L 335.43838 -95.061598 
L 335.160106 -95.463883 
L 334.873517 -95.866168 
L 334.578163 -96.268453 
L 334.274523 -96.670738 
L 333.964222 -97.073024 
L 333.649918 -97.475309 
L 333.334878 -97.877594 
L 333.02237 -98.279879 
L 332.71503 -98.682164 
L 332.414404 -99.084449 
L 332.120804 -99.486735 
L 331.833521 -99.88902 
L 331.551342 -100.291305 
L 331.273223 -100.69359 
L 330.998922 -101.095875 
L 330.729427 -101.49816 
L 330.467072 -101.900445 
L 330.215323 -102.302731 
L 329.978351 -102.705016 
L 329.760495 -103.107301 
L 329.565786 -103.509586 
L 329.397601 -103.911871 
L 329.258484 -104.314156 
L 329.150079 -104.716442 
L 329.073092 -105.118727 
L 329.027232 -105.521012 
L 329.011089 -105.923297 
L 329.022026 -106.325582 
L 329.05617 -106.727867 
L 329.108623 -107.130153 
L 329.173955 -107.532438 
L 329.24698 -107.934723 
L 329.323702 -108.337008 
L 329.402227 -108.739293 
L 329.483442 -109.141578 
L 329.571229 -109.543864 
L 329.672114 -109.946149 
L 329.794346 -110.348434 
L 329.946554 -110.750719 
L 330.136232 -111.153004 
L 330.368352 -111.555289 
L 330.644402 -111.957575 
L 330.962043 -112.35986 
L 331.315453 -112.762145 
L 331.696264 -113.16443 
L 332.094872 -113.566715 
L 332.501814 -113.969 
L 332.908926 -114.371286 
L 333.310054 -114.773571 
L 333.701224 -115.175856 
L 334.080321 -115.578141 
L 334.446431 -115.980426 
L 334.799075 -116.382711 
L 335.137551 -116.784997 
L 335.460547 -117.187282 
L 335.766087 -117.589567 
L 336.051777 -117.991852 
L 336.315232 -118.394137 
L 336.554548 -118.796422 
L 336.768661 -119.198707 
L 336.957536 -119.600993 
L 337.122128 -120.003278 
L 337.264186 -120.405563 
L 337.385957 -120.807848 
L 337.489896 -121.210133 
L 337.578439 -121.612418 
L 337.653877 -122.014704 
L 337.718315 -122.416989 
L 337.773689 -122.819274 
L 337.82178 -123.221559 
L 337.864209 -123.623844 
L 337.902387 -124.026129 
L 337.937447 -124.428415 
L 337.970178 -124.8307 
L 338.000999 -125.232985 
L 338.029983 -125.63527 
L 338.05694 -126.037555 
L 338.081531 -126.43984 
L 338.103398 -126.842126 
L 338.122268 -127.244411 
L 338.138024 -127.646696 
L 338.15073 -128.048981 
L 338.160616 -128.451266 
L 338.206759 -128.451266 
L 338.206759 -128.451266 
L 338.216645 -128.048981 
L 338.229351 -127.646696 
L 338.245107 -127.244411 
L 338.263977 -126.842126 
L 338.285844 -126.43984 
L 338.310435 -126.037555 
L 338.337392 -125.63527 
L 338.366376 -125.232985 
L 338.397197 -124.8307 
L 338.429928 -124.428415 
L 338.464988 -124.026129 
L 338.503166 -123.623844 
L 338.545595 -123.221559 
L 338.593686 -122.819274 
L 338.64906 -122.416989 
L 338.713498 -122.014704 
L 338.788936 -121.612418 
L 338.877479 -121.210133 
L 338.981418 -120.807848 
L 339.103189 -120.405563 
L 339.245247 -120.003278 
L 339.409839 -119.600993 
L 339.598714 -119.198707 
L 339.812827 -118.796422 
L 340.052143 -118.394137 
L 340.315598 -117.991852 
L 340.601288 -117.589567 
L 340.906828 -117.187282 
L 341.229824 -116.784997 
L 341.5683 -116.382711 
L 341.920944 -115.980426 
L 342.287054 -115.578141 
L 342.666151 -115.175856 
L 343.057321 -114.773571 
L 343.458449 -114.371286 
L 343.865561 -113.969 
L 344.272503 -113.566715 
L 344.671111 -113.16443 
L 345.051922 -112.762145 
L 345.405332 -112.35986 
L 345.722973 -111.957575 
L 345.999023 -111.555289 
L 346.231143 -111.153004 
L 346.420821 -110.750719 
L 346.573029 -110.348434 
L 346.695261 -109.946149 
L 346.796146 -109.543864 
L 346.883933 -109.141578 
L 346.965148 -108.739293 
L 347.043673 -108.337008 
L 347.120395 -107.934723 
L 347.19342 -107.532438 
L 347.258752 -107.130153 
L 347.311205 -106.727867 
L 347.345349 -106.325582 
L 347.356286 -105.923297 
L 347.340143 -105.521012 
L 347.294283 -105.118727 
L 347.217296 -104.716442 
L 347.108891 -104.314156 
L 346.969774 -103.911871 
L 346.801589 -103.509586 
L 346.60688 -103.107301 
L 346.389024 -102.705016 
L 346.152052 -102.302731 
L 345.900303 -101.900445 
L 345.637948 -101.49816 
L 345.368453 -101.095875 
L 345.094152 -100.69359 
L 344.816033 -100.291305 
L 344.533854 -99.88902 
L 344.246571 -99.486735 
L 343.952971 -99.084449 
L 343.652345 -98.682164 
L 343.345005 -98.279879 
L 343.032497 -97.877594 
L 342.717457 -97.475309 
L 342.403153 -97.073024 
L 342.092852 -96.670738 
L 341.789212 -96.268453 
L 341.493858 -95.866168 
L 341.207269 -95.463883 
L 340.928995 -95.061598 
L 340.65813 -94.659313 
L 340.3939 -94.257027 
L 340.136211 -93.854742 
L 339.885992 -93.452457 
L 339.645273 -93.050172 
L 339.416973 -92.647887 
L 339.204463 -92.245602 
L 339.011033 -91.843316 
L 338.83936 -91.441031 
L 338.691114 -91.038746 
L 338.566752 -90.636461 
L 338.465512 -90.234176 
L 338.385595 -89.831891 
L 338.324456 -89.429605 
L 338.27914 -89.02732 
L 338.246608 -88.625035 
z
" style="stroke: #3f3f3f; stroke-width: 1.25"/>
    </defs>
    <g clip-path="url(#p946a256148)">
     <use xlink:href="#mdaf8cb765f" x="0" y="162" style="fill: #3274a1; stroke: #3f3f3f; stroke-width: 1.25"/>
    </g>
   </g>
   <g id="FillBetweenPolyCollection_8">
    <defs>
     <path id="me76baa3a7d" d="M 382.505232 -72.719079 
L 382.442893 -72.719079 
L 382.430408 -73.267987 
L 382.41415 -73.816895 
L 382.393436 -74.365803 
L 382.367585 -74.914711 
L 382.335946 -75.463619 
L 382.29791 -76.012527 
L 382.252914 -76.561434 
L 382.200426 -77.110342 
L 382.139923 -77.65925 
L 382.070864 -78.208158 
L 381.99267 -78.757066 
L 381.904734 -79.305974 
L 381.806466 -79.854882 
L 381.697394 -80.403789 
L 381.577307 -80.952697 
L 381.446435 -81.501605 
L 381.305632 -82.050513 
L 381.156537 -82.599421 
L 381.001651 -83.148329 
L 380.844316 -83.697237 
L 380.688562 -84.246144 
L 380.538815 -84.795052 
L 380.399508 -85.34396 
L 380.274618 -85.892868 
L 380.167217 -86.441776 
L 380.079074 -86.990684 
L 380.010407 -87.539592 
L 379.959789 -88.088499 
L 379.924261 -88.637407 
L 379.899601 -89.186315 
L 379.880743 -89.735223 
L 379.862252 -90.284131 
L 379.838802 -90.833039 
L 379.805588 -91.381946 
L 379.75861 -91.930854 
L 379.694828 -92.479762 
L 379.61216 -93.02867 
L 379.509379 -93.577578 
L 379.38594 -94.126486 
L 379.241789 -94.675394 
L 379.07722 -95.224301 
L 378.892787 -95.773209 
L 378.689308 -96.322117 
L 378.467933 -96.871025 
L 378.230249 -97.419933 
L 377.978385 -97.968841 
L 377.715076 -98.517749 
L 377.443655 -99.066656 
L 377.167975 -99.615564 
L 376.892275 -100.164472 
L 376.621011 -100.71338 
L 376.358708 -101.262288 
L 376.109845 -101.811196 
L 375.878811 -102.360104 
L 375.669912 -102.909011 
L 375.487399 -103.457919 
L 375.335494 -104.006827 
L 375.218346 -104.555735 
L 375.139903 -105.104643 
L 375.103684 -105.653551 
L 375.112463 -106.202458 
L 375.167926 -106.751366 
L 375.270348 -107.300274 
L 375.418358 -107.849182 
L 375.608857 -108.39809 
L 375.837106 -108.946998 
L 376.096987 -109.495906 
L 376.381424 -110.044813 
L 376.682882 -110.593721 
L 376.993911 -111.142629 
L 377.307636 -111.691537 
L 377.618171 -112.240445 
L 377.920888 -112.789353 
L 378.21255 -113.338261 
L 378.491307 -113.887168 
L 378.756568 -114.436076 
L 379.008791 -114.984984 
L 379.249221 -115.533892 
L 379.479589 -116.0828 
L 379.701827 -116.631708 
L 379.917789 -117.180616 
L 380.129013 -117.729523 
L 380.336527 -118.278431 
L 380.540725 -118.827339 
L 380.741304 -119.376247 
L 380.937292 -119.925155 
L 381.127144 -120.474063 
L 381.308913 -121.022971 
L 381.480464 -121.571878 
L 381.639711 -122.120786 
L 381.784842 -122.669694 
L 381.914509 -123.218602 
L 382.027949 -123.76751 
L 382.12504 -124.316418 
L 382.206275 -124.865325 
L 382.272685 -125.414233 
L 382.325708 -125.963141 
L 382.36704 -126.512049 
L 382.398489 -127.060957 
L 382.549636 -127.060957 
L 382.549636 -127.060957 
L 382.581085 -126.512049 
L 382.622417 -125.963141 
L 382.67544 -125.414233 
L 382.74185 -124.865325 
L 382.823085 -124.316418 
L 382.920176 -123.76751 
L 383.033616 -123.218602 
L 383.163283 -122.669694 
L 383.308414 -122.120786 
L 383.467661 -121.571878 
L 383.639212 -121.022971 
L 383.820981 -120.474063 
L 384.010833 -119.925155 
L 384.206821 -119.376247 
L 384.4074 -118.827339 
L 384.611598 -118.278431 
L 384.819112 -117.729523 
L 385.030336 -117.180616 
L 385.246298 -116.631708 
L 385.468536 -116.0828 
L 385.698904 -115.533892 
L 385.939334 -114.984984 
L 386.191557 -114.436076 
L 386.456818 -113.887168 
L 386.735575 -113.338261 
L 387.027237 -112.789353 
L 387.329954 -112.240445 
L 387.640489 -111.691537 
L 387.954214 -111.142629 
L 388.265243 -110.593721 
L 388.566701 -110.044813 
L 388.851138 -109.495906 
L 389.111019 -108.946998 
L 389.339268 -108.39809 
L 389.529767 -107.849182 
L 389.677777 -107.300274 
L 389.780199 -106.751366 
L 389.835662 -106.202458 
L 389.844441 -105.653551 
L 389.808222 -105.104643 
L 389.729779 -104.555735 
L 389.612631 -104.006827 
L 389.460726 -103.457919 
L 389.278213 -102.909011 
L 389.069314 -102.360104 
L 388.83828 -101.811196 
L 388.589417 -101.262288 
L 388.327114 -100.71338 
L 388.05585 -100.164472 
L 387.78015 -99.615564 
L 387.50447 -99.066656 
L 387.233049 -98.517749 
L 386.96974 -97.968841 
L 386.717876 -97.419933 
L 386.480192 -96.871025 
L 386.258817 -96.322117 
L 386.055338 -95.773209 
L 385.870905 -95.224301 
L 385.706336 -94.675394 
L 385.562185 -94.126486 
L 385.438746 -93.577578 
L 385.335965 -93.02867 
L 385.253297 -92.479762 
L 385.189515 -91.930854 
L 385.142537 -91.381946 
L 385.109323 -90.833039 
L 385.085873 -90.284131 
L 385.067382 -89.735223 
L 385.048524 -89.186315 
L 385.023864 -88.637407 
L 384.988336 -88.088499 
L 384.937718 -87.539592 
L 384.869051 -86.990684 
L 384.780908 -86.441776 
L 384.673507 -85.892868 
L 384.548617 -85.34396 
L 384.40931 -84.795052 
L 384.259563 -84.246144 
L 384.103809 -83.697237 
L 383.946474 -83.148329 
L 383.791588 -82.599421 
L 383.642493 -82.050513 
L 383.50169 -81.501605 
L 383.370818 -80.952697 
L 383.250731 -80.403789 
L 383.141659 -79.854882 
L 383.043391 -79.305974 
L 382.955455 -78.757066 
L 382.877261 -78.208158 
L 382.808202 -77.65925 
L 382.747699 -77.110342 
L 382.695211 -76.561434 
L 382.650215 -76.012527 
L 382.612179 -75.463619 
L 382.58054 -74.914711 
L 382.554689 -74.365803 
L 382.533975 -73.816895 
L 382.517717 -73.267987 
L 382.505232 -72.719079 
z
" style="stroke: #3f3f3f; stroke-width: 1.25"/>
    </defs>
    <g clip-path="url(#p946a256148)">
     <use xlink:href="#me76baa3a7d" x="0" y="162" style="fill: #3274a1; stroke: #3f3f3f; stroke-width: 1.25"/>
    </g>
   </g>
   <g id="FillBetweenPolyCollection_9">
    <defs>
     <path id="m820415a62d" d="M 426.785871 -90.49977 
L 426.743004 -90.49977 
L 426.702115 -90.75426 
L 426.616644 -91.00875 
L 426.474249 -91.26324 
L 426.281997 -91.51773 
L 426.064524 -91.77222 
L 425.847767 -92.02671 
L 425.648235 -92.2812 
L 425.474596 -92.53569 
L 425.325821 -92.79018 
L 425.186942 -93.04467 
L 425.043564 -93.299159 
L 424.905041 -93.553649 
L 424.797002 -93.808139 
L 424.723212 -94.062629 
L 424.64863 -94.317119 
L 424.532691 -94.571609 
L 424.371989 -94.826099 
L 424.19436 -95.080589 
L 424.011154 -95.335079 
L 423.796773 -95.589569 
L 423.530835 -95.844059 
L 423.242619 -96.098549 
L 422.979152 -96.353038 
L 422.726689 -96.607528 
L 422.404468 -96.862018 
L 421.964936 -97.116508 
L 421.470342 -97.370998 
L 421.02247 -97.625488 
L 420.62822 -97.879978 
L 420.195441 -98.134468 
L 419.675564 -98.388958 
L 419.144705 -98.643448 
L 418.690737 -98.897938 
L 418.264182 -99.152428 
L 417.72725 -99.406917 
L 417.052319 -99.661407 
L 416.375651 -99.915897 
L 415.797515 -100.170387 
L 415.210697 -100.424877 
L 414.444073 -100.679367 
L 413.550751 -100.933857 
L 412.806935 -101.188347 
L 412.365489 -101.442837 
L 412.031124 -101.697327 
L 411.505555 -101.951817 
L 410.795113 -102.206307 
L 410.211464 -102.460796 
L 409.946488 -102.715286 
L 409.814707 -102.969776 
L 409.537273 -103.224266 
L 409.16808 -103.478756 
L 409.048288 -103.733246 
L 409.346627 -103.987736 
L 409.838346 -104.242226 
L 410.231232 -104.496716 
L 410.56409 -104.751206 
L 411.116271 -105.005696 
L 411.978638 -105.260186 
L 412.905137 -105.514675 
L 413.636311 -105.769165 
L 414.218841 -106.023655 
L 414.892638 -106.278145 
L 415.74388 -106.532635 
L 416.61013 -106.787125 
L 417.322126 -107.041615 
L 417.908712 -107.296105 
L 418.505237 -107.550595 
L 419.146117 -107.805085 
L 419.741873 -108.059575 
L 420.236431 -108.314065 
L 420.694853 -108.568554 
L 421.204829 -108.823044 
L 421.749826 -109.077534 
L 422.235041 -109.332024 
L 422.61556 -109.586514 
L 422.94168 -109.841004 
L 423.273909 -110.095494 
L 423.600144 -110.349984 
L 423.863618 -110.604474 
L 424.050327 -110.858964 
L 424.214233 -111.113454 
L 424.411919 -111.367944 
L 424.637547 -111.622433 
L 424.839282 -111.876923 
L 424.984969 -112.131413 
L 425.089295 -112.385903 
L 425.18078 -112.640393 
L 425.266631 -112.894883 
L 425.341026 -113.149373 
L 425.413705 -113.403863 
L 425.512853 -113.658353 
L 425.660144 -113.912843 
L 425.853006 -114.167333 
L 426.070684 -114.421823 
L 426.2868 -114.676312 
L 426.474876 -114.930802 
L 426.614291 -115.185292 
L 426.699506 -115.439782 
L 426.741458 -115.694272 
L 426.787417 -115.694272 
L 426.787417 -115.694272 
L 426.829369 -115.439782 
L 426.914584 -115.185292 
L 427.053999 -114.930802 
L 427.242075 -114.676312 
L 427.458191 -114.421823 
L 427.675869 -114.167333 
L 427.868731 -113.912843 
L 428.016022 -113.658353 
L 428.11517 -113.403863 
L 428.187849 -113.149373 
L 428.262244 -112.894883 
L 428.348095 -112.640393 
L 428.43958 -112.385903 
L 428.543906 -112.131413 
L 428.689593 -111.876923 
L 428.891328 -111.622433 
L 429.116956 -111.367944 
L 429.314642 -111.113454 
L 429.478548 -110.858964 
L 429.665257 -110.604474 
L 429.928731 -110.349984 
L 430.254966 -110.095494 
L 430.587195 -109.841004 
L 430.913315 -109.586514 
L 431.293834 -109.332024 
L 431.779049 -109.077534 
L 432.324046 -108.823044 
L 432.834022 -108.568554 
L 433.292444 -108.314065 
L 433.787002 -108.059575 
L 434.382758 -107.805085 
L 435.023638 -107.550595 
L 435.620163 -107.296105 
L 436.206749 -107.041615 
L 436.918745 -106.787125 
L 437.784995 -106.532635 
L 438.636237 -106.278145 
L 439.310034 -106.023655 
L 439.892564 -105.769165 
L 440.623738 -105.514675 
L 441.550237 -105.260186 
L 442.412604 -105.005696 
L 442.964785 -104.751206 
L 443.297643 -104.496716 
L 443.690529 -104.242226 
L 444.182248 -103.987736 
L 444.480588 -103.733246 
L 444.360795 -103.478756 
L 443.991602 -103.224266 
L 443.714168 -102.969776 
L 443.582387 -102.715286 
L 443.317411 -102.460796 
L 442.733762 -102.206307 
L 442.02332 -101.951817 
L 441.497751 -101.697327 
L 441.163386 -101.442837 
L 440.72194 -101.188347 
L 439.978124 -100.933857 
L 439.084802 -100.679367 
L 438.318178 -100.424877 
L 437.73136 -100.170387 
L 437.153224 -99.915897 
L 436.476556 -99.661407 
L 435.801625 -99.406917 
L 435.264693 -99.152428 
L 434.838138 -98.897938 
L 434.38417 -98.643448 
L 433.853311 -98.388958 
L 433.333434 -98.134468 
L 432.900655 -97.879978 
L 432.506405 -97.625488 
L 432.058533 -97.370998 
L 431.563939 -97.116508 
L 431.124407 -96.862018 
L 430.802186 -96.607528 
L 430.549723 -96.353038 
L 430.286256 -96.098549 
L 429.99804 -95.844059 
L 429.732102 -95.589569 
L 429.517721 -95.335079 
L 429.334515 -95.080589 
L 429.156886 -94.826099 
L 428.996184 -94.571609 
L 428.880245 -94.317119 
L 428.805663 -94.062629 
L 428.731873 -93.808139 
L 428.623834 -93.553649 
L 428.485311 -93.299159 
L 428.341933 -93.04467 
L 428.203054 -92.79018 
L 428.054279 -92.53569 
L 427.88064 -92.2812 
L 427.681108 -92.02671 
L 427.464351 -91.77222 
L 427.246878 -91.51773 
L 427.054626 -91.26324 
L 426.912231 -91.00875 
L 426.82676 -90.75426 
L 426.785871 -90.49977 
z
" style="stroke: #3f3f3f; stroke-width: 1.25"/>
    </defs>
    <g clip-path="url(#p946a256148)">
     <use xlink:href="#m820415a62d" x="0" y="162" style="fill: #3274a1; stroke: #3f3f3f; stroke-width: 1.25"/>
    </g>
   </g>
   <g id="FillBetweenPolyCollection_10">
    <defs>
     <path id="m07600a28ec" d="M 471.127678 -74.740434 
L 470.981947 -74.740434 
L 470.952258 -75.256566 
L 470.913454 -75.772698 
L 470.86394 -76.288829 
L 470.802262 -76.804961 
L 470.727263 -77.321093 
L 470.638242 -77.837225 
L 470.53511 -78.353357 
L 470.418505 -78.869489 
L 470.289856 -79.385621 
L 470.151376 -79.901753 
L 470.005975 -80.417884 
L 469.857089 -80.934016 
L 469.70845 -81.450148 
L 469.563801 -81.96628 
L 469.426602 -82.482412 
L 469.299743 -82.998544 
L 469.185304 -83.514676 
L 469.084387 -84.030808 
L 468.997016 -84.546939 
L 468.92214 -85.063071 
L 468.857715 -85.579203 
L 468.800853 -86.095335 
L 468.748038 -86.611467 
L 468.695369 -87.127599 
L 468.638833 -87.643731 
L 468.574561 -88.159863 
L 468.499077 -88.675994 
L 468.409493 -89.192126 
L 468.303664 -89.708258 
L 468.180256 -90.22439 
L 468.038749 -90.740522 
L 467.879353 -91.256654 
L 467.70285 -91.772786 
L 467.510392 -92.288918 
L 467.303259 -92.805049 
L 467.082638 -93.321181 
L 466.849446 -93.837313 
L 466.604222 -94.353445 
L 466.347132 -94.869577 
L 466.078065 -95.385709 
L 465.796838 -95.901841 
L 465.503468 -96.417973 
L 465.198488 -96.934104 
L 464.883267 -97.450236 
L 464.5603 -97.966368 
L 464.233426 -98.4825 
L 463.907953 -98.998632 
L 463.590663 -99.514764 
L 463.289679 -100.030896 
L 463.014185 -100.547028 
L 462.774007 -101.063159 
L 462.579054 -101.579291 
L 462.438673 -102.095423 
L 462.360954 -102.611555 
L 462.352052 -103.127687 
L 462.415608 -103.643819 
L 462.552324 -104.159951 
L 462.759774 -104.676083 
L 463.032472 -105.192214 
L 463.3622 -105.708346 
L 463.738593 -106.224478 
L 464.14989 -106.74061 
L 464.583795 -107.256742 
L 465.028343 -107.772874 
L 465.472679 -108.289006 
L 465.907658 -108.805138 
L 466.326236 -109.321269 
L 466.723595 -109.837401 
L 467.097037 -110.353533 
L 467.445676 -110.869665 
L 467.769995 -111.385797 
L 468.071345 -111.901929 
L 468.351467 -112.418061 
L 468.612087 -112.934193 
L 468.854651 -113.450324 
L 469.080185 -113.966456 
L 469.289305 -114.482588 
L 469.482312 -114.99872 
L 469.659361 -115.514852 
L 469.820635 -116.030984 
L 469.966494 -116.547116 
L 470.097566 -117.063248 
L 470.214775 -117.579379 
L 470.319297 -118.095511 
L 470.41247 -118.611643 
L 470.495677 -119.127775 
L 470.570227 -119.643907 
L 470.637261 -120.160039 
L 470.697688 -120.676171 
L 470.752173 -121.192303 
L 470.801158 -121.708434 
L 470.84491 -122.224566 
L 470.883596 -122.740698 
L 470.917347 -123.25683 
L 470.946319 -123.772962 
L 470.970731 -124.289094 
L 470.990889 -124.805226 
L 471.007174 -125.321358 
L 471.020036 -125.837489 
L 471.089589 -125.837489 
L 471.089589 -125.837489 
L 471.102451 -125.321358 
L 471.118736 -124.805226 
L 471.138894 -124.289094 
L 471.163306 -123.772962 
L 471.192278 -123.25683 
L 471.226029 -122.740698 
L 471.264715 -122.224566 
L 471.308467 -121.708434 
L 471.357452 -121.192303 
L 471.411937 -120.676171 
L 471.472364 -120.160039 
L 471.539398 -119.643907 
L 471.613948 -119.127775 
L 471.697155 -118.611643 
L 471.790328 -118.095511 
L 471.89485 -117.579379 
L 472.012059 -117.063248 
L 472.143131 -116.547116 
L 472.28899 -116.030984 
L 472.450264 -115.514852 
L 472.627313 -114.99872 
L 472.82032 -114.482588 
L 473.02944 -113.966456 
L 473.254974 -113.450324 
L 473.497538 -112.934193 
L 473.758158 -112.418061 
L 474.03828 -111.901929 
L 474.33963 -111.385797 
L 474.663949 -110.869665 
L 475.012588 -110.353533 
L 475.38603 -109.837401 
L 475.783389 -109.321269 
L 476.201967 -108.805138 
L 476.636946 -108.289006 
L 477.081282 -107.772874 
L 477.52583 -107.256742 
L 477.959735 -106.74061 
L 478.371032 -106.224478 
L 478.747425 -105.708346 
L 479.077153 -105.192214 
L 479.349851 -104.676083 
L 479.557301 -104.159951 
L 479.694017 -103.643819 
L 479.757573 -103.127687 
L 479.748671 -102.611555 
L 479.670952 -102.095423 
L 479.530571 -101.579291 
L 479.335618 -101.063159 
L 479.09544 -100.547028 
L 478.819946 -100.030896 
L 478.518962 -99.514764 
L 478.201672 -98.998632 
L 477.876199 -98.4825 
L 477.549325 -97.966368 
L 477.226358 -97.450236 
L 476.911137 -96.934104 
L 476.606157 -96.417973 
L 476.312787 -95.901841 
L 476.03156 -95.385709 
L 475.762493 -94.869577 
L 475.505403 -94.353445 
L 475.260179 -93.837313 
L 475.026987 -93.321181 
L 474.806366 -92.805049 
L 474.599233 -92.288918 
L 474.406775 -91.772786 
L 474.230272 -91.256654 
L 474.070876 -90.740522 
L 473.929369 -90.22439 
L 473.805961 -89.708258 
L 473.700132 -89.192126 
L 473.610548 -88.675994 
L 473.535064 -88.159863 
L 473.470792 -87.643731 
L 473.414256 -87.127599 
L 473.361587 -86.611467 
L 473.308772 -86.095335 
L 473.25191 -85.579203 
L 473.187485 -85.063071 
L 473.112609 -84.546939 
L 473.025238 -84.030808 
L 472.924321 -83.514676 
L 472.809882 -82.998544 
L 472.683023 -82.482412 
L 472.545824 -81.96628 
L 472.401175 -81.450148 
L 472.252536 -80.934016 
L 472.10365 -80.417884 
L 471.958249 -79.901753 
L 471.819769 -79.385621 
L 471.69112 -78.869489 
L 471.574515 -78.353357 
L 471.471383 -77.837225 
L 471.382362 -77.321093 
L 471.307363 -76.804961 
L 471.245685 -76.288829 
L 471.196171 -75.772698 
L 471.157367 -75.256566 
L 471.127678 -74.740434 
z
" style="stroke: #3f3f3f; stroke-width: 1.25"/>
    </defs>
    <g clip-path="url(#p946a256148)">
     <use xlink:href="#m07600a28ec" x="0" y="162" style="fill: #3274a1; stroke: #3f3f3f; stroke-width: 1.25"/>
    </g>
   </g>
   <g id="line2d_5">
    <path d="M 72.441438 58.080118 
L 72.441438 29.419625 
" clip-path="url(#p946a256148)" style="fill: none; stroke: #3f3f3f; stroke-width: 1.875; stroke-linecap: round"/>
   </g>
   <g id="line2d_6">
    <path d="M 72.441438 49.362136 
L 72.441438 40.653236 
" clip-path="url(#p946a256148)" style="fill: none; stroke: #3f3f3f; stroke-width: 5.625; stroke-linecap: round"/>
   </g>
   <g id="line2d_7">
    <path d="M 72.441438 44.690853 
" clip-path="url(#p946a256148)" style="fill: none; stroke: #3f3f3f; stroke-width: 1.5; stroke-linecap: round"/>
    <defs>
     <path id="mffbefa98f1" d="M 2.34375 0 
L -2.34375 -0 
" style="stroke: #ffffff; stroke-width: 1.125"/>
    </defs>
    <g clip-path="url(#p946a256148)">
     <use xlink:href="#mffbefa98f1" x="72.441438" y="44.690853" style="fill: #ffffff; stroke: #ffffff; stroke-width: 1.125"/>
    </g>
   </g>
   <g id="line2d_8">
    <path d="M 116.731813 67.653286 
L 116.731813 29.128774 
" clip-path="url(#p946a256148)" style="fill: none; stroke: #3f3f3f; stroke-width: 1.875; stroke-linecap: round"/>
   </g>
   <g id="line2d_9">
    <path d="M 116.731813 52.788511 
L 116.731813 42.124004 
" clip-path="url(#p946a256148)" style="fill: none; stroke: #3f3f3f; stroke-width: 5.625; stroke-linecap: round"/>
   </g>
   <g id="line2d_10">
    <path d="M 116.731813 46.987479 
" clip-path="url(#p946a256148)" style="fill: none; stroke: #3f3f3f; stroke-width: 1.5; stroke-linecap: round"/>
    <g clip-path="url(#p946a256148)">
     <use xlink:href="#mffbefa98f1" x="116.731813" y="46.987479" style="fill: #ffffff; stroke: #ffffff; stroke-width: 1.125"/>
    </g>
   </g>
   <g id="line2d_11">
    <path d="M 161.022188 67.579165 
L 161.022188 28.048895 
" clip-path="url(#p946a256148)" style="fill: none; stroke: #3f3f3f; stroke-width: 1.875; stroke-linecap: round"/>
   </g>
   <g id="line2d_12">
    <path d="M 161.022188 52.121735 
L 161.022188 41.490002 
" clip-path="url(#p946a256148)" style="fill: none; stroke: #3f3f3f; stroke-width: 5.625; stroke-linecap: round"/>
   </g>
   <g id="line2d_13">
    <path d="M 161.022188 47.161375 
" clip-path="url(#p946a256148)" style="fill: none; stroke: #3f3f3f; stroke-width: 1.5; stroke-linecap: round"/>
    <g clip-path="url(#p946a256148)">
     <use xlink:href="#mffbefa98f1" x="161.022188" y="47.161375" style="fill: #ffffff; stroke: #ffffff; stroke-width: 1.125"/>
    </g>
   </g>
   <g id="line2d_14">
    <path d="M 205.312563 69.438092 
L 205.312563 24.077627 
" clip-path="url(#p946a256148)" style="fill: none; stroke: #3f3f3f; stroke-width: 1.875; stroke-linecap: round"/>
   </g>
   <g id="line2d_15">
    <path d="M 205.312563 52.409003 
L 205.312563 41.044628 
" clip-path="url(#p946a256148)" style="fill: none; stroke: #3f3f3f; stroke-width: 5.625; stroke-linecap: round"/>
   </g>
   <g id="line2d_16">
    <path d="M 205.312563 48.180337 
" clip-path="url(#p946a256148)" style="fill: none; stroke: #3f3f3f; stroke-width: 1.5; stroke-linecap: round"/>
    <g clip-path="url(#p946a256148)">
     <use xlink:href="#mffbefa98f1" x="205.312563" y="48.180337" style="fill: #ffffff; stroke: #ffffff; stroke-width: 1.125"/>
    </g>
   </g>
   <g id="line2d_17">
    <path d="M 249.602938 70.700189 
L 249.602938 30.205825 
" clip-path="url(#p946a256148)" style="fill: none; stroke: #3f3f3f; stroke-width: 1.875; stroke-linecap: round"/>
   </g>
   <g id="line2d_18">
    <path d="M 249.602938 55.675674 
L 249.602938 45.38062 
" clip-path="url(#p946a256148)" style="fill: none; stroke: #3f3f3f; stroke-width: 5.625; stroke-linecap: round"/>
   </g>
   <g id="line2d_19">
    <path d="M 249.602938 49.693091 
" clip-path="url(#p946a256148)" style="fill: none; stroke: #3f3f3f; stroke-width: 1.5; stroke-linecap: round"/>
    <g clip-path="url(#p946a256148)">
     <use xlink:href="#mffbefa98f1" x="249.602938" y="49.693091" style="fill: #ffffff; stroke: #ffffff; stroke-width: 1.125"/>
    </g>
   </g>
   <g id="line2d_20">
    <path d="M 293.893313 73.765721 
L 293.893313 32.083232 
" clip-path="url(#p946a256148)" style="fill: none; stroke: #3f3f3f; stroke-width: 1.875; stroke-linecap: round"/>
   </g>
   <g id="line2d_21">
    <path d="M 293.893313 57.581763 
L 293.893313 46.294396 
" clip-path="url(#p946a256148)" style="fill: none; stroke: #3f3f3f; stroke-width: 5.625; stroke-linecap: round"/>
   </g>
   <g id="line2d_22">
    <path d="M 293.893313 51.532239 
" clip-path="url(#p946a256148)" style="fill: none; stroke: #3f3f3f; stroke-width: 1.5; stroke-linecap: round"/>
    <g clip-path="url(#p946a256148)">
     <use xlink:href="#mffbefa98f1" x="293.893313" y="51.532239" style="fill: #ffffff; stroke: #ffffff; stroke-width: 1.125"/>
    </g>
   </g>
   <g id="line2d_23">
    <path d="M 338.183688 68.96602 
L 338.183688 37.957678 
" clip-path="url(#p946a256148)" style="fill: none; stroke: #3f3f3f; stroke-width: 1.875; stroke-linecap: round"/>
   </g>
   <g id="line2d_24">
    <path d="M 338.183688 59.763373 
L 338.183688 50.829778 
" clip-path="url(#p946a256148)" style="fill: none; stroke: #3f3f3f; stroke-width: 5.625; stroke-linecap: round"/>
   </g>
   <g id="line2d_25">
    <path d="M 338.183688 55.583365 
" clip-path="url(#p946a256148)" style="fill: none; stroke: #3f3f3f; stroke-width: 1.5; stroke-linecap: round"/>
    <g clip-path="url(#p946a256148)">
     <use xlink:href="#mffbefa98f1" x="338.183688" y="55.583365" style="fill: #ffffff; stroke: #ffffff; stroke-width: 1.125"/>
    </g>
   </g>
   <g id="line2d_26">
    <path d="M 382.474063 80.861129 
L 382.474063 41.958837 
" clip-path="url(#p946a256148)" style="fill: none; stroke: #3f3f3f; stroke-width: 1.875; stroke-linecap: round"/>
   </g>
   <g id="line2d_27">
    <path d="M 382.474063 64.506903 
L 382.474063 52.933087 
" clip-path="url(#p946a256148)" style="fill: none; stroke: #3f3f3f; stroke-width: 5.625; stroke-linecap: round"/>
   </g>
   <g id="line2d_28">
    <path d="M 382.474063 57.609132 
" clip-path="url(#p946a256148)" style="fill: none; stroke: #3f3f3f; stroke-width: 1.5; stroke-linecap: round"/>
    <g clip-path="url(#p946a256148)">
     <use xlink:href="#mffbefa98f1" x="382.474063" y="57.609132" style="fill: #ffffff; stroke: #ffffff; stroke-width: 1.125"/>
    </g>
   </g>
   <g id="line2d_29">
    <path d="M 426.764438 69.236496 
L 426.764438 48.313962 
" clip-path="url(#p946a256148)" style="fill: none; stroke: #3f3f3f; stroke-width: 1.875; stroke-linecap: round"/>
   </g>
   <g id="line2d_30">
    <path d="M 426.764438 61.390891 
L 426.764438 56.159932 
" clip-path="url(#p946a256148)" style="fill: none; stroke: #3f3f3f; stroke-width: 5.625; stroke-linecap: round"/>
   </g>
   <g id="line2d_31">
    <path d="M 426.764438 58.683126 
" clip-path="url(#p946a256148)" style="fill: none; stroke: #3f3f3f; stroke-width: 1.5; stroke-linecap: round"/>
    <g clip-path="url(#p946a256148)">
     <use xlink:href="#mffbefa98f1" x="426.764438" y="58.683126" style="fill: #ffffff; stroke: #ffffff; stroke-width: 1.125"/>
    </g>
   </g>
   <g id="line2d_32">
    <path d="M 471.054813 80.590337 
L 471.054813 42.83174 
" clip-path="url(#p946a256148)" style="fill: none; stroke: #3f3f3f; stroke-width: 1.875; stroke-linecap: round"/>
   </g>
   <g id="line2d_33">
    <path d="M 471.054813 66.812099 
L 471.054813 56.537175 
" clip-path="url(#p946a256148)" style="fill: none; stroke: #3f3f3f; stroke-width: 5.625; stroke-linecap: round"/>
   </g>
   <g id="line2d_34">
    <path d="M 471.054813 60.165642 
" clip-path="url(#p946a256148)" style="fill: none; stroke: #3f3f3f; stroke-width: 1.5; stroke-linecap: round"/>
    <g clip-path="url(#p946a256148)">
     <use xlink:href="#mffbefa98f1" x="471.054813" y="60.165642" style="fill: #ffffff; stroke: #ffffff; stroke-width: 1.125"/>
    </g>
   </g>
   <g id="line2d_35">
    <path d="M 50.29625 58.262303 
L 493.2 58.262303 
" clip-path="url(#p946a256148)" style="fill: none; stroke-dasharray: 3.7,1.6; stroke-dashoffset: 0; stroke: #808080"/>
   </g>
   <g id="patch_3">
    <path d="M 50.29625 93.018107 
L 50.29625 10.8 
" style="fill: none; stroke: #cccccc; stroke-width: 0.8; stroke-linejoin: miter; stroke-linecap: square"/>
   </g>
   <g id="patch_4">
    <path d="M 493.2 93.018107 
L 493.2 10.8 
" style="fill: none; stroke: #cccccc; stroke-width: 0.8; stroke-linejoin: miter; stroke-linecap: square"/>
   </g>
   <g id="patch_5">
    <path d="M 50.29625 93.018107 
L 493.2 93.018107 
" style="fill: none; stroke: #cccccc; stroke-width: 0.8; stroke-linejoin: miter; stroke-linecap: square"/>
   </g>
   <g id="patch_6">
    <path d="M 50.29625 10.8 
L 493.2 10.8 
" style="fill: none; stroke: #cccccc; stroke-width: 0.8; stroke-linejoin: miter; stroke-linecap: square"/>
   </g>
  </g>
 </g>
 <defs>
  <clipPath id="p946a256148">
   <rect x="50.29625" y="10.8" width="442.90375" height="82.218107"/>
  </clipPath>
 </defs>
</svg>
