<?xml version="1.0" encoding="utf-8" standalone="no"?>
<!DOCTYPE svg PUBLIC "-//W3C//DTD SVG 1.1//EN"
  "http://www.w3.org/Graphics/SVG/1.1/DTD/svg11.dtd">
<svg xmlns:xlink="http://www.w3.org/1999/xlink" width="504pt" height="504pt" viewBox="0 0 504 504" xmlns="http://www.w3.org/2000/svg" version="1.1">
 <metadata>
  <rdf:RDF xmlns:dc="http://purl.org/dc/elements/1.1/" xmlns:cc="http://creativecommons.org/ns#" xmlns:rdf="http://www.w3.org/1999/02/22-rdf-syntax-ns#">
   <cc:Work>
    <dc:type rdf:resource="http://purl.org/dc/dcmitype/StillImage"/>
    <dc:date>2025-06-04T14:33:44.766968</dc:date>
    <dc:format>image/svg+xml</dc:format>
    <dc:creator>
     <cc:Agent>
      <dc:title>Matplotlib v3.10.1, https://matplotlib.org/</dc:title>
     </cc:Agent>
    </dc:creator>
   </cc:Work>
  </rdf:RDF>
 </metadata>
 <defs>
  <style type="text/css">*{stroke-linejoin: round; stroke-linecap: butt}</style>
 </defs>
 <g id="figure_1">
  <g id="patch_1">
   <path d="M 0 504 
L 504 504 
L 504 0 
L 0 0 
z
" style="fill: #ffffff"/>
  </g>
  <g id="axes_1">
   <g id="patch_2">
    <path d="M 52.65 427.099912 
L 491.04 427.099912 
L 491.04 27.65625 
L 52.65 27.65625 
z
" style="fill: #ffffff"/>
   </g>
   <g id="matplotlib.axis_1">
    <g id="xtick_1">
     <g id="text_1">
      <!-- Methyl -->
      <g style="fill: #262626" transform="translate(67.516235 465.075323) rotate(-45) scale(0.11 -0.11)">
       <defs>
        <path id="ArialMT-4d" d="M 475 0 
L 475 4581 
L 1388 4581 
L 2472 1338 
Q 2622 884 2691 659 
Q 2769 909 2934 1394 
L 4031 4581 
L 4847 4581 
L 4847 0 
L 4263 0 
L 4263 3834 
L 2931 0 
L 2384 0 
L 1059 3900 
L 1059 0 
L 475 0 
z
" transform="scale(0.015625)"/>
        <path id="ArialMT-65" d="M 2694 1069 
L 3275 997 
Q 3138 488 2766 206 
Q 2394 -75 1816 -75 
Q 1088 -75 661 373 
Q 234 822 234 1631 
Q 234 2469 665 2931 
Q 1097 3394 1784 3394 
Q 2450 3394 2872 2941 
Q 3294 2488 3294 1666 
Q 3294 1616 3291 1516 
L 816 1516 
Q 847 969 1125 678 
Q 1403 388 1819 388 
Q 2128 388 2347 550 
Q 2566 713 2694 1069 
z
M 847 1978 
L 2700 1978 
Q 2663 2397 2488 2606 
Q 2219 2931 1791 2931 
Q 1403 2931 1139 2672 
Q 875 2413 847 1978 
z
" transform="scale(0.015625)"/>
        <path id="ArialMT-74" d="M 1650 503 
L 1731 6 
Q 1494 -44 1306 -44 
Q 1000 -44 831 53 
Q 663 150 594 308 
Q 525 466 525 972 
L 525 2881 
L 113 2881 
L 113 3319 
L 525 3319 
L 525 4141 
L 1084 4478 
L 1084 3319 
L 1650 3319 
L 1650 2881 
L 1084 2881 
L 1084 941 
Q 1084 700 1114 631 
Q 1144 563 1211 522 
Q 1278 481 1403 481 
Q 1497 481 1650 503 
z
" transform="scale(0.015625)"/>
        <path id="ArialMT-68" d="M 422 0 
L 422 4581 
L 984 4581 
L 984 2938 
Q 1378 3394 1978 3394 
Q 2347 3394 2619 3248 
Q 2891 3103 3008 2847 
Q 3125 2591 3125 2103 
L 3125 0 
L 2563 0 
L 2563 2103 
Q 2563 2525 2380 2717 
Q 2197 2909 1863 2909 
Q 1613 2909 1392 2779 
Q 1172 2650 1078 2428 
Q 984 2206 984 1816 
L 984 0 
L 422 0 
z
" transform="scale(0.015625)"/>
        <path id="ArialMT-79" d="M 397 -1278 
L 334 -750 
Q 519 -800 656 -800 
Q 844 -800 956 -737 
Q 1069 -675 1141 -563 
Q 1194 -478 1313 -144 
Q 1328 -97 1363 -6 
L 103 3319 
L 709 3319 
L 1400 1397 
Q 1534 1031 1641 628 
Q 1738 1016 1872 1384 
L 2581 3319 
L 3144 3319 
L 1881 -56 
Q 1678 -603 1566 -809 
Q 1416 -1088 1222 -1217 
Q 1028 -1347 759 -1347 
Q 597 -1347 397 -1278 
z
" transform="scale(0.015625)"/>
        <path id="ArialMT-6c" d="M 409 0 
L 409 4581 
L 972 4581 
L 972 0 
L 409 0 
z
" transform="scale(0.015625)"/>
       </defs>
       <use xlink:href="#ArialMT-4d"/>
       <use xlink:href="#ArialMT-65" transform="translate(83.300781 0)"/>
       <use xlink:href="#ArialMT-74" transform="translate(138.916016 0)"/>
       <use xlink:href="#ArialMT-68" transform="translate(166.699219 0)"/>
       <use xlink:href="#ArialMT-79" transform="translate(222.314453 0)"/>
       <use xlink:href="#ArialMT-6c" transform="translate(272.314453 0)"/>
      </g>
     </g>
    </g>
    <g id="xtick_2">
     <g id="text_2">
      <!-- Dimethyl -->
      <g style="fill: #262626" transform="translate(112.553478 472.420837) rotate(-45) scale(0.11 -0.11)">
       <defs>
        <path id="ArialMT-44" d="M 494 0 
L 494 4581 
L 2072 4581 
Q 2606 4581 2888 4516 
Q 3281 4425 3559 4188 
Q 3922 3881 4101 3404 
Q 4281 2928 4281 2316 
Q 4281 1794 4159 1391 
Q 4038 988 3847 723 
Q 3656 459 3429 307 
Q 3203 156 2883 78 
Q 2563 0 2147 0 
L 494 0 
z
M 1100 541 
L 2078 541 
Q 2531 541 2789 625 
Q 3047 709 3200 863 
Q 3416 1078 3536 1442 
Q 3656 1806 3656 2325 
Q 3656 3044 3420 3430 
Q 3184 3816 2847 3947 
Q 2603 4041 2063 4041 
L 1100 4041 
L 1100 541 
z
" transform="scale(0.015625)"/>
        <path id="ArialMT-69" d="M 425 3934 
L 425 4581 
L 988 4581 
L 988 3934 
L 425 3934 
z
M 425 0 
L 425 3319 
L 988 3319 
L 988 0 
L 425 0 
z
" transform="scale(0.015625)"/>
        <path id="ArialMT-6d" d="M 422 0 
L 422 3319 
L 925 3319 
L 925 2853 
Q 1081 3097 1340 3245 
Q 1600 3394 1931 3394 
Q 2300 3394 2536 3241 
Q 2772 3088 2869 2813 
Q 3263 3394 3894 3394 
Q 4388 3394 4653 3120 
Q 4919 2847 4919 2278 
L 4919 0 
L 4359 0 
L 4359 2091 
Q 4359 2428 4304 2576 
Q 4250 2725 4106 2815 
Q 3963 2906 3769 2906 
Q 3419 2906 3187 2673 
Q 2956 2441 2956 1928 
L 2956 0 
L 2394 0 
L 2394 2156 
Q 2394 2531 2256 2718 
Q 2119 2906 1806 2906 
Q 1569 2906 1367 2781 
Q 1166 2656 1075 2415 
Q 984 2175 984 1722 
L 984 0 
L 422 0 
z
" transform="scale(0.015625)"/>
       </defs>
       <use xlink:href="#ArialMT-44"/>
       <use xlink:href="#ArialMT-69" transform="translate(72.216797 0)"/>
       <use xlink:href="#ArialMT-6d" transform="translate(94.433594 0)"/>
       <use xlink:href="#ArialMT-65" transform="translate(177.734375 0)"/>
       <use xlink:href="#ArialMT-74" transform="translate(233.349609 0)"/>
       <use xlink:href="#ArialMT-68" transform="translate(261.132812 0)"/>
       <use xlink:href="#ArialMT-79" transform="translate(316.748047 0)"/>
       <use xlink:href="#ArialMT-6c" transform="translate(366.748047 0)"/>
      </g>
     </g>
    </g>
    <g id="xtick_3">
     <g id="text_3">
      <!-- Formyl -->
      <g style="fill: #262626" transform="translate(164.509043 465.929707) rotate(-45) scale(0.11 -0.11)">
       <defs>
        <path id="ArialMT-46" d="M 525 0 
L 525 4581 
L 3616 4581 
L 3616 4041 
L 1131 4041 
L 1131 2622 
L 3281 2622 
L 3281 2081 
L 1131 2081 
L 1131 0 
L 525 0 
z
" transform="scale(0.015625)"/>
        <path id="ArialMT-6f" d="M 213 1659 
Q 213 2581 725 3025 
Q 1153 3394 1769 3394 
Q 2453 3394 2887 2945 
Q 3322 2497 3322 1706 
Q 3322 1066 3130 698 
Q 2938 331 2570 128 
Q 2203 -75 1769 -75 
Q 1072 -75 642 372 
Q 213 819 213 1659 
z
M 791 1659 
Q 791 1022 1069 705 
Q 1347 388 1769 388 
Q 2188 388 2466 706 
Q 2744 1025 2744 1678 
Q 2744 2294 2464 2611 
Q 2184 2928 1769 2928 
Q 1347 2928 1069 2612 
Q 791 2297 791 1659 
z
" transform="scale(0.015625)"/>
        <path id="ArialMT-72" d="M 416 0 
L 416 3319 
L 922 3319 
L 922 2816 
Q 1116 3169 1280 3281 
Q 1444 3394 1641 3394 
Q 1925 3394 2219 3213 
L 2025 2691 
Q 1819 2813 1613 2813 
Q 1428 2813 1281 2702 
Q 1134 2591 1072 2394 
Q 978 2094 978 1738 
L 978 0 
L 416 0 
z
" transform="scale(0.015625)"/>
       </defs>
       <use xlink:href="#ArialMT-46"/>
       <use xlink:href="#ArialMT-6f" transform="translate(61.083984 0)"/>
       <use xlink:href="#ArialMT-72" transform="translate(116.699219 0)"/>
       <use xlink:href="#ArialMT-6d" transform="translate(150 0)"/>
       <use xlink:href="#ArialMT-79" transform="translate(233.300781 0)"/>
       <use xlink:href="#ArialMT-6c" transform="translate(283.300781 0)"/>
      </g>
     </g>
    </g>
    <g id="xtick_4">
     <g id="text_4">
      <!-- Succinyl -->
      <g style="fill: #262626" transform="translate(210.666222 471.224943) rotate(-45) scale(0.11 -0.11)">
       <defs>
        <path id="ArialMT-53" d="M 288 1472 
L 859 1522 
Q 900 1178 1048 958 
Q 1197 738 1509 602 
Q 1822 466 2213 466 
Q 2559 466 2825 569 
Q 3091 672 3220 851 
Q 3350 1031 3350 1244 
Q 3350 1459 3225 1620 
Q 3100 1781 2813 1891 
Q 2628 1963 1997 2114 
Q 1366 2266 1113 2400 
Q 784 2572 623 2826 
Q 463 3081 463 3397 
Q 463 3744 659 4045 
Q 856 4347 1234 4503 
Q 1613 4659 2075 4659 
Q 2584 4659 2973 4495 
Q 3363 4331 3572 4012 
Q 3781 3694 3797 3291 
L 3216 3247 
Q 3169 3681 2898 3903 
Q 2628 4125 2100 4125 
Q 1550 4125 1298 3923 
Q 1047 3722 1047 3438 
Q 1047 3191 1225 3031 
Q 1400 2872 2139 2705 
Q 2878 2538 3153 2413 
Q 3553 2228 3743 1945 
Q 3934 1663 3934 1294 
Q 3934 928 3725 604 
Q 3516 281 3123 101 
Q 2731 -78 2241 -78 
Q 1619 -78 1198 103 
Q 778 284 539 648 
Q 300 1013 288 1472 
z
" transform="scale(0.015625)"/>
        <path id="ArialMT-75" d="M 2597 0 
L 2597 488 
Q 2209 -75 1544 -75 
Q 1250 -75 995 37 
Q 741 150 617 320 
Q 494 491 444 738 
Q 409 903 409 1263 
L 409 3319 
L 972 3319 
L 972 1478 
Q 972 1038 1006 884 
Q 1059 663 1231 536 
Q 1403 409 1656 409 
Q 1909 409 2131 539 
Q 2353 669 2445 892 
Q 2538 1116 2538 1541 
L 2538 3319 
L 3100 3319 
L 3100 0 
L 2597 0 
z
" transform="scale(0.015625)"/>
        <path id="ArialMT-63" d="M 2588 1216 
L 3141 1144 
Q 3050 572 2676 248 
Q 2303 -75 1759 -75 
Q 1078 -75 664 370 
Q 250 816 250 1647 
Q 250 2184 428 2587 
Q 606 2991 970 3192 
Q 1334 3394 1763 3394 
Q 2303 3394 2647 3120 
Q 2991 2847 3088 2344 
L 2541 2259 
Q 2463 2594 2264 2762 
Q 2066 2931 1784 2931 
Q 1359 2931 1093 2626 
Q 828 2322 828 1663 
Q 828 994 1084 691 
Q 1341 388 1753 388 
Q 2084 388 2306 591 
Q 2528 794 2588 1216 
z
" transform="scale(0.015625)"/>
        <path id="ArialMT-6e" d="M 422 0 
L 422 3319 
L 928 3319 
L 928 2847 
Q 1294 3394 1984 3394 
Q 2284 3394 2536 3286 
Q 2788 3178 2913 3003 
Q 3038 2828 3088 2588 
Q 3119 2431 3119 2041 
L 3119 0 
L 2556 0 
L 2556 2019 
Q 2556 2363 2490 2533 
Q 2425 2703 2258 2804 
Q 2091 2906 1866 2906 
Q 1506 2906 1245 2678 
Q 984 2450 984 1813 
L 984 0 
L 422 0 
z
" transform="scale(0.015625)"/>
       </defs>
       <use xlink:href="#ArialMT-53"/>
       <use xlink:href="#ArialMT-75" transform="translate(66.699219 0)"/>
       <use xlink:href="#ArialMT-63" transform="translate(122.314453 0)"/>
       <use xlink:href="#ArialMT-63" transform="translate(172.314453 0)"/>
       <use xlink:href="#ArialMT-69" transform="translate(222.314453 0)"/>
       <use xlink:href="#ArialMT-6e" transform="translate(244.53125 0)"/>
       <use xlink:href="#ArialMT-79" transform="translate(300.146484 0)"/>
       <use xlink:href="#ArialMT-6c" transform="translate(350.146484 0)"/>
      </g>
     </g>
    </g>
    <g id="xtick_5">
     <g id="text_5">
      <!-- Trimethyl -->
      <g style="fill: #262626" transform="translate(257.967643 473.852507) rotate(-45) scale(0.11 -0.11)">
       <defs>
        <path id="ArialMT-54" d="M 1659 0 
L 1659 4041 
L 150 4041 
L 150 4581 
L 3781 4581 
L 3781 4041 
L 2266 4041 
L 2266 0 
L 1659 0 
z
" transform="scale(0.015625)"/>
       </defs>
       <use xlink:href="#ArialMT-54"/>
       <use xlink:href="#ArialMT-72" transform="translate(57.333984 0)"/>
       <use xlink:href="#ArialMT-69" transform="translate(90.634766 0)"/>
       <use xlink:href="#ArialMT-6d" transform="translate(112.851562 0)"/>
       <use xlink:href="#ArialMT-65" transform="translate(196.152344 0)"/>
       <use xlink:href="#ArialMT-74" transform="translate(251.767578 0)"/>
       <use xlink:href="#ArialMT-68" transform="translate(279.550781 0)"/>
       <use xlink:href="#ArialMT-79" transform="translate(335.166016 0)"/>
       <use xlink:href="#ArialMT-6c" transform="translate(385.166016 0)"/>
      </g>
     </g>
    </g>
    <g id="xtick_6">
     <g id="text_6">
      <!-- Crotonyl -->
      <g style="fill: #262626" transform="translate(308.086829 471.223727) rotate(-45) scale(0.11 -0.11)">
       <defs>
        <path id="ArialMT-43" d="M 3763 1606 
L 4369 1453 
Q 4178 706 3683 314 
Q 3188 -78 2472 -78 
Q 1731 -78 1267 223 
Q 803 525 561 1097 
Q 319 1669 319 2325 
Q 319 3041 592 3573 
Q 866 4106 1370 4382 
Q 1875 4659 2481 4659 
Q 3169 4659 3637 4309 
Q 4106 3959 4291 3325 
L 3694 3184 
Q 3534 3684 3231 3912 
Q 2928 4141 2469 4141 
Q 1941 4141 1586 3887 
Q 1231 3634 1087 3207 
Q 944 2781 944 2328 
Q 944 1744 1114 1308 
Q 1284 872 1643 656 
Q 2003 441 2422 441 
Q 2931 441 3284 734 
Q 3638 1028 3763 1606 
z
" transform="scale(0.015625)"/>
       </defs>
       <use xlink:href="#ArialMT-43"/>
       <use xlink:href="#ArialMT-72" transform="translate(72.216797 0)"/>
       <use xlink:href="#ArialMT-6f" transform="translate(105.517578 0)"/>
       <use xlink:href="#ArialMT-74" transform="translate(161.132812 0)"/>
       <use xlink:href="#ArialMT-6f" transform="translate(188.916016 0)"/>
       <use xlink:href="#ArialMT-6e" transform="translate(244.53125 0)"/>
       <use xlink:href="#ArialMT-79" transform="translate(300.146484 0)"/>
       <use xlink:href="#ArialMT-6c" transform="translate(350.146484 0)"/>
      </g>
     </g>
    </g>
    <g id="xtick_7">
     <g id="text_7">
      <!-- Propionyl -->
      <g style="fill: #262626" transform="translate(355.017572 474.592649) rotate(-45) scale(0.11 -0.11)">
       <defs>
        <path id="ArialMT-50" d="M 494 0 
L 494 4581 
L 2222 4581 
Q 2678 4581 2919 4538 
Q 3256 4481 3484 4323 
Q 3713 4166 3852 3881 
Q 3991 3597 3991 3256 
Q 3991 2672 3619 2267 
Q 3247 1863 2275 1863 
L 1100 1863 
L 1100 0 
L 494 0 
z
M 1100 2403 
L 2284 2403 
Q 2872 2403 3119 2622 
Q 3366 2841 3366 3238 
Q 3366 3525 3220 3729 
Q 3075 3934 2838 4000 
Q 2684 4041 2272 4041 
L 1100 4041 
L 1100 2403 
z
" transform="scale(0.015625)"/>
        <path id="ArialMT-70" d="M 422 -1272 
L 422 3319 
L 934 3319 
L 934 2888 
Q 1116 3141 1344 3267 
Q 1572 3394 1897 3394 
Q 2322 3394 2647 3175 
Q 2972 2956 3137 2557 
Q 3303 2159 3303 1684 
Q 3303 1175 3120 767 
Q 2938 359 2589 142 
Q 2241 -75 1856 -75 
Q 1575 -75 1351 44 
Q 1128 163 984 344 
L 984 -1272 
L 422 -1272 
z
M 931 1641 
Q 931 1000 1190 694 
Q 1450 388 1819 388 
Q 2194 388 2461 705 
Q 2728 1022 2728 1688 
Q 2728 2322 2467 2637 
Q 2206 2953 1844 2953 
Q 1484 2953 1207 2617 
Q 931 2281 931 1641 
z
" transform="scale(0.015625)"/>
       </defs>
       <use xlink:href="#ArialMT-50"/>
       <use xlink:href="#ArialMT-72" transform="translate(66.699219 0)"/>
       <use xlink:href="#ArialMT-6f" transform="translate(100 0)"/>
       <use xlink:href="#ArialMT-70" transform="translate(155.615234 0)"/>
       <use xlink:href="#ArialMT-69" transform="translate(211.230469 0)"/>
       <use xlink:href="#ArialMT-6f" transform="translate(233.447266 0)"/>
       <use xlink:href="#ArialMT-6e" transform="translate(289.0625 0)"/>
       <use xlink:href="#ArialMT-79" transform="translate(344.677734 0)"/>
       <use xlink:href="#ArialMT-6c" transform="translate(394.677734 0)"/>
      </g>
     </g>
    </g>
    <g id="xtick_8">
     <g id="text_8">
      <!-- Acetyl -->
      <g style="fill: #262626" transform="translate(409.349734 463.348326) rotate(-45) scale(0.11 -0.11)">
       <defs>
        <path id="ArialMT-41" d="M -9 0 
L 1750 4581 
L 2403 4581 
L 4278 0 
L 3588 0 
L 3053 1388 
L 1138 1388 
L 634 0 
L -9 0 
z
M 1313 1881 
L 2866 1881 
L 2388 3150 
Q 2169 3728 2063 4100 
Q 1975 3659 1816 3225 
L 1313 1881 
z
" transform="scale(0.015625)"/>
       </defs>
       <use xlink:href="#ArialMT-41"/>
       <use xlink:href="#ArialMT-63" transform="translate(66.699219 0)"/>
       <use xlink:href="#ArialMT-65" transform="translate(116.699219 0)"/>
       <use xlink:href="#ArialMT-74" transform="translate(172.314453 0)"/>
       <use xlink:href="#ArialMT-79" transform="translate(200.097656 0)"/>
       <use xlink:href="#ArialMT-6c" transform="translate(250.097656 0)"/>
      </g>
     </g>
    </g>
    <g id="xtick_9">
     <g id="text_9">
      <!-- Malonyl -->
      <g style="fill: #262626" transform="translate(455.249868 468.968057) rotate(-45) scale(0.11 -0.11)">
       <defs>
        <path id="ArialMT-61" d="M 2588 409 
Q 2275 144 1986 34 
Q 1697 -75 1366 -75 
Q 819 -75 525 192 
Q 231 459 231 875 
Q 231 1119 342 1320 
Q 453 1522 633 1644 
Q 813 1766 1038 1828 
Q 1203 1872 1538 1913 
Q 2219 1994 2541 2106 
Q 2544 2222 2544 2253 
Q 2544 2597 2384 2738 
Q 2169 2928 1744 2928 
Q 1347 2928 1158 2789 
Q 969 2650 878 2297 
L 328 2372 
Q 403 2725 575 2942 
Q 747 3159 1072 3276 
Q 1397 3394 1825 3394 
Q 2250 3394 2515 3294 
Q 2781 3194 2906 3042 
Q 3031 2891 3081 2659 
Q 3109 2516 3109 2141 
L 3109 1391 
Q 3109 606 3145 398 
Q 3181 191 3288 0 
L 2700 0 
Q 2613 175 2588 409 
z
M 2541 1666 
Q 2234 1541 1622 1453 
Q 1275 1403 1131 1340 
Q 988 1278 909 1158 
Q 831 1038 831 891 
Q 831 666 1001 516 
Q 1172 366 1500 366 
Q 1825 366 2078 508 
Q 2331 650 2450 897 
Q 2541 1088 2541 1459 
L 2541 1666 
z
" transform="scale(0.015625)"/>
       </defs>
       <use xlink:href="#ArialMT-4d"/>
       <use xlink:href="#ArialMT-61" transform="translate(83.300781 0)"/>
       <use xlink:href="#ArialMT-6c" transform="translate(138.916016 0)"/>
       <use xlink:href="#ArialMT-6f" transform="translate(161.132812 0)"/>
       <use xlink:href="#ArialMT-6e" transform="translate(216.748047 0)"/>
       <use xlink:href="#ArialMT-79" transform="translate(272.363281 0)"/>
       <use xlink:href="#ArialMT-6c" transform="translate(322.363281 0)"/>
      </g>
     </g>
    </g>
    <g id="text_10">
     <!-- Modification Type -->
     <g style="fill: #262626" transform="translate(225.261563 488.965337) scale(0.12 -0.12)">
      <defs>
       <path id="ArialMT-64" d="M 2575 0 
L 2575 419 
Q 2259 -75 1647 -75 
Q 1250 -75 917 144 
Q 584 363 401 755 
Q 219 1147 219 1656 
Q 219 2153 384 2558 
Q 550 2963 881 3178 
Q 1213 3394 1622 3394 
Q 1922 3394 2156 3267 
Q 2391 3141 2538 2938 
L 2538 4581 
L 3097 4581 
L 3097 0 
L 2575 0 
z
M 797 1656 
Q 797 1019 1065 703 
Q 1334 388 1700 388 
Q 2069 388 2326 689 
Q 2584 991 2584 1609 
Q 2584 2291 2321 2609 
Q 2059 2928 1675 2928 
Q 1300 2928 1048 2622 
Q 797 2316 797 1656 
z
" transform="scale(0.015625)"/>
       <path id="ArialMT-66" d="M 556 0 
L 556 2881 
L 59 2881 
L 59 3319 
L 556 3319 
L 556 3672 
Q 556 4006 616 4169 
Q 697 4388 901 4523 
Q 1106 4659 1475 4659 
Q 1713 4659 2000 4603 
L 1916 4113 
Q 1741 4144 1584 4144 
Q 1328 4144 1222 4034 
Q 1116 3925 1116 3625 
L 1116 3319 
L 1763 3319 
L 1763 2881 
L 1116 2881 
L 1116 0 
L 556 0 
z
" transform="scale(0.015625)"/>
       <path id="ArialMT-20" transform="scale(0.015625)"/>
      </defs>
      <use xlink:href="#ArialMT-4d"/>
      <use xlink:href="#ArialMT-6f" transform="translate(83.300781 0)"/>
      <use xlink:href="#ArialMT-64" transform="translate(138.916016 0)"/>
      <use xlink:href="#ArialMT-69" transform="translate(194.53125 0)"/>
      <use xlink:href="#ArialMT-66" transform="translate(216.748047 0)"/>
      <use xlink:href="#ArialMT-69" transform="translate(244.53125 0)"/>
      <use xlink:href="#ArialMT-63" transform="translate(266.748047 0)"/>
      <use xlink:href="#ArialMT-61" transform="translate(316.748047 0)"/>
      <use xlink:href="#ArialMT-74" transform="translate(372.363281 0)"/>
      <use xlink:href="#ArialMT-69" transform="translate(400.146484 0)"/>
      <use xlink:href="#ArialMT-6f" transform="translate(422.363281 0)"/>
      <use xlink:href="#ArialMT-6e" transform="translate(477.978516 0)"/>
      <use xlink:href="#ArialMT-20" transform="translate(533.59375 0)"/>
      <use xlink:href="#ArialMT-54" transform="translate(559.626953 0)"/>
      <use xlink:href="#ArialMT-79" transform="translate(615.210938 0)"/>
      <use xlink:href="#ArialMT-70" transform="translate(665.210938 0)"/>
      <use xlink:href="#ArialMT-65" transform="translate(720.826172 0)"/>
     </g>
    </g>
   </g>
   <g id="matplotlib.axis_2">
    <g id="ytick_1">
     <g id="line2d_1">
      <path d="M 52.65 427.099912 
L 491.04 427.099912 
" clip-path="url(#p75de4f11df)" style="fill: none; stroke: #cccccc; stroke-linecap: round"/>
     </g>
     <g id="text_11">
      <!-- 0.0 -->
      <g style="fill: #262626" transform="translate(27.86 431.036709) scale(0.11 -0.11)">
       <defs>
        <path id="ArialMT-30" d="M 266 2259 
Q 266 3072 433 3567 
Q 600 4063 929 4331 
Q 1259 4600 1759 4600 
Q 2128 4600 2406 4451 
Q 2684 4303 2865 4023 
Q 3047 3744 3150 3342 
Q 3253 2941 3253 2259 
Q 3253 1453 3087 958 
Q 2922 463 2592 192 
Q 2263 -78 1759 -78 
Q 1097 -78 719 397 
Q 266 969 266 2259 
z
M 844 2259 
Q 844 1131 1108 757 
Q 1372 384 1759 384 
Q 2147 384 2411 759 
Q 2675 1134 2675 2259 
Q 2675 3391 2411 3762 
Q 2147 4134 1753 4134 
Q 1366 4134 1134 3806 
Q 844 3388 844 2259 
z
" transform="scale(0.015625)"/>
        <path id="ArialMT-2e" d="M 581 0 
L 581 641 
L 1222 641 
L 1222 0 
L 581 0 
z
" transform="scale(0.015625)"/>
       </defs>
       <use xlink:href="#ArialMT-30"/>
       <use xlink:href="#ArialMT-2e" transform="translate(55.615234 0)"/>
       <use xlink:href="#ArialMT-30" transform="translate(83.398438 0)"/>
      </g>
     </g>
    </g>
    <g id="ytick_2">
     <g id="line2d_2">
      <path d="M 52.65 347.21118 
L 491.04 347.21118 
" clip-path="url(#p75de4f11df)" style="fill: none; stroke: #cccccc; stroke-linecap: round"/>
     </g>
     <g id="text_12">
      <!-- 0.2 -->
      <g style="fill: #262626" transform="translate(27.86 351.147977) scale(0.11 -0.11)">
       <defs>
        <path id="ArialMT-32" d="M 3222 541 
L 3222 0 
L 194 0 
Q 188 203 259 391 
Q 375 700 629 1000 
Q 884 1300 1366 1694 
Q 2113 2306 2375 2664 
Q 2638 3022 2638 3341 
Q 2638 3675 2398 3904 
Q 2159 4134 1775 4134 
Q 1369 4134 1125 3890 
Q 881 3647 878 3216 
L 300 3275 
Q 359 3922 746 4261 
Q 1134 4600 1788 4600 
Q 2447 4600 2831 4234 
Q 3216 3869 3216 3328 
Q 3216 3053 3103 2787 
Q 2991 2522 2730 2228 
Q 2469 1934 1863 1422 
Q 1356 997 1212 845 
Q 1069 694 975 541 
L 3222 541 
z
" transform="scale(0.015625)"/>
       </defs>
       <use xlink:href="#ArialMT-30"/>
       <use xlink:href="#ArialMT-2e" transform="translate(55.615234 0)"/>
       <use xlink:href="#ArialMT-32" transform="translate(83.398438 0)"/>
      </g>
     </g>
    </g>
    <g id="ytick_3">
     <g id="line2d_3">
      <path d="M 52.65 267.322447 
L 491.04 267.322447 
" clip-path="url(#p75de4f11df)" style="fill: none; stroke: #cccccc; stroke-linecap: round"/>
     </g>
     <g id="text_13">
      <!-- 0.4 -->
      <g style="fill: #262626" transform="translate(27.86 271.259244) scale(0.11 -0.11)">
       <defs>
        <path id="ArialMT-34" d="M 2069 0 
L 2069 1097 
L 81 1097 
L 81 1613 
L 2172 4581 
L 2631 4581 
L 2631 1613 
L 3250 1613 
L 3250 1097 
L 2631 1097 
L 2631 0 
L 2069 0 
z
M 2069 1613 
L 2069 3678 
L 634 1613 
L 2069 1613 
z
" transform="scale(0.015625)"/>
       </defs>
       <use xlink:href="#ArialMT-30"/>
       <use xlink:href="#ArialMT-2e" transform="translate(55.615234 0)"/>
       <use xlink:href="#ArialMT-34" transform="translate(83.398438 0)"/>
      </g>
     </g>
    </g>
    <g id="ytick_4">
     <g id="line2d_4">
      <path d="M 52.65 187.433715 
L 491.04 187.433715 
" clip-path="url(#p75de4f11df)" style="fill: none; stroke: #cccccc; stroke-linecap: round"/>
     </g>
     <g id="text_14">
      <!-- 0.6 -->
      <g style="fill: #262626" transform="translate(27.86 191.370512) scale(0.11 -0.11)">
       <defs>
        <path id="ArialMT-36" d="M 3184 3459 
L 2625 3416 
Q 2550 3747 2413 3897 
Q 2184 4138 1850 4138 
Q 1581 4138 1378 3988 
Q 1113 3794 959 3422 
Q 806 3050 800 2363 
Q 1003 2672 1297 2822 
Q 1591 2972 1913 2972 
Q 2475 2972 2870 2558 
Q 3266 2144 3266 1488 
Q 3266 1056 3080 686 
Q 2894 316 2569 119 
Q 2244 -78 1831 -78 
Q 1128 -78 684 439 
Q 241 956 241 2144 
Q 241 3472 731 4075 
Q 1159 4600 1884 4600 
Q 2425 4600 2770 4297 
Q 3116 3994 3184 3459 
z
M 888 1484 
Q 888 1194 1011 928 
Q 1134 663 1356 523 
Q 1578 384 1822 384 
Q 2178 384 2434 671 
Q 2691 959 2691 1453 
Q 2691 1928 2437 2201 
Q 2184 2475 1800 2475 
Q 1419 2475 1153 2201 
Q 888 1928 888 1484 
z
" transform="scale(0.015625)"/>
       </defs>
       <use xlink:href="#ArialMT-30"/>
       <use xlink:href="#ArialMT-2e" transform="translate(55.615234 0)"/>
       <use xlink:href="#ArialMT-36" transform="translate(83.398438 0)"/>
      </g>
     </g>
    </g>
    <g id="ytick_5">
     <g id="line2d_5">
      <path d="M 52.65 107.544982 
L 491.04 107.544982 
" clip-path="url(#p75de4f11df)" style="fill: none; stroke: #cccccc; stroke-linecap: round"/>
     </g>
     <g id="text_15">
      <!-- 0.8 -->
      <g style="fill: #262626" transform="translate(27.86 111.481779) scale(0.11 -0.11)">
       <defs>
        <path id="ArialMT-38" d="M 1131 2484 
Q 781 2613 612 2850 
Q 444 3088 444 3419 
Q 444 3919 803 4259 
Q 1163 4600 1759 4600 
Q 2359 4600 2725 4251 
Q 3091 3903 3091 3403 
Q 3091 3084 2923 2848 
Q 2756 2613 2416 2484 
Q 2838 2347 3058 2040 
Q 3278 1734 3278 1309 
Q 3278 722 2862 322 
Q 2447 -78 1769 -78 
Q 1091 -78 675 323 
Q 259 725 259 1325 
Q 259 1772 486 2073 
Q 713 2375 1131 2484 
z
M 1019 3438 
Q 1019 3113 1228 2906 
Q 1438 2700 1772 2700 
Q 2097 2700 2305 2904 
Q 2513 3109 2513 3406 
Q 2513 3716 2298 3927 
Q 2084 4138 1766 4138 
Q 1444 4138 1231 3931 
Q 1019 3725 1019 3438 
z
M 838 1322 
Q 838 1081 952 856 
Q 1066 631 1291 507 
Q 1516 384 1775 384 
Q 2178 384 2440 643 
Q 2703 903 2703 1303 
Q 2703 1709 2433 1975 
Q 2163 2241 1756 2241 
Q 1359 2241 1098 1978 
Q 838 1716 838 1322 
z
" transform="scale(0.015625)"/>
       </defs>
       <use xlink:href="#ArialMT-30"/>
       <use xlink:href="#ArialMT-2e" transform="translate(55.615234 0)"/>
       <use xlink:href="#ArialMT-38" transform="translate(83.398438 0)"/>
      </g>
     </g>
    </g>
    <g id="ytick_6">
     <g id="line2d_6">
      <path d="M 52.65 27.65625 
L 491.04 27.65625 
" clip-path="url(#p75de4f11df)" style="fill: none; stroke: #cccccc; stroke-linecap: round"/>
     </g>
     <g id="text_16">
      <!-- 1.0 -->
      <g style="fill: #262626" transform="translate(27.86 31.593047) scale(0.11 -0.11)">
       <defs>
        <path id="ArialMT-31" d="M 2384 0 
L 1822 0 
L 1822 3584 
Q 1619 3391 1289 3197 
Q 959 3003 697 2906 
L 697 3450 
Q 1169 3672 1522 3987 
Q 1875 4303 2022 4600 
L 2384 4600 
L 2384 0 
z
" transform="scale(0.015625)"/>
       </defs>
       <use xlink:href="#ArialMT-31"/>
       <use xlink:href="#ArialMT-2e" transform="translate(55.615234 0)"/>
       <use xlink:href="#ArialMT-30" transform="translate(83.398438 0)"/>
      </g>
     </g>
    </g>
    <g id="text_17">
     <!-- Pearson Correlation -->
     <g style="fill: #262626" transform="translate(21.475 280.735894) rotate(-90) scale(0.12 -0.12)">
      <defs>
       <path id="ArialMT-73" d="M 197 991 
L 753 1078 
Q 800 744 1014 566 
Q 1228 388 1613 388 
Q 2000 388 2187 545 
Q 2375 703 2375 916 
Q 2375 1106 2209 1216 
Q 2094 1291 1634 1406 
Q 1016 1563 777 1677 
Q 538 1791 414 1992 
Q 291 2194 291 2438 
Q 291 2659 392 2848 
Q 494 3038 669 3163 
Q 800 3259 1026 3326 
Q 1253 3394 1513 3394 
Q 1903 3394 2198 3281 
Q 2494 3169 2634 2976 
Q 2775 2784 2828 2463 
L 2278 2388 
Q 2241 2644 2061 2787 
Q 1881 2931 1553 2931 
Q 1166 2931 1000 2803 
Q 834 2675 834 2503 
Q 834 2394 903 2306 
Q 972 2216 1119 2156 
Q 1203 2125 1616 2013 
Q 2213 1853 2448 1751 
Q 2684 1650 2818 1456 
Q 2953 1263 2953 975 
Q 2953 694 2789 445 
Q 2625 197 2315 61 
Q 2006 -75 1616 -75 
Q 969 -75 630 194 
Q 291 463 197 991 
z
" transform="scale(0.015625)"/>
      </defs>
      <use xlink:href="#ArialMT-50"/>
      <use xlink:href="#ArialMT-65" transform="translate(66.699219 0)"/>
      <use xlink:href="#ArialMT-61" transform="translate(122.314453 0)"/>
      <use xlink:href="#ArialMT-72" transform="translate(177.929688 0)"/>
      <use xlink:href="#ArialMT-73" transform="translate(211.230469 0)"/>
      <use xlink:href="#ArialMT-6f" transform="translate(261.230469 0)"/>
      <use xlink:href="#ArialMT-6e" transform="translate(316.845703 0)"/>
      <use xlink:href="#ArialMT-20" transform="translate(372.460938 0)"/>
      <use xlink:href="#ArialMT-43" transform="translate(400.244141 0)"/>
      <use xlink:href="#ArialMT-6f" transform="translate(472.460938 0)"/>
      <use xlink:href="#ArialMT-72" transform="translate(528.076172 0)"/>
      <use xlink:href="#ArialMT-72" transform="translate(561.376953 0)"/>
      <use xlink:href="#ArialMT-65" transform="translate(594.677734 0)"/>
      <use xlink:href="#ArialMT-6c" transform="translate(650.292969 0)"/>
      <use xlink:href="#ArialMT-61" transform="translate(672.509766 0)"/>
      <use xlink:href="#ArialMT-74" transform="translate(728.125 0)"/>
      <use xlink:href="#ArialMT-69" transform="translate(755.908203 0)"/>
      <use xlink:href="#ArialMT-6f" transform="translate(778.125 0)"/>
      <use xlink:href="#ArialMT-6e" transform="translate(833.740234 0)"/>
     </g>
    </g>
   </g>
   <g id="FillBetweenPolyCollection_1">
    <defs>
     <path id="m51d7c64914" d="M 80.129643 -76.900088 
L 73.880357 -76.900088 
L 73.514477 -80.934818 
L 73.303332 -84.969548 
L 73.250208 -89.004278 
L 73.327597 -93.039008 
L 73.488259 -97.073738 
L 73.680154 -101.108468 
L 73.859397 -105.143199 
L 73.997608 -109.177929 
L 74.083209 -113.212659 
L 74.118376 -117.247389 
L 74.114006 -121.282119 
L 74.084653 -125.316849 
L 74.044542 -129.351579 
L 74.005064 -133.386309 
L 73.973675 -137.421039 
L 73.953813 -141.45577 
L 73.945444 -145.4905 
L 73.945963 -149.52523 
L 73.951348 -153.55996 
L 73.957491 -157.59469 
L 73.961508 -161.62942 
L 73.962658 -165.66415 
L 73.96253 -169.69888 
L 73.964391 -173.733611 
L 73.971972 -177.768341 
L 73.988219 -181.803071 
L 74.014491 -185.837801 
L 74.050381 -189.872531 
L 74.093982 -193.907261 
L 74.142268 -197.941991 
L 74.19139 -201.976721 
L 74.236929 -206.011451 
L 74.274332 -210.046182 
L 74.299639 -214.080912 
L 74.310384 -218.115642 
L 74.306323 -222.150372 
L 74.289618 -226.185102 
L 74.264368 -230.219832 
L 74.235601 -234.254562 
L 74.208113 -238.289292 
L 74.185511 -242.324022 
L 74.169748 -246.358753 
L 74.16121 -250.393483 
L 74.159251 -254.428213 
L 74.162956 -258.462943 
L 74.171805 -262.497673 
L 74.185969 -266.532403 
L 74.206098 -270.567133 
L 74.232667 -274.601863 
L 74.265183 -278.636594 
L 74.301635 -282.671324 
L 74.338493 -286.706054 
L 74.371365 -290.740784 
L 74.396141 -294.775514 
L 74.410271 -298.810244 
L 74.41373 -302.844974 
L 74.409347 -306.879704 
L 74.402306 -310.914434 
L 74.398942 -314.949165 
L 74.405113 -318.983895 
L 74.424646 -323.018625 
L 74.458291 -327.053355 
L 74.503485 -331.088085 
L 74.554974 -335.122815 
L 74.606043 -339.157545 
L 74.649968 -343.192275 
L 74.681289 -347.227006 
L 74.696625 -351.261736 
L 74.694953 -355.296466 
L 74.677406 -359.331196 
L 74.646754 -363.365926 
L 74.606708 -367.400656 
L 74.561192 -371.435386 
L 74.51366 -375.470116 
L 74.466513 -379.504846 
L 74.420622 -383.539577 
L 74.374967 -387.574307 
L 74.32642 -391.609037 
L 74.269718 -395.643767 
L 74.197648 -399.678497 
L 74.10139 -403.713227 
L 73.970867 -407.747957 
L 73.794867 -411.782687 
L 73.56065 -415.817417 
L 73.252751 -419.852148 
L 72.850808 -423.886878 
L 72.326704 -427.921608 
L 71.642118 -431.956338 
L 70.74884 -435.991068 
L 69.595229 -440.025798 
L 68.142218 -444.060528 
L 66.389706 -448.095258 
L 64.408484 -452.129989 
L 62.365185 -456.164719 
L 60.522537 -460.199449 
L 59.200533 -464.234179 
L 58.69896 -468.268909 
L 59.203515 -472.303639 
L 60.713627 -476.338369 
L 93.296373 -476.338369 
L 93.296373 -476.338369 
L 94.806485 -472.303639 
L 95.31104 -468.268909 
L 94.809467 -464.234179 
L 93.487463 -460.199449 
L 91.644815 -456.164719 
L 89.601516 -452.129989 
L 87.620294 -448.095258 
L 85.867782 -444.060528 
L 84.414771 -440.025798 
L 83.26116 -435.991068 
L 82.367882 -431.956338 
L 81.683296 -427.921608 
L 81.159192 -423.886878 
L 80.757249 -419.852148 
L 80.44935 -415.817417 
L 80.215133 -411.782687 
L 80.039133 -407.747957 
L 79.90861 -403.713227 
L 79.812352 -399.678497 
L 79.740282 -395.643767 
L 79.68358 -391.609037 
L 79.635033 -387.574307 
L 79.589378 -383.539577 
L 79.543487 -379.504846 
L 79.49634 -375.470116 
L 79.448808 -371.435386 
L 79.403292 -367.400656 
L 79.363246 -363.365926 
L 79.332594 -359.331196 
L 79.315047 -355.296466 
L 79.313375 -351.261736 
L 79.328711 -347.227006 
L 79.360032 -343.192275 
L 79.403957 -339.157545 
L 79.455026 -335.122815 
L 79.506515 -331.088085 
L 79.551709 -327.053355 
L 79.585354 -323.018625 
L 79.604887 -318.983895 
L 79.611058 -314.949165 
L 79.607694 -310.914434 
L 79.600653 -306.879704 
L 79.59627 -302.844974 
L 79.599729 -298.810244 
L 79.613859 -294.775514 
L 79.638635 -290.740784 
L 79.671507 -286.706054 
L 79.708365 -282.671324 
L 79.744817 -278.636594 
L 79.777333 -274.601863 
L 79.803902 -270.567133 
L 79.824031 -266.532403 
L 79.838195 -262.497673 
L 79.847044 -258.462943 
L 79.850749 -254.428213 
L 79.84879 -250.393483 
L 79.840252 -246.358753 
L 79.824489 -242.324022 
L 79.801887 -238.289292 
L 79.774399 -234.254562 
L 79.745632 -230.219832 
L 79.720382 -226.185102 
L 79.703677 -222.150372 
L 79.699616 -218.115642 
L 79.710361 -214.080912 
L 79.735668 -210.046182 
L 79.773071 -206.011451 
L 79.81861 -201.976721 
L 79.867732 -197.941991 
L 79.916018 -193.907261 
L 79.959619 -189.872531 
L 79.995509 -185.837801 
L 80.021781 -181.803071 
L 80.038028 -177.768341 
L 80.045609 -173.733611 
L 80.04747 -169.69888 
L 80.047342 -165.66415 
L 80.048492 -161.62942 
L 80.052509 -157.59469 
L 80.058652 -153.55996 
L 80.064037 -149.52523 
L 80.064556 -145.4905 
L 80.056187 -141.45577 
L 80.036325 -137.421039 
L 80.004936 -133.386309 
L 79.965458 -129.351579 
L 79.925347 -125.316849 
L 79.895994 -121.282119 
L 79.891624 -117.247389 
L 79.926791 -113.212659 
L 80.012392 -109.177929 
L 80.150603 -105.143199 
L 80.329846 -101.108468 
L 80.521741 -97.073738 
L 80.682403 -93.039008 
L 80.759792 -89.004278 
L 80.706668 -84.969548 
L 80.495523 -80.934818 
L 80.129643 -76.900088 
z
" style="stroke: #4c4c4c; stroke-width: 1.25"/>
    </defs>
    <g clip-path="url(#p75de4f11df)">
     <use xlink:href="#m51d7c64914" x="0" y="504" style="fill: #5875a4; stroke: #4c4c4c; stroke-width: 1.25"/>
    </g>
   </g>
   <g id="FillBetweenPolyCollection_2">
    <defs>
     <path id="mdc1af2aded" d="M 128.798822 -76.900089 
L 122.631178 -76.900089 
L 122.113066 -80.934715 
L 121.670056 -84.96934 
L 121.324156 -89.003966 
L 121.080433 -93.038592 
L 120.929086 -97.073217 
L 120.851134 -101.107843 
L 120.825182 -105.142469 
L 120.832841 -109.177095 
L 120.861419 -113.21172 
L 120.903867 -117.246346 
L 120.957011 -121.280972 
L 121.019385 -125.315598 
L 121.089689 -129.350223 
L 121.166226 -133.384849 
L 121.24708 -137.419475 
L 121.330503 -141.4541 
L 121.415049 -145.488726 
L 121.499264 -149.523352 
L 121.5811 -153.557978 
L 121.657409 -157.592603 
L 121.723853 -161.627229 
L 121.775411 -165.661855 
L 121.807387 -169.696481 
L 121.816673 -173.731106 
L 121.802893 -177.765732 
L 121.769096 -181.800358 
L 121.721741 -185.834984 
L 121.669903 -189.869609 
L 121.62381 -193.904235 
L 121.593026 -197.938861 
L 121.58472 -201.973486 
L 121.602468 -206.008112 
L 121.645884 -210.042738 
L 121.711148 -214.077364 
L 121.792223 -218.111989 
L 121.882395 -222.146615 
L 121.975694 -226.181241 
L 122.06786 -230.215867 
L 122.156691 -234.250492 
L 122.241817 -238.285118 
L 122.324118 -242.319744 
L 122.405013 -246.35437 
L 122.485823 -250.388995 
L 122.56726 -254.423621 
L 122.649023 -258.458247 
L 122.729513 -262.492872 
L 122.80573 -266.527498 
L 122.873484 -270.562124 
L 122.92803 -274.59675 
L 122.96506 -278.631375 
L 122.981817 -282.666001 
L 122.977952 -286.700627 
L 122.955799 -290.735253 
L 122.919905 -294.769878 
L 122.875901 -298.804504 
L 122.829072 -302.83913 
L 122.783064 -306.873756 
L 122.739194 -310.908381 
L 122.696611 -314.943007 
L 122.653273 -318.977633 
L 122.60741 -323.012258 
L 122.558889 -327.046884 
L 122.509918 -331.08151 
L 122.464739 -335.116136 
L 122.428363 -339.150761 
L 122.404817 -343.185387 
L 122.395582 -347.220013 
L 122.398804 -351.254639 
L 122.409514 -355.289264 
L 122.420661 -359.32389 
L 122.424472 -363.358516 
L 122.413618 -367.393141 
L 122.381906 -371.427767 
L 122.324476 -375.462393 
L 122.237703 -379.497019 
L 122.119026 -383.531644 
L 121.966801 -387.56627 
L 121.780137 -391.600896 
L 121.558672 -395.635522 
L 121.302335 -399.670147 
L 121.011292 -403.704773 
L 120.686301 -407.739399 
L 120.329524 -411.774025 
L 119.945498 -415.80865 
L 119.541746 -419.843276 
L 119.1285 -423.877902 
L 118.717423 -427.912527 
L 118.319835 -431.947153 
L 117.945471 -435.981779 
L 117.602898 -440.016405 
L 117.302143 -444.05103 
L 117.059001 -448.085656 
L 116.89915 -452.120282 
L 116.859342 -456.154908 
L 116.983248 -460.189533 
L 117.311344 -464.224159 
L 117.867073 -468.258785 
L 118.644173 -472.293411 
L 119.600778 -476.328036 
L 131.829222 -476.328036 
L 131.829222 -476.328036 
L 132.785827 -472.293411 
L 133.562927 -468.258785 
L 134.118656 -464.224159 
L 134.446752 -460.189533 
L 134.570658 -456.154908 
L 134.53085 -452.120282 
L 134.370999 -448.085656 
L 134.127857 -444.05103 
L 133.827102 -440.016405 
L 133.484529 -435.981779 
L 133.110165 -431.947153 
L 132.712577 -427.912527 
L 132.3015 -423.877902 
L 131.888254 -419.843276 
L 131.484502 -415.80865 
L 131.100476 -411.774025 
L 130.743699 -407.739399 
L 130.418708 -403.704773 
L 130.127665 -399.670147 
L 129.871328 -395.635522 
L 129.649863 -391.600896 
L 129.463199 -387.56627 
L 129.310974 -383.531644 
L 129.192297 -379.497019 
L 129.105524 -375.462393 
L 129.048094 -371.427767 
L 129.016382 -367.393141 
L 129.005528 -363.358516 
L 129.009339 -359.32389 
L 129.020486 -355.289264 
L 129.031196 -351.254639 
L 129.034418 -347.220013 
L 129.025183 -343.185387 
L 129.001637 -339.150761 
L 128.965261 -335.116136 
L 128.920082 -331.08151 
L 128.871111 -327.046884 
L 128.82259 -323.012258 
L 128.776727 -318.977633 
L 128.733389 -314.943007 
L 128.690806 -310.908381 
L 128.646936 -306.873756 
L 128.600928 -302.83913 
L 128.554099 -298.804504 
L 128.510095 -294.769878 
L 128.474201 -290.735253 
L 128.452048 -286.700627 
L 128.448183 -282.666001 
L 128.46494 -278.631375 
L 128.50197 -274.59675 
L 128.556516 -270.562124 
L 128.62427 -266.527498 
L 128.700487 -262.492872 
L 128.780977 -258.458247 
L 128.86274 -254.423621 
L 128.944177 -250.388995 
L 129.024987 -246.35437 
L 129.105882 -242.319744 
L 129.188183 -238.285118 
L 129.273309 -234.250492 
L 129.36214 -230.215867 
L 129.454306 -226.181241 
L 129.547605 -222.146615 
L 129.637777 -218.111989 
L 129.718852 -214.077364 
L 129.784116 -210.042738 
L 129.827532 -206.008112 
L 129.84528 -201.973486 
L 129.836974 -197.938861 
L 129.80619 -193.904235 
L 129.760097 -189.869609 
L 129.708259 -185.834984 
L 129.660904 -181.800358 
L 129.627107 -177.765732 
L 129.613327 -173.731106 
L 129.622613 -169.696481 
L 129.654589 -165.661855 
L 129.706147 -161.627229 
L 129.772591 -157.592603 
L 129.8489 -153.557978 
L 129.930736 -149.523352 
L 130.014951 -145.488726 
L 130.099497 -141.4541 
L 130.18292 -137.419475 
L 130.263774 -133.384849 
L 130.340311 -129.350223 
L 130.410615 -125.315598 
L 130.472989 -121.280972 
L 130.526133 -117.246346 
L 130.568581 -113.21172 
L 130.597159 -109.177095 
L 130.604818 -105.142469 
L 130.578866 -101.107843 
L 130.500914 -97.073217 
L 130.349567 -93.038592 
L 130.105844 -89.003966 
L 129.759944 -84.96934 
L 129.316934 -80.934715 
L 128.798822 -76.900089 
z
" style="stroke: #4c4c4c; stroke-width: 1.25"/>
    </defs>
    <g clip-path="url(#p75de4f11df)">
     <use xlink:href="#mdc1af2aded" x="0" y="504" style="fill: #5875a4; stroke: #4c4c4c; stroke-width: 1.25"/>
    </g>
   </g>
   <g id="FillBetweenPolyCollection_3">
    <defs>
     <path id="m2f06acae85" d="M 180.32581 -76.900094 
L 168.52419 -76.900094 
L 167.872427 -80.93297 
L 167.425974 -84.965846 
L 167.198999 -88.998721 
L 167.174167 -93.031597 
L 167.311327 -97.064472 
L 167.560102 -101.097348 
L 167.871863 -105.130224 
L 168.2078 -109.163099 
L 168.542019 -113.195975 
L 168.860552 -117.22885 
L 169.158146 -121.261726 
L 169.434627 -125.294602 
L 169.69193 -129.327477 
L 169.932176 -133.360353 
L 170.156666 -137.393229 
L 170.365508 -141.426104 
L 170.557654 -145.45898 
L 170.731239 -149.491855 
L 170.884142 -153.524731 
L 171.014712 -157.557607 
L 171.122471 -161.590482 
L 171.208588 -165.623358 
L 171.275948 -169.656233 
L 171.328707 -173.689109 
L 171.371443 -177.721985 
L 171.408146 -181.75486 
L 171.441356 -185.787736 
L 171.471744 -189.820612 
L 171.498259 -193.853487 
L 171.518793 -197.886363 
L 171.531093 -201.919238 
L 171.533599 -205.952114 
L 171.525917 -209.98499 
L 171.508818 -214.017865 
L 171.483856 -218.050741 
L 171.452847 -222.083616 
L 171.417461 -226.116492 
L 171.379057 -230.149368 
L 171.338747 -234.182243 
L 171.297525 -238.215119 
L 171.256342 -242.247995 
L 171.216038 -246.28087 
L 171.177203 -250.313746 
L 171.140058 -254.346621 
L 171.104457 -258.379497 
L 171.070033 -262.412373 
L 171.036422 -266.445248 
L 171.003467 -270.478124 
L 170.971308 -274.511 
L 170.940333 -278.543875 
L 170.910997 -282.576751 
L 170.883603 -286.609626 
L 170.858133 -290.642502 
L 170.834227 -294.675378 
L 170.811329 -298.708253 
L 170.789 -302.741129 
L 170.767286 -306.774004 
L 170.747018 -310.80688 
L 170.72989 -314.839756 
L 170.718205 -318.872631 
L 170.714279 -322.905507 
L 170.719612 -326.938383 
L 170.734051 -330.971258 
L 170.75525 -335.004134 
L 170.778647 -339.037009 
L 170.798077 -343.069885 
L 170.806882 -347.102761 
L 170.799237 -351.135636 
L 170.7713 -355.168512 
L 170.72188 -359.201387 
L 170.652475 -363.234263 
L 170.566764 -367.267139 
L 170.469764 -371.300014 
L 170.366914 -375.33289 
L 170.263301 -379.365766 
L 170.163107 -383.398641 
L 170.069287 -387.431517 
L 169.983423 -391.464392 
L 169.905659 -395.497268 
L 169.834653 -399.530144 
L 169.767497 -403.563019 
L 169.699631 -407.595895 
L 169.624876 -411.62877 
L 169.535789 -415.661646 
L 169.424539 -419.694522 
L 169.284335 -423.727397 
L 169.111235 -427.760273 
L 168.90597 -431.793149 
L 168.675355 -435.826024 
L 168.432995 -439.8589 
L 168.199211 -443.891775 
L 168.00023 -447.924651 
L 167.866648 -451.957527 
L 167.830878 -455.990402 
L 167.923251 -460.023278 
L 168.166661 -464.056154 
L 168.570515 -468.089029 
L 169.125684 -472.121905 
L 169.802617 -476.15478 
L 179.047383 -476.15478 
L 179.047383 -476.15478 
L 179.724316 -472.121905 
L 180.279485 -468.089029 
L 180.683339 -464.056154 
L 180.926749 -460.023278 
L 181.019122 -455.990402 
L 180.983352 -451.957527 
L 180.84977 -447.924651 
L 180.650789 -443.891775 
L 180.417005 -439.8589 
L 180.174645 -435.826024 
L 179.94403 -431.793149 
L 179.738765 -427.760273 
L 179.565665 -423.727397 
L 179.425461 -419.694522 
L 179.314211 -415.661646 
L 179.225124 -411.62877 
L 179.150369 -407.595895 
L 179.082503 -403.563019 
L 179.015347 -399.530144 
L 178.944341 -395.497268 
L 178.866577 -391.464392 
L 178.780713 -387.431517 
L 178.686893 -383.398641 
L 178.586699 -379.365766 
L 178.483086 -375.33289 
L 178.380236 -371.300014 
L 178.283236 -367.267139 
L 178.197525 -363.234263 
L 178.12812 -359.201387 
L 178.0787 -355.168512 
L 178.050763 -351.135636 
L 178.043118 -347.102761 
L 178.051923 -343.069885 
L 178.071353 -339.037009 
L 178.09475 -335.004134 
L 178.115949 -330.971258 
L 178.130388 -326.938383 
L 178.135721 -322.905507 
L 178.131795 -318.872631 
L 178.12011 -314.839756 
L 178.102982 -310.80688 
L 178.082714 -306.774004 
L 178.061 -302.741129 
L 178.038671 -298.708253 
L 178.015773 -294.675378 
L 177.991867 -290.642502 
L 177.966397 -286.609626 
L 177.939003 -282.576751 
L 177.909667 -278.543875 
L 177.878692 -274.511 
L 177.846533 -270.478124 
L 177.813578 -266.445248 
L 177.779967 -262.412373 
L 177.745543 -258.379497 
L 177.709942 -254.346621 
L 177.672797 -250.313746 
L 177.633962 -246.28087 
L 177.593658 -242.247995 
L 177.552475 -238.215119 
L 177.511253 -234.182243 
L 177.470943 -230.149368 
L 177.432539 -226.116492 
L 177.397153 -222.083616 
L 177.366144 -218.050741 
L 177.341182 -214.017865 
L 177.324083 -209.98499 
L 177.316401 -205.952114 
L 177.318907 -201.919238 
L 177.331207 -197.886363 
L 177.351741 -193.853487 
L 177.378256 -189.820612 
L 177.408644 -185.787736 
L 177.441854 -181.75486 
L 177.478557 -177.721985 
L 177.521293 -173.689109 
L 177.574052 -169.656233 
L 177.641412 -165.623358 
L 177.727529 -161.590482 
L 177.835288 -157.557607 
L 177.965858 -153.524731 
L 178.118761 -149.491855 
L 178.292346 -145.45898 
L 178.484492 -141.426104 
L 178.693334 -137.393229 
L 178.917824 -133.360353 
L 179.15807 -129.327477 
L 179.415373 -125.294602 
L 179.691854 -121.261726 
L 179.989448 -117.22885 
L 180.307981 -113.195975 
L 180.6422 -109.163099 
L 180.978137 -105.130224 
L 181.289898 -101.097348 
L 181.538673 -97.064472 
L 181.675833 -93.031597 
L 181.651001 -88.998721 
L 181.424026 -84.965846 
L 180.977573 -80.93297 
L 180.32581 -76.900094 
z
" style="stroke: #4c4c4c; stroke-width: 1.25"/>
    </defs>
    <g clip-path="url(#p75de4f11df)">
     <use xlink:href="#m2f06acae85" x="0" y="504" style="fill: #5875a4; stroke: #4c4c4c; stroke-width: 1.25"/>
    </g>
   </g>
   <g id="FillBetweenPolyCollection_4">
    <defs>
     <path id="m69a4ab9a75" d="M 228.8414 -76.900088 
L 217.4286 -76.900088 
L 216.753779 -80.932655 
L 216.291278 -84.965222 
L 216.060921 -88.997788 
L 216.046183 -93.030355 
L 216.202335 -97.062922 
L 216.470385 -101.095489 
L 216.791806 -105.128056 
L 217.11977 -109.160623 
L 217.424697 -113.19319 
L 217.694155 -117.225757 
L 217.928705 -121.258324 
L 218.135927 -125.29089 
L 218.324709 -129.323457 
L 218.501244 -133.356024 
L 218.667421 -137.388591 
L 218.821465 -141.421158 
L 218.960006 -145.453725 
L 219.080478 -149.486292 
L 219.182784 -153.518859 
L 219.269673 -157.551426 
L 219.345847 -161.583992 
L 219.416362 -165.616559 
L 219.485078 -169.649126 
L 219.553761 -173.681693 
L 219.622073 -177.71426 
L 219.688261 -181.746827 
L 219.750139 -185.779394 
L 219.805911 -189.811961 
L 219.854565 -193.844528 
L 219.895813 -197.877094 
L 219.929739 -201.909661 
L 219.9564 -205.942228 
L 219.975592 -209.974795 
L 219.986863 -214.007362 
L 219.989756 -218.039929 
L 219.984151 -222.072496 
L 219.970563 -226.105063 
L 219.950264 -230.13763 
L 219.925161 -234.170196 
L 219.897427 -238.202763 
L 219.868971 -242.23533 
L 219.840914 -246.267897 
L 219.813237 -250.300464 
L 219.784759 -254.333031 
L 219.753491 -258.365598 
L 219.717289 -262.398165 
L 219.674599 -266.430732 
L 219.625039 -270.463299 
L 219.569578 -274.495865 
L 219.510217 -278.528432 
L 219.44929 -282.560999 
L 219.388629 -286.593566 
L 219.328941 -290.626133 
L 219.269646 -294.6587 
L 219.209257 -298.691267 
L 219.14617 -302.723834 
L 219.07957 -306.756401 
L 219.010125 -310.788967 
L 218.940198 -314.821534 
L 218.87348 -318.854101 
L 218.814155 -322.886668 
L 218.765881 -326.919235 
L 218.730925 -330.951802 
L 218.709741 -334.984369 
L 218.701054 -339.016936 
L 218.702322 -343.049503 
L 218.710301 -347.082069 
L 218.721456 -351.114636 
L 218.732136 -355.147203 
L 218.738622 -359.17977 
L 218.737282 -363.212337 
L 218.724987 -367.244904 
L 218.699757 -371.277471 
L 218.661391 -375.310038 
L 218.611712 -379.342605 
L 218.554176 -383.375171 
L 218.492842 -387.407738 
L 218.430994 -391.440305 
L 218.369921 -395.472872 
L 218.308308 -399.505439 
L 218.242519 -403.538006 
L 218.167732 -407.570573 
L 218.079566 -411.60314 
L 217.975772 -415.635707 
L 217.857504 -419.668274 
L 217.729967 -423.70084 
L 217.6024 -427.733407 
L 217.4876 -431.765974 
L 217.401183 -435.798541 
L 217.360668 -439.831108 
L 217.384281 -443.863675 
L 217.489243 -447.896242 
L 217.689422 -451.928809 
L 217.992501 -455.961376 
L 218.397227 -459.993942 
L 218.89158 -464.026509 
L 219.45274 -468.059076 
L 220.04929 -472.091643 
L 220.645497 -476.12421 
L 225.624503 -476.12421 
L 225.624503 -476.12421 
L 226.22071 -472.091643 
L 226.81726 -468.059076 
L 227.37842 -464.026509 
L 227.872773 -459.993942 
L 228.277499 -455.961376 
L 228.580578 -451.928809 
L 228.780757 -447.896242 
L 228.885719 -443.863675 
L 228.909332 -439.831108 
L 228.868817 -435.798541 
L 228.7824 -431.765974 
L 228.6676 -427.733407 
L 228.540033 -423.70084 
L 228.412496 -419.668274 
L 228.294228 -415.635707 
L 228.190434 -411.60314 
L 228.102268 -407.570573 
L 228.027481 -403.538006 
L 227.961692 -399.505439 
L 227.900079 -395.472872 
L 227.839006 -391.440305 
L 227.777158 -387.407738 
L 227.715824 -383.375171 
L 227.658288 -379.342605 
L 227.608609 -375.310038 
L 227.570243 -371.277471 
L 227.545013 -367.244904 
L 227.532718 -363.212337 
L 227.531378 -359.17977 
L 227.537864 -355.147203 
L 227.548544 -351.114636 
L 227.559699 -347.082069 
L 227.567678 -343.049503 
L 227.568946 -339.016936 
L 227.560259 -334.984369 
L 227.539075 -330.951802 
L 227.504119 -326.919235 
L 227.455845 -322.886668 
L 227.39652 -318.854101 
L 227.329802 -314.821534 
L 227.259875 -310.788967 
L 227.19043 -306.756401 
L 227.12383 -302.723834 
L 227.060743 -298.691267 
L 227.000354 -294.6587 
L 226.941059 -290.626133 
L 226.881371 -286.593566 
L 226.82071 -282.560999 
L 226.759783 -278.528432 
L 226.700422 -274.495865 
L 226.644961 -270.463299 
L 226.595401 -266.430732 
L 226.552711 -262.398165 
L 226.516509 -258.365598 
L 226.485241 -254.333031 
L 226.456763 -250.300464 
L 226.429086 -246.267897 
L 226.401029 -242.23533 
L 226.372573 -238.202763 
L 226.344839 -234.170196 
L 226.319736 -230.13763 
L 226.299437 -226.105063 
L 226.285849 -222.072496 
L 226.280244 -218.039929 
L 226.283137 -214.007362 
L 226.294408 -209.974795 
L 226.3136 -205.942228 
L 226.340261 -201.909661 
L 226.374187 -197.877094 
L 226.415435 -193.844528 
L 226.464089 -189.811961 
L 226.519861 -185.779394 
L 226.581739 -181.746827 
L 226.647927 -177.71426 
L 226.716239 -173.681693 
L 226.784922 -169.649126 
L 226.853638 -165.616559 
L 226.924153 -161.583992 
L 227.000327 -157.551426 
L 227.087216 -153.518859 
L 227.189522 -149.486292 
L 227.309994 -145.453725 
L 227.448535 -141.421158 
L 227.602579 -137.388591 
L 227.768756 -133.356024 
L 227.945291 -129.323457 
L 228.134073 -125.29089 
L 228.341295 -121.258324 
L 228.575845 -117.225757 
L 228.845303 -113.19319 
L 229.15023 -109.160623 
L 229.478194 -105.128056 
L 229.799615 -101.095489 
L 230.067665 -97.062922 
L 230.223817 -93.030355 
L 230.209079 -88.997788 
L 229.978722 -84.965222 
L 229.516221 -80.932655 
L 228.8414 -76.900088 
z
" style="stroke: #4c4c4c; stroke-width: 1.25"/>
    </defs>
    <g clip-path="url(#p75de4f11df)">
     <use xlink:href="#m69a4ab9a75" x="0" y="504" style="fill: #5875a4; stroke: #4c4c4c; stroke-width: 1.25"/>
    </g>
   </g>
   <g id="FillBetweenPolyCollection_5">
    <defs>
     <path id="md835ee94d4" d="M 277.971035 -76.9001 
L 265.718965 -76.9001 
L 265.074416 -80.934499 
L 264.659509 -84.968898 
L 264.490826 -89.003297 
L 264.549751 -93.037697 
L 264.791019 -97.072096 
L 265.156091 -101.106495 
L 265.586536 -105.140894 
L 266.033623 -109.175293 
L 266.4626 -113.209692 
L 266.85236 -117.244091 
L 267.19245 -121.27849 
L 267.479466 -125.312889 
L 267.714164 -129.347288 
L 267.899722 -133.381687 
L 268.040914 -137.416086 
L 268.143715 -141.450485 
L 268.214892 -145.484885 
L 268.261352 -149.519284 
L 268.289296 -153.553683 
L 268.303397 -157.588082 
L 268.306332 -161.622481 
L 268.29892 -165.65688 
L 268.280898 -169.691279 
L 268.25211 -173.725678 
L 268.213663 -177.760077 
L 268.168616 -181.794476 
L 268.121956 -185.828875 
L 268.079904 -189.863274 
L 268.048827 -193.897673 
L 268.034114 -197.932072 
L 268.039326 -201.966472 
L 268.065741 -206.000871 
L 268.112314 -210.03527 
L 268.175967 -214.069669 
L 268.252111 -218.104068 
L 268.335295 -222.138467 
L 268.419902 -226.172866 
L 268.500801 -230.207265 
L 268.573869 -234.241664 
L 268.636355 -238.276063 
L 268.687023 -242.310462 
L 268.726081 -246.344861 
L 268.754913 -250.37926 
L 268.775654 -254.413659 
L 268.790694 -258.448059 
L 268.802189 -262.482458 
L 268.811657 -266.516857 
L 268.819727 -270.551256 
L 268.826054 -274.585655 
L 268.829409 -278.620054 
L 268.827899 -282.654453 
L 268.819283 -286.688852 
L 268.801318 -290.723251 
L 268.772108 -294.75765 
L 268.730416 -298.792049 
L 268.67596 -302.826448 
L 268.609647 -306.860847 
L 268.533707 -310.895246 
L 268.451627 -314.929646 
L 268.367824 -318.964045 
L 268.287017 -322.998444 
L 268.213425 -327.032843 
L 268.149972 -331.067242 
L 268.097725 -335.101641 
L 268.055766 -339.13604 
L 268.021517 -343.170439 
L 267.991444 -347.204838 
L 267.961924 -351.239237 
L 267.930049 -355.273636 
L 267.89417 -359.308035 
L 267.854081 -363.342434 
L 267.810829 -367.376834 
L 267.766221 -371.411233 
L 267.722144 -375.445632 
L 267.679852 -379.480031 
L 267.639409 -383.51443 
L 267.599438 -387.548829 
L 267.557246 -391.583228 
L 267.509288 -395.617627 
L 267.451799 -399.652026 
L 267.381377 -403.686425 
L 267.295355 -407.720824 
L 267.191916 -411.755223 
L 267.070016 -415.789622 
L 266.929239 -419.824021 
L 266.769671 -423.858421 
L 266.591887 -427.89282 
L 266.397186 -431.927219 
L 266.188353 -435.961618 
L 265.97117 -439.996017 
L 265.756695 -444.030416 
L 265.563662 -448.064815 
L 265.419733 -452.099214 
L 265.360069 -456.133613 
L 265.422233 -460.168012 
L 265.637833 -464.202411 
L 266.023039 -468.23681 
L 266.571239 -472.271209 
L 267.250904 -476.305608 
L 276.439096 -476.305608 
L 276.439096 -476.305608 
L 277.118761 -472.271209 
L 277.666961 -468.23681 
L 278.052167 -464.202411 
L 278.267767 -460.168012 
L 278.329931 -456.133613 
L 278.270267 -452.099214 
L 278.126338 -448.064815 
L 277.933305 -444.030416 
L 277.71883 -439.996017 
L 277.501647 -435.961618 
L 277.292814 -431.927219 
L 277.098113 -427.89282 
L 276.920329 -423.858421 
L 276.760761 -419.824021 
L 276.619984 -415.789622 
L 276.498084 -411.755223 
L 276.394645 -407.720824 
L 276.308623 -403.686425 
L 276.238201 -399.652026 
L 276.180712 -395.617627 
L 276.132754 -391.583228 
L 276.090562 -387.548829 
L 276.050591 -383.51443 
L 276.010148 -379.480031 
L 275.967856 -375.445632 
L 275.923779 -371.411233 
L 275.879171 -367.376834 
L 275.835919 -363.342434 
L 275.79583 -359.308035 
L 275.759951 -355.273636 
L 275.728076 -351.239237 
L 275.698556 -347.204838 
L 275.668483 -343.170439 
L 275.634234 -339.13604 
L 275.592275 -335.101641 
L 275.540028 -331.067242 
L 275.476575 -327.032843 
L 275.402983 -322.998444 
L 275.322176 -318.964045 
L 275.238373 -314.929646 
L 275.156293 -310.895246 
L 275.080353 -306.860847 
L 275.01404 -302.826448 
L 274.959584 -298.792049 
L 274.917892 -294.75765 
L 274.888682 -290.723251 
L 274.870717 -286.688852 
L 274.862101 -282.654453 
L 274.860591 -278.620054 
L 274.863946 -274.585655 
L 274.870273 -270.551256 
L 274.878343 -266.516857 
L 274.887811 -262.482458 
L 274.899306 -258.448059 
L 274.914346 -254.413659 
L 274.935087 -250.37926 
L 274.963919 -246.344861 
L 275.002977 -242.310462 
L 275.053645 -238.276063 
L 275.116131 -234.241664 
L 275.189199 -230.207265 
L 275.270098 -226.172866 
L 275.354705 -222.138467 
L 275.437889 -218.104068 
L 275.514033 -214.069669 
L 275.577686 -210.03527 
L 275.624259 -206.000871 
L 275.650674 -201.966472 
L 275.655886 -197.932072 
L 275.641173 -193.897673 
L 275.610096 -189.863274 
L 275.568044 -185.828875 
L 275.521384 -181.794476 
L 275.476337 -177.760077 
L 275.43789 -173.725678 
L 275.409102 -169.691279 
L 275.39108 -165.65688 
L 275.383668 -161.622481 
L 275.386603 -157.588082 
L 275.400704 -153.553683 
L 275.428648 -149.519284 
L 275.475108 -145.484885 
L 275.546285 -141.450485 
L 275.649086 -137.416086 
L 275.790278 -133.381687 
L 275.975836 -129.347288 
L 276.210534 -125.312889 
L 276.49755 -121.27849 
L 276.83764 -117.244091 
L 277.2274 -113.209692 
L 277.656377 -109.175293 
L 278.103464 -105.140894 
L 278.533909 -101.106495 
L 278.898981 -97.072096 
L 279.140249 -93.037697 
L 279.199174 -89.003297 
L 279.030491 -84.968898 
L 278.615584 -80.934499 
L 277.971035 -76.9001 
z
" style="stroke: #4c4c4c; stroke-width: 1.25"/>
    </defs>
    <g clip-path="url(#p75de4f11df)">
     <use xlink:href="#md835ee94d4" x="0" y="504" style="fill: #5875a4; stroke: #4c4c4c; stroke-width: 1.25"/>
    </g>
   </g>
   <g id="FillBetweenPolyCollection_6">
    <defs>
     <path id="m430cb0f1c9" d="M 326.658701 -76.900089 
L 314.451299 -76.900089 
L 313.745542 -80.932676 
L 313.276543 -84.965263 
L 313.063157 -88.99785 
L 313.084236 -93.030437 
L 313.288767 -97.063024 
L 313.611912 -101.095611 
L 313.991025 -105.128198 
L 314.376981 -109.160785 
L 314.738887 -113.193373 
L 315.062914 -117.22596 
L 315.347609 -121.258547 
L 315.59826 -125.291134 
L 315.822176 -129.323721 
L 316.025687 -133.356308 
L 316.212809 -137.388895 
L 316.385076 -141.421482 
L 316.542006 -145.454069 
L 316.681828 -149.486656 
L 316.802331 -153.519243 
L 316.901766 -157.55183 
L 316.979734 -161.584418 
L 317.037857 -165.617005 
L 317.079992 -169.649592 
L 317.111785 -173.682179 
L 317.139575 -177.714766 
L 317.168909 -181.747353 
L 317.203125 -185.77994 
L 317.242476 -189.812527 
L 317.284064 -193.845114 
L 317.322609 -197.877701 
L 317.3518 -201.910288 
L 317.365863 -205.942875 
L 317.360993 -209.975463 
L 317.336356 -214.00805 
L 317.294512 -218.040637 
L 317.241119 -222.073224 
L 317.183957 -226.105811 
L 317.131373 -230.138398 
L 317.090463 -234.170985 
L 317.065421 -238.203572 
L 317.056514 -242.236159 
L 317.060027 -246.268746 
L 317.069262 -250.301333 
L 317.076335 -254.33392 
L 317.074232 -258.366508 
L 317.058481 -262.399095 
L 317.027907 -266.431682 
L 316.984281 -270.464269 
L 316.931078 -274.496856 
L 316.871887 -278.529443 
L 316.809117 -282.56203 
L 316.743486 -286.594617 
L 316.674439 -290.627204 
L 316.601259 -294.659791 
L 316.524383 -298.692378 
L 316.446368 -302.724965 
L 316.372097 -306.757552 
L 316.308083 -310.79014 
L 316.261048 -314.822727 
L 316.236141 -318.855314 
L 316.23533 -322.887901 
L 316.256384 -326.920488 
L 316.292787 -330.953075 
L 316.334664 -334.985662 
L 316.370566 -339.018249 
L 316.389717 -343.050836 
L 316.384188 -347.083423 
L 316.350421 -351.11601 
L 316.289727 -355.148597 
L 316.20764 -359.181185 
L 316.112394 -363.213772 
L 316.013004 -367.246359 
L 315.917493 -371.278946 
L 315.831662 -375.311533 
L 315.758519 -379.34412 
L 315.69828 -383.376707 
L 315.648711 -387.409294 
L 315.605689 -391.441881 
L 315.563932 -395.474468 
L 315.518007 -399.507055 
L 315.463612 -403.539642 
L 315.398972 -407.57223 
L 315.325943 -411.604817 
L 315.25036 -415.637404 
L 315.181303 -419.669991 
L 315.129399 -423.702578 
L 315.10472 -427.735165 
L 315.115101 -431.767752 
L 315.165573 -435.800339 
L 315.2591 -439.832926 
L 315.398148 -443.865513 
L 315.586149 -447.8981 
L 315.827901 -451.930687 
L 316.128373 -455.963275 
L 316.490127 -459.995862 
L 316.910251 -464.028449 
L 317.378076 -468.061036 
L 317.87479 -472.093623 
L 318.375436 -476.12621 
L 322.734564 -476.12621 
L 322.734564 -476.12621 
L 323.23521 -472.093623 
L 323.731924 -468.061036 
L 324.199749 -464.028449 
L 324.619873 -459.995862 
L 324.981627 -455.963275 
L 325.282099 -451.930687 
L 325.523851 -447.8981 
L 325.711852 -443.865513 
L 325.8509 -439.832926 
L 325.944427 -435.800339 
L 325.994899 -431.767752 
L 326.00528 -427.735165 
L 325.980601 -423.702578 
L 325.928697 -419.669991 
L 325.85964 -415.637404 
L 325.784057 -411.604817 
L 325.711028 -407.57223 
L 325.646388 -403.539642 
L 325.591993 -399.507055 
L 325.546068 -395.474468 
L 325.504311 -391.441881 
L 325.461289 -387.409294 
L 325.41172 -383.376707 
L 325.351481 -379.34412 
L 325.278338 -375.311533 
L 325.192507 -371.278946 
L 325.096996 -367.246359 
L 324.997606 -363.213772 
L 324.90236 -359.181185 
L 324.820273 -355.148597 
L 324.759579 -351.11601 
L 324.725812 -347.083423 
L 324.720283 -343.050836 
L 324.739434 -339.018249 
L 324.775336 -334.985662 
L 324.817213 -330.953075 
L 324.853616 -326.920488 
L 324.87467 -322.887901 
L 324.873859 -318.855314 
L 324.848952 -314.822727 
L 324.801917 -310.79014 
L 324.737903 -306.757552 
L 324.663632 -302.724965 
L 324.585617 -298.692378 
L 324.508741 -294.659791 
L 324.435561 -290.627204 
L 324.366514 -286.594617 
L 324.300883 -282.56203 
L 324.238113 -278.529443 
L 324.178922 -274.496856 
L 324.125719 -270.464269 
L 324.082093 -266.431682 
L 324.051519 -262.399095 
L 324.035768 -258.366508 
L 324.033665 -254.33392 
L 324.040738 -250.301333 
L 324.049973 -246.268746 
L 324.053486 -242.236159 
L 324.044579 -238.203572 
L 324.019537 -234.170985 
L 323.978627 -230.138398 
L 323.926043 -226.105811 
L 323.868881 -222.073224 
L 323.815488 -218.040637 
L 323.773644 -214.00805 
L 323.749007 -209.975463 
L 323.744137 -205.942875 
L 323.7582 -201.910288 
L 323.787391 -197.877701 
L 323.825936 -193.845114 
L 323.867524 -189.812527 
L 323.906875 -185.77994 
L 323.941091 -181.747353 
L 323.970425 -177.714766 
L 323.998215 -173.682179 
L 324.030008 -169.649592 
L 324.072143 -165.617005 
L 324.130266 -161.584418 
L 324.208234 -157.55183 
L 324.307669 -153.519243 
L 324.428172 -149.486656 
L 324.567994 -145.454069 
L 324.724924 -141.421482 
L 324.897191 -137.388895 
L 325.084313 -133.356308 
L 325.287824 -129.323721 
L 325.51174 -125.291134 
L 325.762391 -121.258547 
L 326.047086 -117.22596 
L 326.371113 -113.193373 
L 326.733019 -109.160785 
L 327.118975 -105.128198 
L 327.498088 -101.095611 
L 327.821233 -97.063024 
L 328.025764 -93.030437 
L 328.046843 -88.99785 
L 327.833457 -84.965263 
L 327.364458 -80.932676 
L 326.658701 -76.900089 
z
" style="stroke: #4c4c4c; stroke-width: 1.25"/>
    </defs>
    <g clip-path="url(#p75de4f11df)">
     <use xlink:href="#m430cb0f1c9" x="0" y="504" style="fill: #5875a4; stroke: #4c4c4c; stroke-width: 1.25"/>
    </g>
   </g>
   <g id="FillBetweenPolyCollection_7">
    <defs>
     <path id="m4598704f87" d="M 375.763543 -76.900088 
L 362.766457 -76.900088 
L 362.048504 -80.933489 
L 361.589633 -84.96689 
L 361.406841 -89.000291 
L 361.47426 -93.033693 
L 361.73466 -97.067094 
L 362.116953 -101.100495 
L 362.553319 -105.133896 
L 362.991042 -109.167297 
L 363.397205 -113.200698 
L 363.757195 -117.2341 
L 364.069589 -121.267501 
L 364.340114 -125.300902 
L 364.576619 -129.334303 
L 364.785971 -133.367704 
L 364.972876 -137.401105 
L 365.140119 -141.434506 
L 365.289502 -145.467908 
L 365.422824 -149.501309 
L 365.542453 -153.53471 
L 365.651331 -157.568111 
L 365.752494 -161.601512 
L 365.848372 -165.634913 
L 365.940149 -169.668315 
L 366.027445 -173.701716 
L 366.108414 -177.735117 
L 366.180222 -181.768518 
L 366.239701 -185.801919 
L 366.283948 -189.83532 
L 366.31069 -193.868722 
L 366.318392 -197.902123 
L 366.306258 -201.935524 
L 366.274324 -205.968925 
L 366.223783 -210.002326 
L 366.157471 -214.035727 
L 366.080226 -218.069128 
L 365.998768 -222.10253 
L 365.920845 -226.135931 
L 365.853714 -230.169332 
L 365.802371 -234.202733 
L 365.76819 -238.236134 
L 365.748544 -242.269535 
L 365.737652 -246.302937 
L 365.728404 -250.336338 
L 365.714512 -254.369739 
L 365.69223 -258.40314 
L 365.661083 -262.436541 
L 365.62347 -266.469942 
L 365.583414 -270.503343 
L 365.544986 -274.536745 
L 365.510936 -278.570146 
L 365.48192 -282.603547 
L 365.456442 -286.636948 
L 365.431432 -290.670349 
L 365.403235 -294.70375 
L 365.368701 -298.737152 
L 365.32612 -302.770553 
L 365.275778 -306.803954 
L 365.220027 -310.837355 
L 365.162865 -314.870756 
L 365.109131 -318.904157 
L 365.063475 -322.937558 
L 365.029339 -326.97096 
L 365.008184 -331.004361 
L 364.999149 -335.037762 
L 364.999264 -339.071163 
L 365.004151 -343.104564 
L 365.009014 -347.137965 
L 365.009579 -351.171367 
L 365.002714 -355.204768 
L 364.986578 -359.238169 
L 364.960434 -363.27157 
L 364.924355 -367.304971 
L 364.879084 -371.338372 
L 364.826105 -375.371773 
L 364.767755 -379.405175 
L 364.707127 -383.438576 
L 364.647572 -387.471977 
L 364.591844 -391.505378 
L 364.541181 -395.538779 
L 364.494658 -399.57218 
L 364.449115 -403.605582 
L 364.399754 -407.638983 
L 364.341319 -411.672384 
L 364.269669 -415.705785 
L 364.183438 -419.739186 
L 364.085426 -423.772587 
L 363.983362 -427.805989 
L 363.88972 -431.83939 
L 363.820569 -435.872791 
L 363.793669 -439.906192 
L 363.826286 -443.939593 
L 363.933156 -447.972994 
L 364.124839 -452.006395 
L 364.406385 -456.039797 
L 364.77615 -460.073198 
L 365.224794 -464.106599 
L 365.734824 -468.14 
L 366.281334 -472.173401 
L 366.834402 -476.206802 
L 371.695598 -476.206802 
L 371.695598 -476.206802 
L 372.248666 -472.173401 
L 372.795176 -468.14 
L 373.305206 -464.106599 
L 373.75385 -460.073198 
L 374.123615 -456.039797 
L 374.405161 -452.006395 
L 374.596844 -447.972994 
L 374.703714 -443.939593 
L 374.736331 -439.906192 
L 374.709431 -435.872791 
L 374.64028 -431.83939 
L 374.546638 -427.805989 
L 374.444574 -423.772587 
L 374.346562 -419.739186 
L 374.260331 -415.705785 
L 374.188681 -411.672384 
L 374.130246 -407.638983 
L 374.080885 -403.605582 
L 374.035342 -399.57218 
L 373.988819 -395.538779 
L 373.938156 -391.505378 
L 373.882428 -387.471977 
L 373.822873 -383.438576 
L 373.762245 -379.405175 
L 373.703895 -375.371773 
L 373.650916 -371.338372 
L 373.605645 -367.304971 
L 373.569566 -363.27157 
L 373.543422 -359.238169 
L 373.527286 -355.204768 
L 373.520421 -351.171367 
L 373.520986 -347.137965 
L 373.525849 -343.104564 
L 373.530736 -339.071163 
L 373.530851 -335.037762 
L 373.521816 -331.004361 
L 373.500661 -326.97096 
L 373.466525 -322.937558 
L 373.420869 -318.904157 
L 373.367135 -314.870756 
L 373.309973 -310.837355 
L 373.254222 -306.803954 
L 373.20388 -302.770553 
L 373.161299 -298.737152 
L 373.126765 -294.70375 
L 373.098568 -290.670349 
L 373.073558 -286.636948 
L 373.04808 -282.603547 
L 373.019064 -278.570146 
L 372.985014 -274.536745 
L 372.946586 -270.503343 
L 372.90653 -266.469942 
L 372.868917 -262.436541 
L 372.83777 -258.40314 
L 372.815488 -254.369739 
L 372.801596 -250.336338 
L 372.792348 -246.302937 
L 372.781456 -242.269535 
L 372.76181 -238.236134 
L 372.727629 -234.202733 
L 372.676286 -230.169332 
L 372.609155 -226.135931 
L 372.531232 -222.10253 
L 372.449774 -218.069128 
L 372.372529 -214.035727 
L 372.306217 -210.002326 
L 372.255676 -205.968925 
L 372.223742 -201.935524 
L 372.211608 -197.902123 
L 372.21931 -193.868722 
L 372.246052 -189.83532 
L 372.290299 -185.801919 
L 372.349778 -181.768518 
L 372.421586 -177.735117 
L 372.502555 -173.701716 
L 372.589851 -169.668315 
L 372.681628 -165.634913 
L 372.777506 -161.601512 
L 372.878669 -157.568111 
L 372.987547 -153.53471 
L 373.107176 -149.501309 
L 373.240498 -145.467908 
L 373.389881 -141.434506 
L 373.557124 -137.401105 
L 373.744029 -133.367704 
L 373.953381 -129.334303 
L 374.189886 -125.300902 
L 374.460411 -121.267501 
L 374.772805 -117.2341 
L 375.132795 -113.200698 
L 375.538958 -109.167297 
L 375.976681 -105.133896 
L 376.413047 -101.100495 
L 376.79534 -97.067094 
L 377.05574 -93.033693 
L 377.123159 -89.000291 
L 376.940367 -84.96689 
L 376.481496 -80.933489 
L 375.763543 -76.900088 
z
" style="stroke: #4c4c4c; stroke-width: 1.25"/>
    </defs>
    <g clip-path="url(#p75de4f11df)">
     <use xlink:href="#m4598704f87" x="0" y="504" style="fill: #5875a4; stroke: #4c4c4c; stroke-width: 1.25"/>
    </g>
   </g>
   <g id="FillBetweenPolyCollection_8">
    <defs>
     <path id="mec2cc2a4d6" d="M 424.138924 -76.90009 
L 411.811076 -76.90009 
L 411.09285 -80.933584 
L 410.596889 -84.967079 
L 410.343147 -89.000573 
L 410.31503 -93.034068 
L 410.468409 -97.067562 
L 410.746053 -101.101056 
L 411.092099 -105.134551 
L 411.462205 -109.168045 
L 411.827587 -113.20154 
L 412.173683 -117.235034 
L 412.495789 -121.268529 
L 412.794137 -125.302023 
L 413.070137 -129.335518 
L 413.324415 -133.369012 
L 413.556407 -137.402506 
L 413.76492 -141.436001 
L 413.948989 -145.469495 
L 414.108583 -149.50299 
L 414.24488 -153.536484 
L 414.360069 -157.569979 
L 414.456796 -161.603473 
L 414.537505 -165.636968 
L 414.603958 -169.670462 
L 414.657146 -173.703957 
L 414.697598 -177.737451 
L 414.725916 -181.770945 
L 414.743227 -185.80444 
L 414.751275 -189.837934 
L 414.752093 -193.871429 
L 414.747378 -197.904923 
L 414.737942 -201.938418 
L 414.72354 -205.971912 
L 414.703272 -210.005407 
L 414.676415 -214.038901 
L 414.643348 -218.072395 
L 414.606129 -222.10589 
L 414.568411 -226.139384 
L 414.534687 -230.172879 
L 414.509102 -234.206373 
L 414.494291 -238.239868 
L 414.490632 -242.273362 
L 414.496168 -246.306857 
L 414.507186 -250.340351 
L 414.519239 -254.373845 
L 414.528266 -258.40734 
L 414.531464 -262.440834 
L 414.527685 -266.474329 
L 414.517263 -270.507823 
L 414.501386 -274.541318 
L 414.481255 -278.574812 
L 414.457353 -282.608307 
L 414.429081 -286.641801 
L 414.394885 -290.675296 
L 414.352817 -294.70879 
L 414.301306 -298.742284 
L 414.239879 -302.775779 
L 414.169571 -306.809273 
L 414.092945 -310.842768 
L 414.013706 -314.876262 
L 413.93608 -318.909757 
L 413.864083 -322.943251 
L 413.800843 -326.976746 
L 413.748071 -331.01024 
L 413.70576 -335.043734 
L 413.672178 -339.077229 
L 413.644176 -343.110723 
L 413.61776 -347.144218 
L 413.588799 -351.177712 
L 413.553687 -355.211207 
L 413.509838 -359.244701 
L 413.455989 -363.278196 
L 413.392361 -367.31169 
L 413.320766 -371.345184 
L 413.244593 -375.378679 
L 413.168554 -379.412173 
L 413.098028 -383.445668 
L 413.038001 -387.479162 
L 412.991856 -391.512657 
L 412.96037 -395.546151 
L 412.941321 -399.579646 
L 412.929882 -403.61314 
L 412.919722 -407.646635 
L 412.904522 -411.680129 
L 412.879566 -415.713623 
L 412.843074 -419.747118 
L 412.797097 -423.780612 
L 412.747863 -427.814107 
L 412.705568 -431.847601 
L 412.68363 -435.881096 
L 412.69748 -439.91459 
L 412.762975 -443.948085 
L 412.894526 -447.981579 
L 413.103063 -452.015073 
L 413.394013 -456.048568 
L 413.765564 -460.082062 
L 414.207614 -464.115557 
L 414.701863 -468.149051 
L 415.223387 -472.182546 
L 415.743693 -476.21604 
L 420.206307 -476.21604 
L 420.206307 -476.21604 
L 420.726613 -472.182546 
L 421.248137 -468.149051 
L 421.742386 -464.115557 
L 422.184436 -460.082062 
L 422.555987 -456.048568 
L 422.846937 -452.015073 
L 423.055474 -447.981579 
L 423.187025 -443.948085 
L 423.25252 -439.91459 
L 423.26637 -435.881096 
L 423.244432 -431.847601 
L 423.202137 -427.814107 
L 423.152903 -423.780612 
L 423.106926 -419.747118 
L 423.070434 -415.713623 
L 423.045478 -411.680129 
L 423.030278 -407.646635 
L 423.020118 -403.61314 
L 423.008679 -399.579646 
L 422.98963 -395.546151 
L 422.958144 -391.512657 
L 422.911999 -387.479162 
L 422.851972 -383.445668 
L 422.781446 -379.412173 
L 422.705407 -375.378679 
L 422.629234 -371.345184 
L 422.557639 -367.31169 
L 422.494011 -363.278196 
L 422.440162 -359.244701 
L 422.396313 -355.211207 
L 422.361201 -351.177712 
L 422.33224 -347.144218 
L 422.305824 -343.110723 
L 422.277822 -339.077229 
L 422.24424 -335.043734 
L 422.201929 -331.01024 
L 422.149157 -326.976746 
L 422.085917 -322.943251 
L 422.01392 -318.909757 
L 421.936294 -314.876262 
L 421.857055 -310.842768 
L 421.780429 -306.809273 
L 421.710121 -302.775779 
L 421.648694 -298.742284 
L 421.597183 -294.70879 
L 421.555115 -290.675296 
L 421.520919 -286.641801 
L 421.492647 -282.608307 
L 421.468745 -278.574812 
L 421.448614 -274.541318 
L 421.432737 -270.507823 
L 421.422315 -266.474329 
L 421.418536 -262.440834 
L 421.421734 -258.40734 
L 421.430761 -254.373845 
L 421.442814 -250.340351 
L 421.453832 -246.306857 
L 421.459368 -242.273362 
L 421.455709 -238.239868 
L 421.440898 -234.206373 
L 421.415313 -230.172879 
L 421.381589 -226.139384 
L 421.343871 -222.10589 
L 421.306652 -218.072395 
L 421.273585 -214.038901 
L 421.246728 -210.005407 
L 421.22646 -205.971912 
L 421.212058 -201.938418 
L 421.202622 -197.904923 
L 421.197907 -193.871429 
L 421.198725 -189.837934 
L 421.206773 -185.80444 
L 421.224084 -181.770945 
L 421.252402 -177.737451 
L 421.292854 -173.703957 
L 421.346042 -169.670462 
L 421.412495 -165.636968 
L 421.493204 -161.603473 
L 421.589931 -157.569979 
L 421.70512 -153.536484 
L 421.841417 -149.50299 
L 422.001011 -145.469495 
L 422.18508 -141.436001 
L 422.393593 -137.402506 
L 422.625585 -133.369012 
L 422.879863 -129.335518 
L 423.155863 -125.302023 
L 423.454211 -121.268529 
L 423.776317 -117.235034 
L 424.122413 -113.20154 
L 424.487795 -109.168045 
L 424.857901 -105.134551 
L 425.203947 -101.101056 
L 425.481591 -97.067562 
L 425.63497 -93.034068 
L 425.606853 -89.000573 
L 425.353111 -84.967079 
L 424.85715 -80.933584 
L 424.138924 -76.90009 
z
" style="stroke: #4c4c4c; stroke-width: 1.25"/>
    </defs>
    <g clip-path="url(#p75de4f11df)">
     <use xlink:href="#mec2cc2a4d6" x="0" y="504" style="fill: #5875a4; stroke: #4c4c4c; stroke-width: 1.25"/>
    </g>
   </g>
   <g id="FillBetweenPolyCollection_9">
    <defs>
     <path id="md2c423cffc" d="M 483.726279 -76.900088 
L 449.643721 -76.900088 
L 447.882661 -80.830576 
L 447.201 -84.761063 
L 447.543085 -88.691551 
L 448.64967 -92.622039 
L 450.175509 -96.552527 
L 451.808594 -100.483014 
L 453.340516 -104.413502 
L 454.675633 -108.34399 
L 455.799441 -112.274477 
L 456.736658 -116.204965 
L 457.520219 -120.135453 
L 458.177082 -124.06594 
L 458.72628 -127.996428 
L 459.182157 -131.926916 
L 459.558064 -135.857404 
L 459.86891 -139.787891 
L 460.132448 -143.718379 
L 460.369084 -147.648867 
L 460.599773 -151.579354 
L 460.842191 -155.509842 
L 461.106552 -159.44033 
L 461.393075 -163.370817 
L 461.692315 -167.301305 
L 461.988036 -171.231793 
L 462.26116 -175.162281 
L 462.493504 -179.092768 
L 462.670949 -183.023256 
L 462.786325 -186.953744 
L 462.841799 -190.884231 
L 462.849675 -194.814719 
L 462.830338 -198.745207 
L 462.807224 -202.675694 
L 462.800425 -206.606182 
L 462.821561 -210.53667 
L 462.871975 -214.467158 
L 462.944582 -218.397645 
L 463.027928 -222.328133 
L 463.110314 -226.258621 
L 463.182419 -230.189108 
L 463.238211 -234.119596 
L 463.275027 -238.050084 
L 463.293766 -241.980571 
L 463.299318 -245.911059 
L 463.300342 -249.841547 
L 463.307482 -253.772034 
L 463.330146 -257.702522 
L 463.373352 -261.63301 
L 463.43642 -265.563498 
L 463.514282 -269.493985 
L 463.600518 -273.424473 
L 463.690346 -277.354961 
L 463.782075 -281.285448 
L 463.876746 -285.215936 
L 463.976656 -289.146424 
L 464.083842 -293.076911 
L 464.199196 -297.007399 
L 464.322268 -300.937887 
L 464.451325 -304.868375 
L 464.583311 -308.798862 
L 464.713672 -312.72935 
L 464.836454 -316.659838 
L 464.945099 -320.590325 
L 465.03401 -324.520813 
L 465.100369 -328.451301 
L 465.145345 -332.381788 
L 465.173963 -336.312276 
L 465.193488 -340.242764 
L 465.210961 -344.173252 
L 465.230914 -348.103739 
L 465.254134 -352.034227 
L 465.277753 -355.964715 
L 465.296372 -359.895202 
L 465.30376 -363.82569 
L 465.294843 -367.756178 
L 465.267719 -371.686665 
L 465.225244 -375.617153 
L 465.175404 -379.547641 
L 465.129875 -383.478129 
L 465.100894 -387.408616 
L 465.09753 -391.339104 
L 465.12298 -395.269592 
L 465.174139 -399.200079 
L 465.243636 -403.130567 
L 465.323341 -407.061055 
L 465.407627 -410.991542 
L 465.494876 -414.92203 
L 465.586656 -418.852518 
L 465.68525 -422.783006 
L 465.791014 -426.713493 
L 465.901004 -430.643981 
L 466.009483 -434.574469 
L 466.109848 -438.504956 
L 466.196923 -442.435444 
L 466.268563 -446.365932 
L 466.326046 -450.296419 
L 466.373248 -454.226907 
L 466.415033 -458.157395 
L 466.455468 -462.087883 
L 466.496514 -466.01837 
L 466.873486 -466.01837 
L 466.873486 -466.01837 
L 466.914532 -462.087883 
L 466.954967 -458.157395 
L 466.996752 -454.226907 
L 467.043954 -450.296419 
L 467.101437 -446.365932 
L 467.173077 -442.435444 
L 467.260152 -438.504956 
L 467.360517 -434.574469 
L 467.468996 -430.643981 
L 467.578986 -426.713493 
L 467.68475 -422.783006 
L 467.783344 -418.852518 
L 467.875124 -414.92203 
L 467.962373 -410.991542 
L 468.046659 -407.061055 
L 468.126364 -403.130567 
L 468.195861 -399.200079 
L 468.24702 -395.269592 
L 468.27247 -391.339104 
L 468.269106 -387.408616 
L 468.240125 -383.478129 
L 468.194596 -379.547641 
L 468.144756 -375.617153 
L 468.102281 -371.686665 
L 468.075157 -367.756178 
L 468.06624 -363.82569 
L 468.073628 -359.895202 
L 468.092247 -355.964715 
L 468.115866 -352.034227 
L 468.139086 -348.103739 
L 468.159039 -344.173252 
L 468.176512 -340.242764 
L 468.196037 -336.312276 
L 468.224655 -332.381788 
L 468.269631 -328.451301 
L 468.33599 -324.520813 
L 468.424901 -320.590325 
L 468.533546 -316.659838 
L 468.656328 -312.72935 
L 468.786689 -308.798862 
L 468.918675 -304.868375 
L 469.047732 -300.937887 
L 469.170804 -297.007399 
L 469.286158 -293.076911 
L 469.393344 -289.146424 
L 469.493254 -285.215936 
L 469.587925 -281.285448 
L 469.679654 -277.354961 
L 469.769482 -273.424473 
L 469.855718 -269.493985 
L 469.93358 -265.563498 
L 469.996648 -261.63301 
L 470.039854 -257.702522 
L 470.062518 -253.772034 
L 470.069658 -249.841547 
L 470.070682 -245.911059 
L 470.076234 -241.980571 
L 470.094973 -238.050084 
L 470.131789 -234.119596 
L 470.187581 -230.189108 
L 470.259686 -226.258621 
L 470.342072 -222.328133 
L 470.425418 -218.397645 
L 470.498025 -214.467158 
L 470.548439 -210.53667 
L 470.569575 -206.606182 
L 470.562776 -202.675694 
L 470.539662 -198.745207 
L 470.520325 -194.814719 
L 470.528201 -190.884231 
L 470.583675 -186.953744 
L 470.699051 -183.023256 
L 470.876496 -179.092768 
L 471.10884 -175.162281 
L 471.381964 -171.231793 
L 471.677685 -167.301305 
L 471.976925 -163.370817 
L 472.263448 -159.44033 
L 472.527809 -155.509842 
L 472.770227 -151.579354 
L 473.000916 -147.648867 
L 473.237552 -143.718379 
L 473.50109 -139.787891 
L 473.811936 -135.857404 
L 474.187843 -131.926916 
L 474.64372 -127.996428 
L 475.192918 -124.06594 
L 475.849781 -120.135453 
L 476.633342 -116.204965 
L 477.570559 -112.274477 
L 478.694367 -108.34399 
L 480.029484 -104.413502 
L 481.561406 -100.483014 
L 483.194491 -96.552527 
L 484.72033 -92.622039 
L 485.826915 -88.691551 
L 486.169 -84.761063 
L 485.487339 -80.830576 
L 483.726279 -76.900088 
z
" style="stroke: #4c4c4c; stroke-width: 1.25"/>
    </defs>
    <g clip-path="url(#p75de4f11df)">
     <use xlink:href="#md2c423cffc" x="0" y="504" style="fill: #5875a4; stroke: #4c4c4c; stroke-width: 1.25"/>
    </g>
   </g>
   <g id="line2d_7">
    <path d="M 77.005 427.099912 
L 77.005 27.661631 
" clip-path="url(#p75de4f11df)" style="fill: none; stroke: #4c4c4c; stroke-width: 1.875; stroke-linecap: round"/>
   </g>
   <g id="line2d_8">
    <path d="M 77.005 289.432821 
L 77.005 36.723816 
" clip-path="url(#p75de4f11df)" style="fill: none; stroke: #4c4c4c; stroke-width: 5.625; stroke-linecap: round"/>
   </g>
   <g id="line2d_9">
    <path d="M 77.005 110.517184 
" clip-path="url(#p75de4f11df)" style="fill: none; stroke: #4c4c4c; stroke-width: 1.5; stroke-linecap: round"/>
    <defs>
     <path id="md1b2ebaf7d" d="M 2.34375 0 
L -2.34375 -0 
" style="stroke: #ffffff; stroke-width: 1.125"/>
    </defs>
    <g clip-path="url(#p75de4f11df)">
     <use xlink:href="#md1b2ebaf7d" x="77.005" y="110.517184" style="fill: #ffffff; stroke: #ffffff; stroke-width: 1.125"/>
    </g>
   </g>
   <g id="line2d_10">
    <path d="M 125.715 427.099911 
L 125.715 27.671964 
" clip-path="url(#p75de4f11df)" style="fill: none; stroke: #4c4c4c; stroke-width: 1.875; stroke-linecap: round"/>
   </g>
   <g id="line2d_11">
    <path d="M 125.715 330.164482 
L 125.715 73.480446 
" clip-path="url(#p75de4f11df)" style="fill: none; stroke: #4c4c4c; stroke-width: 5.625; stroke-linecap: round"/>
   </g>
   <g id="line2d_12">
    <path d="M 125.715 193.261479 
" clip-path="url(#p75de4f11df)" style="fill: none; stroke: #4c4c4c; stroke-width: 1.5; stroke-linecap: round"/>
    <g clip-path="url(#p75de4f11df)">
     <use xlink:href="#md1b2ebaf7d" x="125.715" y="193.261479" style="fill: #ffffff; stroke: #ffffff; stroke-width: 1.125"/>
    </g>
   </g>
   <g id="line2d_13">
    <path d="M 174.425 427.099906 
L 174.425 27.84522 
" clip-path="url(#p75de4f11df)" style="fill: none; stroke: #4c4c4c; stroke-width: 1.875; stroke-linecap: round"/>
   </g>
   <g id="line2d_14">
    <path d="M 174.425 366.009023 
L 174.425 97.954233 
" clip-path="url(#p75de4f11df)" style="fill: none; stroke: #4c4c4c; stroke-width: 5.625; stroke-linecap: round"/>
   </g>
   <g id="line2d_15">
    <path d="M 174.425 218.957802 
" clip-path="url(#p75de4f11df)" style="fill: none; stroke: #4c4c4c; stroke-width: 1.5; stroke-linecap: round"/>
    <g clip-path="url(#p75de4f11df)">
     <use xlink:href="#md1b2ebaf7d" x="174.425" y="218.957802" style="fill: #ffffff; stroke: #ffffff; stroke-width: 1.125"/>
    </g>
   </g>
   <g id="line2d_16">
    <path d="M 223.135 427.099912 
L 223.135 27.87579 
" clip-path="url(#p75de4f11df)" style="fill: none; stroke: #4c4c4c; stroke-width: 1.875; stroke-linecap: round"/>
   </g>
   <g id="line2d_17">
    <path d="M 223.135 363.261396 
L 223.135 115.313613 
" clip-path="url(#p75de4f11df)" style="fill: none; stroke: #4c4c4c; stroke-width: 5.625; stroke-linecap: round"/>
   </g>
   <g id="line2d_18">
    <path d="M 223.135 225.039591 
" clip-path="url(#p75de4f11df)" style="fill: none; stroke: #4c4c4c; stroke-width: 1.5; stroke-linecap: round"/>
    <g clip-path="url(#p75de4f11df)">
     <use xlink:href="#md1b2ebaf7d" x="223.135" y="225.039591" style="fill: #ffffff; stroke: #ffffff; stroke-width: 1.125"/>
    </g>
   </g>
   <g id="line2d_19">
    <path d="M 271.845 427.0999 
L 271.845 27.694392 
" clip-path="url(#p75de4f11df)" style="fill: none; stroke: #4c4c4c; stroke-width: 1.875; stroke-linecap: round"/>
   </g>
   <g id="line2d_20">
    <path d="M 271.845 361.290607 
L 271.845 99.296294 
" clip-path="url(#p75de4f11df)" style="fill: none; stroke: #4c4c4c; stroke-width: 5.625; stroke-linecap: round"/>
   </g>
   <g id="line2d_21">
    <path d="M 271.845 225.760578 
" clip-path="url(#p75de4f11df)" style="fill: none; stroke: #4c4c4c; stroke-width: 1.5; stroke-linecap: round"/>
    <g clip-path="url(#p75de4f11df)">
     <use xlink:href="#md1b2ebaf7d" x="271.845" y="225.760578" style="fill: #ffffff; stroke: #ffffff; stroke-width: 1.125"/>
    </g>
   </g>
   <g id="line2d_22">
    <path d="M 320.555 427.099911 
L 320.555 27.87379 
" clip-path="url(#p75de4f11df)" style="fill: none; stroke: #4c4c4c; stroke-width: 1.875; stroke-linecap: round"/>
   </g>
   <g id="line2d_23">
    <path d="M 320.555 366.482346 
L 320.555 120.177611 
" clip-path="url(#p75de4f11df)" style="fill: none; stroke: #4c4c4c; stroke-width: 5.625; stroke-linecap: round"/>
   </g>
   <g id="line2d_24">
    <path d="M 320.555 230.357567 
" clip-path="url(#p75de4f11df)" style="fill: none; stroke: #4c4c4c; stroke-width: 1.5; stroke-linecap: round"/>
    <g clip-path="url(#p75de4f11df)">
     <use xlink:href="#md1b2ebaf7d" x="320.555" y="230.357567" style="fill: #ffffff; stroke: #ffffff; stroke-width: 1.125"/>
    </g>
   </g>
   <g id="line2d_25">
    <path d="M 369.265 427.099912 
L 369.265 27.793198 
" clip-path="url(#p75de4f11df)" style="fill: none; stroke: #4c4c4c; stroke-width: 1.875; stroke-linecap: round"/>
   </g>
   <g id="line2d_26">
    <path d="M 369.265 370.339404 
L 369.265 118.644069 
" clip-path="url(#p75de4f11df)" style="fill: none; stroke: #4c4c4c; stroke-width: 5.625; stroke-linecap: round"/>
   </g>
   <g id="line2d_27">
    <path d="M 369.265 231.821552 
" clip-path="url(#p75de4f11df)" style="fill: none; stroke: #4c4c4c; stroke-width: 1.5; stroke-linecap: round"/>
    <g clip-path="url(#p75de4f11df)">
     <use xlink:href="#md1b2ebaf7d" x="369.265" y="231.821552" style="fill: #ffffff; stroke: #ffffff; stroke-width: 1.125"/>
    </g>
   </g>
   <g id="line2d_28">
    <path d="M 417.975 427.09991 
L 417.975 27.78396 
" clip-path="url(#p75de4f11df)" style="fill: none; stroke: #4c4c4c; stroke-width: 1.875; stroke-linecap: round"/>
   </g>
   <g id="line2d_29">
    <path d="M 417.975 370.441694 
L 417.975 119.689818 
" clip-path="url(#p75de4f11df)" style="fill: none; stroke: #4c4c4c; stroke-width: 5.625; stroke-linecap: round"/>
   </g>
   <g id="line2d_30">
    <path d="M 417.975 234.178 
" clip-path="url(#p75de4f11df)" style="fill: none; stroke: #4c4c4c; stroke-width: 1.5; stroke-linecap: round"/>
    <g clip-path="url(#p75de4f11df)">
     <use xlink:href="#md1b2ebaf7d" x="417.975" y="234.178" style="fill: #ffffff; stroke: #ffffff; stroke-width: 1.125"/>
    </g>
   </g>
   <g id="line2d_31">
    <path d="M 466.685 427.099912 
L 466.685 84.791482 
" clip-path="url(#p75de4f11df)" style="fill: none; stroke: #4c4c4c; stroke-width: 1.875; stroke-linecap: round"/>
   </g>
   <g id="line2d_32">
    <path d="M 466.685 416.954658 
L 466.685 284.04527 
" clip-path="url(#p75de4f11df)" style="fill: none; stroke: #4c4c4c; stroke-width: 5.625; stroke-linecap: round"/>
   </g>
   <g id="line2d_33">
    <path d="M 466.685 377.639656 
" clip-path="url(#p75de4f11df)" style="fill: none; stroke: #4c4c4c; stroke-width: 1.5; stroke-linecap: round"/>
    <g clip-path="url(#p75de4f11df)">
     <use xlink:href="#md1b2ebaf7d" x="466.685" y="377.639656" style="fill: #ffffff; stroke: #ffffff; stroke-width: 1.125"/>
    </g>
   </g>
   <g id="patch_3">
    <path d="M 52.65 427.099912 
L 52.65 27.65625 
" style="fill: none; stroke: #cccccc; stroke-width: 1.25; stroke-linejoin: miter; stroke-linecap: square"/>
   </g>
   <g id="patch_4">
    <path d="M 491.04 427.099912 
L 491.04 27.65625 
" style="fill: none; stroke: #cccccc; stroke-width: 1.25; stroke-linejoin: miter; stroke-linecap: square"/>
   </g>
   <g id="patch_5">
    <path d="M 52.65 427.099912 
L 491.04 427.099912 
" style="fill: none; stroke: #cccccc; stroke-width: 1.25; stroke-linejoin: miter; stroke-linecap: square"/>
   </g>
   <g id="patch_6">
    <path d="M 52.65 27.65625 
L 491.04 27.65625 
" style="fill: none; stroke: #cccccc; stroke-width: 1.25; stroke-linejoin: miter; stroke-linecap: square"/>
   </g>
   <g id="text_18">
    <!-- Pearson Correlation of Modified vs. Unmodified Spectra -->
    <g style="fill: #262626" transform="translate(123.781875 21.65625) scale(0.12 -0.12)">
     <defs>
      <path id="ArialMT-76" d="M 1344 0 
L 81 3319 
L 675 3319 
L 1388 1331 
Q 1503 1009 1600 663 
Q 1675 925 1809 1294 
L 2547 3319 
L 3125 3319 
L 1869 0 
L 1344 0 
z
" transform="scale(0.015625)"/>
      <path id="ArialMT-55" d="M 3500 4581 
L 4106 4581 
L 4106 1934 
Q 4106 1244 3950 837 
Q 3794 431 3386 176 
Q 2978 -78 2316 -78 
Q 1672 -78 1262 144 
Q 853 366 678 786 
Q 503 1206 503 1934 
L 503 4581 
L 1109 4581 
L 1109 1938 
Q 1109 1341 1220 1058 
Q 1331 775 1601 622 
Q 1872 469 2263 469 
Q 2931 469 3215 772 
Q 3500 1075 3500 1938 
L 3500 4581 
z
" transform="scale(0.015625)"/>
     </defs>
     <use xlink:href="#ArialMT-50"/>
     <use xlink:href="#ArialMT-65" transform="translate(66.699219 0)"/>
     <use xlink:href="#ArialMT-61" transform="translate(122.314453 0)"/>
     <use xlink:href="#ArialMT-72" transform="translate(177.929688 0)"/>
     <use xlink:href="#ArialMT-73" transform="translate(211.230469 0)"/>
     <use xlink:href="#ArialMT-6f" transform="translate(261.230469 0)"/>
     <use xlink:href="#ArialMT-6e" transform="translate(316.845703 0)"/>
     <use xlink:href="#ArialMT-20" transform="translate(372.460938 0)"/>
     <use xlink:href="#ArialMT-43" transform="translate(400.244141 0)"/>
     <use xlink:href="#ArialMT-6f" transform="translate(472.460938 0)"/>
     <use xlink:href="#ArialMT-72" transform="translate(528.076172 0)"/>
     <use xlink:href="#ArialMT-72" transform="translate(561.376953 0)"/>
     <use xlink:href="#ArialMT-65" transform="translate(594.677734 0)"/>
     <use xlink:href="#ArialMT-6c" transform="translate(650.292969 0)"/>
     <use xlink:href="#ArialMT-61" transform="translate(672.509766 0)"/>
     <use xlink:href="#ArialMT-74" transform="translate(728.125 0)"/>
     <use xlink:href="#ArialMT-69" transform="translate(755.908203 0)"/>
     <use xlink:href="#ArialMT-6f" transform="translate(778.125 0)"/>
     <use xlink:href="#ArialMT-6e" transform="translate(833.740234 0)"/>
     <use xlink:href="#ArialMT-20" transform="translate(889.355469 0)"/>
     <use xlink:href="#ArialMT-6f" transform="translate(917.138672 0)"/>
     <use xlink:href="#ArialMT-66" transform="translate(972.753906 0)"/>
     <use xlink:href="#ArialMT-20" transform="translate(1000.537109 0)"/>
     <use xlink:href="#ArialMT-4d" transform="translate(1028.320312 0)"/>
     <use xlink:href="#ArialMT-6f" transform="translate(1111.621094 0)"/>
     <use xlink:href="#ArialMT-64" transform="translate(1167.236328 0)"/>
     <use xlink:href="#ArialMT-69" transform="translate(1222.851562 0)"/>
     <use xlink:href="#ArialMT-66" transform="translate(1245.068359 0)"/>
     <use xlink:href="#ArialMT-69" transform="translate(1272.851562 0)"/>
     <use xlink:href="#ArialMT-65" transform="translate(1295.068359 0)"/>
     <use xlink:href="#ArialMT-64" transform="translate(1350.683594 0)"/>
     <use xlink:href="#ArialMT-20" transform="translate(1406.298828 0)"/>
     <use xlink:href="#ArialMT-76" transform="translate(1434.082031 0)"/>
     <use xlink:href="#ArialMT-73" transform="translate(1484.082031 0)"/>
     <use xlink:href="#ArialMT-2e" transform="translate(1534.082031 0)"/>
     <use xlink:href="#ArialMT-20" transform="translate(1561.865234 0)"/>
     <use xlink:href="#ArialMT-55" transform="translate(1589.648438 0)"/>
     <use xlink:href="#ArialMT-6e" transform="translate(1661.865234 0)"/>
     <use xlink:href="#ArialMT-6d" transform="translate(1717.480469 0)"/>
     <use xlink:href="#ArialMT-6f" transform="translate(1800.78125 0)"/>
     <use xlink:href="#ArialMT-64" transform="translate(1856.396484 0)"/>
     <use xlink:href="#ArialMT-69" transform="translate(1912.011719 0)"/>
     <use xlink:href="#ArialMT-66" transform="translate(1934.228516 0)"/>
     <use xlink:href="#ArialMT-69" transform="translate(1962.011719 0)"/>
     <use xlink:href="#ArialMT-65" transform="translate(1984.228516 0)"/>
     <use xlink:href="#ArialMT-64" transform="translate(2039.84375 0)"/>
     <use xlink:href="#ArialMT-20" transform="translate(2095.458984 0)"/>
     <use xlink:href="#ArialMT-53" transform="translate(2123.242188 0)"/>
     <use xlink:href="#ArialMT-70" transform="translate(2189.941406 0)"/>
     <use xlink:href="#ArialMT-65" transform="translate(2245.556641 0)"/>
     <use xlink:href="#ArialMT-63" transform="translate(2301.171875 0)"/>
     <use xlink:href="#ArialMT-74" transform="translate(2351.171875 0)"/>
     <use xlink:href="#ArialMT-72" transform="translate(2378.955078 0)"/>
     <use xlink:href="#ArialMT-61" transform="translate(2412.255859 0)"/>
    </g>
   </g>
  </g>
 </g>
 <defs>
  <clipPath id="p75de4f11df">
   <rect x="52.65" y="27.65625" width="438.39" height="399.443662"/>
  </clipPath>
 </defs>
</svg>
