<?xml version="1.0" encoding="utf-8" standalone="no"?>
<!DOCTYPE svg PUBLIC "-//W3C//DTD SVG 1.1//EN"
  "http://www.w3.org/Graphics/SVG/1.1/DTD/svg11.dtd">
<svg xmlns:xlink="http://www.w3.org/1999/xlink" width="460.8pt" height="345.6pt" viewBox="0 0 460.8 345.6" xmlns="http://www.w3.org/2000/svg" version="1.1">
 <metadata>
  <rdf:RDF xmlns:dc="http://purl.org/dc/elements/1.1/" xmlns:cc="http://creativecommons.org/ns#" xmlns:rdf="http://www.w3.org/1999/02/22-rdf-syntax-ns#">
   <cc:Work>
    <dc:type rdf:resource="http://purl.org/dc/dcmitype/StillImage"/>
    <dc:date>2025-06-03T09:27:21.822274</dc:date>
    <dc:format>image/svg+xml</dc:format>
    <dc:creator>
     <cc:Agent>
      <dc:title>Matplotlib v3.9.2, https://matplotlib.org/</dc:title>
     </cc:Agent>
    </dc:creator>
   </cc:Work>
  </rdf:RDF>
 </metadata>
 <defs>
  <style type="text/css">*{stroke-linejoin: round; stroke-linecap: butt}</style>
 </defs>
 <g id="figure_1">
  <g id="patch_1">
   <path d="M 0 345.6 
L 460.8 345.6 
L 460.8 0 
L 0 0 
z
" style="fill: #ffffff"/>
  </g>
  <g id="axes_1">
   <g id="patch_2">
    <path d="M 57.6 307.584 
L 414.72 307.584 
L 414.72 41.472 
L 57.6 41.472 
z
" style="fill: #ffffff"/>
   </g>
   <g id="PolyCollection_1">
    <path d="M -391.382893 307.572185 
L -391.382893 307.584 
L -387.794276 307.584 
L -384.205659 307.584 
L -380.617043 307.584 
L -377.028426 307.584 
L -373.439809 307.584 
L -369.851192 307.584 
L -366.262576 307.584 
L -362.673959 307.584 
L -359.085342 307.584 
L -355.496726 307.584 
L -351.908109 307.584 
L -348.319492 307.584 
L -344.730876 307.584 
L -341.142259 307.584 
L -337.553642 307.584 
L -333.965026 307.584 
L -330.376409 307.584 
L -326.787792 307.584 
L -323.199176 307.584 
L -319.610559 307.584 
L -316.021942 307.584 
L -312.433326 307.584 
L -308.844709 307.584 
L -305.256092 307.584 
L -301.667476 307.584 
L -298.078859 307.584 
L -294.490242 307.584 
L -290.901626 307.584 
L -287.313009 307.584 
L -283.724392 307.584 
L -280.135776 307.584 
L -276.547159 307.584 
L -272.958542 307.584 
L -269.369926 307.584 
L -265.781309 307.584 
L -262.192692 307.584 
L -258.604076 307.584 
L -255.015459 307.584 
L -251.426842 307.584 
L -247.838226 307.584 
L -244.249609 307.584 
L -240.660992 307.584 
L -237.072376 307.584 
L -233.483759 307.584 
L -229.895142 307.584 
L -226.306526 307.584 
L -222.717909 307.584 
L -219.129292 307.584 
L -215.540676 307.584 
L -211.952059 307.584 
L -208.363442 307.584 
L -204.774826 307.584 
L -201.186209 307.584 
L -197.597592 307.584 
L -194.008976 307.584 
L -190.420359 307.584 
L -186.831742 307.584 
L -183.243125 307.584 
L -179.654509 307.584 
L -176.065892 307.584 
L -172.477275 307.584 
L -168.888659 307.584 
L -165.300042 307.584 
L -161.711425 307.584 
L -158.122809 307.584 
L -154.534192 307.584 
L -150.945575 307.584 
L -147.356959 307.584 
L -143.768342 307.584 
L -140.179725 307.584 
L -136.591109 307.584 
L -133.002492 307.584 
L -129.413875 307.584 
L -125.825259 307.584 
L -122.236642 307.584 
L -118.648025 307.584 
L -115.059409 307.584 
L -111.470792 307.584 
L -107.882175 307.584 
L -104.293559 307.584 
L -100.704942 307.584 
L -97.116325 307.584 
L -93.527709 307.584 
L -89.939092 307.584 
L -86.350475 307.584 
L -82.761859 307.584 
L -79.173242 307.584 
L -75.584625 307.584 
L -71.996009 307.584 
L -68.407392 307.584 
L -64.818775 307.584 
L -61.230159 307.584 
L -57.641542 307.584 
L -54.052925 307.584 
L -50.464309 307.584 
L -46.875692 307.584 
L -43.287075 307.584 
L -39.698459 307.584 
L -36.109842 307.584 
L -32.521225 307.584 
L -28.932609 307.584 
L -25.343992 307.584 
L -21.755375 307.584 
L -18.166759 307.584 
L -14.578142 307.584 
L -10.989525 307.584 
L -7.400909 307.584 
L -3.812292 307.584 
L -0.223675 307.584 
L 3.364941 307.584 
L 6.953558 307.584 
L 10.542175 307.584 
L 14.130792 307.584 
L 17.719408 307.584 
L 21.308025 307.584 
L 24.896642 307.584 
L 28.485258 307.584 
L 32.073875 307.584 
L 35.662492 307.584 
L 39.251108 307.584 
L 42.839725 307.584 
L 46.428342 307.584 
L 50.016958 307.584 
L 53.605575 307.584 
L 57.194192 307.584 
L 60.782808 307.584 
L 64.371425 307.584 
L 67.960042 307.584 
L 71.548658 307.584 
L 75.137275 307.584 
L 78.725892 307.584 
L 82.314508 307.584 
L 85.903125 307.584 
L 89.491742 307.584 
L 93.080358 307.584 
L 96.668975 307.584 
L 100.257592 307.584 
L 103.846208 307.584 
L 107.434825 307.584 
L 111.023442 307.584 
L 114.612058 307.584 
L 118.200675 307.584 
L 121.789292 307.584 
L 125.377908 307.584 
L 128.966525 307.584 
L 132.555142 307.584 
L 136.143758 307.584 
L 139.732375 307.584 
L 143.320992 307.584 
L 146.909608 307.584 
L 150.498225 307.584 
L 154.086842 307.584 
L 157.675458 307.584 
L 161.264075 307.584 
L 164.852692 307.584 
L 168.441308 307.584 
L 172.029925 307.584 
L 175.618542 307.584 
L 179.207158 307.584 
L 182.795775 307.584 
L 186.384392 307.584 
L 189.973008 307.584 
L 193.561625 307.584 
L 197.150242 307.584 
L 200.738859 307.584 
L 204.327475 307.584 
L 207.916092 307.584 
L 211.504709 307.584 
L 215.093325 307.584 
L 218.681942 307.584 
L 222.270559 307.584 
L 225.859175 307.584 
L 229.447792 307.584 
L 233.036409 307.584 
L 236.625025 307.584 
L 240.213642 307.584 
L 243.802259 307.584 
L 247.390875 307.584 
L 250.979492 307.584 
L 254.568109 307.584 
L 258.156725 307.584 
L 261.745342 307.584 
L 265.333959 307.584 
L 268.922575 307.584 
L 272.511192 307.584 
L 276.099809 307.584 
L 279.688425 307.584 
L 283.277042 307.584 
L 286.865659 307.584 
L 290.454275 307.584 
L 294.042892 307.584 
L 297.631509 307.584 
L 301.220125 307.584 
L 304.808742 307.584 
L 308.397359 307.584 
L 311.985975 307.584 
L 315.574592 307.584 
L 319.163209 307.584 
L 322.751825 307.584 
L 322.751825 307.572185 
L 322.751825 307.572185 
L 319.163209 307.484677 
L 315.574592 307.159439 
L 311.985975 306.66119 
L 308.397359 306.56408 
L 304.808742 307.010806 
L 301.220125 307.420198 
L 297.631509 307.560198 
L 294.042892 307.582241 
L 290.454275 307.583934 
L 286.865659 307.583999 
L 283.277042 307.584 
L 279.688425 307.584 
L 276.099809 307.584 
L 272.511192 307.584 
L 268.922575 307.583999 
L 265.333959 307.583966 
L 261.745342 307.582976 
L 258.156725 307.568294 
L 254.568109 307.460707 
L 250.979492 307.080314 
L 247.390875 306.45759 
L 243.802259 306.019825 
L 240.213642 305.928119 
L 236.625025 305.828635 
L 233.036409 305.160132 
L 229.447792 304.473162 
L 225.859175 305.091052 
L 222.270559 306.463432 
L 218.681942 307.293167 
L 215.093325 307.42238 
L 211.504709 307.010005 
L 207.916092 306.127163 
L 204.327475 305.361569 
L 200.738859 305.268155 
L 197.150242 305.538179 
L 193.561625 305.300806 
L 189.973008 303.82127 
L 186.384392 301.814436 
L 182.795775 300.739617 
L 179.207158 300.010684 
L 175.618542 296.550661 
L 172.029925 288.870321 
L 168.441308 275.615078 
L 164.852692 248.034262 
L 161.264075 195.299236 
L 157.675458 123.165958 
L 154.086842 64.546691 
L 150.498225 56.303479 
L 146.909608 102.528715 
L 143.320992 170.47553 
L 139.732375 226.704897 
L 136.143758 262.747786 
L 132.555142 283.17047 
L 128.966525 294.104561 
L 125.377908 299.780851 
L 121.789292 301.382769 
L 118.200675 300.622389 
L 114.612058 300.992864 
L 111.023442 303.274946 
L 107.434825 305.443519 
L 103.846208 306.456507 
L 100.257592 306.209676 
L 96.668975 305.518454 
L 93.080358 305.76264 
L 89.491742 306.648115 
L 85.903125 306.928015 
L 82.314508 306.558355 
L 78.725892 306.29849 
L 75.137275 306.278182 
L 71.548658 306.37392 
L 67.960042 306.813457 
L 64.371425 307.28992 
L 60.782808 307.36634 
L 57.194192 306.99617 
L 53.605575 306.559302 
L 50.016958 306.669068 
L 46.428342 307.168521 
L 42.839725 307.488061 
L 39.251108 307.572735 
L 35.662492 307.583327 
L 32.073875 307.58398 
L 28.485258 307.584 
L 24.896642 307.584 
L 21.308025 307.584 
L 17.719408 307.584 
L 14.130792 307.584 
L 10.542175 307.584 
L 6.953558 307.584 
L 3.364941 307.584 
L -0.223675 307.584 
L -3.812292 307.584 
L -7.400909 307.584 
L -10.989525 307.584 
L -14.578142 307.584 
L -18.166759 307.584 
L -21.755375 307.584 
L -25.343992 307.584 
L -28.932609 307.584 
L -32.521225 307.584 
L -36.109842 307.584 
L -39.698459 307.584 
L -43.287075 307.584 
L -46.875692 307.584 
L -50.464309 307.584 
L -54.052925 307.584 
L -57.641542 307.584 
L -61.230159 307.584 
L -64.818775 307.584 
L -68.407392 307.584 
L -71.996009 307.584 
L -75.584625 307.584 
L -79.173242 307.584 
L -82.761859 307.584 
L -86.350475 307.584 
L -89.939092 307.584 
L -93.527709 307.584 
L -97.116325 307.584 
L -100.704942 307.584 
L -104.293559 307.584 
L -107.882175 307.584 
L -111.470792 307.584 
L -115.059409 307.584 
L -118.648025 307.584 
L -122.236642 307.584 
L -125.825259 307.584 
L -129.413875 307.584 
L -133.002492 307.584 
L -136.591109 307.584 
L -140.179725 307.584 
L -143.768342 307.584 
L -147.356959 307.584 
L -150.945575 307.584 
L -154.534192 307.584 
L -158.122809 307.584 
L -161.711425 307.584 
L -165.300042 307.584 
L -168.888659 307.584 
L -172.477275 307.584 
L -176.065892 307.584 
L -179.654509 307.584 
L -183.243125 307.584 
L -186.831742 307.584 
L -190.420359 307.584 
L -194.008976 307.584 
L -197.597592 307.584 
L -201.186209 307.584 
L -204.774826 307.584 
L -208.363442 307.584 
L -211.952059 307.584 
L -215.540676 307.584 
L -219.129292 307.584 
L -222.717909 307.584 
L -226.306526 307.584 
L -229.895142 307.584 
L -233.483759 307.584 
L -237.072376 307.584 
L -240.660992 307.584 
L -244.249609 307.584 
L -247.838226 307.584 
L -251.426842 307.584 
L -255.015459 307.584 
L -258.604076 307.584 
L -262.192692 307.584 
L -265.781309 307.584 
L -269.369926 307.584 
L -272.958542 307.584 
L -276.547159 307.584 
L -280.135776 307.584 
L -283.724392 307.584 
L -287.313009 307.584 
L -290.901626 307.584 
L -294.490242 307.584 
L -298.078859 307.584 
L -301.667476 307.584 
L -305.256092 307.584 
L -308.844709 307.584 
L -312.433326 307.584 
L -316.021942 307.584 
L -319.610559 307.584 
L -323.199176 307.584 
L -326.787792 307.584 
L -330.376409 307.584 
L -333.965026 307.584 
L -337.553642 307.584 
L -341.142259 307.584 
L -344.730876 307.584 
L -348.319492 307.584 
L -351.908109 307.584 
L -355.496726 307.583999 
L -359.085342 307.583934 
L -362.673959 307.582241 
L -366.262576 307.560198 
L -369.851192 307.420198 
L -373.439809 307.010806 
L -377.028426 306.56408 
L -380.617043 306.66119 
L -384.205659 307.159439 
L -387.794276 307.484677 
L -391.382893 307.572185 
z
" clip-path="url(#p499ee87d2b)" style="fill: #1f77b4; fill-opacity: 0.1; stroke: #1f77b4"/>
   </g>
   <g id="PolyCollection_2">
    <defs>
     <path id="me245386ef9" d="M 149.734631 -38.034033 
L 149.734631 -38.016 
L 150.920627 -38.016 
L 152.106622 -38.016 
L 153.292617 -38.016 
L 154.478613 -38.016 
L 155.664608 -38.016 
L 156.850604 -38.016 
L 158.036599 -38.016 
L 159.222594 -38.016 
L 160.40859 -38.016 
L 161.594585 -38.016 
L 162.78058 -38.016 
L 163.966576 -38.016 
L 165.152571 -38.016 
L 166.338567 -38.016 
L 167.524562 -38.016 
L 168.710557 -38.016 
L 169.896553 -38.016 
L 171.082548 -38.016 
L 172.268544 -38.016 
L 173.454539 -38.016 
L 174.640534 -38.016 
L 175.82653 -38.016 
L 177.012525 -38.016 
L 178.19852 -38.016 
L 179.384516 -38.016 
L 180.570511 -38.016 
L 181.756507 -38.016 
L 182.942502 -38.016 
L 184.128497 -38.016 
L 185.314493 -38.016 
L 186.500488 -38.016 
L 187.686484 -38.016 
L 188.872479 -38.016 
L 190.058474 -38.016 
L 191.24447 -38.016 
L 192.430465 -38.016 
L 193.616461 -38.016 
L 194.802456 -38.016 
L 195.988451 -38.016 
L 197.174447 -38.016 
L 198.360442 -38.016 
L 199.546437 -38.016 
L 200.732433 -38.016 
L 201.918428 -38.016 
L 203.104424 -38.016 
L 204.290419 -38.016 
L 205.476414 -38.016 
L 206.66241 -38.016 
L 207.848405 -38.016 
L 209.034401 -38.016 
L 210.220396 -38.016 
L 211.406391 -38.016 
L 212.592387 -38.016 
L 213.778382 -38.016 
L 214.964377 -38.016 
L 216.150373 -38.016 
L 217.336368 -38.016 
L 218.522364 -38.016 
L 219.708359 -38.016 
L 220.894354 -38.016 
L 222.08035 -38.016 
L 223.266345 -38.016 
L 224.452341 -38.016 
L 225.638336 -38.016 
L 226.824331 -38.016 
L 228.010327 -38.016 
L 229.196322 -38.016 
L 230.382317 -38.016 
L 231.568313 -38.016 
L 232.754308 -38.016 
L 233.940304 -38.016 
L 235.126299 -38.016 
L 236.312294 -38.016 
L 237.49829 -38.016 
L 238.684285 -38.016 
L 239.870281 -38.016 
L 241.056276 -38.016 
L 242.242271 -38.016 
L 243.428267 -38.016 
L 244.614262 -38.016 
L 245.800257 -38.016 
L 246.986253 -38.016 
L 248.172248 -38.016 
L 249.358244 -38.016 
L 250.544239 -38.016 
L 251.730234 -38.016 
L 252.91623 -38.016 
L 254.102225 -38.016 
L 255.288221 -38.016 
L 256.474216 -38.016 
L 257.660211 -38.016 
L 258.846207 -38.016 
L 260.032202 -38.016 
L 261.218197 -38.016 
L 262.404193 -38.016 
L 263.590188 -38.016 
L 264.776184 -38.016 
L 265.962179 -38.016 
L 267.148174 -38.016 
L 268.33417 -38.016 
L 269.520165 -38.016 
L 270.706161 -38.016 
L 271.892156 -38.016 
L 273.078151 -38.016 
L 274.264147 -38.016 
L 275.450142 -38.016 
L 276.636137 -38.016 
L 277.822133 -38.016 
L 279.008128 -38.016 
L 280.194124 -38.016 
L 281.380119 -38.016 
L 282.566114 -38.016 
L 283.75211 -38.016 
L 284.938105 -38.016 
L 286.124101 -38.016 
L 287.310096 -38.016 
L 288.496091 -38.016 
L 289.682087 -38.016 
L 290.868082 -38.016 
L 292.054077 -38.016 
L 293.240073 -38.016 
L 294.426068 -38.016 
L 295.612064 -38.016 
L 296.798059 -38.016 
L 297.984054 -38.016 
L 299.17005 -38.016 
L 300.356045 -38.016 
L 301.542041 -38.016 
L 302.728036 -38.016 
L 303.914031 -38.016 
L 305.100027 -38.016 
L 306.286022 -38.016 
L 307.472017 -38.016 
L 308.658013 -38.016 
L 309.844008 -38.016 
L 311.030004 -38.016 
L 312.215999 -38.016 
L 313.401994 -38.016 
L 314.58799 -38.016 
L 315.773985 -38.016 
L 316.959981 -38.016 
L 318.145976 -38.016 
L 319.331971 -38.016 
L 320.517967 -38.016 
L 321.703962 -38.016 
L 322.889958 -38.016 
L 324.075953 -38.016 
L 325.261948 -38.016 
L 326.447944 -38.016 
L 327.633939 -38.016 
L 328.819934 -38.016 
L 330.00593 -38.016 
L 331.191925 -38.016 
L 332.377921 -38.016 
L 333.563916 -38.016 
L 334.749911 -38.016 
L 335.935907 -38.016 
L 337.121902 -38.016 
L 338.307898 -38.016 
L 339.493893 -38.016 
L 340.679888 -38.016 
L 341.865884 -38.016 
L 343.051879 -38.016 
L 344.237874 -38.016 
L 345.42387 -38.016 
L 346.609865 -38.016 
L 347.795861 -38.016 
L 348.981856 -38.016 
L 350.167851 -38.016 
L 351.353847 -38.016 
L 352.539842 -38.016 
L 353.725838 -38.016 
L 354.911833 -38.016 
L 356.097828 -38.016 
L 357.283824 -38.016 
L 358.469819 -38.016 
L 359.655814 -38.016 
L 360.84181 -38.016 
L 362.027805 -38.016 
L 363.213801 -38.016 
L 364.399796 -38.016 
L 365.585791 -38.016 
L 366.771787 -38.016 
L 367.957782 -38.016 
L 369.143778 -38.016 
L 370.329773 -38.016 
L 371.515768 -38.016 
L 372.701764 -38.016 
L 373.887759 -38.016 
L 375.073754 -38.016 
L 376.25975 -38.016 
L 377.445745 -38.016 
L 378.631741 -38.016 
L 379.817736 -38.016 
L 381.003731 -38.016 
L 382.189727 -38.016 
L 383.375722 -38.016 
L 384.561718 -38.016 
L 385.747713 -38.016 
L 385.747713 -38.036153 
L 385.747713 -38.036153 
L 384.561718 -38.05378 
L 383.375722 -38.083869 
L 382.189727 -38.132862 
L 381.003731 -38.20894 
L 379.817736 -38.321555 
L 378.631741 -38.48039 
L 377.445745 -38.693725 
L 376.25975 -38.966418 
L 375.073754 -39.297917 
L 373.887759 -39.680925 
L 372.701764 -40.101331 
L 371.515768 -40.53982 
L 370.329773 -40.975142 
L 369.143778 -41.38845 
L 367.957782 -41.767701 
L 366.771787 -42.110849 
L 365.585791 -42.426822 
L 364.399796 -42.733787 
L 363.213801 -43.05502 
L 362.027805 -43.413371 
L 360.84181 -43.825783 
L 359.655814 -44.299304 
L 358.469819 -44.829592 
L 357.283824 -45.40228 
L 356.097828 -45.996714 
L 354.911833 -46.591027 
L 353.725838 -47.167123 
L 352.539842 -47.714211 
L 351.353847 -48.229978 
L 350.167851 -48.719228 
L 348.981856 -49.190664 
L 347.795861 -49.653206 
L 346.609865 -50.113475 
L 345.42387 -50.575727 
L 344.237874 -51.044567 
L 343.051879 -51.529517 
L 341.865884 -52.049411 
L 340.679888 -52.63418 
L 339.493893 -53.322153 
L 338.307898 -54.152521 
L 337.121902 -55.154529 
L 335.935907 -56.336575 
L 334.749911 -57.679023 
L 333.563916 -59.13377 
L 332.377921 -60.631761 
L 331.191925 -62.097232 
L 330.00593 -63.465362 
L 328.819934 -64.69883 
L 327.633939 -65.798851 
L 326.447944 -66.807503 
L 325.261948 -67.800309 
L 324.075953 -68.870544 
L 322.889958 -70.108968 
L 321.703962 -71.584103 
L 320.517967 -73.328083 
L 319.331971 -75.331558 
L 318.145976 -77.548349 
L 316.959981 -79.907691 
L 315.773985 -82.329872 
L 314.58799 -84.74081 
L 313.401994 -87.082449 
L 312.215999 -89.318069 
L 311.030004 -91.433415 
L 309.844008 -93.43514 
L 308.658013 -95.347363 
L 307.472017 -97.205924 
L 306.286022 -99.04935 
L 305.100027 -100.906319 
L 303.914031 -102.781453 
L 302.728036 -104.643486 
L 301.542041 -106.420847 
L 300.356045 -108.008474 
L 299.17005 -109.286324 
L 297.984054 -110.145641 
L 296.798059 -110.515593 
L 295.612064 -110.381908 
L 294.426068 -109.79131 
L 293.240073 -108.840161 
L 292.054077 -107.650947 
L 290.868082 -106.344072 
L 289.682087 -105.01349 
L 288.496091 -103.712784 
L 287.310096 -102.454413 
L 286.124101 -101.220493 
L 284.938105 -99.980287 
L 283.75211 -98.708245 
L 282.566114 -97.397126 
L 281.380119 -96.062844 
L 280.194124 -94.740384 
L 279.008128 -93.472702 
L 277.822133 -92.296342 
L 276.636137 -91.22827 
L 275.450142 -90.258041 
L 274.264147 -89.348021 
L 273.078151 -88.442289 
L 271.892156 -87.482518 
L 270.706161 -86.427111 
L 269.520165 -85.26861 
L 268.33417 -84.044302 
L 267.148174 -82.836106 
L 265.962179 -81.758226 
L 264.776184 -80.934242 
L 263.590188 -80.468457 
L 262.404193 -80.41852 
L 261.218197 -80.776719 
L 260.032202 -81.465379 
L 258.846207 -82.348083 
L 257.660211 -83.253946 
L 256.474216 -84.008536 
L 255.288221 -84.463546 
L 254.102225 -84.518385 
L 252.91623 -84.129996 
L 251.730234 -83.310924 
L 250.544239 -82.118628 
L 249.358244 -80.640168 
L 248.172248 -78.975902 
L 246.986253 -77.224334 
L 245.800257 -75.469087 
L 244.614262 -73.768597 
L 243.428267 -72.149623 
L 242.242271 -70.606217 
L 241.056276 -69.105571 
L 239.870281 -67.600695 
L 238.684285 -66.047607 
L 237.49829 -64.422611 
L 236.312294 -62.734456 
L 235.126299 -61.027219 
L 233.940304 -59.372551 
L 232.754308 -57.853245 
L 231.568313 -56.542844 
L 230.382317 -55.487139 
L 229.196322 -54.692555 
L 228.010327 -54.124177 
L 226.824331 -53.713285 
L 225.638336 -53.371744 
L 224.452341 -53.009179 
L 223.266345 -52.548687 
L 222.08035 -51.937833 
L 220.894354 -51.153365 
L 219.708359 -50.199866 
L 218.522364 -49.104013 
L 217.336368 -47.906737 
L 216.150373 -46.655507 
L 214.964377 -45.398139 
L 213.778382 -44.178618 
L 212.592387 -43.034585 
L 211.406391 -41.995887 
L 210.220396 -41.083631 
L 209.034401 -40.309607 
L 207.848405 -39.676248 
L 206.66241 -39.177361 
L 205.476414 -38.799745 
L 204.290419 -38.525511 
L 203.104424 -38.334679 
L 201.918428 -38.207568 
L 200.732433 -38.126605 
L 199.546437 -38.077356 
L 198.360442 -38.048845 
L 197.174447 -38.03334 
L 195.988451 -38.025851 
L 194.802456 -38.023585 
L 193.616461 -38.025488 
L 192.430465 -38.031972 
L 191.24447 -38.044798 
L 190.058474 -38.067067 
L 188.872479 -38.103178 
L 187.686484 -38.158601 
L 186.500488 -38.239331 
L 185.314493 -38.350927 
L 184.128497 -38.497206 
L 182.942502 -38.678823 
L 181.756507 -38.89213 
L 180.570511 -39.128755 
L 179.384516 -39.37624 
L 178.19852 -39.619764 
L 177.012525 -39.844565 
L 175.82653 -40.038366 
L 174.640534 -40.19301 
L 173.454539 -40.304752 
L 172.268544 -40.37319 
L 171.082548 -40.399381 
L 169.896553 -40.384051 
L 168.710557 -40.326752 
L 167.524562 -40.226365 
L 166.338567 -40.082718 
L 165.152571 -39.898533 
L 163.966576 -39.680785 
L 162.78058 -39.440784 
L 161.594585 -39.19286 
L 160.40859 -38.952067 
L 159.222594 -38.731682 
L 158.036599 -38.541252 
L 156.850604 -38.385656 
L 155.664608 -38.265273 
L 154.478613 -38.176971 
L 153.292617 -38.115504 
L 152.106622 -38.074859 
L 150.920627 -38.04931 
L 149.734631 -38.034033 
z
" style="stroke: #ff7f0e"/>
    </defs>
    <g clip-path="url(#p499ee87d2b)">
     <use xlink:href="#me245386ef9" x="0" y="345.6" style="fill: #ff7f0e; fill-opacity: 0.1; stroke: #ff7f0e"/>
    </g>
   </g>
   <g id="PolyCollection_3">
    <defs>
     <path id="mb2415e4ac8" d="M 37.445131 -38.039618 
L 37.445131 -38.016 
L 38.785703 -38.016 
L 40.126276 -38.016 
L 41.466849 -38.016 
L 42.807422 -38.016 
L 44.147994 -38.016 
L 45.488567 -38.016 
L 46.82914 -38.016 
L 48.169712 -38.016 
L 49.510285 -38.016 
L 50.850858 -38.016 
L 52.19143 -38.016 
L 53.532003 -38.016 
L 54.872576 -38.016 
L 56.213149 -38.016 
L 57.553721 -38.016 
L 58.894294 -38.016 
L 60.234867 -38.016 
L 61.575439 -38.016 
L 62.916012 -38.016 
L 64.256585 -38.016 
L 65.597157 -38.016 
L 66.93773 -38.016 
L 68.278303 -38.016 
L 69.618876 -38.016 
L 70.959448 -38.016 
L 72.300021 -38.016 
L 73.640594 -38.016 
L 74.981166 -38.016 
L 76.321739 -38.016 
L 77.662312 -38.016 
L 79.002884 -38.016 
L 80.343457 -38.016 
L 81.68403 -38.016 
L 83.024602 -38.016 
L 84.365175 -38.016 
L 85.705748 -38.016 
L 87.046321 -38.016 
L 88.386893 -38.016 
L 89.727466 -38.016 
L 91.068039 -38.016 
L 92.408611 -38.016 
L 93.749184 -38.016 
L 95.089757 -38.016 
L 96.430329 -38.016 
L 97.770902 -38.016 
L 99.111475 -38.016 
L 100.452048 -38.016 
L 101.79262 -38.016 
L 103.133193 -38.016 
L 104.473766 -38.016 
L 105.814338 -38.016 
L 107.154911 -38.016 
L 108.495484 -38.016 
L 109.836056 -38.016 
L 111.176629 -38.016 
L 112.517202 -38.016 
L 113.857775 -38.016 
L 115.198347 -38.016 
L 116.53892 -38.016 
L 117.879493 -38.016 
L 119.220065 -38.016 
L 120.560638 -38.016 
L 121.901211 -38.016 
L 123.241783 -38.016 
L 124.582356 -38.016 
L 125.922929 -38.016 
L 127.263502 -38.016 
L 128.604074 -38.016 
L 129.944647 -38.016 
L 131.28522 -38.016 
L 132.625792 -38.016 
L 133.966365 -38.016 
L 135.306938 -38.016 
L 136.64751 -38.016 
L 137.988083 -38.016 
L 139.328656 -38.016 
L 140.669229 -38.016 
L 142.009801 -38.016 
L 143.350374 -38.016 
L 144.690947 -38.016 
L 146.031519 -38.016 
L 147.372092 -38.016 
L 148.712665 -38.016 
L 150.053237 -38.016 
L 151.39381 -38.016 
L 152.734383 -38.016 
L 154.074955 -38.016 
L 155.415528 -38.016 
L 156.756101 -38.016 
L 158.096674 -38.016 
L 159.437246 -38.016 
L 160.777819 -38.016 
L 162.118392 -38.016 
L 163.458964 -38.016 
L 164.799537 -38.016 
L 166.14011 -38.016 
L 167.480682 -38.016 
L 168.821255 -38.016 
L 170.161828 -38.016 
L 171.502401 -38.016 
L 172.842973 -38.016 
L 174.183546 -38.016 
L 175.524119 -38.016 
L 176.864691 -38.016 
L 178.205264 -38.016 
L 179.545837 -38.016 
L 180.886409 -38.016 
L 182.226982 -38.016 
L 183.567555 -38.016 
L 184.908128 -38.016 
L 186.2487 -38.016 
L 187.589273 -38.016 
L 188.929846 -38.016 
L 190.270418 -38.016 
L 191.610991 -38.016 
L 192.951564 -38.016 
L 194.292136 -38.016 
L 195.632709 -38.016 
L 196.973282 -38.016 
L 198.313855 -38.016 
L 199.654427 -38.016 
L 200.995 -38.016 
L 202.335573 -38.016 
L 203.676145 -38.016 
L 205.016718 -38.016 
L 206.357291 -38.016 
L 207.697863 -38.016 
L 209.038436 -38.016 
L 210.379009 -38.016 
L 211.719582 -38.016 
L 213.060154 -38.016 
L 214.400727 -38.016 
L 215.7413 -38.016 
L 217.081872 -38.016 
L 218.422445 -38.016 
L 219.763018 -38.016 
L 221.10359 -38.016 
L 222.444163 -38.016 
L 223.784736 -38.016 
L 225.125309 -38.016 
L 226.465881 -38.016 
L 227.806454 -38.016 
L 229.147027 -38.016 
L 230.487599 -38.016 
L 231.828172 -38.016 
L 233.168745 -38.016 
L 234.509317 -38.016 
L 235.84989 -38.016 
L 237.190463 -38.016 
L 238.531035 -38.016 
L 239.871608 -38.016 
L 241.212181 -38.016 
L 242.552754 -38.016 
L 243.893326 -38.016 
L 245.233899 -38.016 
L 246.574472 -38.016 
L 247.915044 -38.016 
L 249.255617 -38.016 
L 250.59619 -38.016 
L 251.936762 -38.016 
L 253.277335 -38.016 
L 254.617908 -38.016 
L 255.958481 -38.016 
L 257.299053 -38.016 
L 258.639626 -38.016 
L 259.980199 -38.016 
L 261.320771 -38.016 
L 262.661344 -38.016 
L 264.001917 -38.016 
L 265.342489 -38.016 
L 266.683062 -38.016 
L 268.023635 -38.016 
L 269.364208 -38.016 
L 270.70478 -38.016 
L 272.045353 -38.016 
L 273.385926 -38.016 
L 274.726498 -38.016 
L 276.067071 -38.016 
L 277.407644 -38.016 
L 278.748216 -38.016 
L 280.088789 -38.016 
L 281.429362 -38.016 
L 282.769935 -38.016 
L 284.110507 -38.016 
L 285.45108 -38.016 
L 286.791653 -38.016 
L 288.132225 -38.016 
L 289.472798 -38.016 
L 290.813371 -38.016 
L 292.153943 -38.016 
L 293.494516 -38.016 
L 294.835089 -38.016 
L 296.175662 -38.016 
L 297.516234 -38.016 
L 298.856807 -38.016 
L 300.19738 -38.016 
L 301.537952 -38.016 
L 302.878525 -38.016 
L 304.219098 -38.016 
L 304.219098 -38.039618 
L 304.219098 -38.039618 
L 302.878525 -38.122786 
L 301.537952 -38.371173 
L 300.19738 -38.884998 
L 298.856807 -39.580049 
L 297.516234 -40.086783 
L 296.175662 -40.032839 
L 294.835089 -39.460975 
L 293.494516 -38.777557 
L 292.153943 -38.311254 
L 290.813371 -38.100206 
L 289.472798 -38.033666 
L 288.132225 -38.018726 
L 286.791653 -38.01631 
L 285.45108 -38.016026 
L 284.110507 -38.016002 
L 282.769935 -38.016 
L 281.429362 -38.016 
L 280.088789 -38.016 
L 278.748216 -38.016 
L 277.407644 -38.016 
L 276.067071 -38.016 
L 274.726498 -38.016 
L 273.385926 -38.016 
L 272.045353 -38.016 
L 270.70478 -38.016 
L 269.364208 -38.016 
L 268.023635 -38.016 
L 266.683062 -38.016 
L 265.342489 -38.016 
L 264.001917 -38.016 
L 262.661344 -38.016 
L 261.320771 -38.016 
L 259.980199 -38.016 
L 258.639626 -38.016 
L 257.299053 -38.016 
L 255.958481 -38.016 
L 254.617908 -38.016 
L 253.277335 -38.016 
L 251.936762 -38.016 
L 250.59619 -38.016 
L 249.255617 -38.016 
L 247.915044 -38.016 
L 246.574472 -38.016 
L 245.233899 -38.016 
L 243.893326 -38.016 
L 242.552754 -38.016 
L 241.212181 -38.016 
L 239.871608 -38.016 
L 238.531035 -38.016 
L 237.190463 -38.016 
L 235.84989 -38.016 
L 234.509317 -38.016 
L 233.168745 -38.016 
L 231.828172 -38.016 
L 230.487599 -38.016 
L 229.147027 -38.016 
L 227.806454 -38.016 
L 226.465881 -38.016 
L 225.125309 -38.016 
L 223.784736 -38.016 
L 222.444163 -38.016 
L 221.10359 -38.016005 
L 219.763018 -38.016069 
L 218.422445 -38.016735 
L 217.081872 -38.021758 
L 215.7413 -38.049196 
L 214.400727 -38.156774 
L 213.060154 -38.455186 
L 211.719582 -39.024303 
L 210.379009 -39.721945 
L 209.038436 -40.157293 
L 207.697863 -40.071768 
L 206.357291 -39.717648 
L 205.016718 -39.617968 
L 203.676145 -39.955327 
L 202.335573 -40.434782 
L 200.995 -40.849878 
L 199.654427 -41.56192 
L 198.313855 -43.102857 
L 196.973282 -45.36748 
L 195.632709 -47.535939 
L 194.292136 -48.843615 
L 192.951564 -49.183879 
L 191.610991 -48.877372 
L 190.270418 -48.103357 
L 188.929846 -46.842094 
L 187.589273 -45.308603 
L 186.2487 -44.047464 
L 184.908128 -43.452595 
L 183.567555 -43.515735 
L 182.226982 -44.148972 
L 180.886409 -45.446769 
L 179.545837 -47.63758 
L 178.205264 -51.065761 
L 176.864691 -56.060027 
L 175.524119 -62.413848 
L 174.183546 -69.176029 
L 172.842973 -75.816226 
L 171.502401 -84.049756 
L 170.161828 -97.55476 
L 168.821255 -118.656656 
L 167.480682 -145.00707 
L 166.14011 -169.985863 
L 164.799537 -187.824236 
L 163.458964 -199.275971 
L 162.118392 -210.940102 
L 160.777819 -228.221492 
L 159.437246 -250.170021 
L 158.096674 -271.226079 
L 156.756101 -285.987311 
L 155.415528 -291.456 
L 154.074955 -286.363834 
L 152.734383 -270.557047 
L 151.39381 -245.830797 
L 150.053237 -216.089343 
L 148.712665 -185.483301 
L 147.372092 -156.769312 
L 146.031519 -131.294358 
L 144.690947 -109.628093 
L 143.350374 -92.185069 
L 142.009801 -79.578754 
L 140.669229 -72.152652 
L 139.328656 -69.019909 
L 137.988083 -68.22121 
L 136.64751 -68.060619 
L 135.306938 -67.72951 
L 133.966365 -66.917423 
L 132.625792 -65.378557 
L 131.28522 -62.705906 
L 129.944647 -58.728558 
L 128.604074 -54.169186 
L 127.263502 -50.049688 
L 125.922929 -46.572731 
L 124.582356 -43.462862 
L 123.241783 -40.877241 
L 121.901211 -39.199775 
L 120.560638 -38.446407 
L 119.220065 -38.348566 
L 117.879493 -38.702331 
L 116.53892 -39.354065 
L 115.198347 -39.971091 
L 113.857775 -40.11994 
L 112.517202 -39.681678 
L 111.176629 -38.986309 
L 109.836056 -38.433934 
L 108.495484 -38.162571 
L 107.154911 -38.122397 
L 105.814338 -38.293735 
L 104.473766 -38.735363 
L 103.133193 -39.410233 
L 101.79262 -40.005843 
L 100.452048 -40.108774 
L 99.111475 -39.659121 
L 97.770902 -39.082045 
L 96.430329 -38.93849 
L 95.089757 -39.560858 
L 93.749184 -40.818499 
L 92.408611 -41.992039 
L 91.068039 -42.196659 
L 89.727466 -41.253043 
L 88.386893 -39.864869 
L 87.046321 -38.823273 
L 85.705748 -38.415042 
L 84.365175 -38.621046 
L 83.024602 -39.431718 
L 81.68403 -40.699873 
L 80.343457 -41.84328 
L 79.002884 -42.103063 
L 77.662312 -41.283676 
L 76.321739 -39.971061 
L 74.981166 -38.89045 
L 73.640594 -38.307972 
L 72.300021 -38.088652 
L 70.959448 -38.029448 
L 69.618876 -38.017849 
L 68.278303 -38.016188 
L 66.93773 -38.016014 
L 65.597157 -38.016001 
L 64.256585 -38.016 
L 62.916012 -38.016 
L 61.575439 -38.016 
L 60.234867 -38.016 
L 58.894294 -38.016 
L 57.553721 -38.016002 
L 56.213149 -38.016026 
L 54.872576 -38.01631 
L 53.532003 -38.018726 
L 52.19143 -38.033666 
L 50.850858 -38.100206 
L 49.510285 -38.311254 
L 48.169712 -38.777557 
L 46.82914 -39.460975 
L 45.488567 -40.032839 
L 44.147994 -40.086783 
L 42.807422 -39.580049 
L 41.466849 -38.884998 
L 40.126276 -38.371173 
L 38.785703 -38.122786 
L 37.445131 -38.039618 
z
" style="stroke: #2ca02c"/>
    </defs>
    <g clip-path="url(#p499ee87d2b)">
     <use xlink:href="#mb2415e4ac8" x="0" y="345.6" style="fill: #2ca02c; fill-opacity: 0.1; stroke: #2ca02c"/>
    </g>
   </g>
   <g id="PolyCollection_4">
    <defs>
     <path id="m0aca2fa766" d="M 179.751697 -38.032674 
L 179.751697 -38.016 
L 180.920377 -38.016 
L 182.089057 -38.016 
L 183.257737 -38.016 
L 184.426417 -38.016 
L 185.595097 -38.016 
L 186.763777 -38.016 
L 187.932457 -38.016 
L 189.101137 -38.016 
L 190.269817 -38.016 
L 191.438497 -38.016 
L 192.607177 -38.016 
L 193.775857 -38.016 
L 194.944537 -38.016 
L 196.113217 -38.016 
L 197.281897 -38.016 
L 198.450577 -38.016 
L 199.619257 -38.016 
L 200.787937 -38.016 
L 201.956617 -38.016 
L 203.125297 -38.016 
L 204.293977 -38.016 
L 205.462657 -38.016 
L 206.631337 -38.016 
L 207.800017 -38.016 
L 208.968697 -38.016 
L 210.137377 -38.016 
L 211.306057 -38.016 
L 212.474737 -38.016 
L 213.643417 -38.016 
L 214.812097 -38.016 
L 215.980777 -38.016 
L 217.149457 -38.016 
L 218.318136 -38.016 
L 219.486816 -38.016 
L 220.655496 -38.016 
L 221.824176 -38.016 
L 222.992856 -38.016 
L 224.161536 -38.016 
L 225.330216 -38.016 
L 226.498896 -38.016 
L 227.667576 -38.016 
L 228.836256 -38.016 
L 230.004936 -38.016 
L 231.173616 -38.016 
L 232.342296 -38.016 
L 233.510976 -38.016 
L 234.679656 -38.016 
L 235.848336 -38.016 
L 237.017016 -38.016 
L 238.185696 -38.016 
L 239.354376 -38.016 
L 240.523056 -38.016 
L 241.691736 -38.016 
L 242.860416 -38.016 
L 244.029096 -38.016 
L 245.197776 -38.016 
L 246.366456 -38.016 
L 247.535136 -38.016 
L 248.703816 -38.016 
L 249.872496 -38.016 
L 251.041176 -38.016 
L 252.209856 -38.016 
L 253.378536 -38.016 
L 254.547216 -38.016 
L 255.715896 -38.016 
L 256.884576 -38.016 
L 258.053256 -38.016 
L 259.221936 -38.016 
L 260.390616 -38.016 
L 261.559295 -38.016 
L 262.727975 -38.016 
L 263.896655 -38.016 
L 265.065335 -38.016 
L 266.234015 -38.016 
L 267.402695 -38.016 
L 268.571375 -38.016 
L 269.740055 -38.016 
L 270.908735 -38.016 
L 272.077415 -38.016 
L 273.246095 -38.016 
L 274.414775 -38.016 
L 275.583455 -38.016 
L 276.752135 -38.016 
L 277.920815 -38.016 
L 279.089495 -38.016 
L 280.258175 -38.016 
L 281.426855 -38.016 
L 282.595535 -38.016 
L 283.764215 -38.016 
L 284.932895 -38.016 
L 286.101575 -38.016 
L 287.270255 -38.016 
L 288.438935 -38.016 
L 289.607615 -38.016 
L 290.776295 -38.016 
L 291.944975 -38.016 
L 293.113655 -38.016 
L 294.282335 -38.016 
L 295.451015 -38.016 
L 296.619695 -38.016 
L 297.788375 -38.016 
L 298.957055 -38.016 
L 300.125735 -38.016 
L 301.294415 -38.016 
L 302.463095 -38.016 
L 303.631775 -38.016 
L 304.800455 -38.016 
L 305.969134 -38.016 
L 307.137814 -38.016 
L 308.306494 -38.016 
L 309.475174 -38.016 
L 310.643854 -38.016 
L 311.812534 -38.016 
L 312.981214 -38.016 
L 314.149894 -38.016 
L 315.318574 -38.016 
L 316.487254 -38.016 
L 317.655934 -38.016 
L 318.824614 -38.016 
L 319.993294 -38.016 
L 321.161974 -38.016 
L 322.330654 -38.016 
L 323.499334 -38.016 
L 324.668014 -38.016 
L 325.836694 -38.016 
L 327.005374 -38.016 
L 328.174054 -38.016 
L 329.342734 -38.016 
L 330.511414 -38.016 
L 331.680094 -38.016 
L 332.848774 -38.016 
L 334.017454 -38.016 
L 335.186134 -38.016 
L 336.354814 -38.016 
L 337.523494 -38.016 
L 338.692174 -38.016 
L 339.860854 -38.016 
L 341.029534 -38.016 
L 342.198214 -38.016 
L 343.366894 -38.016 
L 344.535574 -38.016 
L 345.704254 -38.016 
L 346.872934 -38.016 
L 348.041614 -38.016 
L 349.210293 -38.016 
L 350.378973 -38.016 
L 351.547653 -38.016 
L 352.716333 -38.016 
L 353.885013 -38.016 
L 355.053693 -38.016 
L 356.222373 -38.016 
L 357.391053 -38.016 
L 358.559733 -38.016 
L 359.728413 -38.016 
L 360.897093 -38.016 
L 362.065773 -38.016 
L 363.234453 -38.016 
L 364.403133 -38.016 
L 365.571813 -38.016 
L 366.740493 -38.016 
L 367.909173 -38.016 
L 369.077853 -38.016 
L 370.246533 -38.016 
L 371.415213 -38.016 
L 372.583893 -38.016 
L 373.752573 -38.016 
L 374.921253 -38.016 
L 376.089933 -38.016 
L 377.258613 -38.016 
L 378.427293 -38.016 
L 379.595973 -38.016 
L 380.764653 -38.016 
L 381.933333 -38.016 
L 383.102013 -38.016 
L 384.270693 -38.016 
L 385.439373 -38.016 
L 386.608053 -38.016 
L 387.776733 -38.016 
L 388.945413 -38.016 
L 390.114093 -38.016 
L 391.282773 -38.016 
L 392.451453 -38.016 
L 393.620132 -38.016 
L 394.788812 -38.016 
L 395.957492 -38.016 
L 397.126172 -38.016 
L 398.294852 -38.016 
L 399.463532 -38.016 
L 400.632212 -38.016 
L 401.800892 -38.016 
L 402.969572 -38.016 
L 404.138252 -38.016 
L 405.306932 -38.016 
L 406.475612 -38.016 
L 407.644292 -38.016 
L 408.812972 -38.016 
L 409.981652 -38.016 
L 411.150332 -38.016 
L 412.319012 -38.016 
L 412.319012 -38.03614 
L 412.319012 -38.03614 
L 411.150332 -38.05042 
L 409.981652 -38.073211 
L 408.812972 -38.108522 
L 407.644292 -38.161649 
L 406.475612 -38.239292 
L 405.306932 -38.349568 
L 404.138252 -38.501857 
L 402.969572 -38.706466 
L 401.800892 -38.974101 
L 400.632212 -39.315182 
L 399.463532 -39.739065 
L 398.294852 -40.253233 
L 397.126172 -40.862572 
L 395.957492 -41.568761 
L 394.788812 -42.369838 
L 393.620132 -43.259935 
L 392.451453 -44.229147 
L 391.282773 -45.263537 
L 390.114093 -46.345261 
L 388.945413 -47.452879 
L 387.776733 -48.561932 
L 386.608053 -49.645877 
L 385.439373 -50.677437 
L 384.270693 -51.630324 
L 383.102013 -52.481192 
L 381.933333 -53.211572 
L 380.764653 -53.809481 
L 379.595973 -54.27045 
L 378.427293 -54.597778 
L 377.258613 -54.802001 
L 376.089933 -54.899687 
L 374.921253 -54.911809 
L 373.752573 -54.86196 
L 372.583893 -54.774675 
L 371.415213 -54.674073 
L 370.246533 -54.582896 
L 369.077853 -54.522001 
L 367.909173 -54.51023 
L 366.740493 -54.56456 
L 365.571813 -54.700352 
L 364.403133 -54.931543 
L 363.234453 -55.270579 
L 362.065773 -55.728025 
L 360.897093 -56.311849 
L 359.728413 -57.026557 
L 358.559733 -57.872427 
L 357.391053 -58.845161 
L 356.222373 -59.936153 
L 355.053693 -61.133478 
L 353.885013 -62.423444 
L 352.716333 -63.792419 
L 351.547653 -65.228552 
L 350.378973 -66.723034 
L 349.210293 -68.270655 
L 348.041614 -69.869588 
L 346.872934 -71.520481 
L 345.704254 -73.225039 
L 344.535574 -74.984297 
L 343.366894 -76.796804 
L 342.198214 -78.656896 
L 341.029534 -80.553251 
L 339.860854 -82.467916 
L 338.692174 -84.376015 
L 337.523494 -86.246352 
L 336.354814 -88.043018 
L 335.186134 -89.728027 
L 334.017454 -91.264789 
L 332.848774 -92.622038 
L 331.680094 -93.777673 
L 330.511414 -94.721848 
L 329.342734 -95.458664 
L 328.174054 -96.005965 
L 327.005374 -96.392981 
L 325.836694 -96.655955 
L 324.668014 -96.832287 
L 323.499334 -96.954067 
L 322.330654 -97.04215 
L 321.161974 -97.101917 
L 319.993294 -97.121681 
L 318.824614 -97.074242 
L 317.655934 -96.921533 
L 316.487254 -96.621642 
L 315.318574 -96.137002 
L 314.149894 -95.442259 
L 312.981214 -94.530318 
L 311.812534 -93.415436 
L 310.643854 -92.132749 
L 309.475174 -90.734329 
L 308.306494 -89.282483 
L 307.137814 -87.84153 
L 305.969134 -86.469483 
L 304.800455 -85.211076 
L 303.631775 -84.093218 
L 302.463095 -83.123483 
L 301.294415 -82.291636 
L 300.125735 -81.573621 
L 298.957055 -80.937041 
L 297.788375 -80.346974 
L 296.619695 -79.771097 
L 295.451015 -79.183437 
L 294.282335 -78.566524 
L 293.113655 -77.912223 
L 291.944975 -77.221728 
L 290.776295 -76.505287 
L 289.607615 -75.78196 
L 288.438935 -75.079329 
L 287.270255 -74.432725 
L 286.101575 -73.883334 
L 284.932895 -73.474651 
L 283.764215 -73.247142 
L 282.595535 -73.231589 
L 281.426855 -73.442169 
L 280.258175 -73.870779 
L 279.089495 -74.484129 
L 277.920815 -75.22477 
L 276.752135 -76.016471 
L 275.583455 -76.773361 
L 274.414775 -77.411398 
L 273.246095 -77.860011 
L 272.077415 -78.07169 
L 270.908735 -78.027609 
L 269.740055 -77.738251 
L 268.571375 -77.23907 
L 267.402695 -76.582272 
L 266.234015 -75.826529 
L 265.065335 -75.026745 
L 263.896655 -74.225695 
L 262.727975 -73.448795 
L 261.559295 -72.7024 
L 260.390616 -71.97532 
L 259.221936 -71.242729 
L 258.053256 -70.471444 
L 256.884576 -69.625647 
L 255.715896 -68.67231 
L 254.547216 -67.585858 
L 253.378536 -66.35174 
L 252.209856 -64.968688 
L 251.041176 -63.449449 
L 249.872496 -61.819882 
L 248.703816 -60.116425 
L 247.535136 -58.382192 
L 246.366456 -56.662203 
L 245.197776 -54.998471 
L 244.029096 -53.425717 
L 242.860416 -51.968414 
L 241.691736 -50.639585 
L 240.523056 -49.441413 
L 239.354376 -48.367409 
L 238.185696 -47.405571 
L 237.017016 -46.541897 
L 235.848336 -45.763622 
L 234.679656 -45.061706 
L 233.510976 -44.432335 
L 232.342296 -43.877343 
L 231.173616 -43.403616 
L 230.004936 -43.021618 
L 228.836256 -42.743176 
L 227.667576 -42.578724 
L 226.498896 -42.534259 
L 225.330216 -42.608404 
L 224.161536 -42.790055 
L 222.992856 -43.057178 
L 221.824176 -43.377239 
L 220.655496 -43.709544 
L 219.486816 -44.009379 
L 218.318136 -44.233446 
L 217.149457 -44.345702 
L 215.980777 -44.322511 
L 214.812097 -44.156062 
L 213.643417 -43.855344 
L 212.474737 -43.444418 
L 211.306057 -42.958326 
L 210.137377 -42.437447 
L 208.968697 -41.92139 
L 207.800017 -41.443537 
L 206.631337 -41.027154 
L 205.462657 -40.683566 
L 204.293977 -40.412486 
L 203.125297 -40.204142 
L 201.956617 -40.042585 
L 200.787937 -39.909434 
L 199.619257 -39.787336 
L 198.450577 -39.662613 
L 197.281897 -39.526767 
L 196.113217 -39.376817 
L 194.944537 -39.214616 
L 193.775857 -39.045495 
L 192.607177 -38.876592 
L 191.438497 -38.71526 
L 190.269817 -38.567793 
L 189.101137 -38.438633 
L 187.932457 -38.330081 
L 186.763777 -38.242415 
L 185.595097 -38.174302 
L 184.426417 -38.123334 
L 183.257737 -38.086573 
L 182.089057 -38.060995 
L 180.920377 -38.043816 
L 179.751697 -38.032674 
z
" style="stroke: #d62728"/>
    </defs>
    <g clip-path="url(#p499ee87d2b)">
     <use xlink:href="#m0aca2fa766" x="0" y="345.6" style="fill: #d62728; fill-opacity: 0.1; stroke: #d62728"/>
    </g>
   </g>
   <g id="PolyCollection_5">
    <defs>
     <path id="m46f4bd6957" d="M 50.294307 -38.016412 
L 50.294307 -38.016 
L 52.010397 -38.016 
L 53.726487 -38.016 
L 55.442577 -38.016 
L 57.158667 -38.016 
L 58.874757 -38.016 
L 60.590847 -38.016 
L 62.306937 -38.016 
L 64.023027 -38.016 
L 65.739117 -38.016 
L 67.455207 -38.016 
L 69.171297 -38.016 
L 70.887387 -38.016 
L 72.603477 -38.016 
L 74.319567 -38.016 
L 76.035657 -38.016 
L 77.751747 -38.016 
L 79.467837 -38.016 
L 81.183927 -38.016 
L 82.900017 -38.016 
L 84.616107 -38.016 
L 86.332197 -38.016 
L 88.048287 -38.016 
L 89.764377 -38.016 
L 91.480467 -38.016 
L 93.196557 -38.016 
L 94.912647 -38.016 
L 96.628737 -38.016 
L 98.344828 -38.016 
L 100.060918 -38.016 
L 101.777008 -38.016 
L 103.493098 -38.016 
L 105.209188 -38.016 
L 106.925278 -38.016 
L 108.641368 -38.016 
L 110.357458 -38.016 
L 112.073548 -38.016 
L 113.789638 -38.016 
L 115.505728 -38.016 
L 117.221818 -38.016 
L 118.937908 -38.016 
L 120.653998 -38.016 
L 122.370088 -38.016 
L 124.086178 -38.016 
L 125.802268 -38.016 
L 127.518358 -38.016 
L 129.234448 -38.016 
L 130.950538 -38.016 
L 132.666628 -38.016 
L 134.382718 -38.016 
L 136.098808 -38.016 
L 137.814898 -38.016 
L 139.530988 -38.016 
L 141.247078 -38.016 
L 142.963168 -38.016 
L 144.679258 -38.016 
L 146.395348 -38.016 
L 148.111438 -38.016 
L 149.827528 -38.016 
L 151.543618 -38.016 
L 153.259708 -38.016 
L 154.975798 -38.016 
L 156.691888 -38.016 
L 158.407978 -38.016 
L 160.124068 -38.016 
L 161.840158 -38.016 
L 163.556248 -38.016 
L 165.272338 -38.016 
L 166.988428 -38.016 
L 168.704518 -38.016 
L 170.420608 -38.016 
L 172.136698 -38.016 
L 173.852789 -38.016 
L 175.568879 -38.016 
L 177.284969 -38.016 
L 179.001059 -38.016 
L 180.717149 -38.016 
L 182.433239 -38.016 
L 184.149329 -38.016 
L 185.865419 -38.016 
L 187.581509 -38.016 
L 189.297599 -38.016 
L 191.013689 -38.016 
L 192.729779 -38.016 
L 194.445869 -38.016 
L 196.161959 -38.016 
L 197.878049 -38.016 
L 199.594139 -38.016 
L 201.310229 -38.016 
L 203.026319 -38.016 
L 204.742409 -38.016 
L 206.458499 -38.016 
L 208.174589 -38.016 
L 209.890679 -38.016 
L 211.606769 -38.016 
L 213.322859 -38.016 
L 215.038949 -38.016 
L 216.755039 -38.016 
L 218.471129 -38.016 
L 220.187219 -38.016 
L 221.903309 -38.016 
L 223.619399 -38.016 
L 225.335489 -38.016 
L 227.051579 -38.016 
L 228.767669 -38.016 
L 230.483759 -38.016 
L 232.199849 -38.016 
L 233.915939 -38.016 
L 235.632029 -38.016 
L 237.348119 -38.016 
L 239.064209 -38.016 
L 240.780299 -38.016 
L 242.496389 -38.016 
L 244.212479 -38.016 
L 245.928569 -38.016 
L 247.644659 -38.016 
L 249.36075 -38.016 
L 251.07684 -38.016 
L 252.79293 -38.016 
L 254.50902 -38.016 
L 256.22511 -38.016 
L 257.9412 -38.016 
L 259.65729 -38.016 
L 261.37338 -38.016 
L 263.08947 -38.016 
L 264.80556 -38.016 
L 266.52165 -38.016 
L 268.23774 -38.016 
L 269.95383 -38.016 
L 271.66992 -38.016 
L 273.38601 -38.016 
L 275.1021 -38.016 
L 276.81819 -38.016 
L 278.53428 -38.016 
L 280.25037 -38.016 
L 281.96646 -38.016 
L 283.68255 -38.016 
L 285.39864 -38.016 
L 287.11473 -38.016 
L 288.83082 -38.016 
L 290.54691 -38.016 
L 292.263 -38.016 
L 293.97909 -38.016 
L 295.69518 -38.016 
L 297.41127 -38.016 
L 299.12736 -38.016 
L 300.84345 -38.016 
L 302.55954 -38.016 
L 304.27563 -38.016 
L 305.99172 -38.016 
L 307.70781 -38.016 
L 309.4239 -38.016 
L 311.13999 -38.016 
L 312.85608 -38.016 
L 314.57217 -38.016 
L 316.28826 -38.016 
L 318.00435 -38.016 
L 319.72044 -38.016 
L 321.43653 -38.016 
L 323.15262 -38.016 
L 324.86871 -38.016 
L 326.584801 -38.016 
L 328.300891 -38.016 
L 330.016981 -38.016 
L 331.733071 -38.016 
L 333.449161 -38.016 
L 335.165251 -38.016 
L 336.881341 -38.016 
L 338.597431 -38.016 
L 340.313521 -38.016 
L 342.029611 -38.016 
L 343.745701 -38.016 
L 345.461791 -38.016 
L 347.177881 -38.016 
L 348.893971 -38.016 
L 350.610061 -38.016 
L 352.326151 -38.016 
L 354.042241 -38.016 
L 355.758331 -38.016 
L 357.474421 -38.016 
L 359.190511 -38.016 
L 360.906601 -38.016 
L 362.622691 -38.016 
L 364.338781 -38.016 
L 366.054871 -38.016 
L 367.770961 -38.016 
L 369.487051 -38.016 
L 371.203141 -38.016 
L 372.919231 -38.016 
L 374.635321 -38.016 
L 376.351411 -38.016 
L 378.067501 -38.016 
L 379.783591 -38.016 
L 381.499681 -38.016 
L 383.215771 -38.016 
L 384.931861 -38.016 
L 386.647951 -38.016 
L 388.364041 -38.016 
L 390.080131 -38.016 
L 391.796221 -38.016 
L 391.796221 -38.016412 
L 391.796221 -38.016412 
L 390.080131 -38.043621 
L 388.364041 -38.028714 
L 386.647951 -38.01604 
L 384.931861 -38.016 
L 383.215771 -38.016 
L 381.499681 -38.016 
L 379.783591 -38.016 
L 378.067501 -38.016 
L 376.351411 -38.016 
L 374.635321 -38.016 
L 372.919231 -38.016 
L 371.203141 -38.016 
L 369.487051 -38.016 
L 367.770961 -38.016 
L 366.054871 -38.016 
L 364.338781 -38.016 
L 362.622691 -38.016 
L 360.906601 -38.016 
L 359.190511 -38.016001 
L 357.474421 -38.017865 
L 355.758331 -38.052265 
L 354.042241 -38.020842 
L 352.326151 -38.016004 
L 350.610061 -38.016 
L 348.893971 -38.016 
L 347.177881 -38.016 
L 345.461791 -38.016 
L 343.745701 -38.016 
L 342.029611 -38.016 
L 340.313521 -38.016 
L 338.597431 -38.016265 
L 336.881341 -38.040478 
L 335.165251 -38.031532 
L 333.449161 -38.016068 
L 331.733071 -38.016 
L 330.016981 -38.016 
L 328.300891 -38.016 
L 326.584801 -38.016 
L 324.86871 -38.016 
L 323.15262 -38.016 
L 321.43653 -38.016 
L 319.72044 -38.016 
L 318.00435 -38.016 
L 316.28826 -38.016 
L 314.57217 -38.016 
L 312.85608 -38.016 
L 311.13999 -38.016 
L 309.4239 -38.016 
L 307.70781 -38.016 
L 305.99172 -38.016 
L 304.27563 -38.016 
L 302.55954 -38.016002 
L 300.84345 -38.019058 
L 299.12736 -38.053102 
L 297.41127 -38.019092 
L 295.69518 -38.016002 
L 293.97909 -38.016 
L 292.263 -38.016 
L 290.54691 -38.016 
L 288.83082 -38.016 
L 287.11473 -38.016 
L 285.39864 -38.016 
L 283.68255 -38.016 
L 281.96646 -38.016 
L 280.25037 -38.016 
L 278.53428 -38.016 
L 276.81819 -38.016 
L 275.1021 -38.016004 
L 273.38601 -38.020772 
L 271.66992 -38.070055 
L 269.95383 -38.040151 
L 268.23774 -38.016192 
L 266.52165 -38.016001 
L 264.80556 -38.018332 
L 263.08947 -38.052854 
L 261.37338 -38.029589 
L 259.65729 -38.047941 
L 257.9412 -38.064708 
L 256.22511 -38.08832 
L 254.50902 -38.020035 
L 252.79293 -38.016003 
L 251.07684 -38.016634 
L 249.36075 -38.046615 
L 247.644659 -38.036226 
L 245.928569 -38.049141 
L 244.212479 -38.109974 
L 242.496389 -38.160828 
L 240.780299 -38.15062 
L 239.064209 -38.157227 
L 237.348119 -38.092046 
L 235.632029 -38.108189 
L 233.915939 -38.074277 
L 232.199849 -38.053276 
L 230.483759 -38.030831 
L 228.767669 -38.133029 
L 227.051579 -38.104217 
L 225.335489 -38.105055 
L 223.619399 -38.081105 
L 221.903309 -38.092055 
L 220.187219 -38.150172 
L 218.471129 -38.256767 
L 216.755039 -38.140966 
L 215.038949 -38.12411 
L 213.322859 -38.117559 
L 211.606769 -38.230783 
L 209.890679 -38.237241 
L 208.174589 -38.136775 
L 206.458499 -38.227322 
L 204.742409 -38.422304 
L 203.026319 -38.212301 
L 201.310229 -38.251601 
L 199.594139 -38.399946 
L 197.878049 -38.686168 
L 196.161959 -38.870095 
L 194.445869 -38.932155 
L 192.729779 -38.8236 
L 191.013689 -39.523449 
L 189.297599 -40.040014 
L 187.581509 -40.1709 
L 185.865419 -41.253706 
L 184.149329 -42.348164 
L 182.433239 -42.920413 
L 180.717149 -45.035972 
L 179.001059 -47.064697 
L 177.284969 -49.483226 
L 175.568879 -52.562485 
L 173.852789 -57.629569 
L 172.136698 -64.104469 
L 170.420608 -70.018131 
L 168.704518 -78.551396 
L 166.988428 -87.760406 
L 165.272338 -101.151332 
L 163.556248 -112.987333 
L 161.840158 -123.437443 
L 160.124068 -139.118922 
L 158.407978 -156.249387 
L 156.691888 -169.453945 
L 154.975798 -180.972235 
L 153.259708 -189.239097 
L 151.543618 -198.008325 
L 149.827528 -201.76631 
L 148.111438 -210.029094 
L 146.395348 -203.52005 
L 144.679258 -199.769389 
L 142.963168 -194.719451 
L 141.247078 -178.692209 
L 139.530988 -169.50463 
L 137.814898 -155.230746 
L 136.098808 -142.840897 
L 134.382718 -134.166705 
L 132.666628 -117.441053 
L 130.950538 -110.000508 
L 129.234448 -100.745565 
L 127.518358 -87.309904 
L 125.802268 -80.174834 
L 124.086178 -73.664841 
L 122.370088 -67.417605 
L 120.653998 -63.153284 
L 118.937908 -59.981149 
L 117.221818 -57.43921 
L 115.505728 -52.965761 
L 113.789638 -49.910991 
L 112.073548 -48.0827 
L 110.357458 -45.630479 
L 108.641368 -44.848083 
L 106.925278 -44.205006 
L 105.209188 -43.038454 
L 103.493098 -41.922264 
L 101.777008 -40.734887 
L 100.060918 -40.419564 
L 98.344828 -39.974411 
L 96.628737 -39.397691 
L 94.912647 -39.243765 
L 93.196557 -38.917318 
L 91.480467 -38.974974 
L 89.764377 -38.731666 
L 88.048287 -38.657103 
L 86.332197 -38.382386 
L 84.616107 -38.312294 
L 82.900017 -38.229027 
L 81.183927 -38.372718 
L 79.467837 -38.397392 
L 77.751747 -38.148646 
L 76.035657 -38.147642 
L 74.319567 -38.137891 
L 72.603477 -38.028059 
L 70.887387 -38.143994 
L 69.171297 -38.050763 
L 67.455207 -38.016076 
L 65.739117 -38.016 
L 64.023027 -38.016 
L 62.306937 -38.016 
L 60.590847 -38.016 
L 58.874757 -38.016 
L 57.158667 -38.016 
L 55.442577 -38.01604 
L 53.726487 -38.028714 
L 52.010397 -38.043621 
L 50.294307 -38.016412 
z
" style="stroke: #0000ff"/>
    </defs>
    <g clip-path="url(#p499ee87d2b)">
     <use xlink:href="#m46f4bd6957" x="0" y="345.6" style="fill: #0000ff; fill-opacity: 0.8; stroke: #0000ff"/>
    </g>
   </g>
   <g id="matplotlib.axis_1">
    <g id="xtick_1">
     <g id="line2d_1">
      <defs>
       <path id="md49cb65bec" d="M 0 0 
L 0 3.5 
" style="stroke: #000000; stroke-width: 0.8"/>
      </defs>
      <g>
       <use xlink:href="#md49cb65bec" x="57.6" y="307.584" style="stroke: #000000; stroke-width: 0.8"/>
      </g>
     </g>
     <g id="text_1">
      <!-- −10 -->
      <g transform="translate(47.047656 322.182437) scale(0.1 -0.1)">
       <defs>
        <path id="DejaVuSans-2212" d="M 678 2272 
L 4684 2272 
L 4684 1741 
L 678 1741 
L 678 2272 
z
" transform="scale(0.015625)"/>
        <path id="DejaVuSans-31" d="M 794 531 
L 1825 531 
L 1825 4091 
L 703 3866 
L 703 4441 
L 1819 4666 
L 2450 4666 
L 2450 531 
L 3481 531 
L 3481 0 
L 794 0 
L 794 531 
z
" transform="scale(0.015625)"/>
        <path id="DejaVuSans-30" d="M 2034 4250 
Q 1547 4250 1301 3770 
Q 1056 3291 1056 2328 
Q 1056 1369 1301 889 
Q 1547 409 2034 409 
Q 2525 409 2770 889 
Q 3016 1369 3016 2328 
Q 3016 3291 2770 3770 
Q 2525 4250 2034 4250 
z
M 2034 4750 
Q 2819 4750 3233 4129 
Q 3647 3509 3647 2328 
Q 3647 1150 3233 529 
Q 2819 -91 2034 -91 
Q 1250 -91 836 529 
Q 422 1150 422 2328 
Q 422 3509 836 4129 
Q 1250 4750 2034 4750 
z
" transform="scale(0.015625)"/>
       </defs>
       <use xlink:href="#DejaVuSans-2212"/>
       <use xlink:href="#DejaVuSans-31" x="83.789062"/>
       <use xlink:href="#DejaVuSans-30" x="147.412109"/>
      </g>
     </g>
    </g>
    <g id="xtick_2">
     <g id="line2d_2">
      <g>
       <use xlink:href="#md49cb65bec" x="102.24" y="307.584" style="stroke: #000000; stroke-width: 0.8"/>
      </g>
     </g>
     <g id="text_2">
      <!-- −5 -->
      <g transform="translate(94.868906 322.182437) scale(0.1 -0.1)">
       <defs>
        <path id="DejaVuSans-35" d="M 691 4666 
L 3169 4666 
L 3169 4134 
L 1269 4134 
L 1269 2991 
Q 1406 3038 1543 3061 
Q 1681 3084 1819 3084 
Q 2600 3084 3056 2656 
Q 3513 2228 3513 1497 
Q 3513 744 3044 326 
Q 2575 -91 1722 -91 
Q 1428 -91 1123 -41 
Q 819 9 494 109 
L 494 744 
Q 775 591 1075 516 
Q 1375 441 1709 441 
Q 2250 441 2565 725 
Q 2881 1009 2881 1497 
Q 2881 1984 2565 2268 
Q 2250 2553 1709 2553 
Q 1456 2553 1204 2497 
Q 953 2441 691 2322 
L 691 4666 
z
" transform="scale(0.015625)"/>
       </defs>
       <use xlink:href="#DejaVuSans-2212"/>
       <use xlink:href="#DejaVuSans-35" x="83.789062"/>
      </g>
     </g>
    </g>
    <g id="xtick_3">
     <g id="line2d_3">
      <g>
       <use xlink:href="#md49cb65bec" x="146.88" y="307.584" style="stroke: #000000; stroke-width: 0.8"/>
      </g>
     </g>
     <g id="text_3">
      <!-- 0 -->
      <g transform="translate(143.69875 322.182437) scale(0.1 -0.1)">
       <use xlink:href="#DejaVuSans-30"/>
      </g>
     </g>
    </g>
    <g id="xtick_4">
     <g id="line2d_4">
      <g>
       <use xlink:href="#md49cb65bec" x="191.52" y="307.584" style="stroke: #000000; stroke-width: 0.8"/>
      </g>
     </g>
     <g id="text_4">
      <!-- 5 -->
      <g transform="translate(188.33875 322.182437) scale(0.1 -0.1)">
       <use xlink:href="#DejaVuSans-35"/>
      </g>
     </g>
    </g>
    <g id="xtick_5">
     <g id="line2d_5">
      <g>
       <use xlink:href="#md49cb65bec" x="236.16" y="307.584" style="stroke: #000000; stroke-width: 0.8"/>
      </g>
     </g>
     <g id="text_5">
      <!-- 10 -->
      <g transform="translate(229.7975 322.182437) scale(0.1 -0.1)">
       <use xlink:href="#DejaVuSans-31"/>
       <use xlink:href="#DejaVuSans-30" x="63.623047"/>
      </g>
     </g>
    </g>
    <g id="xtick_6">
     <g id="line2d_6">
      <g>
       <use xlink:href="#md49cb65bec" x="280.8" y="307.584" style="stroke: #000000; stroke-width: 0.8"/>
      </g>
     </g>
     <g id="text_6">
      <!-- 15 -->
      <g transform="translate(274.4375 322.182437) scale(0.1 -0.1)">
       <use xlink:href="#DejaVuSans-31"/>
       <use xlink:href="#DejaVuSans-35" x="63.623047"/>
      </g>
     </g>
    </g>
    <g id="xtick_7">
     <g id="line2d_7">
      <g>
       <use xlink:href="#md49cb65bec" x="325.44" y="307.584" style="stroke: #000000; stroke-width: 0.8"/>
      </g>
     </g>
     <g id="text_7">
      <!-- 20 -->
      <g transform="translate(319.0775 322.182437) scale(0.1 -0.1)">
       <defs>
        <path id="DejaVuSans-32" d="M 1228 531 
L 3431 531 
L 3431 0 
L 469 0 
L 469 531 
Q 828 903 1448 1529 
Q 2069 2156 2228 2338 
Q 2531 2678 2651 2914 
Q 2772 3150 2772 3378 
Q 2772 3750 2511 3984 
Q 2250 4219 1831 4219 
Q 1534 4219 1204 4116 
Q 875 4013 500 3803 
L 500 4441 
Q 881 4594 1212 4672 
Q 1544 4750 1819 4750 
Q 2544 4750 2975 4387 
Q 3406 4025 3406 3419 
Q 3406 3131 3298 2873 
Q 3191 2616 2906 2266 
Q 2828 2175 2409 1742 
Q 1991 1309 1228 531 
z
" transform="scale(0.015625)"/>
       </defs>
       <use xlink:href="#DejaVuSans-32"/>
       <use xlink:href="#DejaVuSans-30" x="63.623047"/>
      </g>
     </g>
    </g>
    <g id="xtick_8">
     <g id="line2d_8">
      <g>
       <use xlink:href="#md49cb65bec" x="370.08" y="307.584" style="stroke: #000000; stroke-width: 0.8"/>
      </g>
     </g>
     <g id="text_8">
      <!-- 25 -->
      <g transform="translate(363.7175 322.182437) scale(0.1 -0.1)">
       <use xlink:href="#DejaVuSans-32"/>
       <use xlink:href="#DejaVuSans-35" x="63.623047"/>
      </g>
     </g>
    </g>
    <g id="xtick_9">
     <g id="line2d_9">
      <g>
       <use xlink:href="#md49cb65bec" x="414.72" y="307.584" style="stroke: #000000; stroke-width: 0.8"/>
      </g>
     </g>
     <g id="text_9">
      <!-- 30 -->
      <g transform="translate(408.3575 322.182437) scale(0.1 -0.1)">
       <defs>
        <path id="DejaVuSans-33" d="M 2597 2516 
Q 3050 2419 3304 2112 
Q 3559 1806 3559 1356 
Q 3559 666 3084 287 
Q 2609 -91 1734 -91 
Q 1441 -91 1130 -33 
Q 819 25 488 141 
L 488 750 
Q 750 597 1062 519 
Q 1375 441 1716 441 
Q 2309 441 2620 675 
Q 2931 909 2931 1356 
Q 2931 1769 2642 2001 
Q 2353 2234 1838 2234 
L 1294 2234 
L 1294 2753 
L 1863 2753 
Q 2328 2753 2575 2939 
Q 2822 3125 2822 3475 
Q 2822 3834 2567 4026 
Q 2313 4219 1838 4219 
Q 1578 4219 1281 4162 
Q 984 4106 628 3988 
L 628 4550 
Q 988 4650 1302 4700 
Q 1616 4750 1894 4750 
Q 2613 4750 3031 4423 
Q 3450 4097 3450 3541 
Q 3450 3153 3228 2886 
Q 3006 2619 2597 2516 
z
" transform="scale(0.015625)"/>
       </defs>
       <use xlink:href="#DejaVuSans-33"/>
       <use xlink:href="#DejaVuSans-30" x="63.623047"/>
      </g>
     </g>
    </g>
    <g id="text_10">
     <!-- Relative retention time difference (%) -->
     <g transform="translate(141.714687 335.860562) scale(0.1 -0.1)">
      <defs>
       <path id="DejaVuSans-52" d="M 2841 2188 
Q 3044 2119 3236 1894 
Q 3428 1669 3622 1275 
L 4263 0 
L 3584 0 
L 2988 1197 
Q 2756 1666 2539 1819 
Q 2322 1972 1947 1972 
L 1259 1972 
L 1259 0 
L 628 0 
L 628 4666 
L 2053 4666 
Q 2853 4666 3247 4331 
Q 3641 3997 3641 3322 
Q 3641 2881 3436 2590 
Q 3231 2300 2841 2188 
z
M 1259 4147 
L 1259 2491 
L 2053 2491 
Q 2509 2491 2742 2702 
Q 2975 2913 2975 3322 
Q 2975 3731 2742 3939 
Q 2509 4147 2053 4147 
L 1259 4147 
z
" transform="scale(0.015625)"/>
       <path id="DejaVuSans-65" d="M 3597 1894 
L 3597 1613 
L 953 1613 
Q 991 1019 1311 708 
Q 1631 397 2203 397 
Q 2534 397 2845 478 
Q 3156 559 3463 722 
L 3463 178 
Q 3153 47 2828 -22 
Q 2503 -91 2169 -91 
Q 1331 -91 842 396 
Q 353 884 353 1716 
Q 353 2575 817 3079 
Q 1281 3584 2069 3584 
Q 2775 3584 3186 3129 
Q 3597 2675 3597 1894 
z
M 3022 2063 
Q 3016 2534 2758 2815 
Q 2500 3097 2075 3097 
Q 1594 3097 1305 2825 
Q 1016 2553 972 2059 
L 3022 2063 
z
" transform="scale(0.015625)"/>
       <path id="DejaVuSans-6c" d="M 603 4863 
L 1178 4863 
L 1178 0 
L 603 0 
L 603 4863 
z
" transform="scale(0.015625)"/>
       <path id="DejaVuSans-61" d="M 2194 1759 
Q 1497 1759 1228 1600 
Q 959 1441 959 1056 
Q 959 750 1161 570 
Q 1363 391 1709 391 
Q 2188 391 2477 730 
Q 2766 1069 2766 1631 
L 2766 1759 
L 2194 1759 
z
M 3341 1997 
L 3341 0 
L 2766 0 
L 2766 531 
Q 2569 213 2275 61 
Q 1981 -91 1556 -91 
Q 1019 -91 701 211 
Q 384 513 384 1019 
Q 384 1609 779 1909 
Q 1175 2209 1959 2209 
L 2766 2209 
L 2766 2266 
Q 2766 2663 2505 2880 
Q 2244 3097 1772 3097 
Q 1472 3097 1187 3025 
Q 903 2953 641 2809 
L 641 3341 
Q 956 3463 1253 3523 
Q 1550 3584 1831 3584 
Q 2591 3584 2966 3190 
Q 3341 2797 3341 1997 
z
" transform="scale(0.015625)"/>
       <path id="DejaVuSans-74" d="M 1172 4494 
L 1172 3500 
L 2356 3500 
L 2356 3053 
L 1172 3053 
L 1172 1153 
Q 1172 725 1289 603 
Q 1406 481 1766 481 
L 2356 481 
L 2356 0 
L 1766 0 
Q 1100 0 847 248 
Q 594 497 594 1153 
L 594 3053 
L 172 3053 
L 172 3500 
L 594 3500 
L 594 4494 
L 1172 4494 
z
" transform="scale(0.015625)"/>
       <path id="DejaVuSans-69" d="M 603 3500 
L 1178 3500 
L 1178 0 
L 603 0 
L 603 3500 
z
M 603 4863 
L 1178 4863 
L 1178 4134 
L 603 4134 
L 603 4863 
z
" transform="scale(0.015625)"/>
       <path id="DejaVuSans-76" d="M 191 3500 
L 800 3500 
L 1894 563 
L 2988 3500 
L 3597 3500 
L 2284 0 
L 1503 0 
L 191 3500 
z
" transform="scale(0.015625)"/>
       <path id="DejaVuSans-20" transform="scale(0.015625)"/>
       <path id="DejaVuSans-72" d="M 2631 2963 
Q 2534 3019 2420 3045 
Q 2306 3072 2169 3072 
Q 1681 3072 1420 2755 
Q 1159 2438 1159 1844 
L 1159 0 
L 581 0 
L 581 3500 
L 1159 3500 
L 1159 2956 
Q 1341 3275 1631 3429 
Q 1922 3584 2338 3584 
Q 2397 3584 2469 3576 
Q 2541 3569 2628 3553 
L 2631 2963 
z
" transform="scale(0.015625)"/>
       <path id="DejaVuSans-6e" d="M 3513 2113 
L 3513 0 
L 2938 0 
L 2938 2094 
Q 2938 2591 2744 2837 
Q 2550 3084 2163 3084 
Q 1697 3084 1428 2787 
Q 1159 2491 1159 1978 
L 1159 0 
L 581 0 
L 581 3500 
L 1159 3500 
L 1159 2956 
Q 1366 3272 1645 3428 
Q 1925 3584 2291 3584 
Q 2894 3584 3203 3211 
Q 3513 2838 3513 2113 
z
" transform="scale(0.015625)"/>
       <path id="DejaVuSans-6f" d="M 1959 3097 
Q 1497 3097 1228 2736 
Q 959 2375 959 1747 
Q 959 1119 1226 758 
Q 1494 397 1959 397 
Q 2419 397 2687 759 
Q 2956 1122 2956 1747 
Q 2956 2369 2687 2733 
Q 2419 3097 1959 3097 
z
M 1959 3584 
Q 2709 3584 3137 3096 
Q 3566 2609 3566 1747 
Q 3566 888 3137 398 
Q 2709 -91 1959 -91 
Q 1206 -91 779 398 
Q 353 888 353 1747 
Q 353 2609 779 3096 
Q 1206 3584 1959 3584 
z
" transform="scale(0.015625)"/>
       <path id="DejaVuSans-6d" d="M 3328 2828 
Q 3544 3216 3844 3400 
Q 4144 3584 4550 3584 
Q 5097 3584 5394 3201 
Q 5691 2819 5691 2113 
L 5691 0 
L 5113 0 
L 5113 2094 
Q 5113 2597 4934 2840 
Q 4756 3084 4391 3084 
Q 3944 3084 3684 2787 
Q 3425 2491 3425 1978 
L 3425 0 
L 2847 0 
L 2847 2094 
Q 2847 2600 2669 2842 
Q 2491 3084 2119 3084 
Q 1678 3084 1418 2786 
Q 1159 2488 1159 1978 
L 1159 0 
L 581 0 
L 581 3500 
L 1159 3500 
L 1159 2956 
Q 1356 3278 1631 3431 
Q 1906 3584 2284 3584 
Q 2666 3584 2933 3390 
Q 3200 3197 3328 2828 
z
" transform="scale(0.015625)"/>
       <path id="DejaVuSans-64" d="M 2906 2969 
L 2906 4863 
L 3481 4863 
L 3481 0 
L 2906 0 
L 2906 525 
Q 2725 213 2448 61 
Q 2172 -91 1784 -91 
Q 1150 -91 751 415 
Q 353 922 353 1747 
Q 353 2572 751 3078 
Q 1150 3584 1784 3584 
Q 2172 3584 2448 3432 
Q 2725 3281 2906 2969 
z
M 947 1747 
Q 947 1113 1208 752 
Q 1469 391 1925 391 
Q 2381 391 2643 752 
Q 2906 1113 2906 1747 
Q 2906 2381 2643 2742 
Q 2381 3103 1925 3103 
Q 1469 3103 1208 2742 
Q 947 2381 947 1747 
z
" transform="scale(0.015625)"/>
       <path id="DejaVuSans-66" d="M 2375 4863 
L 2375 4384 
L 1825 4384 
Q 1516 4384 1395 4259 
Q 1275 4134 1275 3809 
L 1275 3500 
L 2222 3500 
L 2222 3053 
L 1275 3053 
L 1275 0 
L 697 0 
L 697 3053 
L 147 3053 
L 147 3500 
L 697 3500 
L 697 3744 
Q 697 4328 969 4595 
Q 1241 4863 1831 4863 
L 2375 4863 
z
" transform="scale(0.015625)"/>
       <path id="DejaVuSans-63" d="M 3122 3366 
L 3122 2828 
Q 2878 2963 2633 3030 
Q 2388 3097 2138 3097 
Q 1578 3097 1268 2742 
Q 959 2388 959 1747 
Q 959 1106 1268 751 
Q 1578 397 2138 397 
Q 2388 397 2633 464 
Q 2878 531 3122 666 
L 3122 134 
Q 2881 22 2623 -34 
Q 2366 -91 2075 -91 
Q 1284 -91 818 406 
Q 353 903 353 1747 
Q 353 2603 823 3093 
Q 1294 3584 2113 3584 
Q 2378 3584 2631 3529 
Q 2884 3475 3122 3366 
z
" transform="scale(0.015625)"/>
       <path id="DejaVuSans-28" d="M 1984 4856 
Q 1566 4138 1362 3434 
Q 1159 2731 1159 2009 
Q 1159 1288 1364 580 
Q 1569 -128 1984 -844 
L 1484 -844 
Q 1016 -109 783 600 
Q 550 1309 550 2009 
Q 550 2706 781 3412 
Q 1013 4119 1484 4856 
L 1984 4856 
z
" transform="scale(0.015625)"/>
       <path id="DejaVuSans-25" d="M 4653 2053 
Q 4381 2053 4226 1822 
Q 4072 1591 4072 1178 
Q 4072 772 4226 539 
Q 4381 306 4653 306 
Q 4919 306 5073 539 
Q 5228 772 5228 1178 
Q 5228 1588 5073 1820 
Q 4919 2053 4653 2053 
z
M 4653 2450 
Q 5147 2450 5437 2106 
Q 5728 1763 5728 1178 
Q 5728 594 5436 251 
Q 5144 -91 4653 -91 
Q 4153 -91 3862 251 
Q 3572 594 3572 1178 
Q 3572 1766 3864 2108 
Q 4156 2450 4653 2450 
z
M 1428 4353 
Q 1159 4353 1004 4120 
Q 850 3888 850 3481 
Q 850 3069 1003 2837 
Q 1156 2606 1428 2606 
Q 1700 2606 1854 2837 
Q 2009 3069 2009 3481 
Q 2009 3884 1853 4118 
Q 1697 4353 1428 4353 
z
M 4250 4750 
L 4750 4750 
L 1831 -91 
L 1331 -91 
L 4250 4750 
z
M 1428 4750 
Q 1922 4750 2215 4408 
Q 2509 4066 2509 3481 
Q 2509 2891 2217 2550 
Q 1925 2209 1428 2209 
Q 931 2209 642 2551 
Q 353 2894 353 3481 
Q 353 4063 643 4406 
Q 934 4750 1428 4750 
z
" transform="scale(0.015625)"/>
       <path id="DejaVuSans-29" d="M 513 4856 
L 1013 4856 
Q 1481 4119 1714 3412 
Q 1947 2706 1947 2009 
Q 1947 1309 1714 600 
Q 1481 -109 1013 -844 
L 513 -844 
Q 928 -128 1133 580 
Q 1338 1288 1338 2009 
Q 1338 2731 1133 3434 
Q 928 4138 513 4856 
z
" transform="scale(0.015625)"/>
      </defs>
      <use xlink:href="#DejaVuSans-52"/>
      <use xlink:href="#DejaVuSans-65" x="64.982422"/>
      <use xlink:href="#DejaVuSans-6c" x="126.505859"/>
      <use xlink:href="#DejaVuSans-61" x="154.289062"/>
      <use xlink:href="#DejaVuSans-74" x="215.568359"/>
      <use xlink:href="#DejaVuSans-69" x="254.777344"/>
      <use xlink:href="#DejaVuSans-76" x="282.560547"/>
      <use xlink:href="#DejaVuSans-65" x="341.740234"/>
      <use xlink:href="#DejaVuSans-20" x="403.263672"/>
      <use xlink:href="#DejaVuSans-72" x="435.050781"/>
      <use xlink:href="#DejaVuSans-65" x="473.914062"/>
      <use xlink:href="#DejaVuSans-74" x="535.4375"/>
      <use xlink:href="#DejaVuSans-65" x="574.646484"/>
      <use xlink:href="#DejaVuSans-6e" x="636.169922"/>
      <use xlink:href="#DejaVuSans-74" x="699.548828"/>
      <use xlink:href="#DejaVuSans-69" x="738.757812"/>
      <use xlink:href="#DejaVuSans-6f" x="766.541016"/>
      <use xlink:href="#DejaVuSans-6e" x="827.722656"/>
      <use xlink:href="#DejaVuSans-20" x="891.101562"/>
      <use xlink:href="#DejaVuSans-74" x="922.888672"/>
      <use xlink:href="#DejaVuSans-69" x="962.097656"/>
      <use xlink:href="#DejaVuSans-6d" x="989.880859"/>
      <use xlink:href="#DejaVuSans-65" x="1087.292969"/>
      <use xlink:href="#DejaVuSans-20" x="1148.816406"/>
      <use xlink:href="#DejaVuSans-64" x="1180.603516"/>
      <use xlink:href="#DejaVuSans-69" x="1244.080078"/>
      <use xlink:href="#DejaVuSans-66" x="1271.863281"/>
      <use xlink:href="#DejaVuSans-66" x="1307.068359"/>
      <use xlink:href="#DejaVuSans-65" x="1342.273438"/>
      <use xlink:href="#DejaVuSans-72" x="1403.796875"/>
      <use xlink:href="#DejaVuSans-65" x="1442.660156"/>
      <use xlink:href="#DejaVuSans-6e" x="1504.183594"/>
      <use xlink:href="#DejaVuSans-63" x="1567.5625"/>
      <use xlink:href="#DejaVuSans-65" x="1622.542969"/>
      <use xlink:href="#DejaVuSans-20" x="1684.066406"/>
      <use xlink:href="#DejaVuSans-28" x="1715.853516"/>
      <use xlink:href="#DejaVuSans-25" x="1754.867188"/>
      <use xlink:href="#DejaVuSans-29" x="1849.886719"/>
     </g>
    </g>
   </g>
   <g id="matplotlib.axis_2">
    <g id="ytick_1">
     <g id="line2d_10">
      <defs>
       <path id="mfe998e4a6f" d="M 0 0 
L -3.5 0 
" style="stroke: #000000; stroke-width: 0.8"/>
      </defs>
      <g>
       <use xlink:href="#mfe998e4a6f" x="57.6" y="307.584" style="stroke: #000000; stroke-width: 0.8"/>
      </g>
     </g>
     <g id="text_11">
      <!-- 0.00 -->
      <g transform="translate(28.334375 311.383219) scale(0.1 -0.1)">
       <defs>
        <path id="DejaVuSans-2e" d="M 684 794 
L 1344 794 
L 1344 0 
L 684 0 
L 684 794 
z
" transform="scale(0.015625)"/>
       </defs>
       <use xlink:href="#DejaVuSans-30"/>
       <use xlink:href="#DejaVuSans-2e" x="63.623047"/>
       <use xlink:href="#DejaVuSans-30" x="95.410156"/>
       <use xlink:href="#DejaVuSans-30" x="159.033203"/>
      </g>
     </g>
    </g>
    <g id="ytick_2">
     <g id="line2d_11">
      <g>
       <use xlink:href="#mfe998e4a6f" x="57.6" y="276.897394" style="stroke: #000000; stroke-width: 0.8"/>
      </g>
     </g>
     <g id="text_12">
      <!-- 0.05 -->
      <g transform="translate(28.334375 280.696613) scale(0.1 -0.1)">
       <use xlink:href="#DejaVuSans-30"/>
       <use xlink:href="#DejaVuSans-2e" x="63.623047"/>
       <use xlink:href="#DejaVuSans-30" x="95.410156"/>
       <use xlink:href="#DejaVuSans-35" x="159.033203"/>
      </g>
     </g>
    </g>
    <g id="ytick_3">
     <g id="line2d_12">
      <g>
       <use xlink:href="#mfe998e4a6f" x="57.6" y="246.210788" style="stroke: #000000; stroke-width: 0.8"/>
      </g>
     </g>
     <g id="text_13">
      <!-- 0.10 -->
      <g transform="translate(28.334375 250.010006) scale(0.1 -0.1)">
       <use xlink:href="#DejaVuSans-30"/>
       <use xlink:href="#DejaVuSans-2e" x="63.623047"/>
       <use xlink:href="#DejaVuSans-31" x="95.410156"/>
       <use xlink:href="#DejaVuSans-30" x="159.033203"/>
      </g>
     </g>
    </g>
    <g id="ytick_4">
     <g id="line2d_13">
      <g>
       <use xlink:href="#mfe998e4a6f" x="57.6" y="215.524181" style="stroke: #000000; stroke-width: 0.8"/>
      </g>
     </g>
     <g id="text_14">
      <!-- 0.15 -->
      <g transform="translate(28.334375 219.3234) scale(0.1 -0.1)">
       <use xlink:href="#DejaVuSans-30"/>
       <use xlink:href="#DejaVuSans-2e" x="63.623047"/>
       <use xlink:href="#DejaVuSans-31" x="95.410156"/>
       <use xlink:href="#DejaVuSans-35" x="159.033203"/>
      </g>
     </g>
    </g>
    <g id="ytick_5">
     <g id="line2d_14">
      <g>
       <use xlink:href="#mfe998e4a6f" x="57.6" y="184.837575" style="stroke: #000000; stroke-width: 0.8"/>
      </g>
     </g>
     <g id="text_15">
      <!-- 0.20 -->
      <g transform="translate(28.334375 188.636794) scale(0.1 -0.1)">
       <use xlink:href="#DejaVuSans-30"/>
       <use xlink:href="#DejaVuSans-2e" x="63.623047"/>
       <use xlink:href="#DejaVuSans-32" x="95.410156"/>
       <use xlink:href="#DejaVuSans-30" x="159.033203"/>
      </g>
     </g>
    </g>
    <g id="ytick_6">
     <g id="line2d_15">
      <g>
       <use xlink:href="#mfe998e4a6f" x="57.6" y="154.150969" style="stroke: #000000; stroke-width: 0.8"/>
      </g>
     </g>
     <g id="text_16">
      <!-- 0.25 -->
      <g transform="translate(28.334375 157.950188) scale(0.1 -0.1)">
       <use xlink:href="#DejaVuSans-30"/>
       <use xlink:href="#DejaVuSans-2e" x="63.623047"/>
       <use xlink:href="#DejaVuSans-32" x="95.410156"/>
       <use xlink:href="#DejaVuSans-35" x="159.033203"/>
      </g>
     </g>
    </g>
    <g id="ytick_7">
     <g id="line2d_16">
      <g>
       <use xlink:href="#mfe998e4a6f" x="57.6" y="123.464363" style="stroke: #000000; stroke-width: 0.8"/>
      </g>
     </g>
     <g id="text_17">
      <!-- 0.30 -->
      <g transform="translate(28.334375 127.263581) scale(0.1 -0.1)">
       <use xlink:href="#DejaVuSans-30"/>
       <use xlink:href="#DejaVuSans-2e" x="63.623047"/>
       <use xlink:href="#DejaVuSans-33" x="95.410156"/>
       <use xlink:href="#DejaVuSans-30" x="159.033203"/>
      </g>
     </g>
    </g>
    <g id="ytick_8">
     <g id="line2d_17">
      <g>
       <use xlink:href="#mfe998e4a6f" x="57.6" y="92.777756" style="stroke: #000000; stroke-width: 0.8"/>
      </g>
     </g>
     <g id="text_18">
      <!-- 0.35 -->
      <g transform="translate(28.334375 96.576975) scale(0.1 -0.1)">
       <use xlink:href="#DejaVuSans-30"/>
       <use xlink:href="#DejaVuSans-2e" x="63.623047"/>
       <use xlink:href="#DejaVuSans-33" x="95.410156"/>
       <use xlink:href="#DejaVuSans-35" x="159.033203"/>
      </g>
     </g>
    </g>
    <g id="ytick_9">
     <g id="line2d_18">
      <g>
       <use xlink:href="#mfe998e4a6f" x="57.6" y="62.09115" style="stroke: #000000; stroke-width: 0.8"/>
      </g>
     </g>
     <g id="text_19">
      <!-- 0.40 -->
      <g transform="translate(28.334375 65.890369) scale(0.1 -0.1)">
       <defs>
        <path id="DejaVuSans-34" d="M 2419 4116 
L 825 1625 
L 2419 1625 
L 2419 4116 
z
M 2253 4666 
L 3047 4666 
L 3047 1625 
L 3713 1625 
L 3713 1100 
L 3047 1100 
L 3047 0 
L 2419 0 
L 2419 1100 
L 313 1100 
L 313 1709 
L 2253 4666 
z
" transform="scale(0.015625)"/>
       </defs>
       <use xlink:href="#DejaVuSans-30"/>
       <use xlink:href="#DejaVuSans-2e" x="63.623047"/>
       <use xlink:href="#DejaVuSans-34" x="95.410156"/>
       <use xlink:href="#DejaVuSans-30" x="159.033203"/>
      </g>
     </g>
    </g>
    <g id="text_20">
     <!-- Density -->
     <g transform="translate(22.254687 193.536594) rotate(-90) scale(0.1 -0.1)">
      <defs>
       <path id="DejaVuSans-44" d="M 1259 4147 
L 1259 519 
L 2022 519 
Q 2988 519 3436 956 
Q 3884 1394 3884 2338 
Q 3884 3275 3436 3711 
Q 2988 4147 2022 4147 
L 1259 4147 
z
M 628 4666 
L 1925 4666 
Q 3281 4666 3915 4102 
Q 4550 3538 4550 2338 
Q 4550 1131 3912 565 
Q 3275 0 1925 0 
L 628 0 
L 628 4666 
z
" transform="scale(0.015625)"/>
       <path id="DejaVuSans-73" d="M 2834 3397 
L 2834 2853 
Q 2591 2978 2328 3040 
Q 2066 3103 1784 3103 
Q 1356 3103 1142 2972 
Q 928 2841 928 2578 
Q 928 2378 1081 2264 
Q 1234 2150 1697 2047 
L 1894 2003 
Q 2506 1872 2764 1633 
Q 3022 1394 3022 966 
Q 3022 478 2636 193 
Q 2250 -91 1575 -91 
Q 1294 -91 989 -36 
Q 684 19 347 128 
L 347 722 
Q 666 556 975 473 
Q 1284 391 1588 391 
Q 1994 391 2212 530 
Q 2431 669 2431 922 
Q 2431 1156 2273 1281 
Q 2116 1406 1581 1522 
L 1381 1569 
Q 847 1681 609 1914 
Q 372 2147 372 2553 
Q 372 3047 722 3315 
Q 1072 3584 1716 3584 
Q 2034 3584 2315 3537 
Q 2597 3491 2834 3397 
z
" transform="scale(0.015625)"/>
       <path id="DejaVuSans-79" d="M 2059 -325 
Q 1816 -950 1584 -1140 
Q 1353 -1331 966 -1331 
L 506 -1331 
L 506 -850 
L 844 -850 
Q 1081 -850 1212 -737 
Q 1344 -625 1503 -206 
L 1606 56 
L 191 3500 
L 800 3500 
L 1894 763 
L 2988 3500 
L 3597 3500 
L 2059 -325 
z
" transform="scale(0.015625)"/>
      </defs>
      <use xlink:href="#DejaVuSans-44"/>
      <use xlink:href="#DejaVuSans-65" x="77.001953"/>
      <use xlink:href="#DejaVuSans-6e" x="138.525391"/>
      <use xlink:href="#DejaVuSans-73" x="201.904297"/>
      <use xlink:href="#DejaVuSans-69" x="254.003906"/>
      <use xlink:href="#DejaVuSans-74" x="281.787109"/>
      <use xlink:href="#DejaVuSans-79" x="320.996094"/>
     </g>
    </g>
   </g>
   <g id="patch_3">
    <path d="M 57.6 307.584 
L 57.6 41.472 
" style="fill: none; stroke: #000000; stroke-width: 0.8; stroke-linejoin: miter; stroke-linecap: square"/>
   </g>
   <g id="patch_4">
    <path d="M 414.72 307.584 
L 414.72 41.472 
" style="fill: none; stroke: #000000; stroke-width: 0.8; stroke-linejoin: miter; stroke-linecap: square"/>
   </g>
   <g id="patch_5">
    <path d="M 57.6 307.584 
L 414.72 307.584 
" style="fill: none; stroke: #000000; stroke-width: 0.8; stroke-linejoin: miter; stroke-linecap: square"/>
   </g>
   <g id="patch_6">
    <path d="M 57.6 41.472 
L 414.72 41.472 
" style="fill: none; stroke: #000000; stroke-width: 0.8; stroke-linejoin: miter; stroke-linecap: square"/>
   </g>
   <g id="legend_1">
    <g id="patch_7">
     <path d="M 236.104375 137.54075 
L 407.72 137.54075 
Q 409.72 137.54075 409.72 135.54075 
L 409.72 48.472 
Q 409.72 46.472 407.72 46.472 
L 236.104375 46.472 
Q 234.104375 46.472 234.104375 48.472 
L 234.104375 135.54075 
Q 234.104375 137.54075 236.104375 137.54075 
z
" style="fill: #ffffff; opacity: 0.8; stroke: #cccccc; stroke-linejoin: miter"/>
    </g>
    <g id="text_21">
     <!-- Modification Types -->
     <g transform="translate(275.759063 58.070438) scale(0.1 -0.1)">
      <defs>
       <path id="DejaVuSans-4d" d="M 628 4666 
L 1569 4666 
L 2759 1491 
L 3956 4666 
L 4897 4666 
L 4897 0 
L 4281 0 
L 4281 4097 
L 3078 897 
L 2444 897 
L 1241 4097 
L 1241 0 
L 628 0 
L 628 4666 
z
" transform="scale(0.015625)"/>
       <path id="DejaVuSans-54" d="M -19 4666 
L 3928 4666 
L 3928 4134 
L 2272 4134 
L 2272 0 
L 1638 0 
L 1638 4134 
L -19 4134 
L -19 4666 
z
" transform="scale(0.015625)"/>
       <path id="DejaVuSans-70" d="M 1159 525 
L 1159 -1331 
L 581 -1331 
L 581 3500 
L 1159 3500 
L 1159 2969 
Q 1341 3281 1617 3432 
Q 1894 3584 2278 3584 
Q 2916 3584 3314 3078 
Q 3713 2572 3713 1747 
Q 3713 922 3314 415 
Q 2916 -91 2278 -91 
Q 1894 -91 1617 61 
Q 1341 213 1159 525 
z
M 3116 1747 
Q 3116 2381 2855 2742 
Q 2594 3103 2138 3103 
Q 1681 3103 1420 2742 
Q 1159 2381 1159 1747 
Q 1159 1113 1420 752 
Q 1681 391 2138 391 
Q 2594 391 2855 752 
Q 3116 1113 3116 1747 
z
" transform="scale(0.015625)"/>
      </defs>
      <use xlink:href="#DejaVuSans-4d"/>
      <use xlink:href="#DejaVuSans-6f" x="86.279297"/>
      <use xlink:href="#DejaVuSans-64" x="147.460938"/>
      <use xlink:href="#DejaVuSans-69" x="210.9375"/>
      <use xlink:href="#DejaVuSans-66" x="238.720703"/>
      <use xlink:href="#DejaVuSans-69" x="273.925781"/>
      <use xlink:href="#DejaVuSans-63" x="301.708984"/>
      <use xlink:href="#DejaVuSans-61" x="356.689453"/>
      <use xlink:href="#DejaVuSans-74" x="417.96875"/>
      <use xlink:href="#DejaVuSans-69" x="457.177734"/>
      <use xlink:href="#DejaVuSans-6f" x="484.960938"/>
      <use xlink:href="#DejaVuSans-6e" x="546.142578"/>
      <use xlink:href="#DejaVuSans-20" x="609.521484"/>
      <use xlink:href="#DejaVuSans-54" x="641.308594"/>
      <use xlink:href="#DejaVuSans-79" x="686.767578"/>
      <use xlink:href="#DejaVuSans-70" x="745.947266"/>
      <use xlink:href="#DejaVuSans-65" x="809.423828"/>
      <use xlink:href="#DejaVuSans-73" x="870.947266"/>
     </g>
    </g>
    <g id="patch_8">
     <path d="M 238.104375 72.748563 
L 258.104375 72.748563 
L 258.104375 65.748563 
L 238.104375 65.748563 
z
" style="fill: #1f77b4; fill-opacity: 0.1; stroke: #1f77b4; stroke-linejoin: miter"/>
    </g>
    <g id="text_22">
     <!-- Methyl -->
     <g transform="translate(266.104375 72.748563) scale(0.1 -0.1)">
      <defs>
       <path id="DejaVuSans-68" d="M 3513 2113 
L 3513 0 
L 2938 0 
L 2938 2094 
Q 2938 2591 2744 2837 
Q 2550 3084 2163 3084 
Q 1697 3084 1428 2787 
Q 1159 2491 1159 1978 
L 1159 0 
L 581 0 
L 581 4863 
L 1159 4863 
L 1159 2956 
Q 1366 3272 1645 3428 
Q 1925 3584 2291 3584 
Q 2894 3584 3203 3211 
Q 3513 2838 3513 2113 
z
" transform="scale(0.015625)"/>
      </defs>
      <use xlink:href="#DejaVuSans-4d"/>
      <use xlink:href="#DejaVuSans-65" x="86.279297"/>
      <use xlink:href="#DejaVuSans-74" x="147.802734"/>
      <use xlink:href="#DejaVuSans-68" x="187.011719"/>
      <use xlink:href="#DejaVuSans-79" x="250.390625"/>
      <use xlink:href="#DejaVuSans-6c" x="309.570312"/>
     </g>
    </g>
    <g id="patch_9">
     <path d="M 238.104375 87.426688 
L 258.104375 87.426688 
L 258.104375 80.426688 
L 238.104375 80.426688 
z
" style="fill: #ff7f0e; fill-opacity: 0.1; stroke: #ff7f0e; stroke-linejoin: miter"/>
    </g>
    <g id="text_23">
     <!-- Propionyl -->
     <g transform="translate(266.104375 87.426688) scale(0.1 -0.1)">
      <defs>
       <path id="DejaVuSans-50" d="M 1259 4147 
L 1259 2394 
L 2053 2394 
Q 2494 2394 2734 2622 
Q 2975 2850 2975 3272 
Q 2975 3691 2734 3919 
Q 2494 4147 2053 4147 
L 1259 4147 
z
M 628 4666 
L 2053 4666 
Q 2838 4666 3239 4311 
Q 3641 3956 3641 3272 
Q 3641 2581 3239 2228 
Q 2838 1875 2053 1875 
L 1259 1875 
L 1259 0 
L 628 0 
L 628 4666 
z
" transform="scale(0.015625)"/>
      </defs>
      <use xlink:href="#DejaVuSans-50"/>
      <use xlink:href="#DejaVuSans-72" x="58.552734"/>
      <use xlink:href="#DejaVuSans-6f" x="97.416016"/>
      <use xlink:href="#DejaVuSans-70" x="158.597656"/>
      <use xlink:href="#DejaVuSans-69" x="222.074219"/>
      <use xlink:href="#DejaVuSans-6f" x="249.857422"/>
      <use xlink:href="#DejaVuSans-6e" x="311.039062"/>
      <use xlink:href="#DejaVuSans-79" x="374.417969"/>
      <use xlink:href="#DejaVuSans-6c" x="433.597656"/>
     </g>
    </g>
    <g id="patch_10">
     <path d="M 238.104375 102.104813 
L 258.104375 102.104813 
L 258.104375 95.104813 
L 238.104375 95.104813 
z
" style="fill: #2ca02c; fill-opacity: 0.1; stroke: #2ca02c; stroke-linejoin: miter"/>
    </g>
    <g id="text_24">
     <!-- Dimethyl -->
     <g transform="translate(266.104375 102.104813) scale(0.1 -0.1)">
      <use xlink:href="#DejaVuSans-44"/>
      <use xlink:href="#DejaVuSans-69" x="77.001953"/>
      <use xlink:href="#DejaVuSans-6d" x="104.785156"/>
      <use xlink:href="#DejaVuSans-65" x="202.197266"/>
      <use xlink:href="#DejaVuSans-74" x="263.720703"/>
      <use xlink:href="#DejaVuSans-68" x="302.929688"/>
      <use xlink:href="#DejaVuSans-79" x="366.308594"/>
      <use xlink:href="#DejaVuSans-6c" x="425.488281"/>
     </g>
    </g>
    <g id="patch_11">
     <path d="M 238.104375 116.782938 
L 258.104375 116.782938 
L 258.104375 109.782938 
L 238.104375 109.782938 
z
" style="fill: #d62728; fill-opacity: 0.1; stroke: #d62728; stroke-linejoin: miter"/>
    </g>
    <g id="text_25">
     <!-- Crotonyl -->
     <g transform="translate(266.104375 116.782938) scale(0.1 -0.1)">
      <defs>
       <path id="DejaVuSans-43" d="M 4122 4306 
L 4122 3641 
Q 3803 3938 3442 4084 
Q 3081 4231 2675 4231 
Q 1875 4231 1450 3742 
Q 1025 3253 1025 2328 
Q 1025 1406 1450 917 
Q 1875 428 2675 428 
Q 3081 428 3442 575 
Q 3803 722 4122 1019 
L 4122 359 
Q 3791 134 3420 21 
Q 3050 -91 2638 -91 
Q 1578 -91 968 557 
Q 359 1206 359 2328 
Q 359 3453 968 4101 
Q 1578 4750 2638 4750 
Q 3056 4750 3426 4639 
Q 3797 4528 4122 4306 
z
" transform="scale(0.015625)"/>
      </defs>
      <use xlink:href="#DejaVuSans-43"/>
      <use xlink:href="#DejaVuSans-72" x="69.824219"/>
      <use xlink:href="#DejaVuSans-6f" x="108.6875"/>
      <use xlink:href="#DejaVuSans-74" x="169.869141"/>
      <use xlink:href="#DejaVuSans-6f" x="209.078125"/>
      <use xlink:href="#DejaVuSans-6e" x="270.259766"/>
      <use xlink:href="#DejaVuSans-79" x="333.638672"/>
      <use xlink:href="#DejaVuSans-6c" x="392.818359"/>
     </g>
    </g>
    <g id="patch_12">
     <path d="M 238.104375 131.461063 
L 258.104375 131.461063 
L 258.104375 124.461063 
L 238.104375 124.461063 
z
" style="fill: #0000ff; fill-opacity: 0.8; stroke: #0000ff; stroke-linejoin: miter"/>
    </g>
    <g id="text_26">
     <!-- Identifications "unmodified" -->
     <g transform="translate(266.104375 131.461063) scale(0.1 -0.1)">
      <defs>
       <path id="DejaVuSans-49" d="M 628 4666 
L 1259 4666 
L 1259 0 
L 628 0 
L 628 4666 
z
" transform="scale(0.015625)"/>
       <path id="DejaVuSans-22" d="M 1147 4666 
L 1147 2931 
L 616 2931 
L 616 4666 
L 1147 4666 
z
M 2328 4666 
L 2328 2931 
L 1797 2931 
L 1797 4666 
L 2328 4666 
z
" transform="scale(0.015625)"/>
       <path id="DejaVuSans-75" d="M 544 1381 
L 544 3500 
L 1119 3500 
L 1119 1403 
Q 1119 906 1312 657 
Q 1506 409 1894 409 
Q 2359 409 2629 706 
Q 2900 1003 2900 1516 
L 2900 3500 
L 3475 3500 
L 3475 0 
L 2900 0 
L 2900 538 
Q 2691 219 2414 64 
Q 2138 -91 1772 -91 
Q 1169 -91 856 284 
Q 544 659 544 1381 
z
M 1991 3584 
L 1991 3584 
z
" transform="scale(0.015625)"/>
      </defs>
      <use xlink:href="#DejaVuSans-49"/>
      <use xlink:href="#DejaVuSans-64" x="29.492188"/>
      <use xlink:href="#DejaVuSans-65" x="92.96875"/>
      <use xlink:href="#DejaVuSans-6e" x="154.492188"/>
      <use xlink:href="#DejaVuSans-74" x="217.871094"/>
      <use xlink:href="#DejaVuSans-69" x="257.080078"/>
      <use xlink:href="#DejaVuSans-66" x="284.863281"/>
      <use xlink:href="#DejaVuSans-69" x="320.068359"/>
      <use xlink:href="#DejaVuSans-63" x="347.851562"/>
      <use xlink:href="#DejaVuSans-61" x="402.832031"/>
      <use xlink:href="#DejaVuSans-74" x="464.111328"/>
      <use xlink:href="#DejaVuSans-69" x="503.320312"/>
      <use xlink:href="#DejaVuSans-6f" x="531.103516"/>
      <use xlink:href="#DejaVuSans-6e" x="592.285156"/>
      <use xlink:href="#DejaVuSans-73" x="655.664062"/>
      <use xlink:href="#DejaVuSans-20" x="707.763672"/>
      <use xlink:href="#DejaVuSans-22" x="739.550781"/>
      <use xlink:href="#DejaVuSans-75" x="785.546875"/>
      <use xlink:href="#DejaVuSans-6e" x="848.925781"/>
      <use xlink:href="#DejaVuSans-6d" x="912.304688"/>
      <use xlink:href="#DejaVuSans-6f" x="1009.716797"/>
      <use xlink:href="#DejaVuSans-64" x="1070.898438"/>
      <use xlink:href="#DejaVuSans-69" x="1134.375"/>
      <use xlink:href="#DejaVuSans-66" x="1162.158203"/>
      <use xlink:href="#DejaVuSans-69" x="1197.363281"/>
      <use xlink:href="#DejaVuSans-65" x="1225.146484"/>
      <use xlink:href="#DejaVuSans-64" x="1286.669922"/>
      <use xlink:href="#DejaVuSans-22" x="1350.146484"/>
     </g>
    </g>
   </g>
  </g>
 </g>
 <defs>
  <clipPath id="p499ee87d2b">
   <rect x="57.6" y="41.472" width="357.12" height="266.112"/>
  </clipPath>
 </defs>
</svg>
