<?xml version="1.0" encoding="utf-8" standalone="no"?>
<!DOCTYPE svg PUBLIC "-//W3C//DTD SVG 1.1//EN"
  "http://www.w3.org/Graphics/SVG/1.1/DTD/svg11.dtd">
<svg xmlns:xlink="http://www.w3.org/1999/xlink" width="504pt" height="162pt" viewBox="0 0 504 162" xmlns="http://www.w3.org/2000/svg" version="1.1">
 <metadata>
  <rdf:RDF xmlns:dc="http://purl.org/dc/elements/1.1/" xmlns:cc="http://creativecommons.org/ns#" xmlns:rdf="http://www.w3.org/1999/02/22-rdf-syntax-ns#">
   <cc:Work>
    <dc:type rdf:resource="http://purl.org/dc/dcmitype/StillImage"/>
    <dc:date>2025-06-06T14:14:33.057798</dc:date>
    <dc:format>image/svg+xml</dc:format>
    <dc:creator>
     <cc:Agent>
      <dc:title>Matplotlib v3.10.1, https://matplotlib.org/</dc:title>
     </cc:Agent>
    </dc:creator>
   </cc:Work>
  </rdf:RDF>
 </metadata>
 <defs>
  <style type="text/css">*{stroke-linejoin: round; stroke-linecap: butt}</style>
 </defs>
 <g id="figure_1">
  <g id="patch_1">
   <path d="M 0 162 
L 504 162 
L 504 0 
L 0 0 
z
" style="fill: #ffffff"/>
  </g>
  <g id="axes_1">
   <g id="patch_2">
    <path d="M 48.89 93.018107 
L 493.2 93.018107 
L 493.2 25.49625 
L 48.89 25.49625 
z
" style="fill: #ffffff"/>
   </g>
   <g id="matplotlib.axis_1">
    <g id="xtick_1">
     <g id="text_1">
      <!-- Crotonyl -->
      <g style="fill: #262626" transform="translate(59.770799 131.494303) rotate(-45) scale(0.1 -0.1)">
       <defs>
        <path id="ArialMT-43" d="M 3763 1606 
L 4369 1453 
Q 4178 706 3683 314 
Q 3188 -78 2472 -78 
Q 1731 -78 1267 223 
Q 803 525 561 1097 
Q 319 1669 319 2325 
Q 319 3041 592 3573 
Q 866 4106 1370 4382 
Q 1875 4659 2481 4659 
Q 3169 4659 3637 4309 
Q 4106 3959 4291 3325 
L 3694 3184 
Q 3534 3684 3231 3912 
Q 2928 4141 2469 4141 
Q 1941 4141 1586 3887 
Q 1231 3634 1087 3207 
Q 944 2781 944 2328 
Q 944 1744 1114 1308 
Q 1284 872 1643 656 
Q 2003 441 2422 441 
Q 2931 441 3284 734 
Q 3638 1028 3763 1606 
z
" transform="scale(0.015625)"/>
        <path id="ArialMT-72" d="M 416 0 
L 416 3319 
L 922 3319 
L 922 2816 
Q 1116 3169 1280 3281 
Q 1444 3394 1641 3394 
Q 1925 3394 2219 3213 
L 2025 2691 
Q 1819 2813 1613 2813 
Q 1428 2813 1281 2702 
Q 1134 2591 1072 2394 
Q 978 2094 978 1738 
L 978 0 
L 416 0 
z
" transform="scale(0.015625)"/>
        <path id="ArialMT-6f" d="M 213 1659 
Q 213 2581 725 3025 
Q 1153 3394 1769 3394 
Q 2453 3394 2887 2945 
Q 3322 2497 3322 1706 
Q 3322 1066 3130 698 
Q 2938 331 2570 128 
Q 2203 -75 1769 -75 
Q 1072 -75 642 372 
Q 213 819 213 1659 
z
M 791 1659 
Q 791 1022 1069 705 
Q 1347 388 1769 388 
Q 2188 388 2466 706 
Q 2744 1025 2744 1678 
Q 2744 2294 2464 2611 
Q 2184 2928 1769 2928 
Q 1347 2928 1069 2612 
Q 791 2297 791 1659 
z
" transform="scale(0.015625)"/>
        <path id="ArialMT-74" d="M 1650 503 
L 1731 6 
Q 1494 -44 1306 -44 
Q 1000 -44 831 53 
Q 663 150 594 308 
Q 525 466 525 972 
L 525 2881 
L 113 2881 
L 113 3319 
L 525 3319 
L 525 4141 
L 1084 4478 
L 1084 3319 
L 1650 3319 
L 1650 2881 
L 1084 2881 
L 1084 941 
Q 1084 700 1114 631 
Q 1144 563 1211 522 
Q 1278 481 1403 481 
Q 1497 481 1650 503 
z
" transform="scale(0.015625)"/>
        <path id="ArialMT-6e" d="M 422 0 
L 422 3319 
L 928 3319 
L 928 2847 
Q 1294 3394 1984 3394 
Q 2284 3394 2536 3286 
Q 2788 3178 2913 3003 
Q 3038 2828 3088 2588 
Q 3119 2431 3119 2041 
L 3119 0 
L 2556 0 
L 2556 2019 
Q 2556 2363 2490 2533 
Q 2425 2703 2258 2804 
Q 2091 2906 1866 2906 
Q 1506 2906 1245 2678 
Q 984 2450 984 1813 
L 984 0 
L 422 0 
z
" transform="scale(0.015625)"/>
        <path id="ArialMT-79" d="M 397 -1278 
L 334 -750 
Q 519 -800 656 -800 
Q 844 -800 956 -737 
Q 1069 -675 1141 -563 
Q 1194 -478 1313 -144 
Q 1328 -97 1363 -6 
L 103 3319 
L 709 3319 
L 1400 1397 
Q 1534 1031 1641 628 
Q 1738 1016 1872 1384 
L 2581 3319 
L 3144 3319 
L 1881 -56 
Q 1678 -603 1566 -809 
Q 1416 -1088 1222 -1217 
Q 1028 -1347 759 -1347 
Q 597 -1347 397 -1278 
z
" transform="scale(0.015625)"/>
        <path id="ArialMT-6c" d="M 409 0 
L 409 4581 
L 972 4581 
L 972 0 
L 409 0 
z
" transform="scale(0.015625)"/>
       </defs>
       <use xlink:href="#ArialMT-43"/>
       <use xlink:href="#ArialMT-72" transform="translate(72.216797 0)"/>
       <use xlink:href="#ArialMT-6f" transform="translate(105.517578 0)"/>
       <use xlink:href="#ArialMT-74" transform="translate(161.132812 0)"/>
       <use xlink:href="#ArialMT-6f" transform="translate(188.916016 0)"/>
       <use xlink:href="#ArialMT-6e" transform="translate(244.53125 0)"/>
       <use xlink:href="#ArialMT-79" transform="translate(300.146484 0)"/>
       <use xlink:href="#ArialMT-6c" transform="translate(350.146484 0)"/>
      </g>
     </g>
    </g>
    <g id="xtick_2">
     <g id="text_2">
      <!-- Propionyl -->
      <g style="fill: #262626" transform="translate(102.584293 134.556959) rotate(-45) scale(0.1 -0.1)">
       <defs>
        <path id="ArialMT-50" d="M 494 0 
L 494 4581 
L 2222 4581 
Q 2678 4581 2919 4538 
Q 3256 4481 3484 4323 
Q 3713 4166 3852 3881 
Q 3991 3597 3991 3256 
Q 3991 2672 3619 2267 
Q 3247 1863 2275 1863 
L 1100 1863 
L 1100 0 
L 494 0 
z
M 1100 2403 
L 2284 2403 
Q 2872 2403 3119 2622 
Q 3366 2841 3366 3238 
Q 3366 3525 3220 3729 
Q 3075 3934 2838 4000 
Q 2684 4041 2272 4041 
L 1100 4041 
L 1100 2403 
z
" transform="scale(0.015625)"/>
        <path id="ArialMT-70" d="M 422 -1272 
L 422 3319 
L 934 3319 
L 934 2888 
Q 1116 3141 1344 3267 
Q 1572 3394 1897 3394 
Q 2322 3394 2647 3175 
Q 2972 2956 3137 2557 
Q 3303 2159 3303 1684 
Q 3303 1175 3120 767 
Q 2938 359 2589 142 
Q 2241 -75 1856 -75 
Q 1575 -75 1351 44 
Q 1128 163 984 344 
L 984 -1272 
L 422 -1272 
z
M 931 1641 
Q 931 1000 1190 694 
Q 1450 388 1819 388 
Q 2194 388 2461 705 
Q 2728 1022 2728 1688 
Q 2728 2322 2467 2637 
Q 2206 2953 1844 2953 
Q 1484 2953 1207 2617 
Q 931 2281 931 1641 
z
" transform="scale(0.015625)"/>
        <path id="ArialMT-69" d="M 425 3934 
L 425 4581 
L 988 4581 
L 988 3934 
L 425 3934 
z
M 425 0 
L 425 3319 
L 988 3319 
L 988 0 
L 425 0 
z
" transform="scale(0.015625)"/>
       </defs>
       <use xlink:href="#ArialMT-50"/>
       <use xlink:href="#ArialMT-72" transform="translate(66.699219 0)"/>
       <use xlink:href="#ArialMT-6f" transform="translate(100 0)"/>
       <use xlink:href="#ArialMT-70" transform="translate(155.615234 0)"/>
       <use xlink:href="#ArialMT-69" transform="translate(211.230469 0)"/>
       <use xlink:href="#ArialMT-6f" transform="translate(233.447266 0)"/>
       <use xlink:href="#ArialMT-6e" transform="translate(289.0625 0)"/>
       <use xlink:href="#ArialMT-79" transform="translate(344.677734 0)"/>
       <use xlink:href="#ArialMT-6c" transform="translate(394.677734 0)"/>
      </g>
     </g>
    </g>
    <g id="xtick_3">
     <g id="text_3">
      <!-- Acetyl -->
      <g style="fill: #262626" transform="translate(152.126349 124.334846) rotate(-45) scale(0.1 -0.1)">
       <defs>
        <path id="ArialMT-41" d="M -9 0 
L 1750 4581 
L 2403 4581 
L 4278 0 
L 3588 0 
L 3053 1388 
L 1138 1388 
L 634 0 
L -9 0 
z
M 1313 1881 
L 2866 1881 
L 2388 3150 
Q 2169 3728 2063 4100 
Q 1975 3659 1816 3225 
L 1313 1881 
z
" transform="scale(0.015625)"/>
        <path id="ArialMT-63" d="M 2588 1216 
L 3141 1144 
Q 3050 572 2676 248 
Q 2303 -75 1759 -75 
Q 1078 -75 664 370 
Q 250 816 250 1647 
Q 250 2184 428 2587 
Q 606 2991 970 3192 
Q 1334 3394 1763 3394 
Q 2303 3394 2647 3120 
Q 2991 2847 3088 2344 
L 2541 2259 
Q 2463 2594 2264 2762 
Q 2066 2931 1784 2931 
Q 1359 2931 1093 2626 
Q 828 2322 828 1663 
Q 828 994 1084 691 
Q 1341 388 1753 388 
Q 2084 388 2306 591 
Q 2528 794 2588 1216 
z
" transform="scale(0.015625)"/>
        <path id="ArialMT-65" d="M 2694 1069 
L 3275 997 
Q 3138 488 2766 206 
Q 2394 -75 1816 -75 
Q 1088 -75 661 373 
Q 234 822 234 1631 
Q 234 2469 665 2931 
Q 1097 3394 1784 3394 
Q 2450 3394 2872 2941 
Q 3294 2488 3294 1666 
Q 3294 1616 3291 1516 
L 816 1516 
Q 847 969 1125 678 
Q 1403 388 1819 388 
Q 2128 388 2347 550 
Q 2566 713 2694 1069 
z
M 847 1978 
L 2700 1978 
Q 2663 2397 2488 2606 
Q 2219 2931 1791 2931 
Q 1403 2931 1139 2672 
Q 875 2413 847 1978 
z
" transform="scale(0.015625)"/>
       </defs>
       <use xlink:href="#ArialMT-41"/>
       <use xlink:href="#ArialMT-63" transform="translate(66.699219 0)"/>
       <use xlink:href="#ArialMT-65" transform="translate(116.699219 0)"/>
       <use xlink:href="#ArialMT-74" transform="translate(172.314453 0)"/>
       <use xlink:href="#ArialMT-79" transform="translate(200.097656 0)"/>
       <use xlink:href="#ArialMT-6c" transform="translate(250.097656 0)"/>
      </g>
     </g>
    </g>
    <g id="xtick_4">
     <g id="text_4">
      <!-- Succinyl -->
      <g style="fill: #262626" transform="translate(193.063247 131.495407) rotate(-45) scale(0.1 -0.1)">
       <defs>
        <path id="ArialMT-53" d="M 288 1472 
L 859 1522 
Q 900 1178 1048 958 
Q 1197 738 1509 602 
Q 1822 466 2213 466 
Q 2559 466 2825 569 
Q 3091 672 3220 851 
Q 3350 1031 3350 1244 
Q 3350 1459 3225 1620 
Q 3100 1781 2813 1891 
Q 2628 1963 1997 2114 
Q 1366 2266 1113 2400 
Q 784 2572 623 2826 
Q 463 3081 463 3397 
Q 463 3744 659 4045 
Q 856 4347 1234 4503 
Q 1613 4659 2075 4659 
Q 2584 4659 2973 4495 
Q 3363 4331 3572 4012 
Q 3781 3694 3797 3291 
L 3216 3247 
Q 3169 3681 2898 3903 
Q 2628 4125 2100 4125 
Q 1550 4125 1298 3923 
Q 1047 3722 1047 3438 
Q 1047 3191 1225 3031 
Q 1400 2872 2139 2705 
Q 2878 2538 3153 2413 
Q 3553 2228 3743 1945 
Q 3934 1663 3934 1294 
Q 3934 928 3725 604 
Q 3516 281 3123 101 
Q 2731 -78 2241 -78 
Q 1619 -78 1198 103 
Q 778 284 539 648 
Q 300 1013 288 1472 
z
" transform="scale(0.015625)"/>
        <path id="ArialMT-75" d="M 2597 0 
L 2597 488 
Q 2209 -75 1544 -75 
Q 1250 -75 995 37 
Q 741 150 617 320 
Q 494 491 444 738 
Q 409 903 409 1263 
L 409 3319 
L 972 3319 
L 972 1478 
Q 972 1038 1006 884 
Q 1059 663 1231 536 
Q 1403 409 1656 409 
Q 1909 409 2131 539 
Q 2353 669 2445 892 
Q 2538 1116 2538 1541 
L 2538 3319 
L 3100 3319 
L 3100 0 
L 2597 0 
z
" transform="scale(0.015625)"/>
       </defs>
       <use xlink:href="#ArialMT-53"/>
       <use xlink:href="#ArialMT-75" transform="translate(66.699219 0)"/>
       <use xlink:href="#ArialMT-63" transform="translate(122.314453 0)"/>
       <use xlink:href="#ArialMT-63" transform="translate(172.314453 0)"/>
       <use xlink:href="#ArialMT-69" transform="translate(222.314453 0)"/>
       <use xlink:href="#ArialMT-6e" transform="translate(244.53125 0)"/>
       <use xlink:href="#ArialMT-79" transform="translate(300.146484 0)"/>
       <use xlink:href="#ArialMT-6c" transform="translate(350.146484 0)"/>
      </g>
     </g>
    </g>
    <g id="xtick_5">
     <g id="text_5">
      <!-- Formyl -->
      <g style="fill: #262626" transform="translate(239.814993 126.681557) rotate(-45) scale(0.1 -0.1)">
       <defs>
        <path id="ArialMT-46" d="M 525 0 
L 525 4581 
L 3616 4581 
L 3616 4041 
L 1131 4041 
L 1131 2622 
L 3281 2622 
L 3281 2081 
L 1131 2081 
L 1131 0 
L 525 0 
z
" transform="scale(0.015625)"/>
        <path id="ArialMT-6d" d="M 422 0 
L 422 3319 
L 925 3319 
L 925 2853 
Q 1081 3097 1340 3245 
Q 1600 3394 1931 3394 
Q 2300 3394 2536 3241 
Q 2772 3088 2869 2813 
Q 3263 3394 3894 3394 
Q 4388 3394 4653 3120 
Q 4919 2847 4919 2278 
L 4919 0 
L 4359 0 
L 4359 2091 
Q 4359 2428 4304 2576 
Q 4250 2725 4106 2815 
Q 3963 2906 3769 2906 
Q 3419 2906 3187 2673 
Q 2956 2441 2956 1928 
L 2956 0 
L 2394 0 
L 2394 2156 
Q 2394 2531 2256 2718 
Q 2119 2906 1806 2906 
Q 1569 2906 1367 2781 
Q 1166 2656 1075 2415 
Q 984 2175 984 1722 
L 984 0 
L 422 0 
z
" transform="scale(0.015625)"/>
       </defs>
       <use xlink:href="#ArialMT-46"/>
       <use xlink:href="#ArialMT-6f" transform="translate(61.083984 0)"/>
       <use xlink:href="#ArialMT-72" transform="translate(116.699219 0)"/>
       <use xlink:href="#ArialMT-6d" transform="translate(150 0)"/>
       <use xlink:href="#ArialMT-79" transform="translate(233.300781 0)"/>
       <use xlink:href="#ArialMT-6c" transform="translate(283.300781 0)"/>
      </g>
     </g>
    </g>
    <g id="xtick_6">
     <g id="text_6">
      <!-- Malonyl -->
      <g style="fill: #262626" transform="translate(282.864925 129.443693) rotate(-45) scale(0.1 -0.1)">
       <defs>
        <path id="ArialMT-4d" d="M 475 0 
L 475 4581 
L 1388 4581 
L 2472 1338 
Q 2622 884 2691 659 
Q 2769 909 2934 1394 
L 4031 4581 
L 4847 4581 
L 4847 0 
L 4263 0 
L 4263 3834 
L 2931 0 
L 2384 0 
L 1059 3900 
L 1059 0 
L 475 0 
z
" transform="scale(0.015625)"/>
        <path id="ArialMT-61" d="M 2588 409 
Q 2275 144 1986 34 
Q 1697 -75 1366 -75 
Q 819 -75 525 192 
Q 231 459 231 875 
Q 231 1119 342 1320 
Q 453 1522 633 1644 
Q 813 1766 1038 1828 
Q 1203 1872 1538 1913 
Q 2219 1994 2541 2106 
Q 2544 2222 2544 2253 
Q 2544 2597 2384 2738 
Q 2169 2928 1744 2928 
Q 1347 2928 1158 2789 
Q 969 2650 878 2297 
L 328 2372 
Q 403 2725 575 2942 
Q 747 3159 1072 3276 
Q 1397 3394 1825 3394 
Q 2250 3394 2515 3294 
Q 2781 3194 2906 3042 
Q 3031 2891 3081 2659 
Q 3109 2516 3109 2141 
L 3109 1391 
Q 3109 606 3145 398 
Q 3181 191 3288 0 
L 2700 0 
Q 2613 175 2588 409 
z
M 2541 1666 
Q 2234 1541 1622 1453 
Q 1275 1403 1131 1340 
Q 988 1278 909 1158 
Q 831 1038 831 891 
Q 831 666 1001 516 
Q 1172 366 1500 366 
Q 1825 366 2078 508 
Q 2331 650 2450 897 
Q 2541 1088 2541 1459 
L 2541 1666 
z
" transform="scale(0.015625)"/>
       </defs>
       <use xlink:href="#ArialMT-4d"/>
       <use xlink:href="#ArialMT-61" transform="translate(83.300781 0)"/>
       <use xlink:href="#ArialMT-6c" transform="translate(138.916016 0)"/>
       <use xlink:href="#ArialMT-6f" transform="translate(161.132812 0)"/>
       <use xlink:href="#ArialMT-6e" transform="translate(216.748047 0)"/>
       <use xlink:href="#ArialMT-79" transform="translate(272.363281 0)"/>
       <use xlink:href="#ArialMT-6c" transform="translate(322.363281 0)"/>
      </g>
     </g>
    </g>
    <g id="xtick_7">
     <g id="text_7">
      <!-- Dimethyl -->
      <g style="fill: #262626" transform="translate(325.72648 132.582584) rotate(-45) scale(0.1 -0.1)">
       <defs>
        <path id="ArialMT-44" d="M 494 0 
L 494 4581 
L 2072 4581 
Q 2606 4581 2888 4516 
Q 3281 4425 3559 4188 
Q 3922 3881 4101 3404 
Q 4281 2928 4281 2316 
Q 4281 1794 4159 1391 
Q 4038 988 3847 723 
Q 3656 459 3429 307 
Q 3203 156 2883 78 
Q 2563 0 2147 0 
L 494 0 
z
M 1100 541 
L 2078 541 
Q 2531 541 2789 625 
Q 3047 709 3200 863 
Q 3416 1078 3536 1442 
Q 3656 1806 3656 2325 
Q 3656 3044 3420 3430 
Q 3184 3816 2847 3947 
Q 2603 4041 2063 4041 
L 1100 4041 
L 1100 541 
z
" transform="scale(0.015625)"/>
        <path id="ArialMT-68" d="M 422 0 
L 422 4581 
L 984 4581 
L 984 2938 
Q 1378 3394 1978 3394 
Q 2347 3394 2619 3248 
Q 2891 3103 3008 2847 
Q 3125 2591 3125 2103 
L 3125 0 
L 2563 0 
L 2563 2103 
Q 2563 2525 2380 2717 
Q 2197 2909 1863 2909 
Q 1613 2909 1392 2779 
Q 1172 2650 1078 2428 
Q 984 2206 984 1816 
L 984 0 
L 422 0 
z
" transform="scale(0.015625)"/>
       </defs>
       <use xlink:href="#ArialMT-44"/>
       <use xlink:href="#ArialMT-69" transform="translate(72.216797 0)"/>
       <use xlink:href="#ArialMT-6d" transform="translate(94.433594 0)"/>
       <use xlink:href="#ArialMT-65" transform="translate(177.734375 0)"/>
       <use xlink:href="#ArialMT-74" transform="translate(233.349609 0)"/>
       <use xlink:href="#ArialMT-68" transform="translate(261.132812 0)"/>
       <use xlink:href="#ArialMT-79" transform="translate(316.748047 0)"/>
       <use xlink:href="#ArialMT-6c" transform="translate(366.748047 0)"/>
      </g>
     </g>
    </g>
    <g id="xtick_8">
     <g id="text_8">
      <!-- Trimethyl -->
      <g style="fill: #262626" transform="translate(369.506721 133.884103) rotate(-45) scale(0.1 -0.1)">
       <defs>
        <path id="ArialMT-54" d="M 1659 0 
L 1659 4041 
L 150 4041 
L 150 4581 
L 3781 4581 
L 3781 4041 
L 2266 4041 
L 2266 0 
L 1659 0 
z
" transform="scale(0.015625)"/>
       </defs>
       <use xlink:href="#ArialMT-54"/>
       <use xlink:href="#ArialMT-72" transform="translate(57.333984 0)"/>
       <use xlink:href="#ArialMT-69" transform="translate(90.634766 0)"/>
       <use xlink:href="#ArialMT-6d" transform="translate(112.851562 0)"/>
       <use xlink:href="#ArialMT-65" transform="translate(196.152344 0)"/>
       <use xlink:href="#ArialMT-74" transform="translate(251.767578 0)"/>
       <use xlink:href="#ArialMT-68" transform="translate(279.550781 0)"/>
       <use xlink:href="#ArialMT-79" transform="translate(335.166016 0)"/>
       <use xlink:href="#ArialMT-6c" transform="translate(385.166016 0)"/>
      </g>
     </g>
    </g>
    <g id="xtick_9">
     <g id="text_9">
      <!-- Methyl -->
      <g style="fill: #262626" transform="translate(417.92735 125.904845) rotate(-45) scale(0.1 -0.1)">
       <use xlink:href="#ArialMT-4d"/>
       <use xlink:href="#ArialMT-65" transform="translate(83.300781 0)"/>
       <use xlink:href="#ArialMT-74" transform="translate(138.916016 0)"/>
       <use xlink:href="#ArialMT-68" transform="translate(166.699219 0)"/>
       <use xlink:href="#ArialMT-79" transform="translate(222.314453 0)"/>
       <use xlink:href="#ArialMT-6c" transform="translate(272.314453 0)"/>
      </g>
     </g>
    </g>
    <g id="xtick_10">
     <g id="text_10">
      <!-- Oxidation -->
      <g style="fill: #262626" transform="translate(457.87706 134.950287) rotate(-45) scale(0.1 -0.1)">
       <defs>
        <path id="ArialMT-4f" d="M 309 2231 
Q 309 3372 921 4017 
Q 1534 4663 2503 4663 
Q 3138 4663 3647 4359 
Q 4156 4056 4423 3514 
Q 4691 2972 4691 2284 
Q 4691 1588 4409 1038 
Q 4128 488 3612 205 
Q 3097 -78 2500 -78 
Q 1853 -78 1343 234 
Q 834 547 571 1087 
Q 309 1628 309 2231 
z
M 934 2222 
Q 934 1394 1379 917 
Q 1825 441 2497 441 
Q 3181 441 3623 922 
Q 4066 1403 4066 2288 
Q 4066 2847 3877 3264 
Q 3688 3681 3323 3911 
Q 2959 4141 2506 4141 
Q 1863 4141 1398 3698 
Q 934 3256 934 2222 
z
" transform="scale(0.015625)"/>
        <path id="ArialMT-78" d="M 47 0 
L 1259 1725 
L 138 3319 
L 841 3319 
L 1350 2541 
Q 1494 2319 1581 2169 
Q 1719 2375 1834 2534 
L 2394 3319 
L 3066 3319 
L 1919 1756 
L 3153 0 
L 2463 0 
L 1781 1031 
L 1600 1309 
L 728 0 
L 47 0 
z
" transform="scale(0.015625)"/>
        <path id="ArialMT-64" d="M 2575 0 
L 2575 419 
Q 2259 -75 1647 -75 
Q 1250 -75 917 144 
Q 584 363 401 755 
Q 219 1147 219 1656 
Q 219 2153 384 2558 
Q 550 2963 881 3178 
Q 1213 3394 1622 3394 
Q 1922 3394 2156 3267 
Q 2391 3141 2538 2938 
L 2538 4581 
L 3097 4581 
L 3097 0 
L 2575 0 
z
M 797 1656 
Q 797 1019 1065 703 
Q 1334 388 1700 388 
Q 2069 388 2326 689 
Q 2584 991 2584 1609 
Q 2584 2291 2321 2609 
Q 2059 2928 1675 2928 
Q 1300 2928 1048 2622 
Q 797 2316 797 1656 
z
" transform="scale(0.015625)"/>
       </defs>
       <use xlink:href="#ArialMT-4f"/>
       <use xlink:href="#ArialMT-78" transform="translate(77.783203 0)"/>
       <use xlink:href="#ArialMT-69" transform="translate(127.783203 0)"/>
       <use xlink:href="#ArialMT-64" transform="translate(150 0)"/>
       <use xlink:href="#ArialMT-61" transform="translate(205.615234 0)"/>
       <use xlink:href="#ArialMT-74" transform="translate(261.230469 0)"/>
       <use xlink:href="#ArialMT-69" transform="translate(289.013672 0)"/>
       <use xlink:href="#ArialMT-6f" transform="translate(311.230469 0)"/>
       <use xlink:href="#ArialMT-6e" transform="translate(366.845703 0)"/>
      </g>
     </g>
    </g>
    <g id="text_11">
     <!-- Modification Type -->
     <g style="fill: #262626" transform="translate(232.225469 147.635349) scale(0.1 -0.1)">
      <defs>
       <path id="ArialMT-66" d="M 556 0 
L 556 2881 
L 59 2881 
L 59 3319 
L 556 3319 
L 556 3672 
Q 556 4006 616 4169 
Q 697 4388 901 4523 
Q 1106 4659 1475 4659 
Q 1713 4659 2000 4603 
L 1916 4113 
Q 1741 4144 1584 4144 
Q 1328 4144 1222 4034 
Q 1116 3925 1116 3625 
L 1116 3319 
L 1763 3319 
L 1763 2881 
L 1116 2881 
L 1116 0 
L 556 0 
z
" transform="scale(0.015625)"/>
       <path id="ArialMT-20" transform="scale(0.015625)"/>
      </defs>
      <use xlink:href="#ArialMT-4d"/>
      <use xlink:href="#ArialMT-6f" transform="translate(83.300781 0)"/>
      <use xlink:href="#ArialMT-64" transform="translate(138.916016 0)"/>
      <use xlink:href="#ArialMT-69" transform="translate(194.53125 0)"/>
      <use xlink:href="#ArialMT-66" transform="translate(216.748047 0)"/>
      <use xlink:href="#ArialMT-69" transform="translate(244.53125 0)"/>
      <use xlink:href="#ArialMT-63" transform="translate(266.748047 0)"/>
      <use xlink:href="#ArialMT-61" transform="translate(316.748047 0)"/>
      <use xlink:href="#ArialMT-74" transform="translate(372.363281 0)"/>
      <use xlink:href="#ArialMT-69" transform="translate(400.146484 0)"/>
      <use xlink:href="#ArialMT-6f" transform="translate(422.363281 0)"/>
      <use xlink:href="#ArialMT-6e" transform="translate(477.978516 0)"/>
      <use xlink:href="#ArialMT-20" transform="translate(533.59375 0)"/>
      <use xlink:href="#ArialMT-54" transform="translate(559.626953 0)"/>
      <use xlink:href="#ArialMT-79" transform="translate(615.210938 0)"/>
      <use xlink:href="#ArialMT-70" transform="translate(665.210938 0)"/>
      <use xlink:href="#ArialMT-65" transform="translate(720.826172 0)"/>
     </g>
    </g>
   </g>
   <g id="matplotlib.axis_2">
    <g id="ytick_1">
     <g id="line2d_1">
      <path d="M 48.89 83.04992 
L 493.2 83.04992 
" clip-path="url(#p170f4eebc0)" style="fill: none; stroke: #cccccc; stroke-width: 0.8; stroke-linecap: round"/>
     </g>
     <g id="text_12">
      <!-- −10 -->
      <g style="fill: #262626" transform="translate(24.9275 86.628826) scale(0.1 -0.1)">
       <defs>
        <path id="ArialMT-2212" d="M 3381 1997 
L 356 1997 
L 356 2522 
L 3381 2522 
L 3381 1997 
z
" transform="scale(0.015625)"/>
        <path id="ArialMT-31" d="M 2384 0 
L 1822 0 
L 1822 3584 
Q 1619 3391 1289 3197 
Q 959 3003 697 2906 
L 697 3450 
Q 1169 3672 1522 3987 
Q 1875 4303 2022 4600 
L 2384 4600 
L 2384 0 
z
" transform="scale(0.015625)"/>
        <path id="ArialMT-30" d="M 266 2259 
Q 266 3072 433 3567 
Q 600 4063 929 4331 
Q 1259 4600 1759 4600 
Q 2128 4600 2406 4451 
Q 2684 4303 2865 4023 
Q 3047 3744 3150 3342 
Q 3253 2941 3253 2259 
Q 3253 1453 3087 958 
Q 2922 463 2592 192 
Q 2263 -78 1759 -78 
Q 1097 -78 719 397 
Q 266 969 266 2259 
z
M 844 2259 
Q 844 1131 1108 757 
Q 1372 384 1759 384 
Q 2147 384 2411 759 
Q 2675 1134 2675 2259 
Q 2675 3391 2411 3762 
Q 2147 4134 1753 4134 
Q 1366 4134 1134 3806 
Q 844 3388 844 2259 
z
" transform="scale(0.015625)"/>
       </defs>
       <use xlink:href="#ArialMT-2212"/>
       <use xlink:href="#ArialMT-31" transform="translate(58.398438 0)"/>
       <use xlink:href="#ArialMT-30" transform="translate(114.013672 0)"/>
      </g>
     </g>
    </g>
    <g id="ytick_2">
     <g id="line2d_2">
      <path d="M 48.89 62.432522 
L 493.2 62.432522 
" clip-path="url(#p170f4eebc0)" style="fill: none; stroke: #cccccc; stroke-width: 0.8; stroke-linecap: round"/>
     </g>
     <g id="text_13">
      <!-- 0 -->
      <g style="fill: #262626" transform="translate(36.329063 66.011429) scale(0.1 -0.1)">
       <use xlink:href="#ArialMT-30"/>
      </g>
     </g>
    </g>
    <g id="ytick_3">
     <g id="line2d_3">
      <path d="M 48.89 41.815125 
L 493.2 41.815125 
" clip-path="url(#p170f4eebc0)" style="fill: none; stroke: #cccccc; stroke-width: 0.8; stroke-linecap: round"/>
     </g>
     <g id="text_14">
      <!-- 10 -->
      <g style="fill: #262626" transform="translate(30.768125 45.394031) scale(0.1 -0.1)">
       <use xlink:href="#ArialMT-31"/>
       <use xlink:href="#ArialMT-30" transform="translate(55.615234 0)"/>
      </g>
     </g>
    </g>
    <g id="text_15">
     <!-- ΔRT (min) -->
     <g style="fill: #262626" transform="translate(18.822813 81.861866) rotate(-90) scale(0.1 -0.1)">
      <defs>
       <path id="ArialMT-394" d="M -6 0 
L 1753 4581 
L 2406 4581 
L 4281 0 
L -6 0 
z
M 834 541 
L 3381 541 
L 2391 3150 
Q 2169 3738 2066 4100 
Q 1981 3675 1819 3225 
L 834 541 
z
" transform="scale(0.015625)"/>
       <path id="ArialMT-52" d="M 503 0 
L 503 4581 
L 2534 4581 
Q 3147 4581 3465 4457 
Q 3784 4334 3975 4021 
Q 4166 3709 4166 3331 
Q 4166 2844 3850 2509 
Q 3534 2175 2875 2084 
Q 3116 1969 3241 1856 
Q 3506 1613 3744 1247 
L 4541 0 
L 3778 0 
L 3172 953 
Q 2906 1366 2734 1584 
Q 2563 1803 2427 1890 
Q 2291 1978 2150 2013 
Q 2047 2034 1813 2034 
L 1109 2034 
L 1109 0 
L 503 0 
z
M 1109 2559 
L 2413 2559 
Q 2828 2559 3062 2645 
Q 3297 2731 3419 2920 
Q 3541 3109 3541 3331 
Q 3541 3656 3305 3865 
Q 3069 4075 2559 4075 
L 1109 4075 
L 1109 2559 
z
" transform="scale(0.015625)"/>
       <path id="ArialMT-28" d="M 1497 -1347 
Q 1031 -759 709 28 
Q 388 816 388 1659 
Q 388 2403 628 3084 
Q 909 3875 1497 4659 
L 1900 4659 
Q 1522 4009 1400 3731 
Q 1209 3300 1100 2831 
Q 966 2247 966 1656 
Q 966 153 1900 -1347 
L 1497 -1347 
z
" transform="scale(0.015625)"/>
       <path id="ArialMT-29" d="M 791 -1347 
L 388 -1347 
Q 1322 153 1322 1656 
Q 1322 2244 1188 2822 
Q 1081 3291 891 3722 
Q 769 4003 388 4659 
L 791 4659 
Q 1378 3875 1659 3084 
Q 1900 2403 1900 1659 
Q 1900 816 1576 28 
Q 1253 -759 791 -1347 
z
" transform="scale(0.015625)"/>
      </defs>
      <use xlink:href="#ArialMT-394"/>
      <use xlink:href="#ArialMT-52" transform="translate(66.796875 0)"/>
      <use xlink:href="#ArialMT-54" transform="translate(137.263672 0)"/>
      <use xlink:href="#ArialMT-20" transform="translate(196.597656 0)"/>
      <use xlink:href="#ArialMT-28" transform="translate(224.380859 0)"/>
      <use xlink:href="#ArialMT-6d" transform="translate(257.681641 0)"/>
      <use xlink:href="#ArialMT-69" transform="translate(340.982422 0)"/>
      <use xlink:href="#ArialMT-6e" transform="translate(363.199219 0)"/>
      <use xlink:href="#ArialMT-29" transform="translate(418.814453 0)"/>
     </g>
    </g>
   </g>
   <g id="FillBetweenPolyCollection_1">
    <defs>
     <path id="md8ddc89a94" d="M 71.113408 -101.427753 
L 71.097592 -101.427753 
L 71.093706 -101.751055 
L 71.088432 -102.074356 
L 71.081515 -102.397657 
L 71.072737 -102.720958 
L 71.061947 -103.044259 
L 71.049069 -103.367561 
L 71.034105 -103.690862 
L 71.017105 -104.014163 
L 70.998135 -104.337464 
L 70.977221 -104.660766 
L 70.954321 -104.984067 
L 70.929312 -105.307368 
L 70.902027 -105.630669 
L 70.872332 -105.95397 
L 70.840222 -106.277272 
L 70.805922 -106.600573 
L 70.769928 -106.923874 
L 70.732981 -107.247175 
L 70.695929 -107.570477 
L 70.659517 -107.893778 
L 70.624132 -108.217079 
L 70.58957 -108.54038 
L 70.554897 -108.863681 
L 70.518451 -109.186983 
L 70.478013 -109.510284 
L 70.431113 -109.833585 
L 70.375415 -110.156886 
L 70.309118 -110.480188 
L 70.231271 -110.803489 
L 70.141962 -111.12679 
L 70.042349 -111.450091 
L 69.934531 -111.773393 
L 69.821318 -112.096694 
L 69.705923 -112.419995 
L 69.591661 -112.743296 
L 69.481666 -113.066597 
L 69.378673 -113.389899 
L 69.284849 -113.7132 
L 69.201672 -114.036501 
L 69.12986 -114.359802 
L 69.069329 -114.683104 
L 69.019199 -115.006405 
L 68.977865 -115.329706 
L 68.943123 -115.653007 
L 68.912375 -115.976308 
L 68.88287 -116.29961 
L 68.851961 -116.622911 
L 68.81734 -116.946212 
L 68.777222 -117.269513 
L 68.730467 -117.592815 
L 68.676642 -117.916116 
L 68.616048 -118.239417 
L 68.549714 -118.562718 
L 68.479389 -118.886019 
L 68.407506 -119.209321 
L 68.337117 -119.532622 
L 68.271789 -119.855923 
L 68.215425 -120.179224 
L 68.172042 -120.502526 
L 68.145491 -120.825827 
L 68.139155 -121.149128 
L 68.155662 -121.472429 
L 68.196621 -121.795731 
L 68.262443 -122.119032 
L 68.352248 -122.442333 
L 68.463881 -122.765634 
L 68.594049 -123.088935 
L 68.738554 -123.412237 
L 68.892597 -123.735538 
L 69.051142 -124.058839 
L 69.209265 -124.38214 
L 69.362493 -124.705442 
L 69.507081 -125.028743 
L 69.640222 -125.352044 
L 69.760179 -125.675345 
L 69.866335 -125.998646 
L 69.959159 -126.321948 
L 70.040083 -126.645249 
L 70.111301 -126.96855 
L 70.175496 -127.291851 
L 70.235518 -127.615153 
L 70.294049 -127.938454 
L 70.353294 -128.261755 
L 70.414737 -128.585056 
L 70.479007 -128.908358 
L 70.545861 -129.231659 
L 70.614288 -129.55496 
L 70.68272 -129.878261 
L 70.749293 -130.201562 
L 70.812134 -130.524864 
L 70.869606 -130.848165 
L 70.920494 -131.171466 
L 70.964102 -131.494767 
L 71.000262 -131.818069 
L 71.029275 -132.14137 
L 71.051801 -132.464671 
L 71.068723 -132.787972 
L 71.081026 -133.111273 
L 71.08968 -133.434575 
L 71.12132 -133.434575 
L 71.12132 -133.434575 
L 71.129974 -133.111273 
L 71.142277 -132.787972 
L 71.159199 -132.464671 
L 71.181725 -132.14137 
L 71.210738 -131.818069 
L 71.246898 -131.494767 
L 71.290506 -131.171466 
L 71.341394 -130.848165 
L 71.398866 -130.524864 
L 71.461707 -130.201562 
L 71.52828 -129.878261 
L 71.596712 -129.55496 
L 71.665139 -129.231659 
L 71.731993 -128.908358 
L 71.796263 -128.585056 
L 71.857706 -128.261755 
L 71.916951 -127.938454 
L 71.975482 -127.615153 
L 72.035504 -127.291851 
L 72.099699 -126.96855 
L 72.170917 -126.645249 
L 72.251841 -126.321948 
L 72.344665 -125.998646 
L 72.450821 -125.675345 
L 72.570778 -125.352044 
L 72.703919 -125.028743 
L 72.848507 -124.705442 
L 73.001735 -124.38214 
L 73.159858 -124.058839 
L 73.318403 -123.735538 
L 73.472446 -123.412237 
L 73.616951 -123.088935 
L 73.747119 -122.765634 
L 73.858752 -122.442333 
L 73.948557 -122.119032 
L 74.014379 -121.795731 
L 74.055338 -121.472429 
L 74.071845 -121.149128 
L 74.065509 -120.825827 
L 74.038958 -120.502526 
L 73.995575 -120.179224 
L 73.939211 -119.855923 
L 73.873883 -119.532622 
L 73.803494 -119.209321 
L 73.731611 -118.886019 
L 73.661286 -118.562718 
L 73.594952 -118.239417 
L 73.534358 -117.916116 
L 73.480533 -117.592815 
L 73.433778 -117.269513 
L 73.39366 -116.946212 
L 73.359039 -116.622911 
L 73.32813 -116.29961 
L 73.298625 -115.976308 
L 73.267877 -115.653007 
L 73.233135 -115.329706 
L 73.191801 -115.006405 
L 73.141671 -114.683104 
L 73.08114 -114.359802 
L 73.009328 -114.036501 
L 72.926151 -113.7132 
L 72.832327 -113.389899 
L 72.729334 -113.066597 
L 72.619339 -112.743296 
L 72.505077 -112.419995 
L 72.389682 -112.096694 
L 72.276469 -111.773393 
L 72.168651 -111.450091 
L 72.069038 -111.12679 
L 71.979729 -110.803489 
L 71.901882 -110.480188 
L 71.835585 -110.156886 
L 71.779887 -109.833585 
L 71.732987 -109.510284 
L 71.692549 -109.186983 
L 71.656103 -108.863681 
L 71.62143 -108.54038 
L 71.586868 -108.217079 
L 71.551483 -107.893778 
L 71.515071 -107.570477 
L 71.478019 -107.247175 
L 71.441072 -106.923874 
L 71.405078 -106.600573 
L 71.370778 -106.277272 
L 71.338668 -105.95397 
L 71.308973 -105.630669 
L 71.281688 -105.307368 
L 71.256679 -104.984067 
L 71.233779 -104.660766 
L 71.212865 -104.337464 
L 71.193895 -104.014163 
L 71.176895 -103.690862 
L 71.161931 -103.367561 
L 71.149053 -103.044259 
L 71.138263 -102.720958 
L 71.129485 -102.397657 
L 71.122568 -102.074356 
L 71.117294 -101.751055 
L 71.113408 -101.427753 
z
" style="stroke: #3f3f3f; stroke-width: 1.25"/>
    </defs>
    <g clip-path="url(#p170f4eebc0)">
     <use xlink:href="#md8ddc89a94" x="0" y="162" style="fill: #3274a1; stroke: #3f3f3f; stroke-width: 1.25"/>
    </g>
   </g>
   <g id="FillBetweenPolyCollection_2">
    <defs>
     <path id="mae4f66b90d" d="M 115.553363 -102.097853 
L 115.519637 -102.097853 
L 115.511199 -102.37912 
L 115.499908 -102.660386 
L 115.485465 -102.941653 
L 115.467821 -103.222919 
L 115.447253 -103.504186 
L 115.424385 -103.785452 
L 115.400136 -104.066719 
L 115.375569 -104.347985 
L 115.351668 -104.629252 
L 115.329074 -104.910519 
L 115.307837 -105.191785 
L 115.287255 -105.473052 
L 115.265847 -105.754318 
L 115.241485 -106.035585 
L 115.211676 -106.316851 
L 115.17395 -106.598118 
L 115.126268 -106.879384 
L 115.067375 -107.160651 
L 114.997029 -107.441918 
L 114.916035 -107.723184 
L 114.826092 -108.004451 
L 114.729473 -108.285717 
L 114.628595 -108.566984 
L 114.525591 -108.84825 
L 114.421948 -109.129517 
L 114.318329 -109.410783 
L 114.214583 -109.69205 
L 114.109974 -109.973317 
L 114.003557 -110.254583 
L 113.894627 -110.53585 
L 113.783129 -110.817116 
L 113.669945 -111.098383 
L 113.556963 -111.379649 
L 113.446907 -111.660916 
L 113.342943 -111.942182 
L 113.248125 -112.223449 
L 113.164794 -112.504716 
L 113.094063 -112.785982 
L 113.035514 -113.067249 
L 112.98717 -113.348515 
L 112.945769 -113.629782 
L 112.907267 -113.911048 
L 112.867461 -114.192315 
L 112.822603 -114.473581 
L 112.769879 -114.754848 
L 112.707717 -115.036114 
L 112.635893 -115.317381 
L 112.555487 -115.598648 
L 112.468749 -115.879914 
L 112.378917 -116.161181 
L 112.290024 -116.442447 
L 112.206682 -116.723714 
L 112.133838 -117.00498 
L 112.076467 -117.286247 
L 112.039222 -117.567513 
L 112.026052 -117.84878 
L 112.03984 -118.130047 
L 112.082121 -118.411313 
L 112.152931 -118.69258 
L 112.250812 -118.973846 
L 112.372968 -119.255113 
L 112.515551 -119.536379 
L 112.674019 -119.817646 
L 112.843533 -120.098912 
L 113.01932 -120.380179 
L 113.196994 -120.661446 
L 113.37279 -120.942712 
L 113.543694 -121.223979 
L 113.707483 -121.505245 
L 113.862664 -121.786512 
L 114.008354 -122.067778 
L 114.144126 -122.349045 
L 114.269875 -122.630311 
L 114.385713 -122.911578 
L 114.491919 -123.192845 
L 114.58893 -123.474111 
L 114.677341 -123.755378 
L 114.757903 -124.036644 
L 114.831486 -124.317911 
L 114.899025 -124.599177 
L 114.961432 -124.880444 
L 115.019528 -125.16171 
L 115.073978 -125.442977 
L 115.125268 -125.724243 
L 115.173697 -126.00551 
L 115.219406 -126.286777 
L 115.2624 -126.568043 
L 115.302581 -126.84931 
L 115.339784 -127.130576 
L 115.373804 -127.411843 
L 115.404432 -127.693109 
L 115.431494 -127.974376 
L 115.454886 -128.255642 
L 115.474611 -128.536909 
L 115.490791 -128.818176 
L 115.503674 -129.099442 
L 115.51361 -129.380709 
L 115.521022 -129.661975 
L 115.526362 -129.943242 
L 115.546638 -129.943242 
L 115.546638 -129.943242 
L 115.551978 -129.661975 
L 115.55939 -129.380709 
L 115.569326 -129.099442 
L 115.582209 -128.818176 
L 115.598389 -128.536909 
L 115.618114 -128.255642 
L 115.641506 -127.974376 
L 115.668568 -127.693109 
L 115.699196 -127.411843 
L 115.733216 -127.130576 
L 115.770419 -126.84931 
L 115.8106 -126.568043 
L 115.853594 -126.286777 
L 115.899303 -126.00551 
L 115.947732 -125.724243 
L 115.999022 -125.442977 
L 116.053472 -125.16171 
L 116.111568 -124.880444 
L 116.173975 -124.599177 
L 116.241514 -124.317911 
L 116.315097 -124.036644 
L 116.395659 -123.755378 
L 116.48407 -123.474111 
L 116.581081 -123.192845 
L 116.687287 -122.911578 
L 116.803125 -122.630311 
L 116.928874 -122.349045 
L 117.064646 -122.067778 
L 117.210336 -121.786512 
L 117.365517 -121.505245 
L 117.529306 -121.223979 
L 117.70021 -120.942712 
L 117.876006 -120.661446 
L 118.05368 -120.380179 
L 118.229467 -120.098912 
L 118.398981 -119.817646 
L 118.557449 -119.536379 
L 118.700032 -119.255113 
L 118.822188 -118.973846 
L 118.920069 -118.69258 
L 118.990879 -118.411313 
L 119.03316 -118.130047 
L 119.046948 -117.84878 
L 119.033778 -117.567513 
L 118.996533 -117.286247 
L 118.939162 -117.00498 
L 118.866318 -116.723714 
L 118.782976 -116.442447 
L 118.694083 -116.161181 
L 118.604251 -115.879914 
L 118.517513 -115.598648 
L 118.437107 -115.317381 
L 118.365283 -115.036114 
L 118.303121 -114.754848 
L 118.250397 -114.473581 
L 118.205539 -114.192315 
L 118.165733 -113.911048 
L 118.127231 -113.629782 
L 118.08583 -113.348515 
L 118.037486 -113.067249 
L 117.978937 -112.785982 
L 117.908206 -112.504716 
L 117.824875 -112.223449 
L 117.730057 -111.942182 
L 117.626093 -111.660916 
L 117.516037 -111.379649 
L 117.403055 -111.098383 
L 117.289871 -110.817116 
L 117.178373 -110.53585 
L 117.069443 -110.254583 
L 116.963026 -109.973317 
L 116.858417 -109.69205 
L 116.754671 -109.410783 
L 116.651052 -109.129517 
L 116.547409 -108.84825 
L 116.444405 -108.566984 
L 116.343527 -108.285717 
L 116.246908 -108.004451 
L 116.156965 -107.723184 
L 116.075971 -107.441918 
L 116.005625 -107.160651 
L 115.946732 -106.879384 
L 115.89905 -106.598118 
L 115.861324 -106.316851 
L 115.831515 -106.035585 
L 115.807153 -105.754318 
L 115.785745 -105.473052 
L 115.765163 -105.191785 
L 115.743926 -104.910519 
L 115.721332 -104.629252 
L 115.697431 -104.347985 
L 115.672864 -104.066719 
L 115.648615 -103.785452 
L 115.625747 -103.504186 
L 115.605179 -103.222919 
L 115.587535 -102.941653 
L 115.573092 -102.660386 
L 115.561801 -102.37912 
L 115.553363 -102.097853 
z
" style="stroke: #3f3f3f; stroke-width: 1.25"/>
    </defs>
    <g clip-path="url(#p170f4eebc0)">
     <use xlink:href="#mae4f66b90d" x="0" y="162" style="fill: #3274a1; stroke: #3f3f3f; stroke-width: 1.25"/>
    </g>
   </g>
   <g id="FillBetweenPolyCollection_3">
    <defs>
     <path id="mde8d10f219" d="M 159.983594 -100.109217 
L 159.951406 -100.109217 
L 159.943618 -100.34608 
L 159.933168 -100.582943 
L 159.919666 -100.819806 
L 159.902872 -101.056668 
L 159.882772 -101.293531 
L 159.859626 -101.530394 
L 159.83398 -101.767257 
L 159.806618 -102.00412 
L 159.778447 -102.240983 
L 159.750332 -102.477845 
L 159.722889 -102.714708 
L 159.696284 -102.951571 
L 159.670079 -103.188434 
L 159.643165 -103.425297 
L 159.613819 -103.66216 
L 159.579901 -103.899022 
L 159.539156 -104.135885 
L 159.489598 -104.372748 
L 159.429885 -104.609611 
L 159.35961 -104.846474 
L 159.279435 -105.083337 
L 159.191022 -105.320199 
L 159.096756 -105.557062 
L 158.999316 -105.793925 
L 158.901176 -106.030788 
L 158.804152 -106.267651 
L 158.709095 -106.504514 
L 158.61579 -106.741376 
L 158.523081 -106.978239 
L 158.429161 -107.215102 
L 158.33198 -107.451965 
L 158.229633 -107.688828 
L 158.120697 -107.925691 
L 158.004426 -108.162553 
L 157.880837 -108.399416 
L 157.750679 -108.636279 
L 157.615342 -108.873142 
L 157.476725 -109.110005 
L 157.337073 -109.346867 
L 157.198776 -109.58373 
L 157.064106 -109.820593 
L 156.934883 -110.057456 
L 156.812113 -110.294319 
L 156.695669 -110.531182 
L 156.584122 -110.768044 
L 156.474846 -111.004907 
L 156.364463 -111.24177 
L 156.249622 -111.478633 
L 156.127983 -111.715496 
L 155.999213 -111.952359 
L 155.865726 -112.189221 
L 155.732948 -112.426084 
L 155.608982 -112.662947 
L 155.503687 -112.89981 
L 155.427347 -113.136673 
L 155.389185 -113.373536 
L 155.396033 -113.610398 
L 155.451416 -113.847261 
L 155.555186 -114.084124 
L 155.703721 -114.320987 
L 155.890572 -114.55785 
L 156.107374 -114.794713 
L 156.344836 -115.031575 
L 156.593621 -115.268438 
L 156.845057 -115.505301 
L 157.091629 -115.742164 
L 157.327291 -115.979027 
L 157.547615 -116.215889 
L 157.74984 -116.452752 
L 157.932805 -116.689615 
L 158.096782 -116.926478 
L 158.243204 -117.163341 
L 158.374315 -117.400204 
L 158.492777 -117.637066 
L 158.601286 -117.873929 
L 158.702269 -118.110792 
L 158.797681 -118.347655 
L 158.888933 -118.584518 
L 158.976917 -118.821381 
L 159.0621 -119.058243 
L 159.144644 -119.295106 
L 159.224511 -119.531969 
L 159.301549 -119.768832 
L 159.375533 -120.005695 
L 159.446193 -120.242558 
L 159.513217 -120.47942 
L 159.576266 -120.716283 
L 159.634978 -120.953146 
L 159.688996 -121.190009 
L 159.737993 -121.426872 
L 159.781711 -121.663735 
L 159.819994 -121.900597 
L 159.852823 -122.13746 
L 159.880331 -122.374323 
L 159.902809 -122.611186 
L 159.92069 -122.848049 
L 159.934515 -123.084911 
L 159.944891 -123.321774 
L 159.952439 -123.558637 
L 159.982561 -123.558637 
L 159.982561 -123.558637 
L 159.990109 -123.321774 
L 160.000485 -123.084911 
L 160.01431 -122.848049 
L 160.032191 -122.611186 
L 160.054669 -122.374323 
L 160.082177 -122.13746 
L 160.115006 -121.900597 
L 160.153289 -121.663735 
L 160.197007 -121.426872 
L 160.246004 -121.190009 
L 160.300022 -120.953146 
L 160.358734 -120.716283 
L 160.421783 -120.47942 
L 160.488807 -120.242558 
L 160.559467 -120.005695 
L 160.633451 -119.768832 
L 160.710489 -119.531969 
L 160.790356 -119.295106 
L 160.8729 -119.058243 
L 160.958083 -118.821381 
L 161.046067 -118.584518 
L 161.137319 -118.347655 
L 161.232731 -118.110792 
L 161.333714 -117.873929 
L 161.442223 -117.637066 
L 161.560685 -117.400204 
L 161.691796 -117.163341 
L 161.838218 -116.926478 
L 162.002195 -116.689615 
L 162.18516 -116.452752 
L 162.387385 -116.215889 
L 162.607709 -115.979027 
L 162.843371 -115.742164 
L 163.089943 -115.505301 
L 163.341379 -115.268438 
L 163.590164 -115.031575 
L 163.827626 -114.794713 
L 164.044428 -114.55785 
L 164.231279 -114.320987 
L 164.379814 -114.084124 
L 164.483584 -113.847261 
L 164.538967 -113.610398 
L 164.545815 -113.373536 
L 164.507653 -113.136673 
L 164.431313 -112.89981 
L 164.326018 -112.662947 
L 164.202052 -112.426084 
L 164.069274 -112.189221 
L 163.935787 -111.952359 
L 163.807017 -111.715496 
L 163.685378 -111.478633 
L 163.570537 -111.24177 
L 163.460154 -111.004907 
L 163.350878 -110.768044 
L 163.239331 -110.531182 
L 163.122887 -110.294319 
L 163.000117 -110.057456 
L 162.870894 -109.820593 
L 162.736224 -109.58373 
L 162.597927 -109.346867 
L 162.458275 -109.110005 
L 162.319658 -108.873142 
L 162.184321 -108.636279 
L 162.054163 -108.399416 
L 161.930574 -108.162553 
L 161.814303 -107.925691 
L 161.705367 -107.688828 
L 161.60302 -107.451965 
L 161.505839 -107.215102 
L 161.411919 -106.978239 
L 161.31921 -106.741376 
L 161.225905 -106.504514 
L 161.130848 -106.267651 
L 161.033824 -106.030788 
L 160.935684 -105.793925 
L 160.838244 -105.557062 
L 160.743978 -105.320199 
L 160.655565 -105.083337 
L 160.57539 -104.846474 
L 160.505115 -104.609611 
L 160.445402 -104.372748 
L 160.395844 -104.135885 
L 160.355099 -103.899022 
L 160.321181 -103.66216 
L 160.291835 -103.425297 
L 160.264921 -103.188434 
L 160.238716 -102.951571 
L 160.212111 -102.714708 
L 160.184668 -102.477845 
L 160.156553 -102.240983 
L 160.128382 -102.00412 
L 160.10102 -101.767257 
L 160.075374 -101.530394 
L 160.052228 -101.293531 
L 160.032128 -101.056668 
L 160.015334 -100.819806 
L 160.001832 -100.582943 
L 159.991382 -100.34608 
L 159.983594 -100.109217 
z
" style="stroke: #3f3f3f; stroke-width: 1.25"/>
    </defs>
    <g clip-path="url(#p170f4eebc0)">
     <use xlink:href="#mde8d10f219" x="0" y="162" style="fill: #3274a1; stroke: #3f3f3f; stroke-width: 1.25"/>
    </g>
   </g>
   <g id="FillBetweenPolyCollection_4">
    <defs>
     <path id="m17d708ee79" d="M 204.42129 -99.61836 
L 204.37571 -99.61836 
L 204.362758 -99.893988 
L 204.344608 -100.169616 
L 204.320342 -100.445244 
L 204.289405 -100.720872 
L 204.251829 -100.996499 
L 204.208391 -101.272127 
L 204.160658 -101.547755 
L 204.110868 -101.823383 
L 204.061653 -102.099011 
L 204.015637 -102.374639 
L 203.975003 -102.650267 
L 203.941114 -102.925894 
L 203.914283 -103.201522 
L 203.893723 -103.47715 
L 203.87766 -103.752778 
L 203.863557 -104.028406 
L 203.84838 -104.304034 
L 203.828841 -104.579662 
L 203.801606 -104.85529 
L 203.763472 -105.130917 
L 203.711534 -105.406545 
L 203.643375 -105.682173 
L 203.557264 -105.957801 
L 203.452348 -106.233429 
L 203.3288 -106.509057 
L 203.187895 -106.784685 
L 203.032008 -107.060313 
L 202.864521 -107.33594 
L 202.689678 -107.611568 
L 202.512362 -107.887196 
L 202.337823 -108.162824 
L 202.171317 -108.438452 
L 202.017669 -108.71408 
L 201.880767 -108.989708 
L 201.763049 -109.265336 
L 201.66507 -109.540963 
L 201.585273 -109.816591 
L 201.520058 -110.092219 
L 201.464223 -110.367847 
L 201.411757 -110.643475 
L 201.356861 -110.919103 
L 201.295013 -111.194731 
L 201.22383 -111.470358 
L 201.143522 -111.745986 
L 201.056824 -112.021614 
L 200.968431 -112.297242 
L 200.884077 -112.57287 
L 200.809508 -112.848498 
L 200.749588 -113.124126 
L 200.707728 -113.399754 
L 200.685709 -113.675381 
L 200.683858 -113.951009 
L 200.701483 -114.226637 
L 200.737394 -114.502265 
L 200.790407 -114.777893 
L 200.859707 -115.053521 
L 200.945039 -115.329149 
L 201.04667 -115.604777 
L 201.165176 -115.880404 
L 201.301066 -116.156032 
L 201.454364 -116.43166 
L 201.624228 -116.707288 
L 201.808728 -116.982916 
L 202.004825 -117.258544 
L 202.208581 -117.534172 
L 202.415515 -117.8098 
L 202.62104 -118.085427 
L 202.82085 -118.361055 
L 203.011207 -118.636683 
L 203.189097 -118.912311 
L 203.352272 -119.187939 
L 203.499241 -119.463567 
L 203.629247 -119.739195 
L 203.742246 -120.014822 
L 203.838882 -120.29045 
L 203.920415 -120.566078 
L 203.988583 -120.841706 
L 204.0454 -121.117334 
L 204.092911 -121.392962 
L 204.132973 -121.66859 
L 204.167098 -121.944218 
L 204.196411 -122.219845 
L 204.221688 -122.495473 
L 204.243476 -122.771101 
L 204.262215 -123.046729 
L 204.278349 -123.322357 
L 204.292364 -123.597985 
L 204.304781 -123.873613 
L 204.316093 -124.149241 
L 204.326699 -124.424868 
L 204.336841 -124.700496 
L 204.346589 -124.976124 
L 204.355857 -125.251752 
L 204.364458 -125.52738 
L 204.372179 -125.803008 
L 204.378839 -126.078636 
L 204.384341 -126.354264 
L 204.388685 -126.629891 
L 204.391958 -126.905519 
L 204.405042 -126.905519 
L 204.405042 -126.905519 
L 204.408315 -126.629891 
L 204.412659 -126.354264 
L 204.418161 -126.078636 
L 204.424821 -125.803008 
L 204.432542 -125.52738 
L 204.441143 -125.251752 
L 204.450411 -124.976124 
L 204.460159 -124.700496 
L 204.470301 -124.424868 
L 204.480907 -124.149241 
L 204.492219 -123.873613 
L 204.504636 -123.597985 
L 204.518651 -123.322357 
L 204.534785 -123.046729 
L 204.553524 -122.771101 
L 204.575312 -122.495473 
L 204.600589 -122.219845 
L 204.629902 -121.944218 
L 204.664027 -121.66859 
L 204.704089 -121.392962 
L 204.7516 -121.117334 
L 204.808417 -120.841706 
L 204.876585 -120.566078 
L 204.958118 -120.29045 
L 205.054754 -120.014822 
L 205.167753 -119.739195 
L 205.297759 -119.463567 
L 205.444728 -119.187939 
L 205.607903 -118.912311 
L 205.785793 -118.636683 
L 205.97615 -118.361055 
L 206.17596 -118.085427 
L 206.381485 -117.8098 
L 206.588419 -117.534172 
L 206.792175 -117.258544 
L 206.988272 -116.982916 
L 207.172772 -116.707288 
L 207.342636 -116.43166 
L 207.495934 -116.156032 
L 207.631824 -115.880404 
L 207.75033 -115.604777 
L 207.851961 -115.329149 
L 207.937293 -115.053521 
L 208.006593 -114.777893 
L 208.059606 -114.502265 
L 208.095517 -114.226637 
L 208.113142 -113.951009 
L 208.111291 -113.675381 
L 208.089272 -113.399754 
L 208.047412 -113.124126 
L 207.987492 -112.848498 
L 207.912923 -112.57287 
L 207.828569 -112.297242 
L 207.740176 -112.021614 
L 207.653478 -111.745986 
L 207.57317 -111.470358 
L 207.501987 -111.194731 
L 207.440139 -110.919103 
L 207.385243 -110.643475 
L 207.332777 -110.367847 
L 207.276942 -110.092219 
L 207.211727 -109.816591 
L 207.13193 -109.540963 
L 207.033951 -109.265336 
L 206.916233 -108.989708 
L 206.779331 -108.71408 
L 206.625683 -108.438452 
L 206.459177 -108.162824 
L 206.284638 -107.887196 
L 206.107322 -107.611568 
L 205.932479 -107.33594 
L 205.764992 -107.060313 
L 205.609105 -106.784685 
L 205.4682 -106.509057 
L 205.344652 -106.233429 
L 205.239736 -105.957801 
L 205.153625 -105.682173 
L 205.085466 -105.406545 
L 205.033528 -105.130917 
L 204.995394 -104.85529 
L 204.968159 -104.579662 
L 204.94862 -104.304034 
L 204.933443 -104.028406 
L 204.91934 -103.752778 
L 204.903277 -103.47715 
L 204.882717 -103.201522 
L 204.855886 -102.925894 
L 204.821997 -102.650267 
L 204.781363 -102.374639 
L 204.735347 -102.099011 
L 204.686132 -101.823383 
L 204.636342 -101.547755 
L 204.588609 -101.272127 
L 204.545171 -100.996499 
L 204.507595 -100.720872 
L 204.476658 -100.445244 
L 204.452392 -100.169616 
L 204.434242 -99.893988 
L 204.42129 -99.61836 
z
" style="stroke: #3f3f3f; stroke-width: 1.25"/>
    </defs>
    <g clip-path="url(#p170f4eebc0)">
     <use xlink:href="#m17d708ee79" x="0" y="162" style="fill: #3274a1; stroke: #3f3f3f; stroke-width: 1.25"/>
    </g>
   </g>
   <g id="FillBetweenPolyCollection_5">
    <defs>
     <path id="m5ff32feb55" d="M 248.845238 -96.911384 
L 248.813762 -96.911384 
L 248.805273 -97.178674 
L 248.793298 -97.445965 
L 248.776929 -97.713256 
L 248.755226 -97.980546 
L 248.727287 -98.247837 
L 248.692325 -98.515128 
L 248.649765 -98.782418 
L 248.599326 -99.049709 
L 248.541113 -99.316999 
L 248.475679 -99.58429 
L 248.404072 -99.851581 
L 248.32784 -100.118871 
L 248.248992 -100.386162 
L 248.16989 -100.653453 
L 248.093088 -100.920743 
L 248.021118 -101.188034 
L 247.956229 -101.455324 
L 247.90015 -101.722615 
L 247.85387 -101.989906 
L 247.817526 -102.257196 
L 247.790387 -102.524487 
L 247.770976 -102.791778 
L 247.757283 -103.059068 
L 247.747043 -103.326359 
L 247.737994 -103.593649 
L 247.728065 -103.86094 
L 247.715451 -104.128231 
L 247.698557 -104.395521 
L 247.675876 -104.662812 
L 247.645839 -104.930103 
L 247.606755 -105.197393 
L 247.55687 -105.464684 
L 247.494584 -105.731974 
L 247.418764 -105.999265 
L 247.329089 -106.266556 
L 247.226301 -106.533846 
L 247.11227 -106.801137 
L 246.989839 -107.068428 
L 246.86245 -107.335718 
L 246.733637 -107.603009 
L 246.606495 -107.870299 
L 246.483235 -108.13759 
L 246.364919 -108.404881 
L 246.251386 -108.672171 
L 246.141364 -108.939462 
L 246.032719 -109.206753 
L 245.922779 -109.474043 
L 245.808705 -109.741334 
L 245.687911 -110.008624 
L 245.558544 -110.275915 
L 245.420029 -110.543206 
L 245.27364 -110.810496 
L 245.122984 -111.077787 
L 244.974253 -111.345078 
L 244.836074 -111.612368 
L 244.718842 -111.879659 
L 244.633571 -112.146949 
L 244.590391 -112.41424 
L 244.597006 -112.681531 
L 244.657432 -112.948821 
L 244.77132 -113.216112 
L 244.934021 -113.483403 
L 245.137365 -113.750693 
L 245.370943 -114.017984 
L 245.623595 -114.285274 
L 245.884774 -114.552565 
L 246.14553 -114.819856 
L 246.399017 -115.087146 
L 246.640532 -115.354437 
L 246.867212 -115.621728 
L 247.077579 -115.889018 
L 247.271075 -116.156309 
L 247.447712 -116.423599 
L 247.607867 -116.69089 
L 247.752203 -116.958181 
L 247.881658 -117.225471 
L 247.997429 -117.492762 
L 248.100913 -117.760053 
L 248.193589 -118.027343 
L 248.276871 -118.294634 
L 248.351957 -118.561924 
L 248.419742 -118.829215 
L 248.480802 -119.096506 
L 248.535452 -119.363796 
L 248.583863 -119.631087 
L 248.626192 -119.898377 
L 248.662681 -120.165668 
L 248.693713 -120.432959 
L 248.719807 -120.700249 
L 248.74157 -120.96754 
L 248.759627 -121.234831 
L 248.774563 -121.502121 
L 248.786877 -121.769412 
L 248.796972 -122.036702 
L 248.805163 -122.303993 
L 248.811707 -122.571284 
L 248.816826 -122.838574 
L 248.820727 -123.105865 
L 248.823611 -123.373156 
L 248.835389 -123.373156 
L 248.835389 -123.373156 
L 248.838273 -123.105865 
L 248.842174 -122.838574 
L 248.847293 -122.571284 
L 248.853837 -122.303993 
L 248.862028 -122.036702 
L 248.872123 -121.769412 
L 248.884437 -121.502121 
L 248.899373 -121.234831 
L 248.91743 -120.96754 
L 248.939193 -120.700249 
L 248.965287 -120.432959 
L 248.996319 -120.165668 
L 249.032808 -119.898377 
L 249.075137 -119.631087 
L 249.123548 -119.363796 
L 249.178198 -119.096506 
L 249.239258 -118.829215 
L 249.307043 -118.561924 
L 249.382129 -118.294634 
L 249.465411 -118.027343 
L 249.558087 -117.760053 
L 249.661571 -117.492762 
L 249.777342 -117.225471 
L 249.906797 -116.958181 
L 250.051133 -116.69089 
L 250.211288 -116.423599 
L 250.387925 -116.156309 
L 250.581421 -115.889018 
L 250.791788 -115.621728 
L 251.018468 -115.354437 
L 251.259983 -115.087146 
L 251.51347 -114.819856 
L 251.774226 -114.552565 
L 252.035405 -114.285274 
L 252.288057 -114.017984 
L 252.521635 -113.750693 
L 252.724979 -113.483403 
L 252.88768 -113.216112 
L 253.001568 -112.948821 
L 253.061994 -112.681531 
L 253.068609 -112.41424 
L 253.025429 -112.146949 
L 252.940158 -111.879659 
L 252.822926 -111.612368 
L 252.684747 -111.345078 
L 252.536016 -111.077787 
L 252.38536 -110.810496 
L 252.238971 -110.543206 
L 252.100456 -110.275915 
L 251.971089 -110.008624 
L 251.850295 -109.741334 
L 251.736221 -109.474043 
L 251.626281 -109.206753 
L 251.517636 -108.939462 
L 251.407614 -108.672171 
L 251.294081 -108.404881 
L 251.175765 -108.13759 
L 251.052505 -107.870299 
L 250.925363 -107.603009 
L 250.79655 -107.335718 
L 250.669161 -107.068428 
L 250.54673 -106.801137 
L 250.432699 -106.533846 
L 250.329911 -106.266556 
L 250.240236 -105.999265 
L 250.164416 -105.731974 
L 250.10213 -105.464684 
L 250.052245 -105.197393 
L 250.013161 -104.930103 
L 249.983124 -104.662812 
L 249.960443 -104.395521 
L 249.943549 -104.128231 
L 249.930935 -103.86094 
L 249.921006 -103.593649 
L 249.911957 -103.326359 
L 249.901717 -103.059068 
L 249.888024 -102.791778 
L 249.868613 -102.524487 
L 249.841474 -102.257196 
L 249.80513 -101.989906 
L 249.75885 -101.722615 
L 249.702771 -101.455324 
L 249.637882 -101.188034 
L 249.565912 -100.920743 
L 249.48911 -100.653453 
L 249.410008 -100.386162 
L 249.33116 -100.118871 
L 249.254928 -99.851581 
L 249.183321 -99.58429 
L 249.117887 -99.316999 
L 249.059674 -99.049709 
L 249.009235 -98.782418 
L 248.966675 -98.515128 
L 248.931713 -98.247837 
L 248.903774 -97.980546 
L 248.882071 -97.713256 
L 248.865702 -97.445965 
L 248.853727 -97.178674 
L 248.845238 -96.911384 
z
" style="stroke: #3f3f3f; stroke-width: 1.25"/>
    </defs>
    <g clip-path="url(#p170f4eebc0)">
     <use xlink:href="#m5ff32feb55" x="0" y="162" style="fill: #3274a1; stroke: #3f3f3f; stroke-width: 1.25"/>
    </g>
   </g>
   <g id="FillBetweenPolyCollection_6">
    <defs>
     <path id="m5068885189" d="M 293.28238 -99.042298 
L 293.23862 -99.042298 
L 293.227017 -99.271723 
L 293.210984 -99.501148 
L 293.189707 -99.730573 
L 293.162616 -99.959998 
L 293.129535 -100.189423 
L 293.090828 -100.418847 
L 293.04746 -100.648272 
L 293.000957 -100.877697 
L 292.953237 -101.107122 
L 292.906326 -101.336547 
L 292.862006 -101.565972 
L 292.821456 -101.795396 
L 292.784982 -102.024821 
L 292.751889 -102.254246 
L 292.720548 -102.483671 
L 292.688626 -102.713096 
L 292.653442 -102.942521 
L 292.612369 -103.171945 
L 292.563185 -103.40137 
L 292.504328 -103.630795 
L 292.435011 -103.86022 
L 292.355206 -104.089645 
L 292.265537 -104.319069 
L 292.167113 -104.548494 
L 292.061331 -104.777919 
L 291.949689 -105.007344 
L 291.833589 -105.236769 
L 291.714162 -105.466194 
L 291.592106 -105.695618 
L 291.467572 -105.925043 
L 291.34014 -106.154468 
L 291.208892 -106.383893 
L 291.072609 -106.613318 
L 290.930059 -106.842743 
L 290.780311 -107.072167 
L 290.623014 -107.301592 
L 290.458566 -107.531017 
L 290.288139 -107.760442 
L 290.113574 -107.989867 
L 289.937181 -108.219292 
L 289.761531 -108.448716 
L 289.589281 -108.678141 
L 289.423079 -108.907566 
L 289.265529 -109.136991 
L 289.119203 -109.366416 
L 288.986636 -109.595841 
L 288.87028 -109.825265 
L 288.772421 -110.05469 
L 288.695057 -110.284115 
L 288.639791 -110.51354 
L 288.607759 -110.742965 
L 288.599629 -110.97239 
L 288.615678 -111.201814 
L 288.655955 -111.431239 
L 288.720481 -111.660664 
L 288.809464 -111.890089 
L 288.923428 -112.119514 
L 289.06319 -112.348938 
L 289.229611 -112.578363 
L 289.423121 -112.807788 
L 289.643094 -113.037213 
L 289.887199 -113.266638 
L 290.150956 -113.496063 
L 290.427635 -113.725487 
L 290.708619 -113.954912 
L 290.984207 -114.184337 
L 291.244696 -114.413762 
L 291.48155 -114.643187 
L 291.688391 -114.872612 
L 291.861652 -115.102036 
L 292.00077 -115.331461 
L 292.107957 -115.560886 
L 292.187624 -115.790311 
L 292.245618 -116.019736 
L 292.288404 -116.249161 
L 292.322315 -116.478585 
L 292.352968 -116.70801 
L 292.384858 -116.937435 
L 292.421159 -117.16686 
L 292.463696 -117.396285 
L 292.513063 -117.62571 
L 292.568828 -117.855134 
L 292.629796 -118.084559 
L 292.694279 -118.313984 
L 292.760352 -118.543409 
L 292.826062 -118.772834 
L 292.889605 -119.002259 
L 292.949439 -119.231683 
L 293.004366 -119.461108 
L 293.053559 -119.690533 
L 293.096563 -119.919958 
L 293.133264 -120.149383 
L 293.163838 -120.378807 
L 293.188691 -120.608232 
L 293.208391 -120.837657 
L 293.223605 -121.067082 
L 293.235043 -121.296507 
L 293.243402 -121.525932 
L 293.249335 -121.755356 
L 293.271665 -121.755356 
L 293.271665 -121.755356 
L 293.277598 -121.525932 
L 293.285957 -121.296507 
L 293.297395 -121.067082 
L 293.312609 -120.837657 
L 293.332309 -120.608232 
L 293.357162 -120.378807 
L 293.387736 -120.149383 
L 293.424437 -119.919958 
L 293.467441 -119.690533 
L 293.516634 -119.461108 
L 293.571561 -119.231683 
L 293.631395 -119.002259 
L 293.694938 -118.772834 
L 293.760648 -118.543409 
L 293.826721 -118.313984 
L 293.891204 -118.084559 
L 293.952172 -117.855134 
L 294.007937 -117.62571 
L 294.057304 -117.396285 
L 294.099841 -117.16686 
L 294.136142 -116.937435 
L 294.168032 -116.70801 
L 294.198685 -116.478585 
L 294.232596 -116.249161 
L 294.275382 -116.019736 
L 294.333376 -115.790311 
L 294.413043 -115.560886 
L 294.52023 -115.331461 
L 294.659348 -115.102036 
L 294.832609 -114.872612 
L 295.03945 -114.643187 
L 295.276304 -114.413762 
L 295.536793 -114.184337 
L 295.812381 -113.954912 
L 296.093365 -113.725487 
L 296.370044 -113.496063 
L 296.633801 -113.266638 
L 296.877906 -113.037213 
L 297.097879 -112.807788 
L 297.291389 -112.578363 
L 297.45781 -112.348938 
L 297.597572 -112.119514 
L 297.711536 -111.890089 
L 297.800519 -111.660664 
L 297.865045 -111.431239 
L 297.905322 -111.201814 
L 297.921371 -110.97239 
L 297.913241 -110.742965 
L 297.881209 -110.51354 
L 297.825943 -110.284115 
L 297.748579 -110.05469 
L 297.65072 -109.825265 
L 297.534364 -109.595841 
L 297.401797 -109.366416 
L 297.255471 -109.136991 
L 297.097921 -108.907566 
L 296.931719 -108.678141 
L 296.759469 -108.448716 
L 296.583819 -108.219292 
L 296.407426 -107.989867 
L 296.232861 -107.760442 
L 296.062434 -107.531017 
L 295.897986 -107.301592 
L 295.740689 -107.072167 
L 295.590941 -106.842743 
L 295.448391 -106.613318 
L 295.312108 -106.383893 
L 295.18086 -106.154468 
L 295.053428 -105.925043 
L 294.928894 -105.695618 
L 294.806838 -105.466194 
L 294.687411 -105.236769 
L 294.571311 -105.007344 
L 294.459669 -104.777919 
L 294.353887 -104.548494 
L 294.255463 -104.319069 
L 294.165794 -104.089645 
L 294.085989 -103.86022 
L 294.016672 -103.630795 
L 293.957815 -103.40137 
L 293.908631 -103.171945 
L 293.867558 -102.942521 
L 293.832374 -102.713096 
L 293.800452 -102.483671 
L 293.769111 -102.254246 
L 293.736018 -102.024821 
L 293.699544 -101.795396 
L 293.658994 -101.565972 
L 293.614674 -101.336547 
L 293.567763 -101.107122 
L 293.520043 -100.877697 
L 293.47354 -100.648272 
L 293.430172 -100.418847 
L 293.391465 -100.189423 
L 293.358384 -99.959998 
L 293.331293 -99.730573 
L 293.310016 -99.501148 
L 293.293983 -99.271723 
L 293.28238 -99.042298 
z
" style="stroke: #3f3f3f; stroke-width: 1.25"/>
    </defs>
    <g clip-path="url(#p170f4eebc0)">
     <use xlink:href="#m5068885189" x="0" y="162" style="fill: #3274a1; stroke: #3f3f3f; stroke-width: 1.25"/>
    </g>
   </g>
   <g id="FillBetweenPolyCollection_7">
    <defs>
     <path id="m32b1799621" d="M 337.726031 -96.263603 
L 337.656969 -96.263603 
L 337.635451 -96.349081 
L 337.604767 -96.434558 
L 337.56323 -96.520036 
L 337.509632 -96.605514 
L 337.443336 -96.690991 
L 337.364152 -96.776469 
L 337.272061 -96.861946 
L 337.166955 -96.947424 
L 337.048612 -97.032902 
L 336.917042 -97.118379 
L 336.773158 -97.203857 
L 336.619442 -97.289334 
L 336.460242 -97.374812 
L 336.301399 -97.46029 
L 336.149237 -97.545767 
L 336.009294 -97.631245 
L 335.885305 -97.716723 
L 335.778869 -97.8022 
L 335.68986 -97.887678 
L 335.617268 -97.973155 
L 335.559948 -98.058633 
L 335.51682 -98.144111 
L 335.486336 -98.229588 
L 335.465418 -98.315066 
L 335.448331 -98.400544 
L 335.426016 -98.486021 
L 335.386281 -98.571499 
L 335.314939 -98.656976 
L 335.197637 -98.742454 
L 335.021881 -98.827932 
L 334.778693 -98.913409 
L 334.463471 -98.998887 
L 334.075923 -99.084364 
L 333.619219 -99.169842 
L 333.098705 -99.25532 
L 332.520568 -99.340797 
L 331.890791 -99.426275 
L 331.214586 -99.511753 
L 330.496454 -99.59723 
L 329.740871 -99.682708 
L 328.953519 -99.768185 
L 328.142829 -99.853663 
L 327.321438 -99.939141 
L 326.507081 -100.024618 
L 325.722498 -100.110096 
L 324.994152 -100.195574 
L 324.349932 -100.281051 
L 323.816301 -100.366529 
L 323.415539 -100.452006 
L 323.163606 -100.537484 
L 323.068858 -100.622962 
L 323.131511 -100.708439 
L 323.343562 -100.793917 
L 323.688959 -100.879394 
L 324.14406 -100.964872 
L 324.67876 -101.05035 
L 325.258771 -101.135827 
L 325.84937 -101.221305 
L 326.420366 -101.306783 
L 326.951352 -101.39226 
L 327.435785 -101.477738 
L 327.882367 -101.563215 
L 328.312779 -101.648693 
L 328.755897 -101.734171 
L 329.239826 -101.819648 
L 329.783964 -101.905126 
L 330.393369 -101.990604 
L 331.05705 -102.076081 
L 331.750509 -102.161559 
L 332.441576 -102.247036 
L 333.097683 -102.332514 
L 333.692517 -102.417992 
L 334.210417 -102.503469 
L 334.647725 -102.588947 
L 335.01123 -102.674424 
L 335.314561 -102.759902 
L 335.573803 -102.84538 
L 335.803569 -102.930857 
L 336.014439 -103.016335 
L 336.212089 -103.101813 
L 336.397941 -103.18729 
L 336.570706 -103.272768 
L 336.728158 -103.358245 
L 336.868544 -103.443723 
L 336.991359 -103.529201 
L 337.097471 -103.614678 
L 337.188786 -103.700156 
L 337.267705 -103.785634 
L 337.336591 -103.871111 
L 337.397392 -103.956589 
L 337.451441 -104.042066 
L 337.499456 -104.127544 
L 337.541662 -104.213022 
L 337.578013 -104.298499 
L 337.608415 -104.383977 
L 337.632926 -104.469454 
L 337.651867 -104.554932 
L 337.665834 -104.64041 
L 337.67563 -104.725887 
L 337.70737 -104.725887 
L 337.70737 -104.725887 
L 337.717166 -104.64041 
L 337.731133 -104.554932 
L 337.750074 -104.469454 
L 337.774585 -104.383977 
L 337.804987 -104.298499 
L 337.841338 -104.213022 
L 337.883544 -104.127544 
L 337.931559 -104.042066 
L 337.985608 -103.956589 
L 338.046409 -103.871111 
L 338.115295 -103.785634 
L 338.194214 -103.700156 
L 338.285529 -103.614678 
L 338.391641 -103.529201 
L 338.514456 -103.443723 
L 338.654842 -103.358245 
L 338.812294 -103.272768 
L 338.985059 -103.18729 
L 339.170911 -103.101813 
L 339.368561 -103.016335 
L 339.579431 -102.930857 
L 339.809197 -102.84538 
L 340.068439 -102.759902 
L 340.37177 -102.674424 
L 340.735275 -102.588947 
L 341.172583 -102.503469 
L 341.690483 -102.417992 
L 342.285317 -102.332514 
L 342.941424 -102.247036 
L 343.632491 -102.161559 
L 344.32595 -102.076081 
L 344.989631 -101.990604 
L 345.599036 -101.905126 
L 346.143174 -101.819648 
L 346.627103 -101.734171 
L 347.070221 -101.648693 
L 347.500633 -101.563215 
L 347.947215 -101.477738 
L 348.431648 -101.39226 
L 348.962634 -101.306783 
L 349.53363 -101.221305 
L 350.124229 -101.135827 
L 350.70424 -101.05035 
L 351.23894 -100.964872 
L 351.694041 -100.879394 
L 352.039438 -100.793917 
L 352.251489 -100.708439 
L 352.314142 -100.622962 
L 352.219394 -100.537484 
L 351.967461 -100.452006 
L 351.566699 -100.366529 
L 351.033068 -100.281051 
L 350.388848 -100.195574 
L 349.660502 -100.110096 
L 348.875919 -100.024618 
L 348.061562 -99.939141 
L 347.240171 -99.853663 
L 346.429481 -99.768185 
L 345.642129 -99.682708 
L 344.886546 -99.59723 
L 344.168414 -99.511753 
L 343.492209 -99.426275 
L 342.862432 -99.340797 
L 342.284295 -99.25532 
L 341.763781 -99.169842 
L 341.307077 -99.084364 
L 340.919529 -98.998887 
L 340.604307 -98.913409 
L 340.361119 -98.827932 
L 340.185363 -98.742454 
L 340.068061 -98.656976 
L 339.996719 -98.571499 
L 339.956984 -98.486021 
L 339.934669 -98.400544 
L 339.917582 -98.315066 
L 339.896664 -98.229588 
L 339.86618 -98.144111 
L 339.823052 -98.058633 
L 339.765732 -97.973155 
L 339.69314 -97.887678 
L 339.604131 -97.8022 
L 339.497695 -97.716723 
L 339.373706 -97.631245 
L 339.233763 -97.545767 
L 339.081601 -97.46029 
L 338.922758 -97.374812 
L 338.763558 -97.289334 
L 338.609842 -97.203857 
L 338.465958 -97.118379 
L 338.334388 -97.032902 
L 338.216045 -96.947424 
L 338.110939 -96.861946 
L 338.018848 -96.776469 
L 337.939664 -96.690991 
L 337.873368 -96.605514 
L 337.81977 -96.520036 
L 337.778233 -96.434558 
L 337.747549 -96.349081 
L 337.726031 -96.263603 
z
" style="stroke: #3f3f3f; stroke-width: 1.25"/>
    </defs>
    <g clip-path="url(#p170f4eebc0)">
     <use xlink:href="#m32b1799621" x="0" y="162" style="fill: #3274a1; stroke: #3f3f3f; stroke-width: 1.25"/>
    </g>
   </g>
   <g id="FillBetweenPolyCollection_8">
    <defs>
     <path id="m6fb0bed657" d="M 382.181735 -95.909501 
L 382.063265 -95.909501 
L 382.032308 -95.994635 
L 381.989455 -96.079769 
L 381.932277 -96.164903 
L 381.858771 -96.250037 
L 381.767769 -96.335171 
L 381.659362 -96.420305 
L 381.535233 -96.505439 
L 381.398813 -96.590573 
L 381.255183 -96.675707 
L 381.11067 -96.760841 
L 380.972152 -96.845975 
L 380.846136 -96.931109 
L 380.737768 -97.016243 
L 380.649929 -97.101376 
L 380.582623 -97.18651 
L 380.532785 -97.271644 
L 380.494595 -97.356778 
L 380.460258 -97.441912 
L 380.421134 -97.527046 
L 380.369021 -97.61218 
L 380.297345 -97.697314 
L 380.202053 -97.782448 
L 380.082036 -97.867582 
L 379.939002 -97.952716 
L 379.776832 -98.03785 
L 379.600507 -98.122984 
L 379.414809 -98.208118 
L 379.223016 -98.293252 
L 379.025835 -98.378386 
L 378.82078 -98.46352 
L 378.602134 -98.548654 
L 378.361533 -98.633788 
L 378.089058 -98.718922 
L 377.774676 -98.804056 
L 377.409742 -98.88919 
L 376.988334 -98.974324 
L 376.508203 -99.059458 
L 375.971263 -99.144592 
L 375.383608 -99.229725 
L 374.755145 -99.314859 
L 374.098936 -99.399993 
L 373.430354 -99.485127 
L 372.766137 -99.570261 
L 372.12339 -99.655395 
L 371.518604 -99.740529 
L 370.966775 -99.825663 
L 370.480704 -99.910797 
L 370.070555 -99.995931 
L 369.743702 -100.081065 
L 369.504812 -100.166199 
L 369.356088 -100.251333 
L 369.297535 -100.336467 
L 369.327138 -100.421601 
L 369.440918 -100.506735 
L 369.632889 -100.591869 
L 369.895034 -100.677003 
L 370.217436 -100.762137 
L 370.588697 -100.847271 
L 370.996698 -100.932405 
L 371.429641 -101.017539 
L 371.877212 -101.102673 
L 372.331612 -101.187807 
L 372.788199 -101.27294 
L 373.245534 -101.358074 
L 373.70476 -101.443208 
L 374.168417 -101.528342 
L 374.638934 -101.613476 
L 375.11716 -101.69861 
L 375.601281 -101.783744 
L 376.086392 -101.868878 
L 376.564835 -101.954012 
L 377.027246 -102.039146 
L 377.464042 -102.12428 
L 377.867056 -102.209414 
L 378.230915 -102.294548 
L 378.553915 -102.379682 
L 378.838197 -102.464816 
L 379.089243 -102.54995 
L 379.314809 -102.635084 
L 379.523562 -102.720218 
L 379.723678 -102.805352 
L 379.921672 -102.890486 
L 380.121642 -102.97562 
L 380.324994 -103.060754 
L 380.530637 -103.145888 
L 380.735533 -103.231022 
L 380.935455 -103.316156 
L 381.125794 -103.401289 
L 381.302273 -103.486423 
L 381.461483 -103.571557 
L 381.601191 -103.656691 
L 381.720434 -103.741825 
L 381.819434 -103.826959 
L 381.899389 -103.912093 
L 381.962197 -103.997227 
L 382.010177 -104.082361 
L 382.045808 -104.167495 
L 382.071518 -104.252629 
L 382.089531 -104.337763 
L 382.155469 -104.337763 
L 382.155469 -104.337763 
L 382.173482 -104.252629 
L 382.199192 -104.167495 
L 382.234823 -104.082361 
L 382.282803 -103.997227 
L 382.345611 -103.912093 
L 382.425566 -103.826959 
L 382.524566 -103.741825 
L 382.643809 -103.656691 
L 382.783517 -103.571557 
L 382.942727 -103.486423 
L 383.119206 -103.401289 
L 383.309545 -103.316156 
L 383.509467 -103.231022 
L 383.714363 -103.145888 
L 383.920006 -103.060754 
L 384.123358 -102.97562 
L 384.323328 -102.890486 
L 384.521322 -102.805352 
L 384.721438 -102.720218 
L 384.930191 -102.635084 
L 385.155757 -102.54995 
L 385.406803 -102.464816 
L 385.691085 -102.379682 
L 386.014085 -102.294548 
L 386.377944 -102.209414 
L 386.780958 -102.12428 
L 387.217754 -102.039146 
L 387.680165 -101.954012 
L 388.158608 -101.868878 
L 388.643719 -101.783744 
L 389.12784 -101.69861 
L 389.606066 -101.613476 
L 390.076583 -101.528342 
L 390.54024 -101.443208 
L 390.999466 -101.358074 
L 391.456801 -101.27294 
L 391.913388 -101.187807 
L 392.367788 -101.102673 
L 392.815359 -101.017539 
L 393.248302 -100.932405 
L 393.656303 -100.847271 
L 394.027564 -100.762137 
L 394.349966 -100.677003 
L 394.612111 -100.591869 
L 394.804082 -100.506735 
L 394.917862 -100.421601 
L 394.947465 -100.336467 
L 394.888912 -100.251333 
L 394.740188 -100.166199 
L 394.501298 -100.081065 
L 394.174445 -99.995931 
L 393.764296 -99.910797 
L 393.278225 -99.825663 
L 392.726396 -99.740529 
L 392.12161 -99.655395 
L 391.478863 -99.570261 
L 390.814646 -99.485127 
L 390.146064 -99.399993 
L 389.489855 -99.314859 
L 388.861392 -99.229725 
L 388.273737 -99.144592 
L 387.736797 -99.059458 
L 387.256666 -98.974324 
L 386.835258 -98.88919 
L 386.470324 -98.804056 
L 386.155942 -98.718922 
L 385.883467 -98.633788 
L 385.642866 -98.548654 
L 385.42422 -98.46352 
L 385.219165 -98.378386 
L 385.021984 -98.293252 
L 384.830191 -98.208118 
L 384.644493 -98.122984 
L 384.468168 -98.03785 
L 384.305998 -97.952716 
L 384.162964 -97.867582 
L 384.042947 -97.782448 
L 383.947655 -97.697314 
L 383.875979 -97.61218 
L 383.823866 -97.527046 
L 383.784742 -97.441912 
L 383.750405 -97.356778 
L 383.712215 -97.271644 
L 383.662377 -97.18651 
L 383.595071 -97.101376 
L 383.507232 -97.016243 
L 383.398864 -96.931109 
L 383.272848 -96.845975 
L 383.13433 -96.760841 
L 382.989817 -96.675707 
L 382.846187 -96.590573 
L 382.709767 -96.505439 
L 382.585638 -96.420305 
L 382.477231 -96.335171 
L 382.386229 -96.250037 
L 382.312723 -96.164903 
L 382.255545 -96.079769 
L 382.212692 -95.994635 
L 382.181735 -95.909501 
z
" style="stroke: #3f3f3f; stroke-width: 1.25"/>
    </defs>
    <g clip-path="url(#p170f4eebc0)">
     <use xlink:href="#m6fb0bed657" x="0" y="162" style="fill: #3274a1; stroke: #3f3f3f; stroke-width: 1.25"/>
    </g>
   </g>
   <g id="FillBetweenPolyCollection_9">
    <defs>
     <path id="macd542e43d" d="M 426.592346 -96.221541 
L 426.514654 -96.221541 
L 426.489644 -96.293429 
L 426.4539 -96.365316 
L 426.405851 -96.437204 
L 426.345046 -96.509091 
L 426.272485 -96.580978 
L 426.19061 -96.652866 
L 426.102895 -96.724753 
L 426.013131 -96.79664 
L 425.924656 -96.868528 
L 425.839781 -96.940415 
L 425.759568 -97.012302 
L 425.68396 -97.08419 
L 425.612122 -97.156077 
L 425.542837 -97.227964 
L 425.474845 -97.299852 
L 425.407083 -97.371739 
L 425.33878 -97.443627 
L 425.269369 -97.515514 
L 425.198171 -97.587401 
L 425.123911 -97.659289 
L 425.044231 -97.731176 
L 424.955451 -97.803063 
L 424.852744 -97.874951 
L 424.730788 -97.946838 
L 424.584713 -98.018725 
L 424.411066 -98.090613 
L 424.208499 -98.1625 
L 423.977926 -98.234388 
L 423.722078 -98.306275 
L 423.444548 -98.378162 
L 423.148613 -98.45005 
L 422.836243 -98.521937 
L 422.507613 -98.593824 
L 422.1612 -98.665712 
L 421.794145 -98.737599 
L 421.402365 -98.809486 
L 420.980026 -98.881374 
L 420.518469 -98.953261 
L 420.005307 -99.025149 
L 419.424744 -99.097036 
L 418.759888 -99.168923 
L 417.99705 -99.240811 
L 417.130983 -99.312698 
L 416.169369 -99.384585 
L 415.134888 -99.456473 
L 414.063929 -99.52836 
L 413.002113 -99.600247 
L 411.997744 -99.672135 
L 411.094796 -99.744022 
L 410.327052 -99.815909 
L 409.71456 -99.887797 
L 409.263038 -99.959684 
L 408.96622 -100.031572 
L 408.810558 -100.103459 
L 408.7811 -100.175346 
L 408.866966 -100.247234 
L 409.064781 -100.319121 
L 409.378911 -100.391008 
L 409.818353 -100.462896 
L 410.391294 -100.534783 
L 411.099308 -100.60667 
L 411.93325 -100.678558 
L 412.87226 -100.750445 
L 413.886016 -100.822333 
L 414.939219 -100.89422 
L 415.996704 -100.966107 
L 417.027719 -101.037995 
L 418.008543 -101.109882 
L 418.923351 -101.181769 
L 419.763681 -101.253657 
L 420.527047 -101.325544 
L 421.215183 -101.397431 
L 421.832273 -101.469319 
L 422.383438 -101.541206 
L 422.873553 -101.613094 
L 423.306458 -101.684981 
L 423.684568 -101.756868 
L 424.008926 -101.828756 
L 424.279799 -101.900643 
L 424.497773 -101.97253 
L 424.665159 -102.044418 
L 424.787254 -102.116305 
L 424.87298 -102.188192 
L 424.93454 -102.26008 
L 424.986074 -102.331967 
L 425.041626 -102.403854 
L 425.112957 -102.475742 
L 425.207712 -102.547629 
L 425.328363 -102.619517 
L 425.472119 -102.691404 
L 425.631792 -102.763291 
L 425.797419 -102.835179 
L 425.958288 -102.907066 
L 426.104911 -102.978953 
L 426.23051 -103.050841 
L 426.331727 -103.122728 
L 426.408512 -103.194615 
L 426.463367 -103.266503 
L 426.500279 -103.33839 
L 426.606721 -103.33839 
L 426.606721 -103.33839 
L 426.643633 -103.266503 
L 426.698488 -103.194615 
L 426.775273 -103.122728 
L 426.87649 -103.050841 
L 427.002089 -102.978953 
L 427.148712 -102.907066 
L 427.309581 -102.835179 
L 427.475208 -102.763291 
L 427.634881 -102.691404 
L 427.778637 -102.619517 
L 427.899288 -102.547629 
L 427.994043 -102.475742 
L 428.065374 -102.403854 
L 428.120926 -102.331967 
L 428.17246 -102.26008 
L 428.23402 -102.188192 
L 428.319746 -102.116305 
L 428.441841 -102.044418 
L 428.609227 -101.97253 
L 428.827201 -101.900643 
L 429.098074 -101.828756 
L 429.422432 -101.756868 
L 429.800542 -101.684981 
L 430.233447 -101.613094 
L 430.723562 -101.541206 
L 431.274727 -101.469319 
L 431.891817 -101.397431 
L 432.579953 -101.325544 
L 433.343319 -101.253657 
L 434.183649 -101.181769 
L 435.098457 -101.109882 
L 436.079281 -101.037995 
L 437.110296 -100.966107 
L 438.167781 -100.89422 
L 439.220984 -100.822333 
L 440.23474 -100.750445 
L 441.17375 -100.678558 
L 442.007692 -100.60667 
L 442.715706 -100.534783 
L 443.288647 -100.462896 
L 443.728089 -100.391008 
L 444.042219 -100.319121 
L 444.240034 -100.247234 
L 444.3259 -100.175346 
L 444.296442 -100.103459 
L 444.14078 -100.031572 
L 443.843962 -99.959684 
L 443.39244 -99.887797 
L 442.779948 -99.815909 
L 442.012204 -99.744022 
L 441.109256 -99.672135 
L 440.104887 -99.600247 
L 439.043071 -99.52836 
L 437.972112 -99.456473 
L 436.937631 -99.384585 
L 435.976017 -99.312698 
L 435.10995 -99.240811 
L 434.347112 -99.168923 
L 433.682256 -99.097036 
L 433.101693 -99.025149 
L 432.588531 -98.953261 
L 432.126974 -98.881374 
L 431.704635 -98.809486 
L 431.312855 -98.737599 
L 430.9458 -98.665712 
L 430.599387 -98.593824 
L 430.270757 -98.521937 
L 429.958387 -98.45005 
L 429.662452 -98.378162 
L 429.384922 -98.306275 
L 429.129074 -98.234388 
L 428.898501 -98.1625 
L 428.695934 -98.090613 
L 428.522287 -98.018725 
L 428.376212 -97.946838 
L 428.254256 -97.874951 
L 428.151549 -97.803063 
L 428.062769 -97.731176 
L 427.983089 -97.659289 
L 427.908829 -97.587401 
L 427.837631 -97.515514 
L 427.76822 -97.443627 
L 427.699917 -97.371739 
L 427.632155 -97.299852 
L 427.564163 -97.227964 
L 427.494878 -97.156077 
L 427.42304 -97.08419 
L 427.347432 -97.012302 
L 427.267219 -96.940415 
L 427.182344 -96.868528 
L 427.093869 -96.79664 
L 427.004105 -96.724753 
L 426.91639 -96.652866 
L 426.834515 -96.580978 
L 426.761954 -96.509091 
L 426.701149 -96.437204 
L 426.6531 -96.365316 
L 426.617356 -96.293429 
L 426.592346 -96.221541 
z
" style="stroke: #3f3f3f; stroke-width: 1.25"/>
    </defs>
    <g clip-path="url(#p170f4eebc0)">
     <use xlink:href="#macd542e43d" x="0" y="162" style="fill: #3274a1; stroke: #3f3f3f; stroke-width: 1.25"/>
    </g>
   </g>
   <g id="FillBetweenPolyCollection_10">
    <defs>
     <path id="m9dc21e4825" d="M 471.001375 -72.051068 
L 470.967625 -72.051068 
L 470.957144 -72.50693 
L 470.942111 -72.962791 
L 470.921676 -73.418652 
L 470.895378 -73.874514 
L 470.86338 -74.330375 
L 470.826638 -74.786237 
L 470.786925 -75.242098 
L 470.74666 -75.69796 
L 470.708554 -76.153821 
L 470.675108 -76.609683 
L 470.648096 -77.065544 
L 470.628147 -77.521406 
L 470.61456 -77.977267 
L 470.605398 -78.433128 
L 470.597887 -78.88899 
L 470.589005 -79.344851 
L 470.576144 -79.800713 
L 470.557658 -80.256574 
L 470.533146 -80.712436 
L 470.50339 -81.168297 
L 470.469981 -81.624159 
L 470.434757 -82.08002 
L 470.39923 -82.535881 
L 470.3642 -82.991743 
L 470.329646 -83.447604 
L 470.294892 -83.903466 
L 470.258926 -84.359327 
L 470.220729 -84.815189 
L 470.17946 -85.27105 
L 470.13445 -85.726912 
L 470.085017 -86.182773 
L 470.03023 -86.638634 
L 469.968733 -87.094496 
L 469.89874 -87.550357 
L 469.818244 -88.006219 
L 469.725412 -88.46208 
L 469.619071 -88.917942 
L 469.499203 -89.373803 
L 469.367315 -89.829665 
L 469.226642 -90.285526 
L 469.082109 -90.741387 
L 468.940042 -91.197249 
L 468.807637 -91.65311 
L 468.692239 -92.108972 
L 468.600523 -92.564833 
L 468.537706 -93.020695 
L 468.506947 -93.476556 
L 468.509034 -93.932418 
L 468.542427 -94.388279 
L 468.60362 -94.84414 
L 468.68772 -95.300002 
L 468.7891 -95.755863 
L 468.902008 -96.211725 
L 469.021039 -96.667586 
L 469.141441 -97.123448 
L 469.25926 -97.579309 
L 469.371379 -98.035171 
L 469.475494 -98.491032 
L 469.570069 -98.946894 
L 469.654307 -99.402755 
L 469.728136 -99.858616 
L 469.792192 -100.314478 
L 469.84774 -100.770339 
L 469.896529 -101.226201 
L 469.940535 -101.682062 
L 469.981665 -102.137924 
L 470.021479 -102.593785 
L 470.061014 -103.049647 
L 470.100748 -103.505508 
L 470.140701 -103.961369 
L 470.180601 -104.417231 
L 470.220055 -104.873092 
L 470.258659 -105.328954 
L 470.296051 -105.784815 
L 470.33194 -106.240677 
L 470.366139 -106.696538 
L 470.398631 -107.1524 
L 470.429635 -107.608261 
L 470.459642 -108.064122 
L 470.489368 -108.519984 
L 470.519635 -108.975845 
L 470.551196 -109.431707 
L 470.584563 -109.887568 
L 470.619894 -110.34343 
L 470.656952 -110.799291 
L 470.695146 -111.255153 
L 470.733634 -111.711014 
L 470.771433 -112.166875 
L 470.807546 -112.622737 
L 470.841061 -113.078598 
L 470.871232 -113.53446 
L 470.897536 -113.990321 
L 470.919708 -114.446183 
L 470.937746 -114.902044 
L 470.951883 -115.357906 
L 470.962539 -115.813767 
L 470.970252 -116.269629 
L 470.975606 -116.72549 
L 470.979165 -117.181351 
L 470.989835 -117.181351 
L 470.989835 -117.181351 
L 470.993394 -116.72549 
L 470.998748 -116.269629 
L 471.006461 -115.813767 
L 471.017117 -115.357906 
L 471.031254 -114.902044 
L 471.049292 -114.446183 
L 471.071464 -113.990321 
L 471.097768 -113.53446 
L 471.127939 -113.078598 
L 471.161454 -112.622737 
L 471.197567 -112.166875 
L 471.235366 -111.711014 
L 471.273854 -111.255153 
L 471.312048 -110.799291 
L 471.349106 -110.34343 
L 471.384437 -109.887568 
L 471.417804 -109.431707 
L 471.449365 -108.975845 
L 471.479632 -108.519984 
L 471.509358 -108.064122 
L 471.539365 -107.608261 
L 471.570369 -107.1524 
L 471.602861 -106.696538 
L 471.63706 -106.240677 
L 471.672949 -105.784815 
L 471.710341 -105.328954 
L 471.748945 -104.873092 
L 471.788399 -104.417231 
L 471.828299 -103.961369 
L 471.868252 -103.505508 
L 471.907986 -103.049647 
L 471.947521 -102.593785 
L 471.987335 -102.137924 
L 472.028465 -101.682062 
L 472.072471 -101.226201 
L 472.12126 -100.770339 
L 472.176808 -100.314478 
L 472.240864 -99.858616 
L 472.314693 -99.402755 
L 472.398931 -98.946894 
L 472.493506 -98.491032 
L 472.597621 -98.035171 
L 472.70974 -97.579309 
L 472.827559 -97.123448 
L 472.947961 -96.667586 
L 473.066992 -96.211725 
L 473.1799 -95.755863 
L 473.28128 -95.300002 
L 473.36538 -94.84414 
L 473.426573 -94.388279 
L 473.459966 -93.932418 
L 473.462053 -93.476556 
L 473.431294 -93.020695 
L 473.368477 -92.564833 
L 473.276761 -92.108972 
L 473.161363 -91.65311 
L 473.028958 -91.197249 
L 472.886891 -90.741387 
L 472.742358 -90.285526 
L 472.601685 -89.829665 
L 472.469797 -89.373803 
L 472.349929 -88.917942 
L 472.243588 -88.46208 
L 472.150756 -88.006219 
L 472.07026 -87.550357 
L 472.000267 -87.094496 
L 471.93877 -86.638634 
L 471.883983 -86.182773 
L 471.83455 -85.726912 
L 471.78954 -85.27105 
L 471.748271 -84.815189 
L 471.710074 -84.359327 
L 471.674108 -83.903466 
L 471.639354 -83.447604 
L 471.6048 -82.991743 
L 471.56977 -82.535881 
L 471.534243 -82.08002 
L 471.499019 -81.624159 
L 471.46561 -81.168297 
L 471.435854 -80.712436 
L 471.411342 -80.256574 
L 471.392856 -79.800713 
L 471.379995 -79.344851 
L 471.371113 -78.88899 
L 471.363602 -78.433128 
L 471.35444 -77.977267 
L 471.340853 -77.521406 
L 471.320904 -77.065544 
L 471.293892 -76.609683 
L 471.260446 -76.153821 
L 471.22234 -75.69796 
L 471.182075 -75.242098 
L 471.142362 -74.786237 
L 471.10562 -74.330375 
L 471.073622 -73.874514 
L 471.047324 -73.418652 
L 471.026889 -72.962791 
L 471.011856 -72.50693 
L 471.001375 -72.051068 
z
" style="stroke: #3f3f3f; stroke-width: 1.25"/>
    </defs>
    <g clip-path="url(#p170f4eebc0)">
     <use xlink:href="#m9dc21e4825" x="0" y="162" style="fill: #3274a1; stroke: #3f3f3f; stroke-width: 1.25"/>
    </g>
   </g>
   <g id="line2d_4">
    <path d="M 71.1055 57.113749 
L 71.1055 32.023923 
" clip-path="url(#p170f4eebc0)" style="fill: none; stroke: #3f3f3f; stroke-width: 1.875; stroke-linecap: round"/>
   </g>
   <g id="line2d_5">
    <path d="M 71.1055 46.779549 
L 71.1055 39.416806 
" clip-path="url(#p170f4eebc0)" style="fill: none; stroke: #3f3f3f; stroke-width: 5.625; stroke-linecap: round"/>
   </g>
   <g id="line2d_6">
    <path d="M 71.1055 42.433647 
" clip-path="url(#p170f4eebc0)" style="fill: none; stroke: #3f3f3f; stroke-width: 1.5; stroke-linecap: round"/>
    <defs>
     <path id="m1c15d3d0dd" d="M 2.34375 0 
L -2.34375 -0 
" style="stroke: #ffffff; stroke-width: 1.125"/>
    </defs>
    <g clip-path="url(#p170f4eebc0)">
     <use xlink:href="#m1c15d3d0dd" x="71.1055" y="42.433647" style="fill: #ffffff; stroke: #ffffff; stroke-width: 1.125"/>
    </g>
   </g>
   <g id="line2d_7">
    <path d="M 115.5365 57.033084 
L 115.5365 34.925822 
" clip-path="url(#p170f4eebc0)" style="fill: none; stroke: #3f3f3f; stroke-width: 1.875; stroke-linecap: round"/>
   </g>
   <g id="line2d_8">
    <path d="M 115.5365 48.85317 
L 115.5365 42.789812 
" clip-path="url(#p170f4eebc0)" style="fill: none; stroke: #3f3f3f; stroke-width: 5.625; stroke-linecap: round"/>
   </g>
   <g id="line2d_9">
    <path d="M 115.5365 45.326654 
" clip-path="url(#p170f4eebc0)" style="fill: none; stroke: #3f3f3f; stroke-width: 1.5; stroke-linecap: round"/>
    <g clip-path="url(#p170f4eebc0)">
     <use xlink:href="#m1c15d3d0dd" x="115.5365" y="45.326654" style="fill: #ffffff; stroke: #ffffff; stroke-width: 1.125"/>
    </g>
   </g>
   <g id="line2d_10">
    <path d="M 159.9675 57.755981 
L 159.9675 40.969812 
" clip-path="url(#p170f4eebc0)" style="fill: none; stroke: #3f3f3f; stroke-width: 1.875; stroke-linecap: round"/>
   </g>
   <g id="line2d_11">
    <path d="M 159.9675 51.772104 
L 159.9675 47.41932 
" clip-path="url(#p170f4eebc0)" style="fill: none; stroke: #3f3f3f; stroke-width: 5.625; stroke-linecap: round"/>
   </g>
   <g id="line2d_12">
    <path d="M 159.9675 49.028121 
" clip-path="url(#p170f4eebc0)" style="fill: none; stroke: #3f3f3f; stroke-width: 1.5; stroke-linecap: round"/>
    <g clip-path="url(#p170f4eebc0)">
     <use xlink:href="#m1c15d3d0dd" x="159.9675" y="49.028121" style="fill: #ffffff; stroke: #ffffff; stroke-width: 1.125"/>
    </g>
   </g>
   <g id="line2d_13">
    <path d="M 204.3985 59.7252 
L 204.3985 39.396962 
" clip-path="url(#p170f4eebc0)" style="fill: none; stroke: #3f3f3f; stroke-width: 1.875; stroke-linecap: round"/>
   </g>
   <g id="line2d_14">
    <path d="M 204.3985 52.117896 
L 204.3985 46.426592 
" clip-path="url(#p170f4eebc0)" style="fill: none; stroke: #3f3f3f; stroke-width: 5.625; stroke-linecap: round"/>
   </g>
   <g id="line2d_15">
    <path d="M 204.3985 49.072526 
" clip-path="url(#p170f4eebc0)" style="fill: none; stroke: #3f3f3f; stroke-width: 1.5; stroke-linecap: round"/>
    <g clip-path="url(#p170f4eebc0)">
     <use xlink:href="#m1c15d3d0dd" x="204.3985" y="49.072526" style="fill: #ffffff; stroke: #ffffff; stroke-width: 1.125"/>
    </g>
   </g>
   <g id="line2d_16">
    <path d="M 248.8295 61.575354 
L 248.8295 41.351233 
" clip-path="url(#p170f4eebc0)" style="fill: none; stroke: #3f3f3f; stroke-width: 1.875; stroke-linecap: round"/>
   </g>
   <g id="line2d_17">
    <path d="M 248.8295 54.069204 
L 248.8295 48.861636 
" clip-path="url(#p170f4eebc0)" style="fill: none; stroke: #3f3f3f; stroke-width: 5.625; stroke-linecap: round"/>
   </g>
   <g id="line2d_18">
    <path d="M 248.8295 50.747097 
" clip-path="url(#p170f4eebc0)" style="fill: none; stroke: #3f3f3f; stroke-width: 1.5; stroke-linecap: round"/>
    <g clip-path="url(#p170f4eebc0)">
     <use xlink:href="#m1c15d3d0dd" x="248.8295" y="50.747097" style="fill: #ffffff; stroke: #ffffff; stroke-width: 1.125"/>
    </g>
   </g>
   <g id="line2d_19">
    <path d="M 293.2605 60.32362 
L 293.2605 43.618116 
" clip-path="url(#p170f4eebc0)" style="fill: none; stroke: #3f3f3f; stroke-width: 1.875; stroke-linecap: round"/>
   </g>
   <g id="line2d_20">
    <path d="M 293.2605 53.712845 
L 293.2605 49.299884 
" clip-path="url(#p170f4eebc0)" style="fill: none; stroke: #3f3f3f; stroke-width: 5.625; stroke-linecap: round"/>
   </g>
   <g id="line2d_21">
    <path d="M 293.2605 51.549629 
" clip-path="url(#p170f4eebc0)" style="fill: none; stroke: #3f3f3f; stroke-width: 1.5; stroke-linecap: round"/>
    <g clip-path="url(#p170f4eebc0)">
     <use xlink:href="#m1c15d3d0dd" x="293.2605" y="51.549629" style="fill: #ffffff; stroke: #ffffff; stroke-width: 1.125"/>
    </g>
   </g>
   <g id="line2d_22">
    <path d="M 337.6915 64.11619 
L 337.6915 58.698969 
" clip-path="url(#p170f4eebc0)" style="fill: none; stroke: #3f3f3f; stroke-width: 1.875; stroke-linecap: round"/>
   </g>
   <g id="line2d_23">
    <path d="M 337.6915 62.009608 
L 337.6915 60.574379 
" clip-path="url(#p170f4eebc0)" style="fill: none; stroke: #3f3f3f; stroke-width: 5.625; stroke-linecap: round"/>
   </g>
   <g id="line2d_24">
    <path d="M 337.6915 61.313513 
" clip-path="url(#p170f4eebc0)" style="fill: none; stroke: #3f3f3f; stroke-width: 1.5; stroke-linecap: round"/>
    <g clip-path="url(#p170f4eebc0)">
     <use xlink:href="#m1c15d3d0dd" x="337.6915" y="61.313513" style="fill: #ffffff; stroke: #ffffff; stroke-width: 1.125"/>
    </g>
   </g>
   <g id="line2d_25">
    <path d="M 382.1225 64.495293 
L 382.1225 58.547174 
" clip-path="url(#p170f4eebc0)" style="fill: none; stroke: #3f3f3f; stroke-width: 1.875; stroke-linecap: round"/>
   </g>
   <g id="line2d_26">
    <path d="M 382.1225 62.35263 
L 382.1225 60.817922 
" clip-path="url(#p170f4eebc0)" style="fill: none; stroke: #3f3f3f; stroke-width: 5.625; stroke-linecap: round"/>
   </g>
   <g id="line2d_27">
    <path d="M 382.1225 61.605636 
" clip-path="url(#p170f4eebc0)" style="fill: none; stroke: #3f3f3f; stroke-width: 1.5; stroke-linecap: round"/>
    <g clip-path="url(#p170f4eebc0)">
     <use xlink:href="#m1c15d3d0dd" x="382.1225" y="61.605636" style="fill: #ffffff; stroke: #ffffff; stroke-width: 1.125"/>
    </g>
   </g>
   <g id="line2d_28">
    <path d="M 426.5535 64.033721 
L 426.5535 59.763085 
" clip-path="url(#p170f4eebc0)" style="fill: none; stroke: #3f3f3f; stroke-width: 1.875; stroke-linecap: round"/>
   </g>
   <g id="line2d_29">
    <path d="M 426.5535 62.42943 
L 426.5535 61.347016 
" clip-path="url(#p170f4eebc0)" style="fill: none; stroke: #3f3f3f; stroke-width: 5.625; stroke-linecap: round"/>
   </g>
   <g id="line2d_30">
    <path d="M 426.5535 61.868636 
" clip-path="url(#p170f4eebc0)" style="fill: none; stroke: #3f3f3f; stroke-width: 1.5; stroke-linecap: round"/>
    <g clip-path="url(#p170f4eebc0)">
     <use xlink:href="#m1c15d3d0dd" x="426.5535" y="61.868636" style="fill: #ffffff; stroke: #ffffff; stroke-width: 1.125"/>
    </g>
   </g>
   <g id="line2d_31">
    <path d="M 470.9845 85.288196 
L 470.9845 50.448145 
" clip-path="url(#p170f4eebc0)" style="fill: none; stroke: #3f3f3f; stroke-width: 1.875; stroke-linecap: round"/>
   </g>
   <g id="line2d_32">
    <path d="M 470.9845 71.99049 
L 470.9845 63.049111 
" clip-path="url(#p170f4eebc0)" style="fill: none; stroke: #3f3f3f; stroke-width: 5.625; stroke-linecap: round"/>
   </g>
   <g id="line2d_33">
    <path d="M 470.9845 68.016229 
" clip-path="url(#p170f4eebc0)" style="fill: none; stroke: #3f3f3f; stroke-width: 1.5; stroke-linecap: round"/>
    <g clip-path="url(#p170f4eebc0)">
     <use xlink:href="#m1c15d3d0dd" x="470.9845" y="68.016229" style="fill: #ffffff; stroke: #ffffff; stroke-width: 1.125"/>
    </g>
   </g>
   <g id="line2d_34">
    <path d="M 48.89 62.432522 
L 493.2 62.432522 
" clip-path="url(#p170f4eebc0)" style="fill: none; stroke-dasharray: 3.7,1.6; stroke-dashoffset: 0; stroke: #808080"/>
   </g>
   <g id="patch_3">
    <path d="M 48.89 93.018107 
L 48.89 25.49625 
" style="fill: none; stroke: #cccccc; stroke-width: 0.8; stroke-linejoin: miter; stroke-linecap: square"/>
   </g>
   <g id="patch_4">
    <path d="M 493.2 93.018107 
L 493.2 25.49625 
" style="fill: none; stroke: #cccccc; stroke-width: 0.8; stroke-linejoin: miter; stroke-linecap: square"/>
   </g>
   <g id="patch_5">
    <path d="M 48.89 93.018107 
L 493.2 93.018107 
" style="fill: none; stroke: #cccccc; stroke-width: 0.8; stroke-linejoin: miter; stroke-linecap: square"/>
   </g>
   <g id="patch_6">
    <path d="M 48.89 25.49625 
L 493.2 25.49625 
" style="fill: none; stroke: #cccccc; stroke-width: 0.8; stroke-linejoin: miter; stroke-linecap: square"/>
   </g>
   <g id="text_16">
    <!-- Violin plot of ΔRT ordered by median retention time shift -->
    <g style="fill: #262626" transform="translate(122.95375 19.49625) scale(0.12 -0.12)">
     <defs>
      <path id="ArialMT-56" d="M 1803 0 
L 28 4581 
L 684 4581 
L 1875 1253 
Q 2019 853 2116 503 
Q 2222 878 2363 1253 
L 3600 4581 
L 4219 4581 
L 2425 0 
L 1803 0 
z
" transform="scale(0.015625)"/>
      <path id="ArialMT-62" d="M 941 0 
L 419 0 
L 419 4581 
L 981 4581 
L 981 2947 
Q 1338 3394 1891 3394 
Q 2197 3394 2470 3270 
Q 2744 3147 2920 2923 
Q 3097 2700 3197 2384 
Q 3297 2069 3297 1709 
Q 3297 856 2875 390 
Q 2453 -75 1863 -75 
Q 1275 -75 941 416 
L 941 0 
z
M 934 1684 
Q 934 1088 1097 822 
Q 1363 388 1816 388 
Q 2184 388 2453 708 
Q 2722 1028 2722 1663 
Q 2722 2313 2464 2622 
Q 2206 2931 1841 2931 
Q 1472 2931 1203 2611 
Q 934 2291 934 1684 
z
" transform="scale(0.015625)"/>
      <path id="ArialMT-73" d="M 197 991 
L 753 1078 
Q 800 744 1014 566 
Q 1228 388 1613 388 
Q 2000 388 2187 545 
Q 2375 703 2375 916 
Q 2375 1106 2209 1216 
Q 2094 1291 1634 1406 
Q 1016 1563 777 1677 
Q 538 1791 414 1992 
Q 291 2194 291 2438 
Q 291 2659 392 2848 
Q 494 3038 669 3163 
Q 800 3259 1026 3326 
Q 1253 3394 1513 3394 
Q 1903 3394 2198 3281 
Q 2494 3169 2634 2976 
Q 2775 2784 2828 2463 
L 2278 2388 
Q 2241 2644 2061 2787 
Q 1881 2931 1553 2931 
Q 1166 2931 1000 2803 
Q 834 2675 834 2503 
Q 834 2394 903 2306 
Q 972 2216 1119 2156 
Q 1203 2125 1616 2013 
Q 2213 1853 2448 1751 
Q 2684 1650 2818 1456 
Q 2953 1263 2953 975 
Q 2953 694 2789 445 
Q 2625 197 2315 61 
Q 2006 -75 1616 -75 
Q 969 -75 630 194 
Q 291 463 197 991 
z
" transform="scale(0.015625)"/>
     </defs>
     <use xlink:href="#ArialMT-56"/>
     <use xlink:href="#ArialMT-69" transform="translate(64.949219 0)"/>
     <use xlink:href="#ArialMT-6f" transform="translate(87.166016 0)"/>
     <use xlink:href="#ArialMT-6c" transform="translate(142.78125 0)"/>
     <use xlink:href="#ArialMT-69" transform="translate(164.998047 0)"/>
     <use xlink:href="#ArialMT-6e" transform="translate(187.214844 0)"/>
     <use xlink:href="#ArialMT-20" transform="translate(242.830078 0)"/>
     <use xlink:href="#ArialMT-70" transform="translate(270.613281 0)"/>
     <use xlink:href="#ArialMT-6c" transform="translate(326.228516 0)"/>
     <use xlink:href="#ArialMT-6f" transform="translate(348.445312 0)"/>
     <use xlink:href="#ArialMT-74" transform="translate(404.060547 0)"/>
     <use xlink:href="#ArialMT-20" transform="translate(431.84375 0)"/>
     <use xlink:href="#ArialMT-6f" transform="translate(459.626953 0)"/>
     <use xlink:href="#ArialMT-66" transform="translate(515.242188 0)"/>
     <use xlink:href="#ArialMT-20" transform="translate(543.025391 0)"/>
     <use xlink:href="#ArialMT-394" transform="translate(565.308594 0)"/>
     <use xlink:href="#ArialMT-52" transform="translate(632.105469 0)"/>
     <use xlink:href="#ArialMT-54" transform="translate(702.572266 0)"/>
     <use xlink:href="#ArialMT-20" transform="translate(761.90625 0)"/>
     <use xlink:href="#ArialMT-6f" transform="translate(789.689453 0)"/>
     <use xlink:href="#ArialMT-72" transform="translate(845.304688 0)"/>
     <use xlink:href="#ArialMT-64" transform="translate(878.605469 0)"/>
     <use xlink:href="#ArialMT-65" transform="translate(934.220703 0)"/>
     <use xlink:href="#ArialMT-72" transform="translate(989.835938 0)"/>
     <use xlink:href="#ArialMT-65" transform="translate(1023.136719 0)"/>
     <use xlink:href="#ArialMT-64" transform="translate(1078.751953 0)"/>
     <use xlink:href="#ArialMT-20" transform="translate(1134.367188 0)"/>
     <use xlink:href="#ArialMT-62" transform="translate(1162.150391 0)"/>
     <use xlink:href="#ArialMT-79" transform="translate(1217.765625 0)"/>
     <use xlink:href="#ArialMT-20" transform="translate(1267.765625 0)"/>
     <use xlink:href="#ArialMT-6d" transform="translate(1295.548828 0)"/>
     <use xlink:href="#ArialMT-65" transform="translate(1378.849609 0)"/>
     <use xlink:href="#ArialMT-64" transform="translate(1434.464844 0)"/>
     <use xlink:href="#ArialMT-69" transform="translate(1490.080078 0)"/>
     <use xlink:href="#ArialMT-61" transform="translate(1512.296875 0)"/>
     <use xlink:href="#ArialMT-6e" transform="translate(1567.912109 0)"/>
     <use xlink:href="#ArialMT-20" transform="translate(1623.527344 0)"/>
     <use xlink:href="#ArialMT-72" transform="translate(1651.310547 0)"/>
     <use xlink:href="#ArialMT-65" transform="translate(1684.611328 0)"/>
     <use xlink:href="#ArialMT-74" transform="translate(1740.226562 0)"/>
     <use xlink:href="#ArialMT-65" transform="translate(1768.009766 0)"/>
     <use xlink:href="#ArialMT-6e" transform="translate(1823.625 0)"/>
     <use xlink:href="#ArialMT-74" transform="translate(1879.240234 0)"/>
     <use xlink:href="#ArialMT-69" transform="translate(1907.023438 0)"/>
     <use xlink:href="#ArialMT-6f" transform="translate(1929.240234 0)"/>
     <use xlink:href="#ArialMT-6e" transform="translate(1984.855469 0)"/>
     <use xlink:href="#ArialMT-20" transform="translate(2040.470703 0)"/>
     <use xlink:href="#ArialMT-74" transform="translate(2068.253906 0)"/>
     <use xlink:href="#ArialMT-69" transform="translate(2096.037109 0)"/>
     <use xlink:href="#ArialMT-6d" transform="translate(2118.253906 0)"/>
     <use xlink:href="#ArialMT-65" transform="translate(2201.554688 0)"/>
     <use xlink:href="#ArialMT-20" transform="translate(2257.169922 0)"/>
     <use xlink:href="#ArialMT-73" transform="translate(2284.953125 0)"/>
     <use xlink:href="#ArialMT-68" transform="translate(2334.953125 0)"/>
     <use xlink:href="#ArialMT-69" transform="translate(2390.568359 0)"/>
     <use xlink:href="#ArialMT-66" transform="translate(2412.785156 0)"/>
     <use xlink:href="#ArialMT-74" transform="translate(2440.568359 0)"/>
    </g>
   </g>
  </g>
 </g>
 <defs>
  <clipPath id="p170f4eebc0">
   <rect x="48.89" y="25.49625" width="444.31" height="67.521857"/>
  </clipPath>
 </defs>
</svg>
